%TF.GenerationSoftware,KiCad,Pcbnew,(6.0.0-0)*%
%TF.CreationDate,2022-08-30T01:19:14-06:00*%
%TF.ProjectId,FlippyDriver,466c6970-7079-4447-9269-7665722e6b69,D*%
%TF.SameCoordinates,Original*%
%TF.FileFunction,Legend,Bot*%
%TF.FilePolarity,Positive*%
%FSLAX46Y46*%
G04 Gerber Fmt 4.6, Leading zero omitted, Abs format (unit mm)*
G04 Created by KiCad (PCBNEW (6.0.0-0)) date 2022-08-30 01:19:14*
%MOMM*%
%LPD*%
G01*
G04 APERTURE LIST*
G04 Aperture macros list*
%AMRoundRect*
0 Rectangle with rounded corners*
0 $1 Rounding radius*
0 $2 $3 $4 $5 $6 $7 $8 $9 X,Y pos of 4 corners*
0 Add a 4 corners polygon primitive as box body*
4,1,4,$2,$3,$4,$5,$6,$7,$8,$9,$2,$3,0*
0 Add four circle primitives for the rounded corners*
1,1,$1+$1,$2,$3*
1,1,$1+$1,$4,$5*
1,1,$1+$1,$6,$7*
1,1,$1+$1,$8,$9*
0 Add four rect primitives between the rounded corners*
20,1,$1+$1,$2,$3,$4,$5,0*
20,1,$1+$1,$4,$5,$6,$7,0*
20,1,$1+$1,$6,$7,$8,$9,0*
20,1,$1+$1,$8,$9,$2,$3,0*%
G04 Aperture macros list end*
%ADD10C,0.150000*%
%ADD11C,0.099200*%
%ADD12C,0.250000*%
%ADD13C,0.300000*%
%ADD14C,0.120000*%
%ADD15C,0.500000*%
%ADD16C,0.010000*%
%ADD17C,7.100000*%
%ADD18C,4.000000*%
%ADD19C,9.100000*%
%ADD20C,5.000000*%
%ADD21RoundRect,0.050000X1.750000X-1.750000X1.750000X1.750000X-1.750000X1.750000X-1.750000X-1.750000X0*%
%ADD22RoundRect,0.800000X1.000000X-0.750000X1.000000X0.750000X-1.000000X0.750000X-1.000000X-0.750000X0*%
%ADD23RoundRect,0.925000X0.875000X-0.875000X0.875000X0.875000X-0.875000X0.875000X-0.875000X-0.875000X0*%
%ADD24C,2.900000*%
%ADD25RoundRect,0.050000X0.850000X-0.850000X0.850000X0.850000X-0.850000X0.850000X-0.850000X-0.850000X0*%
%ADD26O,1.800000X1.800000*%
%ADD27C,1.152000*%
%ADD28RoundRect,0.050000X-0.750000X-1.150000X0.750000X-1.150000X0.750000X1.150000X-0.750000X1.150000X0*%
%ADD29O,1.600000X2.400000*%
%ADD30RoundRect,0.050000X-1.300000X-1.300000X1.300000X-1.300000X1.300000X1.300000X-1.300000X1.300000X0*%
%ADD31C,2.700000*%
%ADD32RoundRect,0.300000X-0.600000X-0.600000X0.600000X-0.600000X0.600000X0.600000X-0.600000X0.600000X0*%
%ADD33C,1.800000*%
%ADD34C,1.600000*%
%ADD35C,0.700000*%
%ADD36C,0.900000*%
%ADD37C,1.300000*%
%ADD38C,1.700000*%
G04 APERTURE END LIST*
D10*
X224500000Y-87400000D02*
X225300000Y-88600000D01*
X225300000Y-88600000D02*
X226000000Y-87400000D01*
X56900000Y-88500000D02*
X57600000Y-87200000D01*
X57600000Y-87200000D02*
X56100000Y-87200000D01*
X56100000Y-87200000D02*
X56900000Y-88500000D01*
X226000000Y-87400000D02*
X224500000Y-87400000D01*
X181407261Y-119437380D02*
X181073928Y-120437380D01*
X180740595Y-119437380D01*
X179978690Y-120437380D02*
X179978690Y-119437380D01*
X179978690Y-120389761D02*
X180073928Y-120437380D01*
X180264404Y-120437380D01*
X180359642Y-120389761D01*
X180407261Y-120342142D01*
X180454880Y-120246904D01*
X180454880Y-119961190D01*
X180407261Y-119865952D01*
X180359642Y-119818333D01*
X180264404Y-119770714D01*
X180073928Y-119770714D01*
X179978690Y-119818333D01*
X179502500Y-120437380D02*
X179502500Y-119770714D01*
X179502500Y-119961190D02*
X179454880Y-119865952D01*
X179407261Y-119818333D01*
X179312023Y-119770714D01*
X179216785Y-119770714D01*
X178883452Y-120437380D02*
X178883452Y-119770714D01*
X178883452Y-119437380D02*
X178931071Y-119485000D01*
X178883452Y-119532619D01*
X178835833Y-119485000D01*
X178883452Y-119437380D01*
X178883452Y-119532619D01*
X178502500Y-119770714D02*
X178264404Y-120437380D01*
X178026309Y-119770714D01*
X177264404Y-120389761D02*
X177359642Y-120437380D01*
X177550119Y-120437380D01*
X177645357Y-120389761D01*
X177692976Y-120294523D01*
X177692976Y-119913571D01*
X177645357Y-119818333D01*
X177550119Y-119770714D01*
X177359642Y-119770714D01*
X177264404Y-119818333D01*
X177216785Y-119913571D01*
X177216785Y-120008809D01*
X177692976Y-120104047D01*
X176788214Y-120342142D02*
X176740595Y-120389761D01*
X176788214Y-120437380D01*
X176835833Y-120389761D01*
X176788214Y-120342142D01*
X176788214Y-120437380D01*
X176788214Y-119818333D02*
X176740595Y-119865952D01*
X176788214Y-119913571D01*
X176835833Y-119865952D01*
X176788214Y-119818333D01*
X176788214Y-119913571D01*
X175597738Y-119532619D02*
X175550119Y-119485000D01*
X175454880Y-119437380D01*
X175216785Y-119437380D01*
X175121547Y-119485000D01*
X175073928Y-119532619D01*
X175026309Y-119627857D01*
X175026309Y-119723095D01*
X175073928Y-119865952D01*
X175645357Y-120437380D01*
X175026309Y-120437380D01*
X174407261Y-119437380D02*
X174312023Y-119437380D01*
X174216785Y-119485000D01*
X174169166Y-119532619D01*
X174121547Y-119627857D01*
X174073928Y-119818333D01*
X174073928Y-120056428D01*
X174121547Y-120246904D01*
X174169166Y-120342142D01*
X174216785Y-120389761D01*
X174312023Y-120437380D01*
X174407261Y-120437380D01*
X174502500Y-120389761D01*
X174550119Y-120342142D01*
X174597738Y-120246904D01*
X174645357Y-120056428D01*
X174645357Y-119818333D01*
X174597738Y-119627857D01*
X174550119Y-119532619D01*
X174502500Y-119485000D01*
X174407261Y-119437380D01*
X173788214Y-119437380D02*
X173454880Y-120437380D01*
X173121547Y-119437380D01*
X172026309Y-120056428D02*
X171264404Y-120056428D01*
X170073928Y-119532619D02*
X170026309Y-119485000D01*
X169931071Y-119437380D01*
X169692976Y-119437380D01*
X169597738Y-119485000D01*
X169550119Y-119532619D01*
X169502500Y-119627857D01*
X169502500Y-119723095D01*
X169550119Y-119865952D01*
X170121547Y-120437380D01*
X169502500Y-120437380D01*
X169169166Y-119437380D02*
X168502500Y-119437380D01*
X168931071Y-120437380D01*
X168264404Y-119437380D02*
X167931071Y-120437380D01*
X167597738Y-119437380D01*
X181407261Y-121047380D02*
X181073928Y-122047380D01*
X180740595Y-121047380D01*
X179978690Y-121999761D02*
X180073928Y-122047380D01*
X180264404Y-122047380D01*
X180359642Y-121999761D01*
X180407261Y-121952142D01*
X180454880Y-121856904D01*
X180454880Y-121571190D01*
X180407261Y-121475952D01*
X180359642Y-121428333D01*
X180264404Y-121380714D01*
X180073928Y-121380714D01*
X179978690Y-121428333D01*
X179121547Y-121999761D02*
X179216785Y-122047380D01*
X179407261Y-122047380D01*
X179502500Y-121999761D01*
X179550119Y-121952142D01*
X179597738Y-121856904D01*
X179597738Y-121571190D01*
X179550119Y-121475952D01*
X179502500Y-121428333D01*
X179407261Y-121380714D01*
X179216785Y-121380714D01*
X179121547Y-121428333D01*
X178692976Y-121952142D02*
X178645357Y-121999761D01*
X178692976Y-122047380D01*
X178740595Y-121999761D01*
X178692976Y-121952142D01*
X178692976Y-122047380D01*
X178692976Y-121428333D02*
X178645357Y-121475952D01*
X178692976Y-121523571D01*
X178740595Y-121475952D01*
X178692976Y-121428333D01*
X178692976Y-121523571D01*
X177550119Y-121047380D02*
X176931071Y-121047380D01*
X177264404Y-121428333D01*
X177121547Y-121428333D01*
X177026309Y-121475952D01*
X176978690Y-121523571D01*
X176931071Y-121618809D01*
X176931071Y-121856904D01*
X176978690Y-121952142D01*
X177026309Y-121999761D01*
X177121547Y-122047380D01*
X177407261Y-122047380D01*
X177502500Y-121999761D01*
X177550119Y-121952142D01*
X176502500Y-121952142D02*
X176454880Y-121999761D01*
X176502500Y-122047380D01*
X176550119Y-121999761D01*
X176502500Y-121952142D01*
X176502500Y-122047380D01*
X175502500Y-122047380D02*
X176073928Y-122047380D01*
X175788214Y-122047380D02*
X175788214Y-121047380D01*
X175883452Y-121190238D01*
X175978690Y-121285476D01*
X176073928Y-121333095D01*
X174312023Y-121666428D02*
X173550119Y-121666428D01*
X171835833Y-121047380D02*
X172312023Y-121047380D01*
X172359642Y-121523571D01*
X172312023Y-121475952D01*
X172216785Y-121428333D01*
X171978690Y-121428333D01*
X171883452Y-121475952D01*
X171835833Y-121523571D01*
X171788214Y-121618809D01*
X171788214Y-121856904D01*
X171835833Y-121952142D01*
X171883452Y-121999761D01*
X171978690Y-122047380D01*
X172216785Y-122047380D01*
X172312023Y-121999761D01*
X172359642Y-121952142D01*
X171359642Y-121952142D02*
X171312023Y-121999761D01*
X171359642Y-122047380D01*
X171407261Y-121999761D01*
X171359642Y-121952142D01*
X171359642Y-122047380D01*
X170407261Y-121047380D02*
X170883452Y-121047380D01*
X170931071Y-121523571D01*
X170883452Y-121475952D01*
X170788214Y-121428333D01*
X170550119Y-121428333D01*
X170454880Y-121475952D01*
X170407261Y-121523571D01*
X170359642Y-121618809D01*
X170359642Y-121856904D01*
X170407261Y-121952142D01*
X170454880Y-121999761D01*
X170550119Y-122047380D01*
X170788214Y-122047380D01*
X170883452Y-121999761D01*
X170931071Y-121952142D01*
X170073928Y-121047380D02*
X169740595Y-122047380D01*
X169407261Y-121047380D01*
X181264404Y-123657380D02*
X181264404Y-122657380D01*
X180359642Y-123657380D02*
X180359642Y-122657380D01*
X180359642Y-123609761D02*
X180454880Y-123657380D01*
X180645357Y-123657380D01*
X180740595Y-123609761D01*
X180788214Y-123562142D01*
X180835833Y-123466904D01*
X180835833Y-123181190D01*
X180788214Y-123085952D01*
X180740595Y-123038333D01*
X180645357Y-122990714D01*
X180454880Y-122990714D01*
X180359642Y-123038333D01*
X179883452Y-123657380D02*
X179883452Y-122990714D01*
X179883452Y-123181190D02*
X179835833Y-123085952D01*
X179788214Y-123038333D01*
X179692976Y-122990714D01*
X179597738Y-122990714D01*
X179264404Y-123657380D02*
X179264404Y-122990714D01*
X179264404Y-122657380D02*
X179312023Y-122705000D01*
X179264404Y-122752619D01*
X179216785Y-122705000D01*
X179264404Y-122657380D01*
X179264404Y-122752619D01*
X178883452Y-122990714D02*
X178645357Y-123657380D01*
X178407261Y-122990714D01*
X177645357Y-123609761D02*
X177740595Y-123657380D01*
X177931071Y-123657380D01*
X178026309Y-123609761D01*
X178073928Y-123514523D01*
X178073928Y-123133571D01*
X178026309Y-123038333D01*
X177931071Y-122990714D01*
X177740595Y-122990714D01*
X177645357Y-123038333D01*
X177597738Y-123133571D01*
X177597738Y-123228809D01*
X178073928Y-123324047D01*
X177169166Y-123562142D02*
X177121547Y-123609761D01*
X177169166Y-123657380D01*
X177216785Y-123609761D01*
X177169166Y-123562142D01*
X177169166Y-123657380D01*
X177169166Y-123038333D02*
X177121547Y-123085952D01*
X177169166Y-123133571D01*
X177216785Y-123085952D01*
X177169166Y-123038333D01*
X177169166Y-123133571D01*
X175502500Y-122990714D02*
X175502500Y-123657380D01*
X175740595Y-122609761D02*
X175978690Y-123324047D01*
X175359642Y-123324047D01*
X175026309Y-123371666D02*
X174550119Y-123371666D01*
X175121547Y-123657380D02*
X174788214Y-122657380D01*
X174454880Y-123657380D01*
X173073928Y-124038333D02*
X173121547Y-123990714D01*
X173216785Y-123847857D01*
X173264404Y-123752619D01*
X173312023Y-123609761D01*
X173359642Y-123371666D01*
X173359642Y-123181190D01*
X173312023Y-122943095D01*
X173264404Y-122800238D01*
X173216785Y-122705000D01*
X173121547Y-122562142D01*
X173073928Y-122514523D01*
X172788214Y-122657380D02*
X172169166Y-122657380D01*
X172502500Y-123038333D01*
X172359642Y-123038333D01*
X172264404Y-123085952D01*
X172216785Y-123133571D01*
X172169166Y-123228809D01*
X172169166Y-123466904D01*
X172216785Y-123562142D01*
X172264404Y-123609761D01*
X172359642Y-123657380D01*
X172645357Y-123657380D01*
X172740595Y-123609761D01*
X172788214Y-123562142D01*
X171788214Y-123371666D02*
X171312023Y-123371666D01*
X171883452Y-123657380D02*
X171550119Y-122657380D01*
X171216785Y-123657380D01*
X170264404Y-122990714D02*
X169883452Y-122990714D01*
X170121547Y-123657380D02*
X170121547Y-122800238D01*
X170073928Y-122705000D01*
X169978690Y-122657380D01*
X169883452Y-122657380D01*
X169407261Y-123657380D02*
X169502500Y-123609761D01*
X169550119Y-123562142D01*
X169597738Y-123466904D01*
X169597738Y-123181190D01*
X169550119Y-123085952D01*
X169502500Y-123038333D01*
X169407261Y-122990714D01*
X169264404Y-122990714D01*
X169169166Y-123038333D01*
X169121547Y-123085952D01*
X169073928Y-123181190D01*
X169073928Y-123466904D01*
X169121547Y-123562142D01*
X169169166Y-123609761D01*
X169264404Y-123657380D01*
X169407261Y-123657380D01*
X168645357Y-123657380D02*
X168645357Y-122990714D01*
X168645357Y-123181190D02*
X168597738Y-123085952D01*
X168550119Y-123038333D01*
X168454880Y-122990714D01*
X168359642Y-122990714D01*
X167264404Y-123657380D02*
X167264404Y-122657380D01*
X167026309Y-122657380D01*
X166883452Y-122705000D01*
X166788214Y-122800238D01*
X166740595Y-122895476D01*
X166692976Y-123085952D01*
X166692976Y-123228809D01*
X166740595Y-123419285D01*
X166788214Y-123514523D01*
X166883452Y-123609761D01*
X167026309Y-123657380D01*
X167264404Y-123657380D01*
X166121547Y-123657380D02*
X166216785Y-123609761D01*
X166264404Y-123562142D01*
X166312023Y-123466904D01*
X166312023Y-123181190D01*
X166264404Y-123085952D01*
X166216785Y-123038333D01*
X166121547Y-122990714D01*
X165978690Y-122990714D01*
X165883452Y-123038333D01*
X165835833Y-123085952D01*
X165788214Y-123181190D01*
X165788214Y-123466904D01*
X165835833Y-123562142D01*
X165883452Y-123609761D01*
X165978690Y-123657380D01*
X166121547Y-123657380D01*
X165502500Y-122990714D02*
X165121547Y-122990714D01*
X165359642Y-122657380D02*
X165359642Y-123514523D01*
X165312023Y-123609761D01*
X165216785Y-123657380D01*
X165121547Y-123657380D01*
X164835833Y-123609761D02*
X164740595Y-123657380D01*
X164550119Y-123657380D01*
X164454880Y-123609761D01*
X164407261Y-123514523D01*
X164407261Y-123466904D01*
X164454880Y-123371666D01*
X164550119Y-123324047D01*
X164692976Y-123324047D01*
X164788214Y-123276428D01*
X164835833Y-123181190D01*
X164835833Y-123133571D01*
X164788214Y-123038333D01*
X164692976Y-122990714D01*
X164550119Y-122990714D01*
X164454880Y-123038333D01*
X163931071Y-123609761D02*
X163931071Y-123657380D01*
X163978690Y-123752619D01*
X164026309Y-123800238D01*
X162216785Y-123657380D02*
X162788214Y-123657380D01*
X162502500Y-123657380D02*
X162502500Y-122657380D01*
X162597738Y-122800238D01*
X162692976Y-122895476D01*
X162788214Y-122943095D01*
X161835833Y-123371666D02*
X161359642Y-123371666D01*
X161931071Y-123657380D02*
X161597738Y-122657380D01*
X161264404Y-123657380D01*
X160312023Y-122990714D02*
X159931071Y-122990714D01*
X160169166Y-123657380D02*
X160169166Y-122800238D01*
X160121547Y-122705000D01*
X160026309Y-122657380D01*
X159931071Y-122657380D01*
X159454880Y-123657380D02*
X159550119Y-123609761D01*
X159597738Y-123562142D01*
X159645357Y-123466904D01*
X159645357Y-123181190D01*
X159597738Y-123085952D01*
X159550119Y-123038333D01*
X159454880Y-122990714D01*
X159312023Y-122990714D01*
X159216785Y-123038333D01*
X159169166Y-123085952D01*
X159121547Y-123181190D01*
X159121547Y-123466904D01*
X159169166Y-123562142D01*
X159216785Y-123609761D01*
X159312023Y-123657380D01*
X159454880Y-123657380D01*
X158692976Y-123657380D02*
X158692976Y-122990714D01*
X158692976Y-123181190D02*
X158645357Y-123085952D01*
X158597738Y-123038333D01*
X158502500Y-122990714D01*
X158407261Y-122990714D01*
X156835833Y-123657380D02*
X157312023Y-123657380D01*
X157312023Y-122657380D01*
X156502500Y-123133571D02*
X156169166Y-123133571D01*
X156026309Y-123657380D02*
X156502500Y-123657380D01*
X156502500Y-122657380D01*
X156026309Y-122657380D01*
X155597738Y-123657380D02*
X155597738Y-122657380D01*
X155359642Y-122657380D01*
X155216785Y-122705000D01*
X155121547Y-122800238D01*
X155073928Y-122895476D01*
X155026309Y-123085952D01*
X155026309Y-123228809D01*
X155073928Y-123419285D01*
X155121547Y-123514523D01*
X155216785Y-123609761D01*
X155359642Y-123657380D01*
X155597738Y-123657380D01*
X154645357Y-123609761D02*
X154550119Y-123657380D01*
X154359642Y-123657380D01*
X154264404Y-123609761D01*
X154216785Y-123514523D01*
X154216785Y-123466904D01*
X154264404Y-123371666D01*
X154359642Y-123324047D01*
X154502500Y-123324047D01*
X154597738Y-123276428D01*
X154645357Y-123181190D01*
X154645357Y-123133571D01*
X154597738Y-123038333D01*
X154502500Y-122990714D01*
X154359642Y-122990714D01*
X154264404Y-123038333D01*
X153883452Y-124038333D02*
X153835833Y-123990714D01*
X153740595Y-123847857D01*
X153692976Y-123752619D01*
X153645357Y-123609761D01*
X153597738Y-123371666D01*
X153597738Y-123181190D01*
X153645357Y-122943095D01*
X153692976Y-122800238D01*
X153740595Y-122705000D01*
X153835833Y-122562142D01*
X153883452Y-122514523D01*
X181407261Y-124267380D02*
X181073928Y-125267380D01*
X180740595Y-124267380D01*
X180264404Y-125267380D02*
X180359642Y-125219761D01*
X180407261Y-125172142D01*
X180454880Y-125076904D01*
X180454880Y-124791190D01*
X180407261Y-124695952D01*
X180359642Y-124648333D01*
X180264404Y-124600714D01*
X180121547Y-124600714D01*
X180026309Y-124648333D01*
X179978690Y-124695952D01*
X179931071Y-124791190D01*
X179931071Y-125076904D01*
X179978690Y-125172142D01*
X180026309Y-125219761D01*
X180121547Y-125267380D01*
X180264404Y-125267380D01*
X179073928Y-124600714D02*
X179073928Y-125267380D01*
X179502500Y-124600714D02*
X179502500Y-125124523D01*
X179454880Y-125219761D01*
X179359642Y-125267380D01*
X179216785Y-125267380D01*
X179121547Y-125219761D01*
X179073928Y-125172142D01*
X178740595Y-124600714D02*
X178359642Y-124600714D01*
X178597738Y-124267380D02*
X178597738Y-125124523D01*
X178550119Y-125219761D01*
X178454880Y-125267380D01*
X178359642Y-125267380D01*
X178026309Y-125172142D02*
X177978690Y-125219761D01*
X178026309Y-125267380D01*
X178073928Y-125219761D01*
X178026309Y-125172142D01*
X178026309Y-125267380D01*
X178026309Y-124648333D02*
X177978690Y-124695952D01*
X178026309Y-124743571D01*
X178073928Y-124695952D01*
X178026309Y-124648333D01*
X178026309Y-124743571D01*
X176312023Y-124267380D02*
X176788214Y-124267380D01*
X176835833Y-124743571D01*
X176788214Y-124695952D01*
X176692976Y-124648333D01*
X176454880Y-124648333D01*
X176359642Y-124695952D01*
X176312023Y-124743571D01*
X176264404Y-124838809D01*
X176264404Y-125076904D01*
X176312023Y-125172142D01*
X176359642Y-125219761D01*
X176454880Y-125267380D01*
X176692976Y-125267380D01*
X176788214Y-125219761D01*
X176835833Y-125172142D01*
X175978690Y-124267380D02*
X175645357Y-125267380D01*
X175312023Y-124267380D01*
X174931071Y-125219761D02*
X174931071Y-125267380D01*
X174978690Y-125362619D01*
X175026309Y-125410238D01*
X173264404Y-124267380D02*
X173740595Y-124267380D01*
X173788214Y-124743571D01*
X173740595Y-124695952D01*
X173645357Y-124648333D01*
X173407261Y-124648333D01*
X173312023Y-124695952D01*
X173264404Y-124743571D01*
X173216785Y-124838809D01*
X173216785Y-125076904D01*
X173264404Y-125172142D01*
X173312023Y-125219761D01*
X173407261Y-125267380D01*
X173645357Y-125267380D01*
X173740595Y-125219761D01*
X173788214Y-125172142D01*
X172597738Y-124267380D02*
X172502500Y-124267380D01*
X172407261Y-124315000D01*
X172359642Y-124362619D01*
X172312023Y-124457857D01*
X172264404Y-124648333D01*
X172264404Y-124886428D01*
X172312023Y-125076904D01*
X172359642Y-125172142D01*
X172407261Y-125219761D01*
X172502500Y-125267380D01*
X172597738Y-125267380D01*
X172692976Y-125219761D01*
X172740595Y-125172142D01*
X172788214Y-125076904D01*
X172835833Y-124886428D01*
X172835833Y-124648333D01*
X172788214Y-124457857D01*
X172740595Y-124362619D01*
X172692976Y-124315000D01*
X172597738Y-124267380D01*
X171645357Y-124267380D02*
X171550119Y-124267380D01*
X171454880Y-124315000D01*
X171407261Y-124362619D01*
X171359642Y-124457857D01*
X171312023Y-124648333D01*
X171312023Y-124886428D01*
X171359642Y-125076904D01*
X171407261Y-125172142D01*
X171454880Y-125219761D01*
X171550119Y-125267380D01*
X171645357Y-125267380D01*
X171740595Y-125219761D01*
X171788214Y-125172142D01*
X171835833Y-125076904D01*
X171883452Y-124886428D01*
X171883452Y-124648333D01*
X171835833Y-124457857D01*
X171788214Y-124362619D01*
X171740595Y-124315000D01*
X171645357Y-124267380D01*
X170883452Y-125267380D02*
X170883452Y-124600714D01*
X170883452Y-124695952D02*
X170835833Y-124648333D01*
X170740595Y-124600714D01*
X170597738Y-124600714D01*
X170502500Y-124648333D01*
X170454880Y-124743571D01*
X170454880Y-125267380D01*
X170454880Y-124743571D02*
X170407261Y-124648333D01*
X170312023Y-124600714D01*
X170169166Y-124600714D01*
X170073928Y-124648333D01*
X170026309Y-124743571D01*
X170026309Y-125267380D01*
X169597738Y-124981666D02*
X169121547Y-124981666D01*
X169692976Y-125267380D02*
X169359642Y-124267380D01*
X169026309Y-125267380D01*
D11*
X173538281Y-74166428D02*
X173573805Y-74201952D01*
X173680377Y-74237476D01*
X173751424Y-74237476D01*
X173857996Y-74201952D01*
X173929043Y-74130904D01*
X173964567Y-74059857D01*
X174000091Y-73917761D01*
X174000091Y-73811190D01*
X173964567Y-73669095D01*
X173929043Y-73598047D01*
X173857996Y-73527000D01*
X173751424Y-73491476D01*
X173680377Y-73491476D01*
X173573805Y-73527000D01*
X173538281Y-73562523D01*
X173076472Y-73491476D02*
X172934377Y-73491476D01*
X172863329Y-73527000D01*
X172792281Y-73598047D01*
X172756758Y-73740142D01*
X172756758Y-73988809D01*
X172792281Y-74130904D01*
X172863329Y-74201952D01*
X172934377Y-74237476D01*
X173076472Y-74237476D01*
X173147519Y-74201952D01*
X173218567Y-74130904D01*
X173254091Y-73988809D01*
X173254091Y-73740142D01*
X173218567Y-73598047D01*
X173147519Y-73527000D01*
X173076472Y-73491476D01*
X172081805Y-74237476D02*
X172437043Y-74237476D01*
X172437043Y-73491476D01*
X171833139Y-73491476D02*
X171833139Y-74095380D01*
X171797615Y-74166428D01*
X171762091Y-74201952D01*
X171691043Y-74237476D01*
X171548948Y-74237476D01*
X171477900Y-74201952D01*
X171442377Y-74166428D01*
X171406853Y-74095380D01*
X171406853Y-73491476D01*
X171051615Y-74237476D02*
X171051615Y-73491476D01*
X170802948Y-74024333D01*
X170554281Y-73491476D01*
X170554281Y-74237476D01*
X170199043Y-74237476D02*
X170199043Y-73491476D01*
X169772758Y-74237476D01*
X169772758Y-73491476D01*
X169453043Y-74201952D02*
X169346472Y-74237476D01*
X169168853Y-74237476D01*
X169097805Y-74201952D01*
X169062281Y-74166428D01*
X169026758Y-74095380D01*
X169026758Y-74024333D01*
X169062281Y-73953285D01*
X169097805Y-73917761D01*
X169168853Y-73882238D01*
X169310948Y-73846714D01*
X169381996Y-73811190D01*
X169417519Y-73775666D01*
X169453043Y-73704619D01*
X169453043Y-73633571D01*
X169417519Y-73562523D01*
X169381996Y-73527000D01*
X169310948Y-73491476D01*
X169133329Y-73491476D01*
X169026758Y-73527000D01*
X154888281Y-74486142D02*
X154888281Y-73420428D01*
X145403424Y-74237476D02*
X145652091Y-73882238D01*
X145829710Y-74237476D02*
X145829710Y-73491476D01*
X145545519Y-73491476D01*
X145474472Y-73527000D01*
X145438948Y-73562523D01*
X145403424Y-73633571D01*
X145403424Y-73740142D01*
X145438948Y-73811190D01*
X145474472Y-73846714D01*
X145545519Y-73882238D01*
X145829710Y-73882238D01*
X144941615Y-73491476D02*
X144799519Y-73491476D01*
X144728472Y-73527000D01*
X144657424Y-73598047D01*
X144621900Y-73740142D01*
X144621900Y-73988809D01*
X144657424Y-74130904D01*
X144728472Y-74201952D01*
X144799519Y-74237476D01*
X144941615Y-74237476D01*
X145012662Y-74201952D01*
X145083710Y-74130904D01*
X145119234Y-73988809D01*
X145119234Y-73740142D01*
X145083710Y-73598047D01*
X145012662Y-73527000D01*
X144941615Y-73491476D01*
X144373234Y-73491476D02*
X144195615Y-74237476D01*
X144053519Y-73704619D01*
X143911424Y-74237476D01*
X143733805Y-73491476D01*
X142454948Y-74237476D02*
X142703615Y-73882238D01*
X142881234Y-74237476D02*
X142881234Y-73491476D01*
X142597043Y-73491476D01*
X142525996Y-73527000D01*
X142490472Y-73562523D01*
X142454948Y-73633571D01*
X142454948Y-73740142D01*
X142490472Y-73811190D01*
X142525996Y-73846714D01*
X142597043Y-73882238D01*
X142881234Y-73882238D01*
X142135234Y-73846714D02*
X141886567Y-73846714D01*
X141779996Y-74237476D02*
X142135234Y-74237476D01*
X142135234Y-73491476D01*
X141779996Y-73491476D01*
X141495805Y-74201952D02*
X141389234Y-74237476D01*
X141211615Y-74237476D01*
X141140567Y-74201952D01*
X141105043Y-74166428D01*
X141069519Y-74095380D01*
X141069519Y-74024333D01*
X141105043Y-73953285D01*
X141140567Y-73917761D01*
X141211615Y-73882238D01*
X141353710Y-73846714D01*
X141424758Y-73811190D01*
X141460281Y-73775666D01*
X141495805Y-73704619D01*
X141495805Y-73633571D01*
X141460281Y-73562523D01*
X141424758Y-73527000D01*
X141353710Y-73491476D01*
X141176091Y-73491476D01*
X141069519Y-73527000D01*
X140749805Y-73846714D02*
X140501139Y-73846714D01*
X140394567Y-74237476D02*
X140749805Y-74237476D01*
X140749805Y-73491476D01*
X140394567Y-73491476D01*
X140181424Y-73491476D02*
X139755139Y-73491476D01*
X139968281Y-74237476D02*
X139968281Y-73491476D01*
X127712567Y-74237476D02*
X127961234Y-73882238D01*
X128138853Y-74237476D02*
X128138853Y-73491476D01*
X127854662Y-73491476D01*
X127783615Y-73527000D01*
X127748091Y-73562523D01*
X127712567Y-73633571D01*
X127712567Y-73740142D01*
X127748091Y-73811190D01*
X127783615Y-73846714D01*
X127854662Y-73882238D01*
X128138853Y-73882238D01*
X127250758Y-73491476D02*
X127108662Y-73491476D01*
X127037615Y-73527000D01*
X126966567Y-73598047D01*
X126931043Y-73740142D01*
X126931043Y-73988809D01*
X126966567Y-74130904D01*
X127037615Y-74201952D01*
X127108662Y-74237476D01*
X127250758Y-74237476D01*
X127321805Y-74201952D01*
X127392853Y-74130904D01*
X127428377Y-73988809D01*
X127428377Y-73740142D01*
X127392853Y-73598047D01*
X127321805Y-73527000D01*
X127250758Y-73491476D01*
X126682377Y-73491476D02*
X126504758Y-74237476D01*
X126362662Y-73704619D01*
X126220567Y-74237476D01*
X126042948Y-73491476D01*
X125225900Y-74201952D02*
X125119329Y-74237476D01*
X124941710Y-74237476D01*
X124870662Y-74201952D01*
X124835139Y-74166428D01*
X124799615Y-74095380D01*
X124799615Y-74024333D01*
X124835139Y-73953285D01*
X124870662Y-73917761D01*
X124941710Y-73882238D01*
X125083805Y-73846714D01*
X125154853Y-73811190D01*
X125190377Y-73775666D01*
X125225900Y-73704619D01*
X125225900Y-73633571D01*
X125190377Y-73562523D01*
X125154853Y-73527000D01*
X125083805Y-73491476D01*
X124906186Y-73491476D01*
X124799615Y-73527000D01*
X124479900Y-73846714D02*
X124231234Y-73846714D01*
X124124662Y-74237476D02*
X124479900Y-74237476D01*
X124479900Y-73491476D01*
X124124662Y-73491476D01*
X123911519Y-73491476D02*
X123485234Y-73491476D01*
X123698377Y-74237476D02*
X123698377Y-73491476D01*
X113964853Y-74486142D02*
X113964853Y-73420428D01*
X112863615Y-73953285D02*
X112295234Y-73953285D01*
X111584758Y-74237476D02*
X111939996Y-74237476D01*
X111939996Y-73491476D01*
X111336091Y-73846714D02*
X111087424Y-73846714D01*
X110980853Y-74237476D02*
X111336091Y-74237476D01*
X111336091Y-73491476D01*
X110980853Y-73491476D01*
X110661139Y-74237476D02*
X110661139Y-73491476D01*
X110483519Y-73491476D01*
X110376948Y-73527000D01*
X110305900Y-73598047D01*
X110270377Y-73669095D01*
X110234853Y-73811190D01*
X110234853Y-73917761D01*
X110270377Y-74059857D01*
X110305900Y-74130904D01*
X110376948Y-74201952D01*
X110483519Y-74237476D01*
X110661139Y-74237476D01*
X109915139Y-73953285D02*
X109346758Y-73953285D01*
X109630948Y-74237476D02*
X109630948Y-73669095D01*
D12*
X65578571Y-89500000D02*
X65578571Y-89785714D01*
X65650000Y-89928571D01*
X65792857Y-90071428D01*
X66078571Y-90142857D01*
X66578571Y-90142857D01*
X66864285Y-90071428D01*
X67007142Y-89928571D01*
X67078571Y-89785714D01*
X67078571Y-89500000D01*
X67007142Y-89357142D01*
X66864285Y-89214285D01*
X66578571Y-89142857D01*
X66078571Y-89142857D01*
X65792857Y-89214285D01*
X65650000Y-89357142D01*
X65578571Y-89500000D01*
X65578571Y-90785714D02*
X66792857Y-90785714D01*
X66935714Y-90857142D01*
X67007142Y-90928571D01*
X67078571Y-91071428D01*
X67078571Y-91357142D01*
X67007142Y-91500000D01*
X66935714Y-91571428D01*
X66792857Y-91642857D01*
X65578571Y-91642857D01*
X65578571Y-92142857D02*
X65578571Y-93000000D01*
X67078571Y-92571428D02*
X65578571Y-92571428D01*
X228685714Y-88478571D02*
X228685714Y-86978571D01*
X227971428Y-88478571D02*
X227971428Y-86978571D01*
X227114285Y-88478571D01*
X227114285Y-86978571D01*
D10*
X230919047Y-114971428D02*
X231680952Y-114971428D01*
X122814285Y-74280952D02*
X122528571Y-73519047D01*
X122242857Y-74280952D01*
X129514285Y-74280952D02*
X129228571Y-73519047D01*
X128942857Y-74280952D01*
D13*
X211733571Y-112113571D02*
X212447857Y-112113571D01*
X212447857Y-110613571D01*
X210590714Y-111113571D02*
X210590714Y-112113571D01*
X211233571Y-111113571D02*
X211233571Y-111899285D01*
X211162142Y-112042142D01*
X211019285Y-112113571D01*
X210805000Y-112113571D01*
X210662142Y-112042142D01*
X210590714Y-111970714D01*
X209876428Y-112113571D02*
X209876428Y-111113571D01*
X209876428Y-111256428D02*
X209805000Y-111185000D01*
X209662142Y-111113571D01*
X209447857Y-111113571D01*
X209305000Y-111185000D01*
X209233571Y-111327857D01*
X209233571Y-112113571D01*
X209233571Y-111327857D02*
X209162142Y-111185000D01*
X209019285Y-111113571D01*
X208805000Y-111113571D01*
X208662142Y-111185000D01*
X208590714Y-111327857D01*
X208590714Y-112113571D01*
X207876428Y-112113571D02*
X207876428Y-111113571D01*
X207876428Y-110613571D02*
X207947857Y-110685000D01*
X207876428Y-110756428D01*
X207805000Y-110685000D01*
X207876428Y-110613571D01*
X207876428Y-110756428D01*
X207162142Y-111113571D02*
X207162142Y-112113571D01*
X207162142Y-111256428D02*
X207090714Y-111185000D01*
X206947857Y-111113571D01*
X206733571Y-111113571D01*
X206590714Y-111185000D01*
X206519285Y-111327857D01*
X206519285Y-112113571D01*
X205162142Y-112113571D02*
X205162142Y-111327857D01*
X205233571Y-111185000D01*
X205376428Y-111113571D01*
X205662142Y-111113571D01*
X205805000Y-111185000D01*
X205162142Y-112042142D02*
X205305000Y-112113571D01*
X205662142Y-112113571D01*
X205805000Y-112042142D01*
X205876428Y-111899285D01*
X205876428Y-111756428D01*
X205805000Y-111613571D01*
X205662142Y-111542142D01*
X205305000Y-111542142D01*
X205162142Y-111470714D01*
X204662142Y-111113571D02*
X204090714Y-111113571D01*
X204447857Y-110613571D02*
X204447857Y-111899285D01*
X204376428Y-112042142D01*
X204233571Y-112113571D01*
X204090714Y-112113571D01*
X203376428Y-112113571D02*
X203519285Y-112042142D01*
X203590714Y-111970714D01*
X203662142Y-111827857D01*
X203662142Y-111399285D01*
X203590714Y-111256428D01*
X203519285Y-111185000D01*
X203376428Y-111113571D01*
X203162142Y-111113571D01*
X203019285Y-111185000D01*
X202947857Y-111256428D01*
X202876428Y-111399285D01*
X202876428Y-111827857D01*
X202947857Y-111970714D01*
X203019285Y-112042142D01*
X203162142Y-112113571D01*
X203376428Y-112113571D01*
X202233571Y-112113571D02*
X202233571Y-111113571D01*
X202233571Y-111399285D02*
X202162142Y-111256428D01*
X202090714Y-111185000D01*
X201947857Y-111113571D01*
X201805000Y-111113571D01*
X200162142Y-112113571D02*
X200162142Y-110613571D01*
X199662142Y-111685000D01*
X199162142Y-110613571D01*
X199162142Y-112113571D01*
X198519285Y-111685000D02*
X197805000Y-111685000D01*
X198662142Y-112113571D02*
X198162142Y-110613571D01*
X197662142Y-112113571D01*
X197305000Y-110613571D02*
X196305000Y-112113571D01*
X196305000Y-110613571D02*
X197305000Y-112113571D01*
X195876428Y-110613571D02*
X194947857Y-110613571D01*
X195447857Y-111185000D01*
X195233571Y-111185000D01*
X195090714Y-111256428D01*
X195019285Y-111327857D01*
X194947857Y-111470714D01*
X194947857Y-111827857D01*
X195019285Y-111970714D01*
X195090714Y-112042142D01*
X195233571Y-112113571D01*
X195662142Y-112113571D01*
X195805000Y-112042142D01*
X195876428Y-111970714D01*
X194019285Y-110613571D02*
X193876428Y-110613571D01*
X193733571Y-110685000D01*
X193662142Y-110756428D01*
X193590714Y-110899285D01*
X193519285Y-111185000D01*
X193519285Y-111542142D01*
X193590714Y-111827857D01*
X193662142Y-111970714D01*
X193733571Y-112042142D01*
X193876428Y-112113571D01*
X194019285Y-112113571D01*
X194162142Y-112042142D01*
X194233571Y-111970714D01*
X194305000Y-111827857D01*
X194376428Y-111542142D01*
X194376428Y-111185000D01*
X194305000Y-110899285D01*
X194233571Y-110756428D01*
X194162142Y-110685000D01*
X194019285Y-110613571D01*
X192590714Y-110613571D02*
X192447857Y-110613571D01*
X192305000Y-110685000D01*
X192233571Y-110756428D01*
X192162142Y-110899285D01*
X192090714Y-111185000D01*
X192090714Y-111542142D01*
X192162142Y-111827857D01*
X192233571Y-111970714D01*
X192305000Y-112042142D01*
X192447857Y-112113571D01*
X192590714Y-112113571D01*
X192733571Y-112042142D01*
X192805000Y-111970714D01*
X192876428Y-111827857D01*
X192947857Y-111542142D01*
X192947857Y-111185000D01*
X192876428Y-110899285D01*
X192805000Y-110756428D01*
X192733571Y-110685000D01*
X192590714Y-110613571D01*
X191162142Y-110613571D02*
X191019285Y-110613571D01*
X190876428Y-110685000D01*
X190805000Y-110756428D01*
X190733571Y-110899285D01*
X190662142Y-111185000D01*
X190662142Y-111542142D01*
X190733571Y-111827857D01*
X190805000Y-111970714D01*
X190876428Y-112042142D01*
X191019285Y-112113571D01*
X191162142Y-112113571D01*
X191305000Y-112042142D01*
X191376428Y-111970714D01*
X191447857Y-111827857D01*
X191519285Y-111542142D01*
X191519285Y-111185000D01*
X191447857Y-110899285D01*
X191376428Y-110756428D01*
X191305000Y-110685000D01*
X191162142Y-110613571D01*
X212447857Y-114528571D02*
X212447857Y-113028571D01*
X212090714Y-113028571D01*
X211876428Y-113100000D01*
X211733571Y-113242857D01*
X211662142Y-113385714D01*
X211590714Y-113671428D01*
X211590714Y-113885714D01*
X211662142Y-114171428D01*
X211733571Y-114314285D01*
X211876428Y-114457142D01*
X212090714Y-114528571D01*
X212447857Y-114528571D01*
X210376428Y-114457142D02*
X210519285Y-114528571D01*
X210805000Y-114528571D01*
X210947857Y-114457142D01*
X211019285Y-114314285D01*
X211019285Y-113742857D01*
X210947857Y-113600000D01*
X210805000Y-113528571D01*
X210519285Y-113528571D01*
X210376428Y-113600000D01*
X210305000Y-113742857D01*
X210305000Y-113885714D01*
X211019285Y-114028571D01*
X209019285Y-114457142D02*
X209162142Y-114528571D01*
X209447857Y-114528571D01*
X209590714Y-114457142D01*
X209662142Y-114385714D01*
X209733571Y-114242857D01*
X209733571Y-113814285D01*
X209662142Y-113671428D01*
X209590714Y-113600000D01*
X209447857Y-113528571D01*
X209162142Y-113528571D01*
X209019285Y-113600000D01*
X208162142Y-114528571D02*
X208305000Y-114457142D01*
X208376428Y-114385714D01*
X208447857Y-114242857D01*
X208447857Y-113814285D01*
X208376428Y-113671428D01*
X208305000Y-113600000D01*
X208162142Y-113528571D01*
X207947857Y-113528571D01*
X207805000Y-113600000D01*
X207733571Y-113671428D01*
X207662142Y-113814285D01*
X207662142Y-114242857D01*
X207733571Y-114385714D01*
X207805000Y-114457142D01*
X207947857Y-114528571D01*
X208162142Y-114528571D01*
X206376428Y-114528571D02*
X206376428Y-113028571D01*
X206376428Y-114457142D02*
X206519285Y-114528571D01*
X206805000Y-114528571D01*
X206947857Y-114457142D01*
X207019285Y-114385714D01*
X207090714Y-114242857D01*
X207090714Y-113814285D01*
X207019285Y-113671428D01*
X206947857Y-113600000D01*
X206805000Y-113528571D01*
X206519285Y-113528571D01*
X206376428Y-113600000D01*
X205090714Y-114457142D02*
X205233571Y-114528571D01*
X205519285Y-114528571D01*
X205662142Y-114457142D01*
X205733571Y-114314285D01*
X205733571Y-113742857D01*
X205662142Y-113600000D01*
X205519285Y-113528571D01*
X205233571Y-113528571D01*
X205090714Y-113600000D01*
X205019285Y-113742857D01*
X205019285Y-113885714D01*
X205733571Y-114028571D01*
X204376428Y-114528571D02*
X204376428Y-113528571D01*
X204376428Y-113814285D02*
X204305000Y-113671428D01*
X204233571Y-113600000D01*
X204090714Y-113528571D01*
X203947857Y-113528571D01*
X201662142Y-114528571D02*
X201662142Y-113742857D01*
X201733571Y-113600000D01*
X201876428Y-113528571D01*
X202162142Y-113528571D01*
X202305000Y-113600000D01*
X201662142Y-114457142D02*
X201805000Y-114528571D01*
X202162142Y-114528571D01*
X202305000Y-114457142D01*
X202376428Y-114314285D01*
X202376428Y-114171428D01*
X202305000Y-114028571D01*
X202162142Y-113957142D01*
X201805000Y-113957142D01*
X201662142Y-113885714D01*
X200947857Y-113528571D02*
X200947857Y-114528571D01*
X200947857Y-113671428D02*
X200876428Y-113600000D01*
X200733571Y-113528571D01*
X200519285Y-113528571D01*
X200376428Y-113600000D01*
X200305000Y-113742857D01*
X200305000Y-114528571D01*
X198947857Y-114528571D02*
X198947857Y-113028571D01*
X198947857Y-114457142D02*
X199090714Y-114528571D01*
X199376428Y-114528571D01*
X199519285Y-114457142D01*
X199590714Y-114385714D01*
X199662142Y-114242857D01*
X199662142Y-113814285D01*
X199590714Y-113671428D01*
X199519285Y-113600000D01*
X199376428Y-113528571D01*
X199090714Y-113528571D01*
X198947857Y-113600000D01*
X197090714Y-114528571D02*
X197090714Y-113028571D01*
X196733571Y-113028571D01*
X196519285Y-113100000D01*
X196376428Y-113242857D01*
X196305000Y-113385714D01*
X196233571Y-113671428D01*
X196233571Y-113885714D01*
X196305000Y-114171428D01*
X196376428Y-114314285D01*
X196519285Y-114457142D01*
X196733571Y-114528571D01*
X197090714Y-114528571D01*
X195590714Y-114528571D02*
X195590714Y-113528571D01*
X195590714Y-113814285D02*
X195519285Y-113671428D01*
X195447857Y-113600000D01*
X195305000Y-113528571D01*
X195162142Y-113528571D01*
X194662142Y-114528571D02*
X194662142Y-113528571D01*
X194662142Y-113028571D02*
X194733571Y-113100000D01*
X194662142Y-113171428D01*
X194590714Y-113100000D01*
X194662142Y-113028571D01*
X194662142Y-113171428D01*
X194090714Y-113528571D02*
X193733571Y-114528571D01*
X193376428Y-113528571D01*
X192233571Y-114457142D02*
X192376428Y-114528571D01*
X192662142Y-114528571D01*
X192805000Y-114457142D01*
X192876428Y-114314285D01*
X192876428Y-113742857D01*
X192805000Y-113600000D01*
X192662142Y-113528571D01*
X192376428Y-113528571D01*
X192233571Y-113600000D01*
X192162142Y-113742857D01*
X192162142Y-113885714D01*
X192876428Y-114028571D01*
X191519285Y-114528571D02*
X191519285Y-113528571D01*
X191519285Y-113814285D02*
X191447857Y-113671428D01*
X191376428Y-113600000D01*
X191233571Y-113528571D01*
X191090714Y-113528571D01*
X188947857Y-113742857D02*
X188733571Y-113814285D01*
X188662142Y-113885714D01*
X188590714Y-114028571D01*
X188590714Y-114242857D01*
X188662142Y-114385714D01*
X188733571Y-114457142D01*
X188876428Y-114528571D01*
X189447857Y-114528571D01*
X189447857Y-113028571D01*
X188947857Y-113028571D01*
X188805000Y-113100000D01*
X188733571Y-113171428D01*
X188662142Y-113314285D01*
X188662142Y-113457142D01*
X188733571Y-113600000D01*
X188805000Y-113671428D01*
X188947857Y-113742857D01*
X189447857Y-113742857D01*
X187733571Y-114528571D02*
X187876428Y-114457142D01*
X187947857Y-114385714D01*
X188019285Y-114242857D01*
X188019285Y-113814285D01*
X187947857Y-113671428D01*
X187876428Y-113600000D01*
X187733571Y-113528571D01*
X187519285Y-113528571D01*
X187376428Y-113600000D01*
X187305000Y-113671428D01*
X187233571Y-113814285D01*
X187233571Y-114242857D01*
X187305000Y-114385714D01*
X187376428Y-114457142D01*
X187519285Y-114528571D01*
X187733571Y-114528571D01*
X185947857Y-114528571D02*
X185947857Y-113742857D01*
X186019285Y-113600000D01*
X186162142Y-113528571D01*
X186447857Y-113528571D01*
X186590714Y-113600000D01*
X185947857Y-114457142D02*
X186090714Y-114528571D01*
X186447857Y-114528571D01*
X186590714Y-114457142D01*
X186662142Y-114314285D01*
X186662142Y-114171428D01*
X186590714Y-114028571D01*
X186447857Y-113957142D01*
X186090714Y-113957142D01*
X185947857Y-113885714D01*
X185233571Y-114528571D02*
X185233571Y-113528571D01*
X185233571Y-113814285D02*
X185162142Y-113671428D01*
X185090714Y-113600000D01*
X184947857Y-113528571D01*
X184805000Y-113528571D01*
X183662142Y-114528571D02*
X183662142Y-113028571D01*
X183662142Y-114457142D02*
X183805000Y-114528571D01*
X184090714Y-114528571D01*
X184233571Y-114457142D01*
X184305000Y-114385714D01*
X184376428Y-114242857D01*
X184376428Y-113814285D01*
X184305000Y-113671428D01*
X184233571Y-113600000D01*
X184090714Y-113528571D01*
X183805000Y-113528571D01*
X183662142Y-113600000D01*
X212519285Y-115586428D02*
X212447857Y-115515000D01*
X212305000Y-115443571D01*
X211947857Y-115443571D01*
X211805000Y-115515000D01*
X211733571Y-115586428D01*
X211662142Y-115729285D01*
X211662142Y-115872142D01*
X211733571Y-116086428D01*
X212590714Y-116943571D01*
X211662142Y-116943571D01*
X210733571Y-115443571D02*
X210590714Y-115443571D01*
X210447857Y-115515000D01*
X210376428Y-115586428D01*
X210305000Y-115729285D01*
X210233571Y-116015000D01*
X210233571Y-116372142D01*
X210305000Y-116657857D01*
X210376428Y-116800714D01*
X210447857Y-116872142D01*
X210590714Y-116943571D01*
X210733571Y-116943571D01*
X210876428Y-116872142D01*
X210947857Y-116800714D01*
X211019285Y-116657857D01*
X211090714Y-116372142D01*
X211090714Y-116015000D01*
X211019285Y-115729285D01*
X210947857Y-115586428D01*
X210876428Y-115515000D01*
X210733571Y-115443571D01*
X209662142Y-115586428D02*
X209590714Y-115515000D01*
X209447857Y-115443571D01*
X209090714Y-115443571D01*
X208947857Y-115515000D01*
X208876428Y-115586428D01*
X208805000Y-115729285D01*
X208805000Y-115872142D01*
X208876428Y-116086428D01*
X209733571Y-116943571D01*
X208805000Y-116943571D01*
X208233571Y-115586428D02*
X208162142Y-115515000D01*
X208019285Y-115443571D01*
X207662142Y-115443571D01*
X207519285Y-115515000D01*
X207447857Y-115586428D01*
X207376428Y-115729285D01*
X207376428Y-115872142D01*
X207447857Y-116086428D01*
X208305000Y-116943571D01*
X207376428Y-116943571D01*
X206733571Y-116372142D02*
X205590714Y-116372142D01*
X204590714Y-115443571D02*
X204447857Y-115443571D01*
X204305000Y-115515000D01*
X204233571Y-115586428D01*
X204162142Y-115729285D01*
X204090714Y-116015000D01*
X204090714Y-116372142D01*
X204162142Y-116657857D01*
X204233571Y-116800714D01*
X204305000Y-116872142D01*
X204447857Y-116943571D01*
X204590714Y-116943571D01*
X204733571Y-116872142D01*
X204805000Y-116800714D01*
X204876428Y-116657857D01*
X204947857Y-116372142D01*
X204947857Y-116015000D01*
X204876428Y-115729285D01*
X204805000Y-115586428D01*
X204733571Y-115515000D01*
X204590714Y-115443571D01*
X203233571Y-116086428D02*
X203376428Y-116015000D01*
X203447857Y-115943571D01*
X203519285Y-115800714D01*
X203519285Y-115729285D01*
X203447857Y-115586428D01*
X203376428Y-115515000D01*
X203233571Y-115443571D01*
X202947857Y-115443571D01*
X202805000Y-115515000D01*
X202733571Y-115586428D01*
X202662142Y-115729285D01*
X202662142Y-115800714D01*
X202733571Y-115943571D01*
X202805000Y-116015000D01*
X202947857Y-116086428D01*
X203233571Y-116086428D01*
X203376428Y-116157857D01*
X203447857Y-116229285D01*
X203519285Y-116372142D01*
X203519285Y-116657857D01*
X203447857Y-116800714D01*
X203376428Y-116872142D01*
X203233571Y-116943571D01*
X202947857Y-116943571D01*
X202805000Y-116872142D01*
X202733571Y-116800714D01*
X202662142Y-116657857D01*
X202662142Y-116372142D01*
X202733571Y-116229285D01*
X202805000Y-116157857D01*
X202947857Y-116086428D01*
X202019285Y-116372142D02*
X200876428Y-116372142D01*
X199376428Y-116943571D02*
X200233571Y-116943571D01*
X199805000Y-116943571D02*
X199805000Y-115443571D01*
X199947857Y-115657857D01*
X200090714Y-115800714D01*
X200233571Y-115872142D01*
X198090714Y-115943571D02*
X198090714Y-116943571D01*
X198447857Y-115372142D02*
X198805000Y-116443571D01*
X197876428Y-116443571D01*
X195733571Y-117515000D02*
X195805000Y-117443571D01*
X195947857Y-117229285D01*
X196019285Y-117086428D01*
X196090714Y-116872142D01*
X196162142Y-116515000D01*
X196162142Y-116229285D01*
X196090714Y-115872142D01*
X196019285Y-115657857D01*
X195947857Y-115515000D01*
X195805000Y-115300714D01*
X195733571Y-115229285D01*
X194305000Y-116943571D02*
X194805000Y-116229285D01*
X195162142Y-116943571D02*
X195162142Y-115443571D01*
X194590714Y-115443571D01*
X194447857Y-115515000D01*
X194376428Y-115586428D01*
X194305000Y-115729285D01*
X194305000Y-115943571D01*
X194376428Y-116086428D01*
X194447857Y-116157857D01*
X194590714Y-116229285D01*
X195162142Y-116229285D01*
X193090714Y-116872142D02*
X193233571Y-116943571D01*
X193519285Y-116943571D01*
X193662142Y-116872142D01*
X193733571Y-116729285D01*
X193733571Y-116157857D01*
X193662142Y-116015000D01*
X193519285Y-115943571D01*
X193233571Y-115943571D01*
X193090714Y-116015000D01*
X193019285Y-116157857D01*
X193019285Y-116300714D01*
X193733571Y-116443571D01*
X192519285Y-115943571D02*
X192162142Y-116943571D01*
X191805000Y-115943571D01*
X190090714Y-116943571D02*
X190090714Y-115443571D01*
X189733571Y-115443571D01*
X189519285Y-115515000D01*
X189376428Y-115657857D01*
X189305000Y-115800714D01*
X189233571Y-116086428D01*
X189233571Y-116300714D01*
X189305000Y-116586428D01*
X189376428Y-116729285D01*
X189519285Y-116872142D01*
X189733571Y-116943571D01*
X190090714Y-116943571D01*
X188733571Y-117515000D02*
X188662142Y-117443571D01*
X188519285Y-117229285D01*
X188447857Y-117086428D01*
X188376428Y-116872142D01*
X188305000Y-116515000D01*
X188305000Y-116229285D01*
X188376428Y-115872142D01*
X188447857Y-115657857D01*
X188519285Y-115515000D01*
X188662142Y-115300714D01*
X188733571Y-115229285D01*
D10*
X146885714Y-73519047D02*
X147171428Y-74280952D01*
X147457142Y-73519047D01*
X138485714Y-73519047D02*
X138771428Y-74280952D01*
X139057142Y-73519047D01*
X187000000Y-122938095D02*
X186952380Y-122842857D01*
X186952380Y-122700000D01*
X187000000Y-122557142D01*
X187095238Y-122461904D01*
X187190476Y-122414285D01*
X187380952Y-122366666D01*
X187523809Y-122366666D01*
X187714285Y-122414285D01*
X187809523Y-122461904D01*
X187904761Y-122557142D01*
X187952380Y-122700000D01*
X187952380Y-122795238D01*
X187904761Y-122938095D01*
X187857142Y-122985714D01*
X187523809Y-122985714D01*
X187523809Y-122795238D01*
X187952380Y-123414285D02*
X186952380Y-123414285D01*
X187952380Y-123985714D01*
X186952380Y-123985714D01*
X187952380Y-124461904D02*
X186952380Y-124461904D01*
X186952380Y-124700000D01*
X187000000Y-124842857D01*
X187095238Y-124938095D01*
X187190476Y-124985714D01*
X187380952Y-125033333D01*
X187523809Y-125033333D01*
X187714285Y-124985714D01*
X187809523Y-124938095D01*
X187904761Y-124842857D01*
X187952380Y-124700000D01*
X187952380Y-124461904D01*
D13*
X200661904Y-124042857D02*
X199138095Y-124042857D01*
X199900000Y-124804761D02*
X199900000Y-123280952D01*
D10*
X191680714Y-71300000D02*
X191966428Y-70538095D01*
X192252142Y-71300000D01*
X191966428Y-71776190D02*
X191966428Y-72538095D01*
X192347380Y-73776190D02*
X191347380Y-73776190D01*
X191347380Y-74014285D01*
X191395000Y-74157142D01*
X191490238Y-74252380D01*
X191585476Y-74300000D01*
X191775952Y-74347619D01*
X191918809Y-74347619D01*
X192109285Y-74300000D01*
X192204523Y-74252380D01*
X192299761Y-74157142D01*
X192347380Y-74014285D01*
X192347380Y-73776190D01*
X191347380Y-74966666D02*
X191347380Y-75157142D01*
X191395000Y-75252380D01*
X191490238Y-75347619D01*
X191680714Y-75395238D01*
X192014047Y-75395238D01*
X192204523Y-75347619D01*
X192299761Y-75252380D01*
X192347380Y-75157142D01*
X192347380Y-74966666D01*
X192299761Y-74871428D01*
X192204523Y-74776190D01*
X192014047Y-74728571D01*
X191680714Y-74728571D01*
X191490238Y-74776190D01*
X191395000Y-74871428D01*
X191347380Y-74966666D01*
X191347380Y-75680952D02*
X191347380Y-76252380D01*
X192347380Y-75966666D02*
X191347380Y-75966666D01*
X192299761Y-76538095D02*
X192347380Y-76680952D01*
X192347380Y-76919047D01*
X192299761Y-77014285D01*
X192252142Y-77061904D01*
X192156904Y-77109523D01*
X192061666Y-77109523D01*
X191966428Y-77061904D01*
X191918809Y-77014285D01*
X191871190Y-76919047D01*
X191823571Y-76728571D01*
X191775952Y-76633333D01*
X191728333Y-76585714D01*
X191633095Y-76538095D01*
X191537857Y-76538095D01*
X191442619Y-76585714D01*
X191395000Y-76633333D01*
X191347380Y-76728571D01*
X191347380Y-76966666D01*
X191395000Y-77109523D01*
X224894047Y-115021428D02*
X225655952Y-115021428D01*
X225275000Y-115402380D02*
X225275000Y-114640476D01*
%TO.C,TP12*%
X60652380Y-75850000D02*
X60652380Y-75373809D01*
X59652380Y-75373809D01*
X60366666Y-76135714D02*
X60366666Y-76611904D01*
X60652380Y-76040476D02*
X59652380Y-76373809D01*
X60652380Y-76707142D01*
X59652380Y-76897619D02*
X59652380Y-77469047D01*
X60652380Y-77183333D02*
X59652380Y-77183333D01*
%TO.C,TP11*%
X58652380Y-75376190D02*
X57652380Y-75376190D01*
X57652380Y-75614285D01*
X57700000Y-75757142D01*
X57795238Y-75852380D01*
X57890476Y-75900000D01*
X58080952Y-75947619D01*
X58223809Y-75947619D01*
X58414285Y-75900000D01*
X58509523Y-75852380D01*
X58604761Y-75757142D01*
X58652380Y-75614285D01*
X58652380Y-75376190D01*
X58652380Y-76376190D02*
X57652380Y-76376190D01*
X58652380Y-76852380D02*
X57652380Y-76852380D01*
X58652380Y-77423809D01*
X57652380Y-77423809D01*
%TO.C,TP15*%
X70319047Y-99357142D02*
X70366666Y-99404761D01*
X70509523Y-99452380D01*
X70604761Y-99452380D01*
X70747619Y-99404761D01*
X70842857Y-99309523D01*
X70890476Y-99214285D01*
X70938095Y-99023809D01*
X70938095Y-98880952D01*
X70890476Y-98690476D01*
X70842857Y-98595238D01*
X70747619Y-98500000D01*
X70604761Y-98452380D01*
X70509523Y-98452380D01*
X70366666Y-98500000D01*
X70319047Y-98547619D01*
X69700000Y-98452380D02*
X69509523Y-98452380D01*
X69414285Y-98500000D01*
X69319047Y-98595238D01*
X69271428Y-98785714D01*
X69271428Y-99119047D01*
X69319047Y-99309523D01*
X69414285Y-99404761D01*
X69509523Y-99452380D01*
X69700000Y-99452380D01*
X69795238Y-99404761D01*
X69890476Y-99309523D01*
X69938095Y-99119047D01*
X69938095Y-98785714D01*
X69890476Y-98595238D01*
X69795238Y-98500000D01*
X69700000Y-98452380D01*
X68366666Y-99452380D02*
X68842857Y-99452380D01*
X68842857Y-98452380D01*
%TO.C,TP2*%
X65302380Y-75952380D02*
X64826190Y-75619047D01*
X65302380Y-75380952D02*
X64302380Y-75380952D01*
X64302380Y-75761904D01*
X64350000Y-75857142D01*
X64397619Y-75904761D01*
X64492857Y-75952380D01*
X64635714Y-75952380D01*
X64730952Y-75904761D01*
X64778571Y-75857142D01*
X64826190Y-75761904D01*
X64826190Y-75380952D01*
X65254761Y-76333333D02*
X65302380Y-76476190D01*
X65302380Y-76714285D01*
X65254761Y-76809523D01*
X65207142Y-76857142D01*
X65111904Y-76904761D01*
X65016666Y-76904761D01*
X64921428Y-76857142D01*
X64873809Y-76809523D01*
X64826190Y-76714285D01*
X64778571Y-76523809D01*
X64730952Y-76428571D01*
X64683333Y-76380952D01*
X64588095Y-76333333D01*
X64492857Y-76333333D01*
X64397619Y-76380952D01*
X64350000Y-76428571D01*
X64302380Y-76523809D01*
X64302380Y-76761904D01*
X64350000Y-76904761D01*
X64302380Y-77190476D02*
X64302380Y-77761904D01*
X65302380Y-77476190D02*
X64302380Y-77476190D01*
%TO.C,TP4*%
X60383333Y-83352380D02*
X60050000Y-84352380D01*
X59716666Y-83352380D01*
X58811904Y-84257142D02*
X58859523Y-84304761D01*
X59002380Y-84352380D01*
X59097619Y-84352380D01*
X59240476Y-84304761D01*
X59335714Y-84209523D01*
X59383333Y-84114285D01*
X59430952Y-83923809D01*
X59430952Y-83780952D01*
X59383333Y-83590476D01*
X59335714Y-83495238D01*
X59240476Y-83400000D01*
X59097619Y-83352380D01*
X59002380Y-83352380D01*
X58859523Y-83400000D01*
X58811904Y-83447619D01*
X57811904Y-84257142D02*
X57859523Y-84304761D01*
X58002380Y-84352380D01*
X58097619Y-84352380D01*
X58240476Y-84304761D01*
X58335714Y-84209523D01*
X58383333Y-84114285D01*
X58430952Y-83923809D01*
X58430952Y-83780952D01*
X58383333Y-83590476D01*
X58335714Y-83495238D01*
X58240476Y-83400000D01*
X58097619Y-83352380D01*
X58002380Y-83352380D01*
X57859523Y-83400000D01*
X57811904Y-83447619D01*
%TO.C,TP13*%
X63438095Y-113828571D02*
X63104761Y-113828571D01*
X62961904Y-114352380D02*
X63438095Y-114352380D01*
X63438095Y-113352380D01*
X62961904Y-113352380D01*
X62533333Y-114352380D02*
X62533333Y-113352380D01*
X61961904Y-114352380D01*
X61961904Y-113352380D01*
%TO.C,TP7*%
X72080952Y-96428571D02*
X71747619Y-96428571D01*
X71604761Y-96952380D02*
X72080952Y-96952380D01*
X72080952Y-95952380D01*
X71604761Y-95952380D01*
X71176190Y-96952380D02*
X71176190Y-95952380D01*
X70604761Y-96952380D01*
X70604761Y-95952380D01*
X70366666Y-97047619D02*
X69604761Y-97047619D01*
X69366666Y-96952380D02*
X69366666Y-95952380D01*
X68890476Y-96952380D02*
X68890476Y-95952380D01*
X68319047Y-96952380D01*
X68319047Y-95952380D01*
%TO.C,TP14*%
X70385714Y-102152380D02*
X70719047Y-101676190D01*
X70957142Y-102152380D02*
X70957142Y-101152380D01*
X70576190Y-101152380D01*
X70480952Y-101200000D01*
X70433333Y-101247619D01*
X70385714Y-101342857D01*
X70385714Y-101485714D01*
X70433333Y-101580952D01*
X70480952Y-101628571D01*
X70576190Y-101676190D01*
X70957142Y-101676190D01*
X69766666Y-101152380D02*
X69576190Y-101152380D01*
X69480952Y-101200000D01*
X69385714Y-101295238D01*
X69338095Y-101485714D01*
X69338095Y-101819047D01*
X69385714Y-102009523D01*
X69480952Y-102104761D01*
X69576190Y-102152380D01*
X69766666Y-102152380D01*
X69861904Y-102104761D01*
X69957142Y-102009523D01*
X70004761Y-101819047D01*
X70004761Y-101485714D01*
X69957142Y-101295238D01*
X69861904Y-101200000D01*
X69766666Y-101152380D01*
X69004761Y-101152380D02*
X68766666Y-102152380D01*
X68576190Y-101438095D01*
X68385714Y-102152380D01*
X68147619Y-101152380D01*
%TO.C,TP3*%
X68302380Y-75259523D02*
X67302380Y-75259523D01*
X67302380Y-75497619D01*
X67350000Y-75640476D01*
X67445238Y-75735714D01*
X67540476Y-75783333D01*
X67730952Y-75830952D01*
X67873809Y-75830952D01*
X68064285Y-75783333D01*
X68159523Y-75735714D01*
X68254761Y-75640476D01*
X68302380Y-75497619D01*
X68302380Y-75259523D01*
X67302380Y-76450000D02*
X67302380Y-76640476D01*
X67350000Y-76735714D01*
X67445238Y-76830952D01*
X67635714Y-76878571D01*
X67969047Y-76878571D01*
X68159523Y-76830952D01*
X68254761Y-76735714D01*
X68302380Y-76640476D01*
X68302380Y-76450000D01*
X68254761Y-76354761D01*
X68159523Y-76259523D01*
X67969047Y-76211904D01*
X67635714Y-76211904D01*
X67445238Y-76259523D01*
X67350000Y-76354761D01*
X67302380Y-76450000D01*
X67302380Y-77307142D02*
X68111904Y-77307142D01*
X68207142Y-77354761D01*
X68254761Y-77402380D01*
X68302380Y-77497619D01*
X68302380Y-77688095D01*
X68254761Y-77783333D01*
X68207142Y-77830952D01*
X68111904Y-77878571D01*
X67302380Y-77878571D01*
X67302380Y-78211904D02*
X67302380Y-78783333D01*
X68302380Y-78497619D02*
X67302380Y-78497619D01*
%TO.C,TP1*%
X63007142Y-75904761D02*
X63054761Y-75857142D01*
X63102380Y-75714285D01*
X63102380Y-75619047D01*
X63054761Y-75476190D01*
X62959523Y-75380952D01*
X62864285Y-75333333D01*
X62673809Y-75285714D01*
X62530952Y-75285714D01*
X62340476Y-75333333D01*
X62245238Y-75380952D01*
X62150000Y-75476190D01*
X62102380Y-75619047D01*
X62102380Y-75714285D01*
X62150000Y-75857142D01*
X62197619Y-75904761D01*
X63102380Y-76809523D02*
X63102380Y-76333333D01*
X62102380Y-76333333D01*
X63102380Y-77142857D02*
X62102380Y-77142857D01*
X63102380Y-77714285D02*
X62530952Y-77285714D01*
X62102380Y-77714285D02*
X62673809Y-77142857D01*
%TO.C,TP5*%
X63261904Y-83350000D02*
X63357142Y-83302380D01*
X63500000Y-83302380D01*
X63642857Y-83350000D01*
X63738095Y-83445238D01*
X63785714Y-83540476D01*
X63833333Y-83730952D01*
X63833333Y-83873809D01*
X63785714Y-84064285D01*
X63738095Y-84159523D01*
X63642857Y-84254761D01*
X63500000Y-84302380D01*
X63404761Y-84302380D01*
X63261904Y-84254761D01*
X63214285Y-84207142D01*
X63214285Y-83873809D01*
X63404761Y-83873809D01*
X62785714Y-84302380D02*
X62785714Y-83302380D01*
X62214285Y-84302380D01*
X62214285Y-83302380D01*
X61738095Y-84302380D02*
X61738095Y-83302380D01*
X61500000Y-83302380D01*
X61357142Y-83350000D01*
X61261904Y-83445238D01*
X61214285Y-83540476D01*
X61166666Y-83730952D01*
X61166666Y-83873809D01*
X61214285Y-84064285D01*
X61261904Y-84159523D01*
X61357142Y-84254761D01*
X61500000Y-84302380D01*
X61738095Y-84302380D01*
%TO.C,TP10*%
X212992857Y-72352380D02*
X213469047Y-72352380D01*
X213469047Y-71352380D01*
X212659523Y-71828571D02*
X212326190Y-71828571D01*
X212183333Y-72352380D02*
X212659523Y-72352380D01*
X212659523Y-71352380D01*
X212183333Y-71352380D01*
X211754761Y-72352380D02*
X211754761Y-71352380D01*
X211516666Y-71352380D01*
X211373809Y-71400000D01*
X211278571Y-71495238D01*
X211230952Y-71590476D01*
X211183333Y-71780952D01*
X211183333Y-71923809D01*
X211230952Y-72114285D01*
X211278571Y-72209523D01*
X211373809Y-72304761D01*
X211516666Y-72352380D01*
X211754761Y-72352380D01*
D14*
%TO.C,TP12*%
X60850000Y-73300000D02*
G75*
G03*
X60850000Y-73300000I-950000J0D01*
G01*
%TO.C,TP11*%
X58350000Y-73200000D02*
G75*
G03*
X58350000Y-73200000I-950000J0D01*
G01*
D10*
%TO.C,REF\u002A\u002A*%
X228300000Y-114950000D02*
X226300000Y-114950000D01*
X230300000Y-114950000D02*
X229400000Y-114950000D01*
X227550000Y-115625000D02*
G75*
G03*
X227625000Y-114200000I750000J675000D01*
G01*
X226225000Y-114950000D02*
G75*
G03*
X226225000Y-114950000I-925000J0D01*
G01*
X232225000Y-114950000D02*
G75*
G03*
X232225000Y-114950000I-925000J0D01*
G01*
D15*
X228475000Y-114950000D02*
G75*
G03*
X228475000Y-114950000I-175000J0D01*
G01*
D14*
%TO.C,TP15*%
X67550000Y-99000000D02*
G75*
G03*
X67550000Y-99000000I-950000J0D01*
G01*
%TO.C,TP2*%
X65850000Y-73400000D02*
G75*
G03*
X65850000Y-73400000I-950000J0D01*
G01*
%TO.C,TP4*%
X60350000Y-86700000D02*
G75*
G03*
X60350000Y-86700000I-950000J0D01*
G01*
%TO.C,TP13*%
X61450000Y-113800000D02*
G75*
G03*
X61450000Y-113800000I-950000J0D01*
G01*
%TO.C,TP7*%
X67550000Y-96500000D02*
G75*
G03*
X67550000Y-96500000I-950000J0D01*
G01*
%TO.C,TP14*%
X67550000Y-101600000D02*
G75*
G03*
X67550000Y-101600000I-950000J0D01*
G01*
%TO.C,TP3*%
X68350000Y-73400000D02*
G75*
G03*
X68350000Y-73400000I-950000J0D01*
G01*
%TO.C,TP1*%
X63350000Y-73300000D02*
G75*
G03*
X63350000Y-73300000I-950000J0D01*
G01*
D16*
%TO.C,REF\u002A\u002A*%
X102053464Y-70100427D02*
X101940882Y-70697618D01*
X101940882Y-70697618D02*
X101525469Y-70868865D01*
X101525469Y-70868865D02*
X101110055Y-71040112D01*
X101110055Y-71040112D02*
X100611698Y-70701233D01*
X100611698Y-70701233D02*
X100472131Y-70606877D01*
X100472131Y-70606877D02*
X100345971Y-70522630D01*
X100345971Y-70522630D02*
X100239104Y-70452338D01*
X100239104Y-70452338D02*
X100157417Y-70399847D01*
X100157417Y-70399847D02*
X100106798Y-70369004D01*
X100106798Y-70369004D02*
X100093013Y-70362353D01*
X100093013Y-70362353D02*
X100068179Y-70379458D01*
X100068179Y-70379458D02*
X100015111Y-70426744D01*
X100015111Y-70426744D02*
X99939759Y-70498172D01*
X99939759Y-70498172D02*
X99848070Y-70587700D01*
X99848070Y-70587700D02*
X99745992Y-70689289D01*
X99745992Y-70689289D02*
X99639473Y-70796898D01*
X99639473Y-70796898D02*
X99534463Y-70904487D01*
X99534463Y-70904487D02*
X99436908Y-71006015D01*
X99436908Y-71006015D02*
X99352757Y-71095441D01*
X99352757Y-71095441D02*
X99287959Y-71166726D01*
X99287959Y-71166726D02*
X99248462Y-71213828D01*
X99248462Y-71213828D02*
X99239019Y-71229592D01*
X99239019Y-71229592D02*
X99252608Y-71258653D01*
X99252608Y-71258653D02*
X99290706Y-71322321D01*
X99290706Y-71322321D02*
X99349306Y-71414367D01*
X99349306Y-71414367D02*
X99424402Y-71528564D01*
X99424402Y-71528564D02*
X99511991Y-71658684D01*
X99511991Y-71658684D02*
X99562745Y-71732901D01*
X99562745Y-71732901D02*
X99655254Y-71868422D01*
X99655254Y-71868422D02*
X99737459Y-71990716D01*
X99737459Y-71990716D02*
X99805369Y-72093695D01*
X99805369Y-72093695D02*
X99854999Y-72171273D01*
X99854999Y-72171273D02*
X99882359Y-72217361D01*
X99882359Y-72217361D02*
X99886470Y-72227047D01*
X99886470Y-72227047D02*
X99877150Y-72254574D01*
X99877150Y-72254574D02*
X99851745Y-72318728D01*
X99851745Y-72318728D02*
X99814088Y-72410490D01*
X99814088Y-72410490D02*
X99768013Y-72520839D01*
X99768013Y-72520839D02*
X99717353Y-72640755D01*
X99717353Y-72640755D02*
X99665940Y-72761219D01*
X99665940Y-72761219D02*
X99617610Y-72873209D01*
X99617610Y-72873209D02*
X99576193Y-72967707D01*
X99576193Y-72967707D02*
X99545525Y-73035692D01*
X99545525Y-73035692D02*
X99529438Y-73068143D01*
X99529438Y-73068143D02*
X99528488Y-73069420D01*
X99528488Y-73069420D02*
X99503227Y-73075617D01*
X99503227Y-73075617D02*
X99435954Y-73089440D01*
X99435954Y-73089440D02*
X99333639Y-73109532D01*
X99333639Y-73109532D02*
X99203258Y-73134534D01*
X99203258Y-73134534D02*
X99051783Y-73163086D01*
X99051783Y-73163086D02*
X98963406Y-73179551D01*
X98963406Y-73179551D02*
X98801547Y-73210369D01*
X98801547Y-73210369D02*
X98655350Y-73239694D01*
X98655350Y-73239694D02*
X98532212Y-73265921D01*
X98532212Y-73265921D02*
X98439530Y-73287446D01*
X98439530Y-73287446D02*
X98384698Y-73302665D01*
X98384698Y-73302665D02*
X98373676Y-73307493D01*
X98373676Y-73307493D02*
X98362881Y-73340174D01*
X98362881Y-73340174D02*
X98354170Y-73413985D01*
X98354170Y-73413985D02*
X98347539Y-73520292D01*
X98347539Y-73520292D02*
X98342981Y-73650467D01*
X98342981Y-73650467D02*
X98340490Y-73795876D01*
X98340490Y-73795876D02*
X98340061Y-73947890D01*
X98340061Y-73947890D02*
X98341688Y-74097877D01*
X98341688Y-74097877D02*
X98345364Y-74237206D01*
X98345364Y-74237206D02*
X98351084Y-74357245D01*
X98351084Y-74357245D02*
X98358842Y-74449365D01*
X98358842Y-74449365D02*
X98368631Y-74504932D01*
X98368631Y-74504932D02*
X98374503Y-74516500D01*
X98374503Y-74516500D02*
X98409600Y-74530365D01*
X98409600Y-74530365D02*
X98483971Y-74550188D01*
X98483971Y-74550188D02*
X98587776Y-74573639D01*
X98587776Y-74573639D02*
X98711180Y-74598391D01*
X98711180Y-74598391D02*
X98754258Y-74606398D01*
X98754258Y-74606398D02*
X98961952Y-74644441D01*
X98961952Y-74644441D02*
X99126015Y-74675079D01*
X99126015Y-74675079D02*
X99251869Y-74699529D01*
X99251869Y-74699529D02*
X99344934Y-74719009D01*
X99344934Y-74719009D02*
X99410632Y-74734736D01*
X99410632Y-74734736D02*
X99454382Y-74747928D01*
X99454382Y-74747928D02*
X99481607Y-74759804D01*
X99481607Y-74759804D02*
X99497727Y-74771580D01*
X99497727Y-74771580D02*
X99499982Y-74773908D01*
X99499982Y-74773908D02*
X99522496Y-74811400D01*
X99522496Y-74811400D02*
X99556841Y-74884365D01*
X99556841Y-74884365D02*
X99599588Y-74983867D01*
X99599588Y-74983867D02*
X99647307Y-75100973D01*
X99647307Y-75100973D02*
X99696569Y-75226748D01*
X99696569Y-75226748D02*
X99743944Y-75352257D01*
X99743944Y-75352257D02*
X99786004Y-75468565D01*
X99786004Y-75468565D02*
X99819319Y-75566739D01*
X99819319Y-75566739D02*
X99840458Y-75637843D01*
X99840458Y-75637843D02*
X99845994Y-75672942D01*
X99845994Y-75672942D02*
X99845533Y-75674172D01*
X99845533Y-75674172D02*
X99826776Y-75702861D01*
X99826776Y-75702861D02*
X99784223Y-75765985D01*
X99784223Y-75765985D02*
X99722346Y-75856973D01*
X99722346Y-75856973D02*
X99645617Y-75969255D01*
X99645617Y-75969255D02*
X99558508Y-76096260D01*
X99558508Y-76096260D02*
X99533701Y-76132353D01*
X99533701Y-76132353D02*
X99445247Y-76263203D01*
X99445247Y-76263203D02*
X99367411Y-76382591D01*
X99367411Y-76382591D02*
X99304433Y-76483662D01*
X99304433Y-76483662D02*
X99260554Y-76559559D01*
X99260554Y-76559559D02*
X99240014Y-76603427D01*
X99240014Y-76603427D02*
X99239019Y-76608817D01*
X99239019Y-76608817D02*
X99256277Y-76637144D01*
X99256277Y-76637144D02*
X99303964Y-76693261D01*
X99303964Y-76693261D02*
X99375949Y-76771137D01*
X99375949Y-76771137D02*
X99466102Y-76864740D01*
X99466102Y-76864740D02*
X99568294Y-76968041D01*
X99568294Y-76968041D02*
X99676394Y-77075006D01*
X99676394Y-77075006D02*
X99784271Y-77179606D01*
X99784271Y-77179606D02*
X99885795Y-77275809D01*
X99885795Y-77275809D02*
X99974837Y-77357584D01*
X99974837Y-77357584D02*
X100045266Y-77418900D01*
X100045266Y-77418900D02*
X100090952Y-77453726D01*
X100090952Y-77453726D02*
X100103590Y-77459412D01*
X100103590Y-77459412D02*
X100133008Y-77446020D01*
X100133008Y-77446020D02*
X100193238Y-77409899D01*
X100193238Y-77409899D02*
X100274470Y-77357136D01*
X100274470Y-77357136D02*
X100336969Y-77314667D01*
X100336969Y-77314667D02*
X100450214Y-77236740D01*
X100450214Y-77236740D02*
X100584325Y-77144984D01*
X100584325Y-77144984D02*
X100718844Y-77053375D01*
X100718844Y-77053375D02*
X100791166Y-77004346D01*
X100791166Y-77004346D02*
X101035961Y-76838770D01*
X101035961Y-76838770D02*
X101241449Y-76949875D01*
X101241449Y-76949875D02*
X101335063Y-76998548D01*
X101335063Y-76998548D02*
X101414669Y-77036381D01*
X101414669Y-77036381D02*
X101468532Y-77057958D01*
X101468532Y-77057958D02*
X101482242Y-77060961D01*
X101482242Y-77060961D02*
X101498729Y-77038793D01*
X101498729Y-77038793D02*
X101531254Y-76976149D01*
X101531254Y-76976149D02*
X101577391Y-76878809D01*
X101577391Y-76878809D02*
X101634709Y-76752549D01*
X101634709Y-76752549D02*
X101700783Y-76603150D01*
X101700783Y-76603150D02*
X101773184Y-76436388D01*
X101773184Y-76436388D02*
X101849483Y-76258042D01*
X101849483Y-76258042D02*
X101927253Y-76073891D01*
X101927253Y-76073891D02*
X102004065Y-75889712D01*
X102004065Y-75889712D02*
X102077493Y-75711285D01*
X102077493Y-75711285D02*
X102145107Y-75544387D01*
X102145107Y-75544387D02*
X102204479Y-75394797D01*
X102204479Y-75394797D02*
X102253183Y-75268293D01*
X102253183Y-75268293D02*
X102288789Y-75170654D01*
X102288789Y-75170654D02*
X102308869Y-75107657D01*
X102308869Y-75107657D02*
X102312099Y-75086021D01*
X102312099Y-75086021D02*
X102286503Y-75058424D01*
X102286503Y-75058424D02*
X102230461Y-75013625D01*
X102230461Y-75013625D02*
X102155688Y-74960934D01*
X102155688Y-74960934D02*
X102149412Y-74956765D01*
X102149412Y-74956765D02*
X101956154Y-74802069D01*
X101956154Y-74802069D02*
X101800325Y-74621591D01*
X101800325Y-74621591D02*
X101683275Y-74421102D01*
X101683275Y-74421102D02*
X101606354Y-74206374D01*
X101606354Y-74206374D02*
X101570913Y-73983177D01*
X101570913Y-73983177D02*
X101578302Y-73757281D01*
X101578302Y-73757281D02*
X101629872Y-73534459D01*
X101629872Y-73534459D02*
X101726973Y-73320479D01*
X101726973Y-73320479D02*
X101755541Y-73273664D01*
X101755541Y-73273664D02*
X101904131Y-73084618D01*
X101904131Y-73084618D02*
X102079672Y-72932812D01*
X102079672Y-72932812D02*
X102276089Y-72819034D01*
X102276089Y-72819034D02*
X102487306Y-72744075D01*
X102487306Y-72744075D02*
X102707246Y-72708722D01*
X102707246Y-72708722D02*
X102929836Y-72713767D01*
X102929836Y-72713767D02*
X103148998Y-72759999D01*
X103148998Y-72759999D02*
X103358657Y-72848206D01*
X103358657Y-72848206D02*
X103552738Y-72979179D01*
X103552738Y-72979179D02*
X103612773Y-73032337D01*
X103612773Y-73032337D02*
X103765564Y-73198739D01*
X103765564Y-73198739D02*
X103876902Y-73373912D01*
X103876902Y-73373912D02*
X103953276Y-73570266D01*
X103953276Y-73570266D02*
X103995812Y-73764717D01*
X103995812Y-73764717D02*
X104006313Y-73983342D01*
X104006313Y-73983342D02*
X103971299Y-74203052D01*
X103971299Y-74203052D02*
X103894326Y-74416420D01*
X103894326Y-74416420D02*
X103778952Y-74616022D01*
X103778952Y-74616022D02*
X103628734Y-74794429D01*
X103628734Y-74794429D02*
X103447226Y-74944217D01*
X103447226Y-74944217D02*
X103423372Y-74960006D01*
X103423372Y-74960006D02*
X103347798Y-75011712D01*
X103347798Y-75011712D02*
X103290348Y-75056512D01*
X103290348Y-75056512D02*
X103262882Y-75085117D01*
X103262882Y-75085117D02*
X103262482Y-75086021D01*
X103262482Y-75086021D02*
X103268379Y-75116964D01*
X103268379Y-75116964D02*
X103291754Y-75187191D01*
X103291754Y-75187191D02*
X103330178Y-75290925D01*
X103330178Y-75290925D02*
X103381222Y-75422390D01*
X103381222Y-75422390D02*
X103442457Y-75575807D01*
X103442457Y-75575807D02*
X103511455Y-75745401D01*
X103511455Y-75745401D02*
X103585786Y-75925393D01*
X103585786Y-75925393D02*
X103663021Y-76110008D01*
X103663021Y-76110008D02*
X103740731Y-76293468D01*
X103740731Y-76293468D02*
X103816488Y-76469996D01*
X103816488Y-76469996D02*
X103887862Y-76633814D01*
X103887862Y-76633814D02*
X103952425Y-76779147D01*
X103952425Y-76779147D02*
X104007747Y-76900217D01*
X104007747Y-76900217D02*
X104051399Y-76991247D01*
X104051399Y-76991247D02*
X104080953Y-77046460D01*
X104080953Y-77046460D02*
X104092855Y-77060961D01*
X104092855Y-77060961D02*
X104129222Y-77049669D01*
X104129222Y-77049669D02*
X104197269Y-77019385D01*
X104197269Y-77019385D02*
X104285263Y-76975520D01*
X104285263Y-76975520D02*
X104333649Y-76949875D01*
X104333649Y-76949875D02*
X104539136Y-76838770D01*
X104539136Y-76838770D02*
X104783931Y-77004346D01*
X104783931Y-77004346D02*
X104908893Y-77089170D01*
X104908893Y-77089170D02*
X105045704Y-77182516D01*
X105045704Y-77182516D02*
X105173911Y-77270408D01*
X105173911Y-77270408D02*
X105238128Y-77314667D01*
X105238128Y-77314667D02*
X105328448Y-77375318D01*
X105328448Y-77375318D02*
X105404928Y-77423381D01*
X105404928Y-77423381D02*
X105457592Y-77452770D01*
X105457592Y-77452770D02*
X105474697Y-77458982D01*
X105474697Y-77458982D02*
X105499594Y-77442223D01*
X105499594Y-77442223D02*
X105554694Y-77395436D01*
X105554694Y-77395436D02*
X105634656Y-77323480D01*
X105634656Y-77323480D02*
X105734139Y-77231212D01*
X105734139Y-77231212D02*
X105847799Y-77123490D01*
X105847799Y-77123490D02*
X105919684Y-77054326D01*
X105919684Y-77054326D02*
X106045448Y-76930757D01*
X106045448Y-76930757D02*
X106154136Y-76820234D01*
X106154136Y-76820234D02*
X106241354Y-76727485D01*
X106241354Y-76727485D02*
X106302710Y-76657237D01*
X106302710Y-76657237D02*
X106333808Y-76614220D01*
X106333808Y-76614220D02*
X106336791Y-76605490D01*
X106336791Y-76605490D02*
X106322946Y-76572284D01*
X106322946Y-76572284D02*
X106284687Y-76505142D01*
X106284687Y-76505142D02*
X106226258Y-76410863D01*
X106226258Y-76410863D02*
X106151902Y-76296245D01*
X106151902Y-76296245D02*
X106065864Y-76168083D01*
X106065864Y-76168083D02*
X106041397Y-76132353D01*
X106041397Y-76132353D02*
X105952245Y-76002489D01*
X105952245Y-76002489D02*
X105872261Y-75885569D01*
X105872261Y-75885569D02*
X105805919Y-75788162D01*
X105805919Y-75788162D02*
X105757688Y-75716839D01*
X105757688Y-75716839D02*
X105732042Y-75678170D01*
X105732042Y-75678170D02*
X105729564Y-75674172D01*
X105729564Y-75674172D02*
X105733270Y-75643355D01*
X105733270Y-75643355D02*
X105752938Y-75575599D01*
X105752938Y-75575599D02*
X105785139Y-75479839D01*
X105785139Y-75479839D02*
X105826444Y-75365009D01*
X105826444Y-75365009D02*
X105873424Y-75240044D01*
X105873424Y-75240044D02*
X105922650Y-75113879D01*
X105922650Y-75113879D02*
X105970691Y-74995448D01*
X105970691Y-74995448D02*
X106014118Y-74893685D01*
X106014118Y-74893685D02*
X106049503Y-74817526D01*
X106049503Y-74817526D02*
X106073415Y-74775904D01*
X106073415Y-74775904D02*
X106075115Y-74773908D01*
X106075115Y-74773908D02*
X106089737Y-74762013D01*
X106089737Y-74762013D02*
X106114434Y-74750250D01*
X106114434Y-74750250D02*
X106154627Y-74737401D01*
X106154627Y-74737401D02*
X106215736Y-74722249D01*
X106215736Y-74722249D02*
X106303182Y-74703576D01*
X106303182Y-74703576D02*
X106422387Y-74680165D01*
X106422387Y-74680165D02*
X106578772Y-74650797D01*
X106578772Y-74650797D02*
X106777756Y-74614255D01*
X106777756Y-74614255D02*
X106820839Y-74606398D01*
X106820839Y-74606398D02*
X106948529Y-74581727D01*
X106948529Y-74581727D02*
X107059846Y-74557593D01*
X107059846Y-74557593D02*
X107144954Y-74536324D01*
X107144954Y-74536324D02*
X107194016Y-74520248D01*
X107194016Y-74520248D02*
X107200594Y-74516500D01*
X107200594Y-74516500D02*
X107211435Y-74483273D01*
X107211435Y-74483273D02*
X107220246Y-74409021D01*
X107220246Y-74409021D02*
X107227023Y-74302376D01*
X107227023Y-74302376D02*
X107231759Y-74171967D01*
X107231759Y-74171967D02*
X107234449Y-74026427D01*
X107234449Y-74026427D02*
X107235086Y-73874386D01*
X107235086Y-73874386D02*
X107233665Y-73724476D01*
X107233665Y-73724476D02*
X107230179Y-73585328D01*
X107230179Y-73585328D02*
X107224623Y-73465572D01*
X107224623Y-73465572D02*
X107216991Y-73373841D01*
X107216991Y-73373841D02*
X107207277Y-73318766D01*
X107207277Y-73318766D02*
X107201421Y-73307493D01*
X107201421Y-73307493D02*
X107168819Y-73296123D01*
X107168819Y-73296123D02*
X107094581Y-73277624D01*
X107094581Y-73277624D02*
X106986103Y-73253602D01*
X106986103Y-73253602D02*
X106850782Y-73225662D01*
X106850782Y-73225662D02*
X106696014Y-73195408D01*
X106696014Y-73195408D02*
X106611692Y-73179551D01*
X106611692Y-73179551D02*
X106451703Y-73149644D01*
X106451703Y-73149644D02*
X106309032Y-73122550D01*
X106309032Y-73122550D02*
X106190651Y-73099631D01*
X106190651Y-73099631D02*
X106103534Y-73082243D01*
X106103534Y-73082243D02*
X106054654Y-73071747D01*
X106054654Y-73071747D02*
X106046609Y-73069420D01*
X106046609Y-73069420D02*
X106033012Y-73043186D01*
X106033012Y-73043186D02*
X106004270Y-72979995D01*
X106004270Y-72979995D02*
X105964214Y-72888877D01*
X105964214Y-72888877D02*
X105916675Y-72778857D01*
X105916675Y-72778857D02*
X105865484Y-72658965D01*
X105865484Y-72658965D02*
X105814473Y-72538227D01*
X105814473Y-72538227D02*
X105767473Y-72425671D01*
X105767473Y-72425671D02*
X105728315Y-72330326D01*
X105728315Y-72330326D02*
X105700830Y-72261217D01*
X105700830Y-72261217D02*
X105688850Y-72227374D01*
X105688850Y-72227374D02*
X105688627Y-72225895D01*
X105688627Y-72225895D02*
X105702208Y-72199197D01*
X105702208Y-72199197D02*
X105740284Y-72137760D01*
X105740284Y-72137760D02*
X105798852Y-72047689D01*
X105798852Y-72047689D02*
X105873911Y-71935090D01*
X105873911Y-71935090D02*
X105961459Y-71806070D01*
X105961459Y-71806070D02*
X106012352Y-71731961D01*
X106012352Y-71731961D02*
X106105090Y-71596077D01*
X106105090Y-71596077D02*
X106187458Y-71472709D01*
X106187458Y-71472709D02*
X106255438Y-71368097D01*
X106255438Y-71368097D02*
X106305011Y-71288483D01*
X106305011Y-71288483D02*
X106332157Y-71240107D01*
X106332157Y-71240107D02*
X106336078Y-71229262D01*
X106336078Y-71229262D02*
X106319224Y-71204020D01*
X106319224Y-71204020D02*
X106272631Y-71150124D01*
X106272631Y-71150124D02*
X106202251Y-71073613D01*
X106202251Y-71073613D02*
X106114034Y-70980523D01*
X106114034Y-70980523D02*
X106013934Y-70876895D01*
X106013934Y-70876895D02*
X105907901Y-70768764D01*
X105907901Y-70768764D02*
X105801888Y-70662170D01*
X105801888Y-70662170D02*
X105701847Y-70563150D01*
X105701847Y-70563150D02*
X105613729Y-70477742D01*
X105613729Y-70477742D02*
X105543486Y-70411985D01*
X105543486Y-70411985D02*
X105497071Y-70371916D01*
X105497071Y-70371916D02*
X105481543Y-70362353D01*
X105481543Y-70362353D02*
X105456260Y-70375800D01*
X105456260Y-70375800D02*
X105395788Y-70413575D01*
X105395788Y-70413575D02*
X105306007Y-70471835D01*
X105306007Y-70471835D02*
X105192796Y-70546734D01*
X105192796Y-70546734D02*
X105062036Y-70634425D01*
X105062036Y-70634425D02*
X104963400Y-70701233D01*
X104963400Y-70701233D02*
X104465042Y-71040112D01*
X104465042Y-71040112D02*
X104049629Y-70868865D01*
X104049629Y-70868865D02*
X103634215Y-70697618D01*
X103634215Y-70697618D02*
X103521633Y-70100427D01*
X103521633Y-70100427D02*
X103409050Y-69503235D01*
X103409050Y-69503235D02*
X102166047Y-69503235D01*
X102166047Y-69503235D02*
X102053464Y-70100427D01*
X102053464Y-70100427D02*
X102053464Y-70100427D01*
G36*
X103521633Y-70100427D02*
G01*
X103634215Y-70697618D01*
X104049629Y-70868865D01*
X104465042Y-71040112D01*
X104963400Y-70701233D01*
X105062036Y-70634425D01*
X105192796Y-70546734D01*
X105306007Y-70471835D01*
X105395788Y-70413575D01*
X105456260Y-70375800D01*
X105481543Y-70362353D01*
X105497071Y-70371916D01*
X105543486Y-70411985D01*
X105613729Y-70477742D01*
X105701847Y-70563150D01*
X105801888Y-70662170D01*
X105907901Y-70768764D01*
X106013934Y-70876895D01*
X106114034Y-70980523D01*
X106202251Y-71073613D01*
X106272631Y-71150124D01*
X106319224Y-71204020D01*
X106336078Y-71229262D01*
X106332157Y-71240107D01*
X106305011Y-71288483D01*
X106255438Y-71368097D01*
X106187458Y-71472709D01*
X106105090Y-71596077D01*
X106012352Y-71731961D01*
X105961459Y-71806070D01*
X105873911Y-71935090D01*
X105798852Y-72047689D01*
X105740284Y-72137760D01*
X105702208Y-72199197D01*
X105688627Y-72225895D01*
X105688850Y-72227374D01*
X105700830Y-72261217D01*
X105728315Y-72330326D01*
X105767473Y-72425671D01*
X105814473Y-72538227D01*
X105865484Y-72658965D01*
X105916675Y-72778857D01*
X105964214Y-72888877D01*
X106004270Y-72979995D01*
X106033012Y-73043186D01*
X106046609Y-73069420D01*
X106054654Y-73071747D01*
X106103534Y-73082243D01*
X106190651Y-73099631D01*
X106309032Y-73122550D01*
X106451703Y-73149644D01*
X106611692Y-73179551D01*
X106696014Y-73195408D01*
X106850782Y-73225662D01*
X106986103Y-73253602D01*
X107094581Y-73277624D01*
X107168819Y-73296123D01*
X107201421Y-73307493D01*
X107207277Y-73318766D01*
X107216991Y-73373841D01*
X107224623Y-73465572D01*
X107230179Y-73585328D01*
X107233665Y-73724476D01*
X107235086Y-73874386D01*
X107234449Y-74026427D01*
X107231759Y-74171967D01*
X107227023Y-74302376D01*
X107220246Y-74409021D01*
X107211435Y-74483273D01*
X107200594Y-74516500D01*
X107194016Y-74520248D01*
X107144954Y-74536324D01*
X107059846Y-74557593D01*
X106948529Y-74581727D01*
X106820839Y-74606398D01*
X106777756Y-74614255D01*
X106578772Y-74650797D01*
X106422387Y-74680165D01*
X106303182Y-74703576D01*
X106215736Y-74722249D01*
X106154627Y-74737401D01*
X106114434Y-74750250D01*
X106089737Y-74762013D01*
X106075115Y-74773908D01*
X106073415Y-74775904D01*
X106049503Y-74817526D01*
X106014118Y-74893685D01*
X105970691Y-74995448D01*
X105922650Y-75113879D01*
X105873424Y-75240044D01*
X105826444Y-75365009D01*
X105785139Y-75479839D01*
X105752938Y-75575599D01*
X105733270Y-75643355D01*
X105729564Y-75674172D01*
X105732042Y-75678170D01*
X105757688Y-75716839D01*
X105805919Y-75788162D01*
X105872261Y-75885569D01*
X105952245Y-76002489D01*
X106041397Y-76132353D01*
X106065864Y-76168083D01*
X106151902Y-76296245D01*
X106226258Y-76410863D01*
X106284687Y-76505142D01*
X106322946Y-76572284D01*
X106336791Y-76605490D01*
X106333808Y-76614220D01*
X106302710Y-76657237D01*
X106241354Y-76727485D01*
X106154136Y-76820234D01*
X106045448Y-76930757D01*
X105919684Y-77054326D01*
X105847799Y-77123490D01*
X105734139Y-77231212D01*
X105634656Y-77323480D01*
X105554694Y-77395436D01*
X105499594Y-77442223D01*
X105474697Y-77458982D01*
X105457592Y-77452770D01*
X105404928Y-77423381D01*
X105328448Y-77375318D01*
X105238128Y-77314667D01*
X105173911Y-77270408D01*
X105045704Y-77182516D01*
X104908893Y-77089170D01*
X104783931Y-77004346D01*
X104539136Y-76838770D01*
X104333649Y-76949875D01*
X104285263Y-76975520D01*
X104197269Y-77019385D01*
X104129222Y-77049669D01*
X104092855Y-77060961D01*
X104080953Y-77046460D01*
X104051399Y-76991247D01*
X104007747Y-76900217D01*
X103952425Y-76779147D01*
X103887862Y-76633814D01*
X103816488Y-76469996D01*
X103740731Y-76293468D01*
X103663021Y-76110008D01*
X103585786Y-75925393D01*
X103511455Y-75745401D01*
X103442457Y-75575807D01*
X103381222Y-75422390D01*
X103330178Y-75290925D01*
X103291754Y-75187191D01*
X103268379Y-75116964D01*
X103262482Y-75086021D01*
X103262882Y-75085117D01*
X103290348Y-75056512D01*
X103347798Y-75011712D01*
X103423372Y-74960006D01*
X103447226Y-74944217D01*
X103628734Y-74794429D01*
X103778952Y-74616022D01*
X103894326Y-74416420D01*
X103971299Y-74203052D01*
X104006313Y-73983342D01*
X103995812Y-73764717D01*
X103953276Y-73570266D01*
X103876902Y-73373912D01*
X103765564Y-73198739D01*
X103612773Y-73032337D01*
X103552738Y-72979179D01*
X103358657Y-72848206D01*
X103148998Y-72759999D01*
X102929836Y-72713767D01*
X102707246Y-72708722D01*
X102487306Y-72744075D01*
X102276089Y-72819034D01*
X102079672Y-72932812D01*
X101904131Y-73084618D01*
X101755541Y-73273664D01*
X101726973Y-73320479D01*
X101629872Y-73534459D01*
X101578302Y-73757281D01*
X101570913Y-73983177D01*
X101606354Y-74206374D01*
X101683275Y-74421102D01*
X101800325Y-74621591D01*
X101956154Y-74802069D01*
X102149412Y-74956765D01*
X102155688Y-74960934D01*
X102230461Y-75013625D01*
X102286503Y-75058424D01*
X102312099Y-75086021D01*
X102308869Y-75107657D01*
X102288789Y-75170654D01*
X102253183Y-75268293D01*
X102204479Y-75394797D01*
X102145107Y-75544387D01*
X102077493Y-75711285D01*
X102004065Y-75889712D01*
X101927253Y-76073891D01*
X101849483Y-76258042D01*
X101773184Y-76436388D01*
X101700783Y-76603150D01*
X101634709Y-76752549D01*
X101577391Y-76878809D01*
X101531254Y-76976149D01*
X101498729Y-77038793D01*
X101482242Y-77060961D01*
X101468532Y-77057958D01*
X101414669Y-77036381D01*
X101335063Y-76998548D01*
X101241449Y-76949875D01*
X101035961Y-76838770D01*
X100791166Y-77004346D01*
X100718844Y-77053375D01*
X100584325Y-77144984D01*
X100450214Y-77236740D01*
X100336969Y-77314667D01*
X100274470Y-77357136D01*
X100193238Y-77409899D01*
X100133008Y-77446020D01*
X100103590Y-77459412D01*
X100090952Y-77453726D01*
X100045266Y-77418900D01*
X99974837Y-77357584D01*
X99885795Y-77275809D01*
X99784271Y-77179606D01*
X99676394Y-77075006D01*
X99568294Y-76968041D01*
X99466102Y-76864740D01*
X99375949Y-76771137D01*
X99303964Y-76693261D01*
X99256277Y-76637144D01*
X99239019Y-76608817D01*
X99240014Y-76603427D01*
X99260554Y-76559559D01*
X99304433Y-76483662D01*
X99367411Y-76382591D01*
X99445247Y-76263203D01*
X99533701Y-76132353D01*
X99558508Y-76096260D01*
X99645617Y-75969255D01*
X99722346Y-75856973D01*
X99784223Y-75765985D01*
X99826776Y-75702861D01*
X99845533Y-75674172D01*
X99845994Y-75672942D01*
X99840458Y-75637843D01*
X99819319Y-75566739D01*
X99786004Y-75468565D01*
X99743944Y-75352257D01*
X99696569Y-75226748D01*
X99647307Y-75100973D01*
X99599588Y-74983867D01*
X99556841Y-74884365D01*
X99522496Y-74811400D01*
X99499982Y-74773908D01*
X99497727Y-74771580D01*
X99481607Y-74759804D01*
X99454382Y-74747928D01*
X99410632Y-74734736D01*
X99344934Y-74719009D01*
X99251869Y-74699529D01*
X99126015Y-74675079D01*
X98961952Y-74644441D01*
X98754258Y-74606398D01*
X98711180Y-74598391D01*
X98587776Y-74573639D01*
X98483971Y-74550188D01*
X98409600Y-74530365D01*
X98374503Y-74516500D01*
X98368631Y-74504932D01*
X98358842Y-74449365D01*
X98351084Y-74357245D01*
X98345364Y-74237206D01*
X98341688Y-74097877D01*
X98340061Y-73947890D01*
X98340490Y-73795876D01*
X98342981Y-73650467D01*
X98347539Y-73520292D01*
X98354170Y-73413985D01*
X98362881Y-73340174D01*
X98373676Y-73307493D01*
X98384698Y-73302665D01*
X98439530Y-73287446D01*
X98532212Y-73265921D01*
X98655350Y-73239694D01*
X98801547Y-73210369D01*
X98963406Y-73179551D01*
X99051783Y-73163086D01*
X99203258Y-73134534D01*
X99333639Y-73109532D01*
X99435954Y-73089440D01*
X99503227Y-73075617D01*
X99528488Y-73069420D01*
X99529438Y-73068143D01*
X99545525Y-73035692D01*
X99576193Y-72967707D01*
X99617610Y-72873209D01*
X99665940Y-72761219D01*
X99717353Y-72640755D01*
X99768013Y-72520839D01*
X99814088Y-72410490D01*
X99851745Y-72318728D01*
X99877150Y-72254574D01*
X99886470Y-72227047D01*
X99882359Y-72217361D01*
X99854999Y-72171273D01*
X99805369Y-72093695D01*
X99737459Y-71990716D01*
X99655254Y-71868422D01*
X99562745Y-71732901D01*
X99511991Y-71658684D01*
X99424402Y-71528564D01*
X99349306Y-71414367D01*
X99290706Y-71322321D01*
X99252608Y-71258653D01*
X99239019Y-71229592D01*
X99248462Y-71213828D01*
X99287959Y-71166726D01*
X99352757Y-71095441D01*
X99436908Y-71006015D01*
X99534463Y-70904487D01*
X99639473Y-70796898D01*
X99745992Y-70689289D01*
X99848070Y-70587700D01*
X99939759Y-70498172D01*
X100015111Y-70426744D01*
X100068179Y-70379458D01*
X100093013Y-70362353D01*
X100106798Y-70369004D01*
X100157417Y-70399847D01*
X100239104Y-70452338D01*
X100345971Y-70522630D01*
X100472131Y-70606877D01*
X100611698Y-70701233D01*
X101110055Y-71040112D01*
X101525469Y-70868865D01*
X101940882Y-70697618D01*
X102053464Y-70100427D01*
X102166047Y-69503235D01*
X103409050Y-69503235D01*
X103521633Y-70100427D01*
G37*
X103521633Y-70100427D02*
X103634215Y-70697618D01*
X104049629Y-70868865D01*
X104465042Y-71040112D01*
X104963400Y-70701233D01*
X105062036Y-70634425D01*
X105192796Y-70546734D01*
X105306007Y-70471835D01*
X105395788Y-70413575D01*
X105456260Y-70375800D01*
X105481543Y-70362353D01*
X105497071Y-70371916D01*
X105543486Y-70411985D01*
X105613729Y-70477742D01*
X105701847Y-70563150D01*
X105801888Y-70662170D01*
X105907901Y-70768764D01*
X106013934Y-70876895D01*
X106114034Y-70980523D01*
X106202251Y-71073613D01*
X106272631Y-71150124D01*
X106319224Y-71204020D01*
X106336078Y-71229262D01*
X106332157Y-71240107D01*
X106305011Y-71288483D01*
X106255438Y-71368097D01*
X106187458Y-71472709D01*
X106105090Y-71596077D01*
X106012352Y-71731961D01*
X105961459Y-71806070D01*
X105873911Y-71935090D01*
X105798852Y-72047689D01*
X105740284Y-72137760D01*
X105702208Y-72199197D01*
X105688627Y-72225895D01*
X105688850Y-72227374D01*
X105700830Y-72261217D01*
X105728315Y-72330326D01*
X105767473Y-72425671D01*
X105814473Y-72538227D01*
X105865484Y-72658965D01*
X105916675Y-72778857D01*
X105964214Y-72888877D01*
X106004270Y-72979995D01*
X106033012Y-73043186D01*
X106046609Y-73069420D01*
X106054654Y-73071747D01*
X106103534Y-73082243D01*
X106190651Y-73099631D01*
X106309032Y-73122550D01*
X106451703Y-73149644D01*
X106611692Y-73179551D01*
X106696014Y-73195408D01*
X106850782Y-73225662D01*
X106986103Y-73253602D01*
X107094581Y-73277624D01*
X107168819Y-73296123D01*
X107201421Y-73307493D01*
X107207277Y-73318766D01*
X107216991Y-73373841D01*
X107224623Y-73465572D01*
X107230179Y-73585328D01*
X107233665Y-73724476D01*
X107235086Y-73874386D01*
X107234449Y-74026427D01*
X107231759Y-74171967D01*
X107227023Y-74302376D01*
X107220246Y-74409021D01*
X107211435Y-74483273D01*
X107200594Y-74516500D01*
X107194016Y-74520248D01*
X107144954Y-74536324D01*
X107059846Y-74557593D01*
X106948529Y-74581727D01*
X106820839Y-74606398D01*
X106777756Y-74614255D01*
X106578772Y-74650797D01*
X106422387Y-74680165D01*
X106303182Y-74703576D01*
X106215736Y-74722249D01*
X106154627Y-74737401D01*
X106114434Y-74750250D01*
X106089737Y-74762013D01*
X106075115Y-74773908D01*
X106073415Y-74775904D01*
X106049503Y-74817526D01*
X106014118Y-74893685D01*
X105970691Y-74995448D01*
X105922650Y-75113879D01*
X105873424Y-75240044D01*
X105826444Y-75365009D01*
X105785139Y-75479839D01*
X105752938Y-75575599D01*
X105733270Y-75643355D01*
X105729564Y-75674172D01*
X105732042Y-75678170D01*
X105757688Y-75716839D01*
X105805919Y-75788162D01*
X105872261Y-75885569D01*
X105952245Y-76002489D01*
X106041397Y-76132353D01*
X106065864Y-76168083D01*
X106151902Y-76296245D01*
X106226258Y-76410863D01*
X106284687Y-76505142D01*
X106322946Y-76572284D01*
X106336791Y-76605490D01*
X106333808Y-76614220D01*
X106302710Y-76657237D01*
X106241354Y-76727485D01*
X106154136Y-76820234D01*
X106045448Y-76930757D01*
X105919684Y-77054326D01*
X105847799Y-77123490D01*
X105734139Y-77231212D01*
X105634656Y-77323480D01*
X105554694Y-77395436D01*
X105499594Y-77442223D01*
X105474697Y-77458982D01*
X105457592Y-77452770D01*
X105404928Y-77423381D01*
X105328448Y-77375318D01*
X105238128Y-77314667D01*
X105173911Y-77270408D01*
X105045704Y-77182516D01*
X104908893Y-77089170D01*
X104783931Y-77004346D01*
X104539136Y-76838770D01*
X104333649Y-76949875D01*
X104285263Y-76975520D01*
X104197269Y-77019385D01*
X104129222Y-77049669D01*
X104092855Y-77060961D01*
X104080953Y-77046460D01*
X104051399Y-76991247D01*
X104007747Y-76900217D01*
X103952425Y-76779147D01*
X103887862Y-76633814D01*
X103816488Y-76469996D01*
X103740731Y-76293468D01*
X103663021Y-76110008D01*
X103585786Y-75925393D01*
X103511455Y-75745401D01*
X103442457Y-75575807D01*
X103381222Y-75422390D01*
X103330178Y-75290925D01*
X103291754Y-75187191D01*
X103268379Y-75116964D01*
X103262482Y-75086021D01*
X103262882Y-75085117D01*
X103290348Y-75056512D01*
X103347798Y-75011712D01*
X103423372Y-74960006D01*
X103447226Y-74944217D01*
X103628734Y-74794429D01*
X103778952Y-74616022D01*
X103894326Y-74416420D01*
X103971299Y-74203052D01*
X104006313Y-73983342D01*
X103995812Y-73764717D01*
X103953276Y-73570266D01*
X103876902Y-73373912D01*
X103765564Y-73198739D01*
X103612773Y-73032337D01*
X103552738Y-72979179D01*
X103358657Y-72848206D01*
X103148998Y-72759999D01*
X102929836Y-72713767D01*
X102707246Y-72708722D01*
X102487306Y-72744075D01*
X102276089Y-72819034D01*
X102079672Y-72932812D01*
X101904131Y-73084618D01*
X101755541Y-73273664D01*
X101726973Y-73320479D01*
X101629872Y-73534459D01*
X101578302Y-73757281D01*
X101570913Y-73983177D01*
X101606354Y-74206374D01*
X101683275Y-74421102D01*
X101800325Y-74621591D01*
X101956154Y-74802069D01*
X102149412Y-74956765D01*
X102155688Y-74960934D01*
X102230461Y-75013625D01*
X102286503Y-75058424D01*
X102312099Y-75086021D01*
X102308869Y-75107657D01*
X102288789Y-75170654D01*
X102253183Y-75268293D01*
X102204479Y-75394797D01*
X102145107Y-75544387D01*
X102077493Y-75711285D01*
X102004065Y-75889712D01*
X101927253Y-76073891D01*
X101849483Y-76258042D01*
X101773184Y-76436388D01*
X101700783Y-76603150D01*
X101634709Y-76752549D01*
X101577391Y-76878809D01*
X101531254Y-76976149D01*
X101498729Y-77038793D01*
X101482242Y-77060961D01*
X101468532Y-77057958D01*
X101414669Y-77036381D01*
X101335063Y-76998548D01*
X101241449Y-76949875D01*
X101035961Y-76838770D01*
X100791166Y-77004346D01*
X100718844Y-77053375D01*
X100584325Y-77144984D01*
X100450214Y-77236740D01*
X100336969Y-77314667D01*
X100274470Y-77357136D01*
X100193238Y-77409899D01*
X100133008Y-77446020D01*
X100103590Y-77459412D01*
X100090952Y-77453726D01*
X100045266Y-77418900D01*
X99974837Y-77357584D01*
X99885795Y-77275809D01*
X99784271Y-77179606D01*
X99676394Y-77075006D01*
X99568294Y-76968041D01*
X99466102Y-76864740D01*
X99375949Y-76771137D01*
X99303964Y-76693261D01*
X99256277Y-76637144D01*
X99239019Y-76608817D01*
X99240014Y-76603427D01*
X99260554Y-76559559D01*
X99304433Y-76483662D01*
X99367411Y-76382591D01*
X99445247Y-76263203D01*
X99533701Y-76132353D01*
X99558508Y-76096260D01*
X99645617Y-75969255D01*
X99722346Y-75856973D01*
X99784223Y-75765985D01*
X99826776Y-75702861D01*
X99845533Y-75674172D01*
X99845994Y-75672942D01*
X99840458Y-75637843D01*
X99819319Y-75566739D01*
X99786004Y-75468565D01*
X99743944Y-75352257D01*
X99696569Y-75226748D01*
X99647307Y-75100973D01*
X99599588Y-74983867D01*
X99556841Y-74884365D01*
X99522496Y-74811400D01*
X99499982Y-74773908D01*
X99497727Y-74771580D01*
X99481607Y-74759804D01*
X99454382Y-74747928D01*
X99410632Y-74734736D01*
X99344934Y-74719009D01*
X99251869Y-74699529D01*
X99126015Y-74675079D01*
X98961952Y-74644441D01*
X98754258Y-74606398D01*
X98711180Y-74598391D01*
X98587776Y-74573639D01*
X98483971Y-74550188D01*
X98409600Y-74530365D01*
X98374503Y-74516500D01*
X98368631Y-74504932D01*
X98358842Y-74449365D01*
X98351084Y-74357245D01*
X98345364Y-74237206D01*
X98341688Y-74097877D01*
X98340061Y-73947890D01*
X98340490Y-73795876D01*
X98342981Y-73650467D01*
X98347539Y-73520292D01*
X98354170Y-73413985D01*
X98362881Y-73340174D01*
X98373676Y-73307493D01*
X98384698Y-73302665D01*
X98439530Y-73287446D01*
X98532212Y-73265921D01*
X98655350Y-73239694D01*
X98801547Y-73210369D01*
X98963406Y-73179551D01*
X99051783Y-73163086D01*
X99203258Y-73134534D01*
X99333639Y-73109532D01*
X99435954Y-73089440D01*
X99503227Y-73075617D01*
X99528488Y-73069420D01*
X99529438Y-73068143D01*
X99545525Y-73035692D01*
X99576193Y-72967707D01*
X99617610Y-72873209D01*
X99665940Y-72761219D01*
X99717353Y-72640755D01*
X99768013Y-72520839D01*
X99814088Y-72410490D01*
X99851745Y-72318728D01*
X99877150Y-72254574D01*
X99886470Y-72227047D01*
X99882359Y-72217361D01*
X99854999Y-72171273D01*
X99805369Y-72093695D01*
X99737459Y-71990716D01*
X99655254Y-71868422D01*
X99562745Y-71732901D01*
X99511991Y-71658684D01*
X99424402Y-71528564D01*
X99349306Y-71414367D01*
X99290706Y-71322321D01*
X99252608Y-71258653D01*
X99239019Y-71229592D01*
X99248462Y-71213828D01*
X99287959Y-71166726D01*
X99352757Y-71095441D01*
X99436908Y-71006015D01*
X99534463Y-70904487D01*
X99639473Y-70796898D01*
X99745992Y-70689289D01*
X99848070Y-70587700D01*
X99939759Y-70498172D01*
X100015111Y-70426744D01*
X100068179Y-70379458D01*
X100093013Y-70362353D01*
X100106798Y-70369004D01*
X100157417Y-70399847D01*
X100239104Y-70452338D01*
X100345971Y-70522630D01*
X100472131Y-70606877D01*
X100611698Y-70701233D01*
X101110055Y-71040112D01*
X101525469Y-70868865D01*
X101940882Y-70697618D01*
X102053464Y-70100427D01*
X102166047Y-69503235D01*
X103409050Y-69503235D01*
X103521633Y-70100427D01*
D14*
%TO.C,TP5*%
X62850000Y-86700000D02*
G75*
G03*
X62850000Y-86700000I-950000J0D01*
G01*
%TO.C,TP10*%
X210500000Y-71900000D02*
G75*
G03*
X210500000Y-71900000I-950000J0D01*
G01*
%TD*%
%LPC*%
D17*
%TO.C,H1*%
X226314000Y-73914000D03*
D18*
X226314000Y-73914000D03*
%TD*%
%TO.C,H2*%
X73279000Y-73914000D03*
D17*
X73279000Y-73914000D03*
%TD*%
D18*
%TO.C,H4*%
X73279000Y-121031000D03*
D17*
X73279000Y-121031000D03*
%TD*%
D19*
%TO.C,H5*%
X171577000Y-83312000D03*
D20*
X171577000Y-83312000D03*
%TD*%
D18*
%TO.C,H3*%
X226314000Y-121031000D03*
D17*
X226314000Y-121031000D03*
%TD*%
D21*
%TO.C,J5*%
X217342500Y-112000000D03*
D22*
X217342500Y-118000000D03*
D23*
X222042500Y-115000000D03*
%TD*%
D24*
%TO.C,TP6*%
X184700000Y-123700000D03*
%TD*%
D25*
%TO.C,J3*%
X110230000Y-76340000D03*
X110230000Y-71260000D03*
D26*
X112770000Y-76340000D03*
X112770000Y-71260000D03*
X115310000Y-76340000D03*
X115310000Y-71260000D03*
X117850000Y-76340000D03*
X117850000Y-71260000D03*
X120390000Y-76340000D03*
X120390000Y-71260000D03*
X122930000Y-76340000D03*
X122930000Y-71260000D03*
X125470000Y-76340000D03*
X125470000Y-71260000D03*
X128010000Y-76340000D03*
X128010000Y-71260000D03*
X130550000Y-76340000D03*
X130550000Y-71260000D03*
X133090000Y-76340000D03*
X133090000Y-71260000D03*
X135630000Y-76340000D03*
X135630000Y-71260000D03*
X138170000Y-76340000D03*
X138170000Y-71260000D03*
X140710000Y-76340000D03*
X140710000Y-71260000D03*
X143250000Y-76340000D03*
X143250000Y-71260000D03*
X145790000Y-76340000D03*
X145790000Y-71260000D03*
X148330000Y-76340000D03*
X148330000Y-71260000D03*
X150870000Y-76340000D03*
X150870000Y-71260000D03*
X153410000Y-76340000D03*
X153410000Y-71260000D03*
X155950000Y-76340000D03*
X155950000Y-71260000D03*
X158490000Y-76340000D03*
X158490000Y-71260000D03*
X161030000Y-76340000D03*
X161030000Y-71260000D03*
X163570000Y-76340000D03*
X163570000Y-71260000D03*
X166110000Y-76340000D03*
X166110000Y-71260000D03*
X168650000Y-76340000D03*
X168650000Y-71260000D03*
X171190000Y-76340000D03*
X171190000Y-71260000D03*
X173730000Y-76340000D03*
X173730000Y-71260000D03*
X176270000Y-76340000D03*
X176270000Y-71260000D03*
X178810000Y-76340000D03*
X178810000Y-71260000D03*
X181350000Y-76340000D03*
X181350000Y-71260000D03*
X183890000Y-76340000D03*
X183890000Y-71260000D03*
X186430000Y-76340000D03*
X186430000Y-71260000D03*
X188970000Y-76340000D03*
X188970000Y-71260000D03*
%TD*%
D27*
%TO.C,REF\u002A\u002A*%
X220100000Y-123900000D03*
%TD*%
%TO.C,REF\u002A\u002A*%
X221700000Y-70000000D03*
%TD*%
D28*
%TO.C,U31*%
X213650000Y-107300000D03*
D29*
X216190000Y-107300000D03*
X218730000Y-107300000D03*
%TD*%
D30*
%TO.C,J7*%
X204200000Y-123305000D03*
D31*
X209200000Y-123305000D03*
%TD*%
D27*
%TO.C,REF\u002A\u002A*%
X61000000Y-69900000D03*
%TD*%
D32*
%TO.C,J1*%
X226497500Y-94050000D03*
D33*
X229037500Y-94050000D03*
X226497500Y-96590000D03*
X229037500Y-96590000D03*
X226497500Y-99130000D03*
X229037500Y-99130000D03*
X226497500Y-101670000D03*
X229037500Y-101670000D03*
X226497500Y-104210000D03*
X229037500Y-104210000D03*
X226497500Y-106750000D03*
X229037500Y-106750000D03*
%TD*%
D32*
%TO.C,J2*%
X58847500Y-93950000D03*
D33*
X61387500Y-93950000D03*
X58847500Y-96490000D03*
X61387500Y-96490000D03*
X58847500Y-99030000D03*
X61387500Y-99030000D03*
X58847500Y-101570000D03*
X61387500Y-101570000D03*
X58847500Y-104110000D03*
X61387500Y-104110000D03*
X58847500Y-106650000D03*
X61387500Y-106650000D03*
%TD*%
D27*
%TO.C,REF\u002A\u002A*%
X65900000Y-123900000D03*
%TD*%
D34*
%TO.C,TP12*%
X59900000Y-73300000D03*
%TD*%
%TO.C,TP11*%
X57400000Y-73200000D03*
%TD*%
%TO.C,TP15*%
X66600000Y-99000000D03*
%TD*%
%TO.C,TP2*%
X64900000Y-73400000D03*
%TD*%
%TO.C,TP4*%
X59400000Y-86700000D03*
%TD*%
%TO.C,TP13*%
X60500000Y-113800000D03*
%TD*%
%TO.C,TP7*%
X66600000Y-96500000D03*
%TD*%
%TO.C,TP14*%
X66600000Y-101600000D03*
%TD*%
%TO.C,TP3*%
X67400000Y-73400000D03*
%TD*%
%TO.C,TP1*%
X62400000Y-73300000D03*
%TD*%
%TO.C,TP5*%
X61900000Y-86700000D03*
%TD*%
%TO.C,TP10*%
X209550000Y-71900000D03*
%TD*%
D35*
X207800000Y-102200000D03*
X217050000Y-73200000D03*
X222050000Y-75350000D03*
X222100000Y-77650000D03*
X218050000Y-77550000D03*
X217950000Y-75300000D03*
X215650000Y-75300000D03*
X215550000Y-77600000D03*
X211750000Y-77550000D03*
X210950000Y-75300000D03*
X210950000Y-86900000D03*
X213500000Y-86950000D03*
X216150000Y-86950000D03*
X218700000Y-86950000D03*
X221250000Y-86900000D03*
X223850000Y-86900000D03*
X226550000Y-86900000D03*
X229100000Y-86600000D03*
X116734450Y-89766926D03*
X113950688Y-89450688D03*
X117800000Y-84300000D03*
X114900000Y-84050000D03*
X141750000Y-84500500D03*
X73905743Y-89595633D03*
X141009669Y-89591706D03*
X71300000Y-89400000D03*
X147878528Y-84500500D03*
X110534574Y-89466802D03*
X142834339Y-89565659D03*
X107800688Y-89500688D03*
X150125458Y-84500500D03*
X148954539Y-89648948D03*
X160295016Y-84450500D03*
X111250000Y-84000000D03*
X159393090Y-89796490D03*
X108900000Y-83950000D03*
X166100000Y-84500000D03*
X80095463Y-89342379D03*
X163699500Y-89300000D03*
X77450688Y-89350688D03*
X175750000Y-89150000D03*
X104377611Y-89423764D03*
X174600000Y-89200000D03*
X101846692Y-89454683D03*
X105300000Y-84100000D03*
X102800000Y-84100000D03*
X86110106Y-89410106D03*
X83450688Y-89450688D03*
X98375682Y-89352193D03*
X95800000Y-89400000D03*
X93100000Y-84350000D03*
X207500000Y-88200000D03*
X88850500Y-84300000D03*
X92200688Y-89400688D03*
X99200000Y-84100000D03*
X89544744Y-89500000D03*
X96550000Y-84150000D03*
X72600000Y-112300000D03*
X83800000Y-121400000D03*
X93300000Y-112100000D03*
X101500000Y-122100000D03*
X63000000Y-84900000D03*
X100900000Y-122800000D03*
X62000000Y-84900000D03*
X92600000Y-112900000D03*
X83200000Y-122500000D03*
X72000000Y-113200000D03*
X61000000Y-84900000D03*
X82500000Y-123200000D03*
X71400000Y-114000000D03*
X92000000Y-113800000D03*
X100200000Y-123400000D03*
X190600000Y-125500000D03*
X179500000Y-114000000D03*
X65200000Y-84900000D03*
X128100000Y-121600000D03*
X175700000Y-120000000D03*
X158700000Y-114000000D03*
X137000000Y-114000000D03*
X147600000Y-121700000D03*
X164500000Y-122300000D03*
X190600000Y-124500000D03*
X148200000Y-121000000D03*
X165300000Y-121773500D03*
X137700000Y-113400000D03*
X128800000Y-120900000D03*
X159400000Y-113400000D03*
X66200000Y-84900000D03*
X180100000Y-113400000D03*
X175000000Y-120700000D03*
X148877708Y-120277708D03*
X67200000Y-84900000D03*
X129500000Y-119900000D03*
X190600000Y-123600000D03*
X174400000Y-121300000D03*
X166000000Y-121200000D03*
X138300000Y-112700000D03*
X180800000Y-112800000D03*
X160100000Y-112600000D03*
X200500000Y-106800000D03*
X192600000Y-120700000D03*
X199600000Y-106500000D03*
X191600000Y-120700000D03*
X194400000Y-120800000D03*
X204500000Y-106700000D03*
X193500000Y-120700000D03*
X201600000Y-106800000D03*
X124980000Y-118420000D03*
X190743750Y-119443750D03*
X136250000Y-109275000D03*
X67600000Y-109600000D03*
X85657500Y-71357500D03*
X177500000Y-120700000D03*
X81800000Y-118300000D03*
X91425000Y-109225000D03*
X99450000Y-118600000D03*
X58500000Y-80000000D03*
X163762500Y-118437500D03*
X146982500Y-118267500D03*
X178395000Y-109255000D03*
X113165000Y-119535000D03*
X57500000Y-118100000D03*
X58800000Y-72000000D03*
X157595000Y-109255000D03*
X97225000Y-71825000D03*
D36*
X106400000Y-97800000D03*
D37*
X102750000Y-75600000D03*
D36*
X142950000Y-97950000D03*
X185400000Y-97900000D03*
X76400000Y-89200000D03*
X57400000Y-76000000D03*
X203300000Y-87400000D03*
X156200000Y-89200000D03*
X121400000Y-120000000D03*
X125800000Y-89200000D03*
X184300000Y-87300000D03*
X60100000Y-108700000D03*
X88325000Y-98000000D03*
X179400000Y-98100000D03*
X190600000Y-87400000D03*
X124725000Y-97900000D03*
X144000000Y-89200000D03*
X197200000Y-98100000D03*
X134000000Y-124300000D03*
X162300000Y-89200000D03*
D35*
X161179895Y-116620104D03*
X62600000Y-80000000D03*
D36*
X112575000Y-97900000D03*
X136875000Y-98025000D03*
X196900000Y-87300000D03*
X137900000Y-89300000D03*
X150200000Y-89200000D03*
D35*
X139300000Y-116600000D03*
X164400000Y-114700000D03*
D36*
X100425000Y-97875000D03*
X70300000Y-89100000D03*
X131300000Y-120900000D03*
X191400000Y-98000000D03*
X155075000Y-98025000D03*
X167300000Y-98000000D03*
X113000000Y-89200000D03*
X82165879Y-89296544D03*
X94350000Y-98075000D03*
X203600000Y-98100000D03*
X161175000Y-97875000D03*
D35*
X105800000Y-120600000D03*
D36*
X119700000Y-89200000D03*
X88600000Y-89200000D03*
X173300000Y-98000000D03*
X100900000Y-89200000D03*
X149025000Y-97925000D03*
X70163714Y-98063714D03*
X167300000Y-120600000D03*
X82205503Y-97819497D03*
X76100000Y-98100000D03*
X118650000Y-98000000D03*
X130800000Y-97925000D03*
X94700000Y-89200000D03*
D35*
X64206033Y-94000000D03*
D36*
X102600000Y-122900000D03*
X131800000Y-89200000D03*
X106900000Y-89200000D03*
X178000000Y-87400000D03*
X115300000Y-97900000D03*
X134400000Y-89200000D03*
X164800000Y-85400000D03*
X97326500Y-89200000D03*
X127300000Y-98000000D03*
X139400000Y-98000000D03*
X128300000Y-89200000D03*
X145700000Y-98000000D03*
X199500000Y-87400000D03*
X72600000Y-97900000D03*
X186800000Y-87300000D03*
D35*
X196127708Y-109227708D03*
D36*
X152600000Y-89200000D03*
X163700000Y-98100000D03*
X206200000Y-98000000D03*
X146600000Y-89200000D03*
D35*
X175900000Y-109300000D03*
D36*
X180500000Y-87400000D03*
X73100000Y-89200000D03*
X85118837Y-89200000D03*
D35*
X57500000Y-119900000D03*
X134300000Y-109300000D03*
D36*
X79039504Y-89196963D03*
X164800000Y-89200000D03*
D38*
X206000000Y-108200000D03*
D36*
X161099999Y-85400001D03*
D35*
X122700000Y-109300000D03*
D36*
X87600000Y-85400000D03*
X91200000Y-89200000D03*
X84500000Y-98200000D03*
X115700000Y-89200000D03*
X169800000Y-98000000D03*
X122200000Y-89200000D03*
D35*
X111200000Y-109300000D03*
D36*
X139900000Y-89500000D03*
X158700000Y-89200000D03*
X78800000Y-85300000D03*
X182000000Y-98000000D03*
X78700000Y-97967447D03*
X194100000Y-98000000D03*
X200100000Y-98000000D03*
X188000000Y-97900000D03*
X109300000Y-98000000D03*
X84700000Y-85300000D03*
X121100000Y-98000000D03*
D38*
X203000000Y-108300000D03*
D36*
X109500000Y-89300000D03*
X193200000Y-87400000D03*
X103000000Y-97900000D03*
D35*
X88100000Y-109200000D03*
D36*
X70100000Y-79800000D03*
X133400000Y-98000000D03*
X103400000Y-89200000D03*
X73106243Y-85217396D03*
X157900000Y-97900000D03*
X175672205Y-97872205D03*
X97000000Y-98000000D03*
X158000000Y-85400000D03*
X151900000Y-98000000D03*
X205500000Y-87300000D03*
X90900000Y-98200000D03*
D35*
X155200000Y-109200000D03*
X63900000Y-80000000D03*
X59600000Y-116300000D03*
X57500000Y-112600000D03*
X82900000Y-74747500D03*
X108900000Y-123300000D03*
X116200000Y-123300000D03*
X68500000Y-77000000D03*
X125100000Y-121750000D03*
X182685445Y-116373500D03*
X125050000Y-119850000D03*
X140250000Y-116925000D03*
X125100000Y-120800000D03*
X162044309Y-116639756D03*
X125100000Y-122650000D03*
X194800000Y-123200000D03*
X66000000Y-89000000D03*
X116100000Y-119500000D03*
X116100000Y-120400000D03*
X61300000Y-80000000D03*
X60400000Y-80000000D03*
X116100000Y-121300000D03*
X105800000Y-121500000D03*
X59500000Y-80000000D03*
X64300000Y-89000000D03*
X105863249Y-119763250D03*
X123550000Y-89250000D03*
X119075000Y-102875000D03*
X117495000Y-102805000D03*
X122525000Y-97925000D03*
X129650000Y-89275000D03*
X122235000Y-102985000D03*
X120655000Y-102980000D03*
X128550000Y-97850000D03*
X135700000Y-89100000D03*
X125425000Y-102900000D03*
X134600000Y-97900000D03*
X123862292Y-102882292D03*
X141225000Y-102825000D03*
X141750000Y-89125000D03*
X126975000Y-102850000D03*
X140675000Y-97950000D03*
X147825000Y-89100000D03*
X144391666Y-102808334D03*
X146700000Y-97925000D03*
X142808333Y-102866667D03*
X153900000Y-89100000D03*
X147558332Y-102858332D03*
X152775000Y-97975000D03*
X145974999Y-102925001D03*
X150725000Y-102875000D03*
X160199001Y-89211533D03*
X158875000Y-97950000D03*
X149141665Y-102833335D03*
X166025000Y-89150000D03*
X166550000Y-102975000D03*
X164975000Y-102850000D03*
X165025000Y-98150000D03*
X171050000Y-97950000D03*
X168125000Y-102850000D03*
X176852708Y-97577708D03*
X169700000Y-102875000D03*
X181750000Y-87275000D03*
X171275000Y-102850000D03*
X183225000Y-97850000D03*
X172848708Y-102850844D03*
X188150000Y-87425000D03*
X174425000Y-102800000D03*
X188725000Y-102950000D03*
X189250000Y-97975000D03*
X194450000Y-87250000D03*
X190300000Y-102875000D03*
X191875000Y-102900000D03*
X195400000Y-98100000D03*
X193450000Y-102925000D03*
X200750000Y-87250000D03*
X195025000Y-102825000D03*
X201422023Y-97730111D03*
X196600000Y-102875000D03*
X207100000Y-87300000D03*
X198175000Y-102825000D03*
X204950000Y-97875000D03*
X116375000Y-97825000D03*
X114335000Y-102885000D03*
X75325000Y-89250000D03*
X81108333Y-102916667D03*
X115915000Y-102890000D03*
X117599001Y-89125000D03*
X79519863Y-102869863D03*
X73978170Y-97846830D03*
X110300000Y-97925000D03*
X111175000Y-102875000D03*
X81000000Y-89150000D03*
X84274999Y-102825001D03*
X112755000Y-102920000D03*
X111350000Y-89075000D03*
X79900000Y-97900000D03*
X82691666Y-102858334D03*
X108015000Y-102965000D03*
X104250000Y-97770478D03*
X87441665Y-102916665D03*
X87075000Y-89275000D03*
X105300000Y-89150000D03*
X109595000Y-102880000D03*
X85467000Y-98017954D03*
X85858332Y-102866668D03*
X104855000Y-102920000D03*
X98175000Y-97975000D03*
X93150000Y-89250000D03*
X103275000Y-102925000D03*
X106435000Y-102885000D03*
X99200000Y-89175000D03*
X108900000Y-122300000D03*
X116200000Y-122300000D03*
X68700000Y-101000000D03*
X74600000Y-116700000D03*
X111173500Y-120903319D03*
X95300000Y-116700000D03*
X111700000Y-121600000D03*
X67100000Y-77000000D03*
X65800000Y-77000000D03*
X64600000Y-77100000D03*
D36*
X61400000Y-76600000D03*
D35*
X80200000Y-76900000D03*
M02*
