%TF.GenerationSoftware,KiCad,Pcbnew,(6.0.0-0)*%
%TF.CreationDate,2023-03-21T22:31:33-06:00*%
%TF.ProjectId,FlippyDriver,466c6970-7079-4447-9269-7665722e6b69,D.1*%
%TF.SameCoordinates,Original*%
%TF.FileFunction,Soldermask,Bot*%
%TF.FilePolarity,Negative*%
%FSLAX46Y46*%
G04 Gerber Fmt 4.6, Leading zero omitted, Abs format (unit mm)*
G04 Created by KiCad (PCBNEW (6.0.0-0)) date 2023-03-21 22:31:33*
%MOMM*%
%LPD*%
G01*
G04 APERTURE LIST*
G04 Aperture macros list*
%AMRoundRect*
0 Rectangle with rounded corners*
0 $1 Rounding radius*
0 $2 $3 $4 $5 $6 $7 $8 $9 X,Y pos of 4 corners*
0 Add a 4 corners polygon primitive as box body*
4,1,4,$2,$3,$4,$5,$6,$7,$8,$9,$2,$3,0*
0 Add four circle primitives for the rounded corners*
1,1,$1+$1,$2,$3*
1,1,$1+$1,$4,$5*
1,1,$1+$1,$6,$7*
1,1,$1+$1,$8,$9*
0 Add four rect primitives between the rounded corners*
20,1,$1+$1,$2,$3,$4,$5,0*
20,1,$1+$1,$4,$5,$6,$7,0*
20,1,$1+$1,$6,$7,$8,$9,0*
20,1,$1+$1,$8,$9,$2,$3,0*%
G04 Aperture macros list end*
%ADD10C,7.000000*%
%ADD11C,3.900000*%
%ADD12C,9.000000*%
%ADD13C,4.900000*%
%ADD14R,3.500000X3.500000*%
%ADD15RoundRect,0.750000X1.000000X-0.750000X1.000000X0.750000X-1.000000X0.750000X-1.000000X-0.750000X0*%
%ADD16RoundRect,0.875000X0.875000X-0.875000X0.875000X0.875000X-0.875000X0.875000X-0.875000X-0.875000X0*%
%ADD17C,2.800000*%
%ADD18R,2.300000X1.500000*%
%ADD19O,2.300000X1.500000*%
%ADD20R,2.600000X2.600000*%
%ADD21C,2.600000*%
%ADD22R,1.700000X1.700000*%
%ADD23O,1.700000X1.700000*%
%ADD24C,1.152000*%
%ADD25C,1.700000*%
%ADD26RoundRect,0.250000X-0.600000X-0.600000X0.600000X-0.600000X0.600000X0.600000X-0.600000X0.600000X0*%
%ADD27C,1.500000*%
%ADD28C,2.000000*%
%ADD29C,0.600000*%
%ADD30C,0.800000*%
G04 APERTURE END LIST*
D10*
%TO.C,H1*%
X226314000Y-73914000D03*
D11*
X226314000Y-73914000D03*
%TD*%
%TO.C,H2*%
X73279000Y-73914000D03*
D10*
X73279000Y-73914000D03*
%TD*%
D11*
%TO.C,H4*%
X73279000Y-121031000D03*
D10*
X73279000Y-121031000D03*
%TD*%
D12*
%TO.C,H5*%
X171577000Y-83312000D03*
D13*
X171577000Y-83312000D03*
%TD*%
D11*
%TO.C,H3*%
X226314000Y-121031000D03*
D10*
X226314000Y-121031000D03*
%TD*%
D14*
%TO.C,J5*%
X215492500Y-116350000D03*
D15*
X215492500Y-122350000D03*
D16*
X220192500Y-119350000D03*
%TD*%
D17*
%TO.C,TP6*%
X156200000Y-120050000D03*
%TD*%
D18*
%TO.C,U4*%
X236262500Y-116353000D03*
D19*
X236262500Y-118893000D03*
X236262500Y-121433000D03*
%TD*%
D20*
%TO.C,J4*%
X202370000Y-121055000D03*
D21*
X207370000Y-121055000D03*
%TD*%
D22*
%TO.C,J3*%
X110230000Y-76340000D03*
X110230000Y-71260000D03*
D23*
X112770000Y-76340000D03*
X112770000Y-71260000D03*
X115310000Y-76340000D03*
X115310000Y-71260000D03*
X117850000Y-76340000D03*
X117850000Y-71260000D03*
X120390000Y-76340000D03*
X120390000Y-71260000D03*
X122930000Y-76340000D03*
X122930000Y-71260000D03*
X125470000Y-76340000D03*
X125470000Y-71260000D03*
X128010000Y-76340000D03*
X128010000Y-71260000D03*
X130550000Y-76340000D03*
X130550000Y-71260000D03*
X133090000Y-76340000D03*
X133090000Y-71260000D03*
X135630000Y-76340000D03*
X135630000Y-71260000D03*
X138170000Y-76340000D03*
X138170000Y-71260000D03*
X140710000Y-76340000D03*
X140710000Y-71260000D03*
X143250000Y-76340000D03*
X143250000Y-71260000D03*
X145790000Y-76340000D03*
X145790000Y-71260000D03*
X148330000Y-76340000D03*
X148330000Y-71260000D03*
X150870000Y-76340000D03*
X150870000Y-71260000D03*
X153410000Y-76340000D03*
X153410000Y-71260000D03*
X155950000Y-76340000D03*
X155950000Y-71260000D03*
X158490000Y-76340000D03*
X158490000Y-71260000D03*
X161030000Y-76340000D03*
X161030000Y-71260000D03*
X163570000Y-76340000D03*
X163570000Y-71260000D03*
X166110000Y-76340000D03*
X166110000Y-71260000D03*
X168650000Y-76340000D03*
X168650000Y-71260000D03*
X171190000Y-76340000D03*
X171190000Y-71260000D03*
X173730000Y-76340000D03*
X173730000Y-71260000D03*
X176270000Y-76340000D03*
X176270000Y-71260000D03*
X178810000Y-76340000D03*
X178810000Y-71260000D03*
X181350000Y-76340000D03*
X181350000Y-71260000D03*
X183890000Y-76340000D03*
X183890000Y-71260000D03*
X186430000Y-76340000D03*
X186430000Y-71260000D03*
X188970000Y-76340000D03*
X188970000Y-71260000D03*
%TD*%
D24*
%TO.C,REF\u002A\u002A*%
X241200000Y-123100000D03*
%TD*%
%TO.C,REF\u002A\u002A*%
X235175000Y-69050000D03*
%TD*%
%TO.C,REF\u002A\u002A*%
X58650000Y-69950000D03*
%TD*%
D25*
%TO.C,J1*%
X240247500Y-106770000D03*
X237707500Y-106770000D03*
X240247500Y-104230000D03*
X237707500Y-104230000D03*
X240247500Y-101690000D03*
X237707500Y-101690000D03*
X240247500Y-99150000D03*
X237707500Y-99150000D03*
X240247500Y-96610000D03*
X237707500Y-96610000D03*
X240247500Y-94070000D03*
D26*
X237707500Y-94070000D03*
%TD*%
%TO.C,J2*%
X58847500Y-93950000D03*
D25*
X61387500Y-93950000D03*
X58847500Y-96490000D03*
X61387500Y-96490000D03*
X58847500Y-99030000D03*
X61387500Y-99030000D03*
X58847500Y-101570000D03*
X61387500Y-101570000D03*
X58847500Y-104110000D03*
X61387500Y-104110000D03*
X58847500Y-106650000D03*
X61387500Y-106650000D03*
%TD*%
D24*
%TO.C,REF\u002A\u002A*%
X58100000Y-123500000D03*
%TD*%
D27*
%TO.C,TP12*%
X59900000Y-73300000D03*
%TD*%
%TO.C,TP11*%
X57400000Y-73200000D03*
%TD*%
D28*
%TO.C,REF\u002A\u002A*%
X61100000Y-124500000D03*
%TD*%
D27*
%TO.C,TP15*%
X66600000Y-99000000D03*
%TD*%
%TO.C,TP2*%
X64900000Y-73400000D03*
%TD*%
%TO.C,TP4*%
X59400000Y-86700000D03*
%TD*%
D28*
%TO.C,REF\u002A\u002A*%
X61600000Y-69400000D03*
%TD*%
D27*
%TO.C,TP13*%
X60500000Y-113800000D03*
%TD*%
%TO.C,TP7*%
X66600000Y-96500000D03*
%TD*%
%TO.C,TP14*%
X66600000Y-101600000D03*
%TD*%
D28*
%TO.C,REF\u002A\u002A*%
X230400000Y-77400000D03*
%TD*%
D27*
%TO.C,TP3*%
X67400000Y-73400000D03*
%TD*%
%TO.C,TP1*%
X62400000Y-73300000D03*
%TD*%
D28*
%TO.C,REF\u002A\u002A*%
X241200000Y-120025000D03*
%TD*%
D27*
%TO.C,TP5*%
X61900000Y-86700000D03*
%TD*%
%TO.C,TP10*%
X238150000Y-74100000D03*
%TD*%
D29*
X217910000Y-90050000D03*
X218602500Y-80897500D03*
X219160000Y-90050000D03*
X218630000Y-84630000D03*
X116734450Y-89766926D03*
X113950688Y-89450688D03*
X117800000Y-84300000D03*
X114900000Y-84050000D03*
X141750000Y-84500500D03*
X73905743Y-89595633D03*
X141009669Y-89591706D03*
X71300000Y-89400000D03*
X147878528Y-84500500D03*
X110534574Y-89466802D03*
X142834339Y-89565659D03*
X107800688Y-89500688D03*
X150125458Y-84500500D03*
X148954539Y-89648948D03*
X160295016Y-84450500D03*
X111250000Y-84000000D03*
X159393090Y-89796490D03*
X108900000Y-83950000D03*
X166100000Y-84500000D03*
X80095463Y-89342379D03*
X163699500Y-89300000D03*
X77450688Y-89350688D03*
X175750000Y-89150000D03*
X104377611Y-89423764D03*
X174600000Y-89200000D03*
X101846692Y-89454683D03*
X105300000Y-84100000D03*
X102800000Y-84100000D03*
X86110106Y-89410106D03*
X83450688Y-89450688D03*
X98375682Y-89352193D03*
X95800000Y-89400000D03*
X93100000Y-84350000D03*
X207500000Y-88200000D03*
X88850500Y-84300000D03*
X92200688Y-89400688D03*
X99200000Y-84100000D03*
X89544744Y-89500000D03*
X96550000Y-84150000D03*
X72600000Y-112300000D03*
X83800000Y-121400000D03*
X93300000Y-112100000D03*
X101500000Y-122100000D03*
X63000000Y-84900000D03*
X100900000Y-122800000D03*
X62000000Y-84900000D03*
X92600000Y-112900000D03*
X83200000Y-122500000D03*
X72000000Y-113200000D03*
X61000000Y-84900000D03*
X82500000Y-123200000D03*
X71400000Y-114000000D03*
X92000000Y-113800000D03*
X100200000Y-123400000D03*
X188700000Y-124250000D03*
X179500000Y-114000000D03*
X65200000Y-84900000D03*
X128100000Y-121600000D03*
X175700000Y-120000000D03*
X158700000Y-114000000D03*
X137000000Y-114000000D03*
X147600000Y-121700000D03*
X164500000Y-122300000D03*
X188700000Y-123400000D03*
X148200000Y-121000000D03*
X165300000Y-121773500D03*
X137700000Y-113400000D03*
X128800000Y-120900000D03*
X159400000Y-113400000D03*
X66200000Y-84900000D03*
X180100000Y-113400000D03*
X175000000Y-120700000D03*
X148877708Y-120277708D03*
X67200000Y-84900000D03*
X129500000Y-119900000D03*
X188700000Y-122450000D03*
X174400000Y-121300000D03*
X166000000Y-121200000D03*
X138300000Y-112700000D03*
X180800000Y-112800000D03*
X160100000Y-112600000D03*
X200500000Y-106800000D03*
X192600000Y-120700000D03*
X199600000Y-106500000D03*
X191600000Y-120700000D03*
X194400000Y-120800000D03*
X204500000Y-106700000D03*
X193500000Y-120700000D03*
X201600000Y-106800000D03*
X124980000Y-118420000D03*
X190743750Y-119443750D03*
X136250000Y-109275000D03*
X67600000Y-109600000D03*
X240945000Y-77190000D03*
X177500000Y-120700000D03*
X104012500Y-76426500D03*
X81800000Y-118300000D03*
D30*
X59300000Y-91550000D03*
D29*
X91425000Y-109225000D03*
X99450000Y-118600000D03*
X58500000Y-80000000D03*
X163762500Y-118437500D03*
X146982500Y-118267500D03*
X178395000Y-109255000D03*
X113165000Y-119535000D03*
X57500000Y-118100000D03*
X58800000Y-72000000D03*
X157595000Y-109255000D03*
D30*
X115300000Y-97900000D03*
X134400000Y-89200000D03*
X164800000Y-85400000D03*
X97326500Y-89200000D03*
X127300000Y-98000000D03*
X139400000Y-98000000D03*
X128300000Y-89200000D03*
X145700000Y-98000000D03*
X199500000Y-87400000D03*
X72600000Y-97900000D03*
X186800000Y-87300000D03*
D29*
X196127708Y-109227708D03*
D30*
X152600000Y-89200000D03*
X163700000Y-98100000D03*
X206200000Y-98000000D03*
X146600000Y-89200000D03*
D29*
X175900000Y-109300000D03*
D30*
X180500000Y-87400000D03*
X73100000Y-89200000D03*
X85118837Y-89200000D03*
D29*
X57651214Y-119748786D03*
X134300000Y-109300000D03*
D30*
X79039504Y-89196963D03*
X164800000Y-89200000D03*
X161099999Y-85400001D03*
D29*
X122700000Y-109300000D03*
D30*
X87600000Y-85400000D03*
X91200000Y-89200000D03*
X84500000Y-98200000D03*
X115700000Y-89200000D03*
X169800000Y-98000000D03*
X122200000Y-89200000D03*
D29*
X111200000Y-109300000D03*
D30*
X139900000Y-89500000D03*
X158700000Y-89200000D03*
X78800000Y-85300000D03*
X182000000Y-98000000D03*
X78700000Y-97967447D03*
X194100000Y-98000000D03*
X200100000Y-98000000D03*
X188000000Y-97900000D03*
X109300000Y-98000000D03*
X84700000Y-85300000D03*
X121100000Y-98000000D03*
X109500000Y-89300000D03*
X193200000Y-87400000D03*
X103000000Y-97900000D03*
D29*
X88100000Y-109200000D03*
D30*
X70100000Y-79800000D03*
X133400000Y-98000000D03*
X103400000Y-89200000D03*
X73106243Y-85217396D03*
X157900000Y-97900000D03*
X175672205Y-97872205D03*
X97000000Y-98000000D03*
X158000000Y-85400000D03*
X151900000Y-98000000D03*
X205500000Y-87300000D03*
X90900000Y-98200000D03*
D29*
X155200000Y-109200000D03*
X63900000Y-80000000D03*
X59600000Y-116300000D03*
X108900000Y-123300000D03*
X57600000Y-114625000D03*
X227025000Y-89825000D03*
X116200000Y-123300000D03*
X68500000Y-77000000D03*
X125100000Y-121750000D03*
X182685445Y-116373500D03*
X125050000Y-119850000D03*
X140250000Y-116925000D03*
X125100000Y-120800000D03*
X162044309Y-116639756D03*
X125100000Y-122650000D03*
X194800000Y-123200000D03*
X66000000Y-89000000D03*
X116100000Y-119500000D03*
X116100000Y-120400000D03*
X61300000Y-80000000D03*
X60400000Y-80000000D03*
X116100000Y-121300000D03*
X105800000Y-121500000D03*
X59500000Y-80000000D03*
X64300000Y-89000000D03*
X105863249Y-119763250D03*
X123550000Y-89250000D03*
X119075000Y-102875000D03*
X117495000Y-102805000D03*
X122525000Y-97925000D03*
X129650000Y-89275000D03*
X122235000Y-102985000D03*
X120655000Y-102980000D03*
X128550000Y-97850000D03*
X135700000Y-89100000D03*
X125425000Y-102900000D03*
X134600000Y-97900000D03*
X123862292Y-102882292D03*
X141225000Y-102825000D03*
X141750000Y-89125000D03*
X126975000Y-102850000D03*
X140675000Y-97950000D03*
X147825000Y-89100000D03*
X144391666Y-102808334D03*
X146700000Y-97925000D03*
X142808333Y-102866667D03*
X153900000Y-89100000D03*
X147558332Y-102858332D03*
X152775000Y-97975000D03*
X145974999Y-102925001D03*
X150725000Y-102875000D03*
X160199001Y-89211533D03*
X158875000Y-97950000D03*
X149141665Y-102833335D03*
X166025000Y-89150000D03*
X166550000Y-102975000D03*
X164975000Y-102850000D03*
X165025000Y-98150000D03*
X171050000Y-97950000D03*
X168125000Y-102850000D03*
X176852708Y-97577708D03*
X169700000Y-102875000D03*
X181750000Y-87275000D03*
X171275000Y-102850000D03*
X183225000Y-97850000D03*
X172848708Y-102850844D03*
X188150000Y-87425000D03*
X174425000Y-102800000D03*
X188725000Y-102950000D03*
X189250000Y-97975000D03*
X194450000Y-87250000D03*
X190300000Y-102875000D03*
X191875000Y-102900000D03*
X195400000Y-98100000D03*
X193450000Y-102925000D03*
X200750000Y-87250000D03*
X195025000Y-102825000D03*
X201422023Y-97730111D03*
X196600000Y-102875000D03*
X207100000Y-87300000D03*
X198175000Y-102825000D03*
X204950000Y-97875000D03*
X116375000Y-97825000D03*
X114335000Y-102885000D03*
X75325000Y-89250000D03*
X81108333Y-102916667D03*
X115915000Y-102890000D03*
X117599001Y-89125000D03*
X79519863Y-102869863D03*
X73978170Y-97846830D03*
X110300000Y-97925000D03*
X111175000Y-102875000D03*
X81000000Y-89150000D03*
X84274999Y-102825001D03*
X112755000Y-102920000D03*
X111350000Y-89075000D03*
X79900000Y-97900000D03*
X82691666Y-102858334D03*
X108015000Y-102965000D03*
X104250000Y-97770478D03*
X87441665Y-102916665D03*
X87075000Y-89275000D03*
X105300000Y-89150000D03*
X109595000Y-102880000D03*
X85467000Y-98017954D03*
X85858332Y-102866668D03*
X104855000Y-102920000D03*
X98175000Y-97975000D03*
X93150000Y-89250000D03*
X103275000Y-102925000D03*
X106435000Y-102885000D03*
X99200000Y-89175000D03*
X108900000Y-122300000D03*
X116200000Y-122300000D03*
X68700000Y-101000000D03*
X74600000Y-116700000D03*
X111173500Y-120903319D03*
X95300000Y-116700000D03*
X111700000Y-121600000D03*
X67100000Y-77000000D03*
X65800000Y-77000000D03*
X64600000Y-77100000D03*
D30*
X61400000Y-76600000D03*
X106400000Y-97800000D03*
X142950000Y-97950000D03*
X185400000Y-97900000D03*
X76400000Y-89200000D03*
X58750000Y-75200000D03*
X203300000Y-87400000D03*
X156200000Y-89200000D03*
X121400000Y-120000000D03*
X125800000Y-89200000D03*
X184300000Y-87300000D03*
X60100000Y-108700000D03*
X88325000Y-98000000D03*
X179400000Y-98100000D03*
X190600000Y-87400000D03*
X124725000Y-97900000D03*
X144000000Y-89200000D03*
X197200000Y-98100000D03*
X134000000Y-124300000D03*
X162300000Y-89200000D03*
D29*
X211075000Y-98075000D03*
X161179895Y-116620104D03*
X62600000Y-80000000D03*
D30*
X112575000Y-97900000D03*
X136875000Y-98025000D03*
X196900000Y-87300000D03*
X137900000Y-89300000D03*
X150200000Y-89200000D03*
D29*
X139300000Y-116600000D03*
X164400000Y-114700000D03*
D30*
X100425000Y-97875000D03*
X70300000Y-89100000D03*
X131300000Y-120900000D03*
X191400000Y-98000000D03*
X155075000Y-98025000D03*
X167300000Y-98000000D03*
X113000000Y-89200000D03*
X82165879Y-89296544D03*
X94350000Y-98075000D03*
X203600000Y-98100000D03*
X161175000Y-97875000D03*
D29*
X105800000Y-120600000D03*
X225500000Y-101925000D03*
D30*
X119700000Y-89200000D03*
X88600000Y-89200000D03*
D29*
X223300000Y-101950000D03*
D30*
X173300000Y-98000000D03*
X100900000Y-89200000D03*
X149025000Y-97925000D03*
X70163714Y-98063714D03*
D29*
X225575000Y-83000000D03*
D30*
X167300000Y-120600000D03*
X82205503Y-97819497D03*
D29*
X241250000Y-72050000D03*
D30*
X76100000Y-98100000D03*
X118650000Y-98000000D03*
X130800000Y-97925000D03*
X94700000Y-89200000D03*
D29*
X64206033Y-94000000D03*
D30*
X102600000Y-122900000D03*
X131800000Y-89200000D03*
X106900000Y-89200000D03*
X178000000Y-87400000D03*
D29*
X242225000Y-79325000D03*
X209400000Y-103450000D03*
X213368750Y-105381250D03*
X226373480Y-101751520D03*
X226300000Y-96100000D03*
X224775000Y-96225000D03*
X224575000Y-101125000D03*
X97225000Y-71825000D03*
X214150000Y-96300000D03*
X211875000Y-83350000D03*
X225070469Y-98275000D03*
X212075000Y-95350000D03*
X223900000Y-99275000D03*
X210225000Y-95250000D03*
X162500000Y-78700000D03*
X216950000Y-86275000D03*
X105700000Y-75900000D03*
X217875000Y-87550000D03*
M02*
