M48
; DRILL file {KiCad (6.0.0-0)} date Monday, March 06, 2023 at 10:31:17 PM
; FORMAT={-:-/ absolute / inch / decimal}
; #@! TF.CreationDate,2023-03-06T22:31:17-07:00
; #@! TF.GenerationSoftware,Kicad,Pcbnew,(6.0.0-0)
; #@! TF.FileFunction,Plated,1,4,PTH
FMAT,2
INCH
; #@! TA.AperFunction,Plated,PTH,ViaDrill
T1C0.0118
; #@! TA.AperFunction,Plated,PTH,ViaDrill
T2C0.0157
; #@! TA.AperFunction,Plated,PTH,ViaDrill
T3C0.0236
; #@! TA.AperFunction,Plated,PTH,ViaDrill
T4C0.0315
; #@! TA.AperFunction,Plated,PTH,ComponentDrill
T5C0.0394
; #@! TA.AperFunction,Plated,PTH,ComponentDrill
T6C0.0512
; #@! TA.AperFunction,Plated,PTH,ComponentDrill
T7C0.0630
; #@! TA.AperFunction,Plated,PTH,ComponentDrill
T8C0.1378
; #@! TA.AperFunction,Plated,PTH,ComponentDrill
T9C0.1772
%
G90
G05
T1
X2.2638Y-4.4331
X2.2638Y-4.6496
X2.2638Y-4.7205
X2.3031Y-3.1496
X2.315Y-2.8346
X2.3425Y-3.1496
X2.3465Y-4.5787
X2.378Y-3.1496
X2.4016Y-3.3425
X2.4134Y-3.1496
X2.4409Y-3.3425
X2.4646Y-3.1496
X2.4803Y-3.3425
X2.5157Y-3.1496
X2.5278Y-3.7008
X2.5315Y-3.5039
X2.5433Y-3.0354
X2.5669Y-3.3425
X2.5906Y-3.0315
X2.5984Y-3.5039
X2.6063Y-3.3425
X2.6417Y-3.0315
X2.6457Y-3.3425
X2.6614Y-4.315
X2.6969Y-3.0315
X2.7047Y-3.9764
X2.8071Y-3.5197
X2.811Y-4.4882
X2.8346Y-4.4567
X2.8583Y-4.4213
X2.9097Y-3.5274
X2.9125Y-3.8522
X2.937Y-4.5945
X2.9656Y-3.5138
X3.0492Y-3.5177
X3.1307Y-4.05
X3.1457Y-3.8543
X3.1534Y-3.5174
X3.1575Y-3.0276
X3.189Y-3.5098
X3.1932Y-4.0518
X3.2205Y-4.6575
X3.248Y-4.8504
X3.2556Y-4.0495
X3.2638Y-2.9428
X3.2756Y-4.8228
X3.2855Y-3.5217
X3.2992Y-4.7795
X3.3179Y-4.0482
X3.3648Y-3.859
X3.3723Y-2.8094
X3.3802Y-4.0499
X3.3902Y-3.5201
X3.4281Y-3.5148
X3.4426Y-4.0518
X3.4685Y-4.2992
X3.4981Y-3.3189
X3.5254Y-3.5236
X3.5994Y-4.3002
X3.622Y-4.4803
X3.6299Y-3.5197
X3.6457Y-4.4449
X3.6654Y-3.3209
X3.6673Y-3.5138
X3.6732Y-4.4134
X3.752Y-4.5945
X3.7717Y-3.5197
X3.8012Y-3.313
X3.8278Y-2.8278
X3.8652Y-3.8573
X3.8731Y-3.5178
X3.9055Y-3.311
X3.9055Y-3.5108
X3.9154Y-4.6693
X3.9449Y-4.8583
X3.9724Y-4.8346
X3.9961Y-4.8071
X4.0097Y-3.5218
X4.0472Y-3.311
X4.0659Y-4.0522
X4.1043Y-3.8492
X4.1094Y-3.5206
X4.1281Y-4.052
X4.1457Y-3.311
X4.1457Y-3.5098
X4.1654Y-4.748
X4.1654Y-4.7835
X4.1678Y-4.7151
X4.1904Y-4.0506
X4.2441Y-3.5236
X4.2526Y-4.0537
X4.2874Y-3.3051
X4.2874Y-4.815
X4.2874Y-4.8543
X4.3148Y-4.0504
X4.3425Y-3.8553
X4.3518Y-3.5223
X4.3769Y-4.76
X4.377Y-4.0502
X4.378Y-4.3031
X4.3799Y-3.3071
X4.3839Y-3.5069
X4.3976Y-4.7874
X4.4392Y-4.052
X4.4553Y-4.7061
X4.4862Y-3.5217
X4.5014Y-4.0506
X4.5236Y-3.3091
X4.5636Y-4.0508
X4.5709Y-4.7047
X4.5709Y-4.7402
X4.5709Y-4.7756
X4.5748Y-4.815
X4.5748Y-4.8543
X4.5817Y-3.8514
X4.5958Y-3.5341
X4.6258Y-4.0474
X4.6299Y-3.5089
X4.6378Y-3.3189
X4.688Y-4.0502
X4.7502Y-4.0543
X4.8124Y-4.0545
X4.8238Y-3.8553
X4.8307Y-4.3031
X4.8642Y-3.5138
X4.8765Y-4.0505
X4.9205Y-4.6622
X4.9232Y-4.7185
X4.9252Y-4.7559
X4.9252Y-4.7933
X4.9252Y-4.8287
X4.938Y-4.0512
X4.999Y-4.0492
X5.0433Y-4.7874
X5.061Y-3.8524
X5.0709Y-4.7598
X5.0984Y-4.7205
X5.1043Y-3.5148
X5.2874Y-4.3031
X5.2992Y-3.8543
X5.3425Y-3.5079
X5.3642Y-4.3022
X5.3937Y-4.4882
X5.4213Y-4.4646
X5.4449Y-4.437
X5.4843Y-4.5906
X5.5217Y-4.6033
X5.5384Y-3.8563
X5.5516Y-3.5272
X5.56Y-4.0482
X5.5807Y-3.3268
X5.5807Y-3.5089
X5.6224Y-4.0499
X5.6234Y-3.5262
X5.6847Y-4.0476
X5.747Y-4.0522
X5.7756Y-3.8553
X5.7867Y-4.6562
X5.8094Y-4.0495
X5.811Y-4.7913
X5.8199Y-3.5079
X5.822Y-3.3268
X5.8346Y-4.7638
X5.8613Y-4.7353
X5.8644Y-3.5295
X5.8717Y-4.0486
X5.9105Y-3.3268
X5.9341Y-4.0502
X6.0148Y-3.8573
X6.0591Y-3.5079
X6.1102Y-4.2992
X6.2045Y-4.3014
X6.248Y-4.4882
X6.2549Y-3.8563
X6.2753Y-3.5353
X6.2756Y-4.4646
X6.3031Y-4.4331
X6.307Y-3.5123
X6.3108Y-3.3248
X6.3457Y-4.5913
X6.3797Y-4.5921
X6.4449Y-3.5157
X6.4473Y-4.6629
X6.4724Y-4.5157
X6.4764Y-4.815
X6.4951Y-4.0492
X6.497Y-3.8642
X6.5079Y-4.7942
X6.5354Y-4.7717
X6.5364Y-3.5098
X6.5394Y-3.3268
X6.5571Y-4.0541
X6.6191Y-4.0492
X6.6811Y-4.0502
X6.7343Y-3.8563
X6.7431Y-4.0492
X6.8051Y-4.0492
X6.8661Y-4.7756
X6.8671Y-4.0472
X6.874Y-3.5118
X6.8898Y-4.752
X6.9173Y-4.7244
X6.9193Y-3.5098
X6.9252Y-4.3031
X6.9627Y-3.8416
X6.9882Y-4.752
X7.0234Y-4.3014
X7.0669Y-4.4882
X7.0906Y-4.4646
X7.1181Y-4.4409
X7.1555Y-3.436
X7.1923Y-4.5816
X7.2136Y-3.8524
X7.4075Y-3.4419
X7.4291Y-4.8209
X7.4291Y-4.8583
X7.4291Y-4.8917
X7.4301Y-4.0531
X7.4508Y-3.8573
X7.4921Y-4.0502
X7.5096Y-4.7025
X7.5433Y-4.752
X7.5541Y-4.0512
X7.5827Y-4.752
X7.6161Y-4.0522
X7.6181Y-4.752
X7.6535Y-4.7559
X7.6555Y-3.435
X7.6693Y-4.8504
X7.6781Y-4.0482
X7.6929Y-3.8622
X7.7216Y-4.3003
X7.7402Y-4.0502
X7.8022Y-4.0482
X7.8583Y-4.1929
X7.8937Y-4.2047
X7.9035Y-3.435
X7.93Y-3.8476
X7.937Y-4.2047
X8.0512Y-4.2008
X8.0689Y-3.8533
X8.1535Y-3.437
X8.1693Y-3.4724
X8.1811Y-4.0236
X8.3051Y-2.9646
X8.3051Y-3.4213
X8.3366Y-3.0531
X8.4055Y-3.4232
X8.4862Y-3.0551
X8.4902Y-2.9646
X8.5098Y-3.4232
X8.5453Y-2.8819
X8.5807Y-2.9646
X8.5846Y-3.0531
X8.6102Y-3.4232
X8.7106Y-3.4213
X8.7421Y-2.9665
X8.7441Y-3.0571
X8.813Y-3.4213
X8.9193Y-3.4213
X9.0197Y-3.4094
T2
X2.313Y-2.9606
X2.3346Y-3.6043
X2.3661Y-4.2795
X2.4173Y-3.0157
X2.7598Y-3.1417
X2.7624Y-3.8608
X2.7677Y-3.5079
X2.8583Y-3.8543
X2.878Y-3.5118
X2.8782Y-3.355
X2.9961Y-3.8622
X3.0079Y-3.5118
X3.0984Y-3.857
X3.1024Y-3.3583
X3.1118Y-3.5117
X3.2349Y-3.5156
X3.2364Y-3.8512
X3.3268Y-3.8661
X3.3346Y-3.3583
X3.3511Y-3.5118
X3.4488Y-3.3622
X3.4774Y-3.8583
X3.4882Y-3.5118
X3.5787Y-3.8661
X3.5906Y-3.5118
X3.7146Y-3.8612
X3.7283Y-3.5118
X3.8189Y-3.8583
X3.8318Y-3.5118
X3.9537Y-3.8533
X3.9724Y-3.5118
X4.0394Y-4.8386
X4.0551Y-3.8543
X4.0709Y-3.5118
X4.189Y-3.8504
X4.2087Y-3.5118
X4.3031Y-3.8583
X4.311Y-3.5157
X4.4321Y-3.8543
X4.4488Y-3.5118
X4.5394Y-3.8543
X4.5551Y-3.5118
X4.6713Y-3.8583
X4.7126Y-3.5118
X4.7677Y-3.8583
X4.7795Y-4.7244
X4.811Y-3.5118
X4.9104Y-3.8543
X4.9528Y-3.5118
X5.0118Y-3.8583
X5.0512Y-3.5118
X5.1496Y-3.8553
X5.1693Y-4.7598
X5.189Y-3.5118
X5.252Y-3.8583
X5.2756Y-4.8937
X5.2913Y-3.5118
X5.3888Y-3.8593
X5.4291Y-3.5157
X5.4882Y-3.8583
X5.5079Y-3.5236
X5.628Y-3.8563
X5.6693Y-3.5118
X5.7362Y-3.8583
X5.7717Y-3.5118
X5.8671Y-3.8553
X5.9134Y-3.5118
X5.9803Y-3.8583
X6.0079Y-3.5118
X6.1053Y-3.8593
X6.1496Y-3.5118
X6.2165Y-3.8543
X6.2205Y-3.3622
X6.248Y-3.5118
X6.3425Y-3.3622
X6.3455Y-3.8533
X6.3898Y-3.5118
X6.4449Y-3.8622
X6.4882Y-3.3622
X6.4882Y-3.5118
X6.5866Y-3.8583
X6.5866Y-4.748
X6.685Y-3.8583
X6.8228Y-3.8583
X6.9162Y-3.8532
X7.0079Y-3.4409
X7.063Y-3.8622
X7.1063Y-3.4409
X7.1654Y-3.8583
X7.2559Y-3.437
X7.2992Y-3.8543
X7.3543Y-3.437
X7.4016Y-3.8543
X7.5039Y-3.4409
X7.5354Y-3.8583
X7.6063Y-3.4409
X7.6417Y-3.8583
X7.752Y-3.437
X7.7638Y-3.8622
X7.8543Y-3.4409
X7.878Y-3.8583
X8.0039Y-3.4409
X8.0157Y-3.8622
X8.0906Y-3.437
X8.1181Y-3.8583
X8.6102Y-3.5748
T3
X4.0453Y-2.9764
T4
X7.9921Y-4.2638
X8.1102Y-4.2598
T5
X2.3168Y-3.6988
X2.3168Y-3.7988
X2.3168Y-3.8988
X2.3168Y-3.9988
X2.3168Y-4.0988
X2.3168Y-4.1988
X2.4168Y-3.6988
X2.4168Y-3.7988
X2.4168Y-3.8988
X2.4168Y-3.9988
X2.4168Y-4.0988
X2.4168Y-4.1988
X4.3398Y-2.8055
X4.3398Y-3.0055
X4.4398Y-2.8055
X4.4398Y-3.0055
X4.5398Y-2.8055
X4.5398Y-3.0055
X4.6398Y-2.8055
X4.6398Y-3.0055
X4.7398Y-2.8055
X4.7398Y-3.0055
X4.8398Y-2.8055
X4.8398Y-3.0055
X4.9398Y-2.8055
X4.9398Y-3.0055
X5.0398Y-2.8055
X5.0398Y-3.0055
X5.1398Y-2.8055
X5.1398Y-3.0055
X5.2398Y-2.8055
X5.2398Y-3.0055
X5.3398Y-2.8055
X5.3398Y-3.0055
X5.4398Y-2.8055
X5.4398Y-3.0055
X5.5398Y-2.8055
X5.5398Y-3.0055
X5.6398Y-2.8055
X5.6398Y-3.0055
X5.7398Y-2.8055
X5.7398Y-3.0055
X5.8398Y-2.8055
X5.8398Y-3.0055
X5.9398Y-2.8055
X5.9398Y-3.0055
X6.0398Y-2.8055
X6.0398Y-3.0055
X6.1398Y-2.8055
X6.1398Y-3.0055
X6.2398Y-2.8055
X6.2398Y-3.0055
X6.3398Y-2.8055
X6.3398Y-3.0055
X6.4398Y-2.8055
X6.4398Y-3.0055
X6.5398Y-2.8055
X6.5398Y-3.0055
X6.6398Y-2.8055
X6.6398Y-3.0055
X6.7398Y-2.8055
X6.7398Y-3.0055
X6.8398Y-2.8055
X6.8398Y-3.0055
X6.9398Y-2.8055
X6.9398Y-3.0055
X7.0398Y-2.8055
X7.0398Y-3.0055
X7.1398Y-2.8055
X7.1398Y-3.0055
X7.2398Y-2.8055
X7.2398Y-3.0055
X7.3398Y-2.8055
X7.3398Y-3.0055
X7.4398Y-2.8055
X7.4398Y-3.0055
X8.4114Y-4.2244
X8.5114Y-4.2244
X8.6114Y-4.2244
X8.9172Y-3.7028
X8.9172Y-3.8028
X8.9172Y-3.9028
X8.9172Y-4.0028
X8.9172Y-4.1028
X8.9172Y-4.2028
X9.0172Y-3.7028
X9.0172Y-3.8028
X9.0172Y-3.9028
X9.0172Y-4.0028
X9.0172Y-4.1028
X9.0172Y-4.2028
T6
X8.0394Y-4.8545
X8.2362Y-4.8545
T7
X7.2717Y-4.8701
T8
X2.885Y-2.91
X2.885Y-4.765
X8.91Y-2.91
X8.91Y-4.765
T9
X6.755Y-3.28
T5
G00X8.5174Y-4.4094
M15
G01X8.5962Y-4.4094
M16
G05
G00X8.5174Y-4.6457
M15
G01X8.5962Y-4.6457
M16
G05
G00X8.7418Y-4.5669
M15
G01X8.7418Y-4.4882
M16
G05
T0
M30
