%TF.GenerationSoftware,KiCad,Pcbnew,(6.0.0-0)*%
%TF.CreationDate,2022-08-16T20:21:51-06:00*%
%TF.ProjectId,FlippyDriver,466c6970-7079-4447-9269-7665722e6b69,C*%
%TF.SameCoordinates,Original*%
%TF.FileFunction,Soldermask,Bot*%
%TF.FilePolarity,Negative*%
%FSLAX46Y46*%
G04 Gerber Fmt 4.6, Leading zero omitted, Abs format (unit mm)*
G04 Created by KiCad (PCBNEW (6.0.0-0)) date 2022-08-16 20:21:51*
%MOMM*%
%LPD*%
G01*
G04 APERTURE LIST*
G04 Aperture macros list*
%AMRoundRect*
0 Rectangle with rounded corners*
0 $1 Rounding radius*
0 $2 $3 $4 $5 $6 $7 $8 $9 X,Y pos of 4 corners*
0 Add a 4 corners polygon primitive as box body*
4,1,4,$2,$3,$4,$5,$6,$7,$8,$9,$2,$3,0*
0 Add four circle primitives for the rounded corners*
1,1,$1+$1,$2,$3*
1,1,$1+$1,$4,$5*
1,1,$1+$1,$6,$7*
1,1,$1+$1,$8,$9*
0 Add four rect primitives between the rounded corners*
20,1,$1+$1,$2,$3,$4,$5,0*
20,1,$1+$1,$4,$5,$6,$7,0*
20,1,$1+$1,$6,$7,$8,$9,0*
20,1,$1+$1,$8,$9,$2,$3,0*%
G04 Aperture macros list end*
%ADD10C,1.800000*%
%ADD11O,1.800000X1.800000*%
%ADD12RoundRect,0.050000X0.850000X-0.850000X0.850000X0.850000X-0.850000X0.850000X-0.850000X-0.850000X0*%
%ADD13C,7.100000*%
%ADD14C,4.000000*%
%ADD15C,9.100000*%
%ADD16C,5.000000*%
%ADD17RoundRect,0.050000X1.750000X-1.750000X1.750000X1.750000X-1.750000X1.750000X-1.750000X-1.750000X0*%
%ADD18RoundRect,0.800000X1.000000X-0.750000X1.000000X0.750000X-1.000000X0.750000X-1.000000X-0.750000X0*%
%ADD19RoundRect,0.925000X0.875000X-0.875000X0.875000X0.875000X-0.875000X0.875000X-0.875000X-0.875000X0*%
%ADD20C,2.900000*%
%ADD21C,1.152000*%
%ADD22RoundRect,0.050000X-1.300000X-1.300000X1.300000X-1.300000X1.300000X1.300000X-1.300000X1.300000X0*%
%ADD23C,2.700000*%
%ADD24RoundRect,0.300000X-0.600000X-0.600000X0.600000X-0.600000X0.600000X0.600000X-0.600000X0.600000X0*%
%ADD25C,1.600000*%
%ADD26C,0.700000*%
%ADD27C,0.900000*%
%ADD28C,1.700000*%
G04 APERTURE END LIST*
D10*
%TO.C,J6*%
X210425000Y-73425000D03*
D11*
X207885000Y-73425000D03*
X210425000Y-75965000D03*
X207885000Y-75965000D03*
X210425000Y-78505000D03*
X207885000Y-78505000D03*
%TD*%
D12*
%TO.C,J3*%
X110230000Y-76340000D03*
X110230000Y-71260000D03*
D11*
X112770000Y-76340000D03*
X112770000Y-71260000D03*
X115310000Y-76340000D03*
X115310000Y-71260000D03*
X117850000Y-76340000D03*
X117850000Y-71260000D03*
X120390000Y-76340000D03*
X120390000Y-71260000D03*
X122930000Y-76340000D03*
X122930000Y-71260000D03*
X125470000Y-76340000D03*
X125470000Y-71260000D03*
X128010000Y-76340000D03*
X128010000Y-71260000D03*
X130550000Y-76340000D03*
X130550000Y-71260000D03*
X133090000Y-76340000D03*
X133090000Y-71260000D03*
X135630000Y-76340000D03*
X135630000Y-71260000D03*
X138170000Y-76340000D03*
X138170000Y-71260000D03*
X140710000Y-76340000D03*
X140710000Y-71260000D03*
X143250000Y-76340000D03*
X143250000Y-71260000D03*
X145790000Y-76340000D03*
X145790000Y-71260000D03*
X148330000Y-76340000D03*
X148330000Y-71260000D03*
X150870000Y-76340000D03*
X150870000Y-71260000D03*
X153410000Y-76340000D03*
X153410000Y-71260000D03*
X155950000Y-76340000D03*
X155950000Y-71260000D03*
X158490000Y-76340000D03*
X158490000Y-71260000D03*
X161030000Y-76340000D03*
X161030000Y-71260000D03*
X163570000Y-76340000D03*
X163570000Y-71260000D03*
X166110000Y-76340000D03*
X166110000Y-71260000D03*
X168650000Y-76340000D03*
X168650000Y-71260000D03*
X171190000Y-76340000D03*
X171190000Y-71260000D03*
X173730000Y-76340000D03*
X173730000Y-71260000D03*
X176270000Y-76340000D03*
X176270000Y-71260000D03*
X178810000Y-76340000D03*
X178810000Y-71260000D03*
X181350000Y-76340000D03*
X181350000Y-71260000D03*
X183890000Y-76340000D03*
X183890000Y-71260000D03*
X186430000Y-76340000D03*
X186430000Y-71260000D03*
X188970000Y-76340000D03*
X188970000Y-71260000D03*
%TD*%
D13*
%TO.C,H1*%
X226314000Y-73914000D03*
D14*
X226314000Y-73914000D03*
%TD*%
%TO.C,H2*%
X73279000Y-73914000D03*
D13*
X73279000Y-73914000D03*
%TD*%
D14*
%TO.C,H4*%
X73279000Y-121031000D03*
D13*
X73279000Y-121031000D03*
%TD*%
D15*
%TO.C,H5*%
X171577000Y-83312000D03*
D16*
X171577000Y-83312000D03*
%TD*%
D14*
%TO.C,H3*%
X226314000Y-121031000D03*
D13*
X226314000Y-121031000D03*
%TD*%
D17*
%TO.C,J5*%
X217342500Y-112000000D03*
D18*
X217342500Y-118000000D03*
D19*
X222042500Y-115000000D03*
%TD*%
D20*
%TO.C,TP6*%
X184700000Y-123700000D03*
%TD*%
D21*
%TO.C,REF\u002A\u002A*%
X220100000Y-123900000D03*
%TD*%
%TO.C,REF\u002A\u002A*%
X221700000Y-70000000D03*
%TD*%
D22*
%TO.C,J7*%
X204200000Y-123305000D03*
D23*
X209200000Y-123305000D03*
%TD*%
D21*
%TO.C,REF\u002A\u002A*%
X61000000Y-69900000D03*
%TD*%
D24*
%TO.C,J1*%
X226497500Y-94050000D03*
D10*
X229037500Y-94050000D03*
X226497500Y-96590000D03*
X229037500Y-96590000D03*
X226497500Y-99130000D03*
X229037500Y-99130000D03*
X226497500Y-101670000D03*
X229037500Y-101670000D03*
X226497500Y-104210000D03*
X229037500Y-104210000D03*
X226497500Y-106750000D03*
X229037500Y-106750000D03*
%TD*%
D24*
%TO.C,J2*%
X58847500Y-93950000D03*
D10*
X61387500Y-93950000D03*
X58847500Y-96490000D03*
X61387500Y-96490000D03*
X58847500Y-99030000D03*
X61387500Y-99030000D03*
X58847500Y-101570000D03*
X61387500Y-101570000D03*
X58847500Y-104110000D03*
X61387500Y-104110000D03*
X58847500Y-106650000D03*
X61387500Y-106650000D03*
%TD*%
D21*
%TO.C,REF\u002A\u002A*%
X65900000Y-123900000D03*
%TD*%
D25*
%TO.C,TP12*%
X59900000Y-73300000D03*
%TD*%
%TO.C,TP11*%
X57400000Y-73200000D03*
%TD*%
%TO.C,TP15*%
X66600000Y-99000000D03*
%TD*%
%TO.C,TP2*%
X64900000Y-73400000D03*
%TD*%
%TO.C,TP4*%
X59400000Y-86700000D03*
%TD*%
%TO.C,TP13*%
X60500000Y-113800000D03*
%TD*%
%TO.C,TP7*%
X66600000Y-96500000D03*
%TD*%
%TO.C,TP14*%
X66600000Y-101600000D03*
%TD*%
%TO.C,TP3*%
X67400000Y-73400000D03*
%TD*%
%TO.C,TP1*%
X62400000Y-73300000D03*
%TD*%
%TO.C,TP9*%
X217900000Y-78000000D03*
%TD*%
%TO.C,TP5*%
X61900000Y-86700000D03*
%TD*%
%TO.C,TP10*%
X217900000Y-75500000D03*
%TD*%
D26*
X116734450Y-89766926D03*
X113950688Y-89450688D03*
X117800000Y-84300000D03*
X114900000Y-84050000D03*
X141750000Y-84500500D03*
X73905743Y-89595633D03*
X141009669Y-89591706D03*
X71300000Y-89400000D03*
X147878528Y-84500500D03*
X110534574Y-89466802D03*
X142834339Y-89565659D03*
X107800688Y-89500688D03*
X150125458Y-84500500D03*
X148954539Y-89648948D03*
X160295016Y-84450500D03*
X111250000Y-84000000D03*
X159393090Y-89796490D03*
X108900000Y-83950000D03*
X166100000Y-84500000D03*
X80095463Y-89342379D03*
X163699500Y-89300000D03*
X77450688Y-89350688D03*
X175750000Y-89150000D03*
X104377611Y-89423764D03*
X174600000Y-89200000D03*
X101846692Y-89454683D03*
X105300000Y-84100000D03*
X102800000Y-84100000D03*
X86110106Y-89410106D03*
X83450688Y-89450688D03*
X98375682Y-89352193D03*
X95800000Y-89400000D03*
X93100000Y-84350000D03*
X207500000Y-88200000D03*
X88850500Y-84300000D03*
X92200688Y-89400688D03*
X99200000Y-84100000D03*
X89544744Y-89500000D03*
X96550000Y-84150000D03*
X72600000Y-112300000D03*
X83800000Y-121400000D03*
X93300000Y-112100000D03*
X101500000Y-122100000D03*
X63000000Y-84900000D03*
X100900000Y-122800000D03*
X62000000Y-84900000D03*
X92600000Y-112900000D03*
X83200000Y-122500000D03*
X72000000Y-113200000D03*
X61000000Y-84900000D03*
X82500000Y-123200000D03*
X71400000Y-114000000D03*
X92000000Y-113800000D03*
X100200000Y-123400000D03*
X190600000Y-125500000D03*
X179500000Y-114000000D03*
X65200000Y-84900000D03*
X128100000Y-121600000D03*
X175700000Y-120000000D03*
X158700000Y-114000000D03*
X137000000Y-114000000D03*
X147600000Y-121700000D03*
X164500000Y-122300000D03*
X190600000Y-124500000D03*
X148200000Y-121000000D03*
X165300000Y-121773500D03*
X137700000Y-113400000D03*
X128800000Y-120900000D03*
X159400000Y-113400000D03*
X66200000Y-84900000D03*
X180100000Y-113400000D03*
X175000000Y-120700000D03*
X148877708Y-120277708D03*
X67200000Y-84900000D03*
X129500000Y-119900000D03*
X190600000Y-123600000D03*
X174400000Y-121300000D03*
X166000000Y-121200000D03*
X138300000Y-112700000D03*
X180800000Y-112800000D03*
X160100000Y-112600000D03*
X200500000Y-106800000D03*
X192600000Y-120700000D03*
X199600000Y-106500000D03*
X191600000Y-120700000D03*
X194400000Y-120800000D03*
X204500000Y-106700000D03*
X193500000Y-120700000D03*
X201600000Y-106800000D03*
X124980000Y-118420000D03*
X229600000Y-80100000D03*
X169800000Y-70100000D03*
X190743750Y-119443750D03*
X136250000Y-109275000D03*
X67600000Y-109600000D03*
X85657500Y-71357500D03*
X177500000Y-120700000D03*
X210845516Y-92059511D03*
X81800000Y-118300000D03*
X91425000Y-109225000D03*
X99450000Y-118600000D03*
X216400000Y-83200000D03*
X58500000Y-80000000D03*
X163762500Y-118437500D03*
X146982500Y-118267500D03*
X178395000Y-109255000D03*
X113165000Y-119535000D03*
X57500000Y-118100000D03*
X58800000Y-72000000D03*
X157595000Y-109255000D03*
X102537500Y-75462500D03*
X211300000Y-74700000D03*
X224200000Y-79800000D03*
X224200000Y-86200000D03*
X213500000Y-107700000D03*
X221300000Y-78900000D03*
X221300000Y-83200000D03*
X211300000Y-77300000D03*
X215400000Y-107700000D03*
D27*
X106400000Y-97800000D03*
X142950000Y-97950000D03*
X185400000Y-97900000D03*
X76400000Y-89200000D03*
X57400000Y-76000000D03*
X203300000Y-87400000D03*
X156200000Y-89200000D03*
X121400000Y-120000000D03*
X125800000Y-89200000D03*
X184300000Y-87300000D03*
X60100000Y-108700000D03*
X88325000Y-98000000D03*
X179400000Y-98100000D03*
X190600000Y-87400000D03*
X124725000Y-97900000D03*
X144000000Y-89200000D03*
D26*
X200500000Y-75100000D03*
D27*
X197200000Y-98100000D03*
X134000000Y-124300000D03*
X162300000Y-89200000D03*
D26*
X161179895Y-116620104D03*
X62600000Y-80000000D03*
D27*
X112575000Y-97900000D03*
X136875000Y-98025000D03*
X196900000Y-87300000D03*
X137900000Y-89300000D03*
X150200000Y-89200000D03*
D26*
X139300000Y-116600000D03*
X164400000Y-114700000D03*
D27*
X100425000Y-97875000D03*
X70300000Y-89100000D03*
X131300000Y-120900000D03*
X191400000Y-98000000D03*
X155075000Y-98025000D03*
X167300000Y-98000000D03*
X113000000Y-89200000D03*
X82165879Y-89296544D03*
X94350000Y-98075000D03*
X203600000Y-98100000D03*
X161175000Y-97875000D03*
D26*
X105800000Y-120600000D03*
D27*
X119700000Y-89200000D03*
X88600000Y-89200000D03*
X173300000Y-98000000D03*
X100900000Y-89200000D03*
D26*
X225900000Y-86100000D03*
D27*
X149025000Y-97925000D03*
X70163714Y-98063714D03*
X167300000Y-120600000D03*
X82205503Y-97819497D03*
X76100000Y-98100000D03*
X118650000Y-98000000D03*
X130800000Y-97925000D03*
D26*
X207000000Y-77200000D03*
D27*
X94700000Y-89200000D03*
D26*
X64206033Y-94000000D03*
D27*
X102600000Y-122900000D03*
X131800000Y-89200000D03*
X106900000Y-89200000D03*
X195600000Y-77800000D03*
X178000000Y-87400000D03*
X115300000Y-97900000D03*
X134400000Y-89200000D03*
X164800000Y-85400000D03*
X97326500Y-89200000D03*
X127300000Y-98000000D03*
X139400000Y-98000000D03*
X128300000Y-89200000D03*
X145700000Y-98000000D03*
X199500000Y-87400000D03*
X72600000Y-97900000D03*
X186800000Y-87300000D03*
D26*
X196127708Y-109227708D03*
D27*
X152600000Y-89200000D03*
X163700000Y-98100000D03*
X206200000Y-98000000D03*
X146600000Y-89200000D03*
D26*
X175900000Y-109300000D03*
D27*
X180500000Y-87400000D03*
X73100000Y-89200000D03*
X85118837Y-89200000D03*
D26*
X57500000Y-119900000D03*
X134300000Y-109300000D03*
D27*
X79039504Y-89196963D03*
X164800000Y-89200000D03*
D28*
X206000000Y-108200000D03*
D27*
X161099999Y-85400001D03*
D26*
X122700000Y-109300000D03*
D27*
X87600000Y-85400000D03*
X91200000Y-89200000D03*
X84500000Y-98200000D03*
X115700000Y-89200000D03*
X169800000Y-98000000D03*
X122200000Y-89200000D03*
D26*
X111200000Y-109300000D03*
D27*
X139900000Y-89500000D03*
X158700000Y-89200000D03*
X78800000Y-85300000D03*
X182000000Y-98000000D03*
X78700000Y-97967447D03*
X194100000Y-98000000D03*
X200100000Y-98000000D03*
X188000000Y-97900000D03*
X109300000Y-98000000D03*
X84700000Y-85300000D03*
X121100000Y-98000000D03*
D28*
X203000000Y-108300000D03*
D27*
X109500000Y-89300000D03*
X193200000Y-87400000D03*
X103000000Y-97900000D03*
D26*
X88100000Y-109200000D03*
D27*
X70100000Y-79800000D03*
X133400000Y-98000000D03*
X103400000Y-89200000D03*
X73106243Y-85217396D03*
X157900000Y-97900000D03*
X175672205Y-97872205D03*
X97000000Y-98000000D03*
X158000000Y-85400000D03*
X151900000Y-98000000D03*
X205500000Y-87300000D03*
X90900000Y-98200000D03*
D26*
X155200000Y-109200000D03*
X63900000Y-80000000D03*
X59600000Y-116300000D03*
X57500000Y-112600000D03*
X82900000Y-74747500D03*
X108900000Y-123300000D03*
X116200000Y-123300000D03*
X68500000Y-77000000D03*
X209100000Y-74600000D03*
X105975000Y-76425000D03*
X212100000Y-78800000D03*
X226800000Y-86800000D03*
X125100000Y-121750000D03*
X182685445Y-116373500D03*
X125050000Y-119850000D03*
X140250000Y-116925000D03*
X125100000Y-120800000D03*
X162044309Y-116639756D03*
X125100000Y-122650000D03*
X194800000Y-123200000D03*
X66000000Y-89000000D03*
X116100000Y-119500000D03*
X116100000Y-120400000D03*
X61300000Y-80000000D03*
X60400000Y-80000000D03*
X116100000Y-121300000D03*
X105800000Y-121500000D03*
X59500000Y-80000000D03*
X64300000Y-89000000D03*
X105863249Y-119763250D03*
X66500000Y-80000000D03*
X225400000Y-78300000D03*
X65200000Y-80000000D03*
X215100000Y-73300000D03*
X123550000Y-89250000D03*
X119075000Y-102875000D03*
X117495000Y-102805000D03*
X122525000Y-97925000D03*
X129650000Y-89275000D03*
X122235000Y-102985000D03*
X120655000Y-102980000D03*
X128550000Y-97850000D03*
X135700000Y-89100000D03*
X125425000Y-102900000D03*
X134600000Y-97900000D03*
X123862292Y-102882292D03*
X141225000Y-102825000D03*
X141750000Y-89125000D03*
X126975000Y-102850000D03*
X140675000Y-97950000D03*
X147825000Y-89100000D03*
X144391666Y-102808334D03*
X146700000Y-97925000D03*
X142808333Y-102866667D03*
X153900000Y-89100000D03*
X147558332Y-102858332D03*
X152775000Y-97975000D03*
X145974999Y-102925001D03*
X150725000Y-102875000D03*
X160199001Y-89211533D03*
X158875000Y-97950000D03*
X149141665Y-102833335D03*
X166025000Y-89150000D03*
X166550000Y-102975000D03*
X164975000Y-102850000D03*
X165025000Y-98150000D03*
X171050000Y-97950000D03*
X168125000Y-102850000D03*
X176852708Y-97577708D03*
X169700000Y-102875000D03*
X181750000Y-87275000D03*
X171275000Y-102850000D03*
X183225000Y-97850000D03*
X172848708Y-102850844D03*
X188150000Y-87425000D03*
X174425000Y-102800000D03*
X188725000Y-102950000D03*
X189250000Y-97975000D03*
X194450000Y-87250000D03*
X190300000Y-102875000D03*
X191875000Y-102900000D03*
X195400000Y-98100000D03*
X193450000Y-102925000D03*
X200750000Y-87250000D03*
X195025000Y-102825000D03*
X201422023Y-97730111D03*
X196600000Y-102875000D03*
X207100000Y-87300000D03*
X198175000Y-102825000D03*
X204950000Y-97875000D03*
X116375000Y-97825000D03*
X114335000Y-102885000D03*
X75325000Y-89250000D03*
X81108333Y-102916667D03*
X115915000Y-102890000D03*
X117599001Y-89125000D03*
X79519863Y-102869863D03*
X73978170Y-97846830D03*
X110300000Y-97925000D03*
X111175000Y-102875000D03*
X81000000Y-89150000D03*
X84274999Y-102825001D03*
X112755000Y-102920000D03*
X111350000Y-89075000D03*
X79900000Y-97900000D03*
X82691666Y-102858334D03*
X108015000Y-102965000D03*
X104250000Y-97770478D03*
X87441665Y-102916665D03*
X87075000Y-89275000D03*
X105300000Y-89150000D03*
X109595000Y-102880000D03*
X85467000Y-98017954D03*
X85858332Y-102866668D03*
X104855000Y-102920000D03*
X98175000Y-97975000D03*
X93150000Y-89250000D03*
X103275000Y-102925000D03*
X106435000Y-102885000D03*
X99200000Y-89175000D03*
X103900000Y-72700000D03*
X168600000Y-69400000D03*
X218666511Y-103033489D03*
X108900000Y-122300000D03*
X208100000Y-102600000D03*
X218600000Y-104900000D03*
X215100000Y-103500000D03*
X215000000Y-100500000D03*
X116200000Y-122300000D03*
X68700000Y-101000000D03*
X74600000Y-116700000D03*
X111173500Y-120903319D03*
X95300000Y-116700000D03*
X111700000Y-121600000D03*
X67100000Y-77000000D03*
X204200000Y-72900000D03*
X210055503Y-103644497D03*
X65800000Y-77000000D03*
X215000000Y-101700000D03*
X64600000Y-77100000D03*
X212400000Y-98600000D03*
X215100000Y-97200000D03*
D27*
X61400000Y-76600000D03*
D26*
X80200000Y-76900000D03*
X215100000Y-98600000D03*
G36*
X190701446Y-123932920D02*
G01*
X190701759Y-123934896D01*
X190700940Y-123935882D01*
X190651093Y-123966563D01*
X190620614Y-124030008D01*
X190629274Y-124099858D01*
X190674416Y-124154049D01*
X190692914Y-124162772D01*
X190694054Y-124164415D01*
X190693201Y-124166224D01*
X190691748Y-124166556D01*
X190600000Y-124152025D01*
X190501994Y-124167547D01*
X190500127Y-124166831D01*
X190499814Y-124164855D01*
X190500612Y-124163882D01*
X190550427Y-124132373D01*
X190580127Y-124068561D01*
X190570612Y-123998822D01*
X190524803Y-123945177D01*
X190508379Y-123937433D01*
X190507239Y-123935790D01*
X190508092Y-123933981D01*
X190509545Y-123933649D01*
X190600000Y-123947975D01*
X190699579Y-123932204D01*
X190701446Y-123932920D01*
G37*
G36*
X125201446Y-122082920D02*
G01*
X125201759Y-122084896D01*
X125200940Y-122085882D01*
X125151093Y-122116563D01*
X125120614Y-122180008D01*
X125129274Y-122249858D01*
X125174416Y-122304049D01*
X125192914Y-122312772D01*
X125194054Y-122314415D01*
X125193201Y-122316224D01*
X125191748Y-122316556D01*
X125100000Y-122302025D01*
X125001994Y-122317547D01*
X125000127Y-122316831D01*
X124999814Y-122314855D01*
X125000612Y-122313882D01*
X125050427Y-122282373D01*
X125080127Y-122218561D01*
X125070612Y-122148822D01*
X125024803Y-122095177D01*
X125008379Y-122087433D01*
X125007239Y-122085790D01*
X125008092Y-122083981D01*
X125009545Y-122083649D01*
X125100000Y-122097975D01*
X125199579Y-122082204D01*
X125201446Y-122082920D01*
G37*
G36*
X165684486Y-121337813D02*
G01*
X165718483Y-121404536D01*
X165793983Y-121480036D01*
X165794501Y-121481968D01*
X165793087Y-121483382D01*
X165791975Y-121483360D01*
X165737930Y-121466540D01*
X165670084Y-121485281D01*
X165623142Y-121537725D01*
X165611982Y-121607367D01*
X165620105Y-121635969D01*
X165619616Y-121637908D01*
X165617692Y-121638454D01*
X165616399Y-121637423D01*
X165581517Y-121568964D01*
X165506382Y-121493829D01*
X165505864Y-121491897D01*
X165507278Y-121490483D01*
X165508367Y-121490498D01*
X165563764Y-121506999D01*
X165631373Y-121487432D01*
X165677672Y-121434419D01*
X165687983Y-121364633D01*
X165680780Y-121339267D01*
X165681269Y-121337328D01*
X165683193Y-121336782D01*
X165684486Y-121337813D01*
G37*
G36*
X111473281Y-121078618D02*
G01*
X111473404Y-121080579D01*
X111469906Y-121087799D01*
X111458256Y-121157519D01*
X111486030Y-121222192D01*
X111544351Y-121261578D01*
X111608258Y-121262535D01*
X111609975Y-121263561D01*
X111609945Y-121265561D01*
X111608541Y-121266510D01*
X111592471Y-121269055D01*
X111495464Y-121318483D01*
X111418483Y-121395464D01*
X111398387Y-121434903D01*
X111396710Y-121435992D01*
X111394928Y-121435084D01*
X111394795Y-121433145D01*
X111403702Y-121414174D01*
X111414500Y-121344316D01*
X111385939Y-121279987D01*
X111327128Y-121241309D01*
X111267566Y-121240416D01*
X111265849Y-121239390D01*
X111265879Y-121237390D01*
X111267283Y-121236441D01*
X111281029Y-121234264D01*
X111378036Y-121184836D01*
X111455017Y-121107855D01*
X111469822Y-121078799D01*
X111471499Y-121077710D01*
X111473281Y-121078618D01*
G37*
G36*
X174670563Y-120810489D02*
G01*
X174718483Y-120904536D01*
X174795464Y-120981517D01*
X174879821Y-121024499D01*
X174880910Y-121026176D01*
X174880002Y-121027958D01*
X174878879Y-121028281D01*
X174816302Y-121027203D01*
X174756445Y-121064231D01*
X174726111Y-121127735D01*
X174734612Y-121191107D01*
X174733851Y-121192957D01*
X174731869Y-121193223D01*
X174730848Y-121192281D01*
X174681517Y-121095464D01*
X174604536Y-121018483D01*
X174520876Y-120975856D01*
X174519787Y-120974179D01*
X174520695Y-120972397D01*
X174521794Y-120972074D01*
X174585764Y-120972394D01*
X174645166Y-120934638D01*
X174674727Y-120870756D01*
X174666799Y-120811663D01*
X174667560Y-120809813D01*
X174669542Y-120809547D01*
X174670563Y-120810489D01*
G37*
G36*
X105901446Y-120932920D02*
G01*
X105901759Y-120934896D01*
X105900940Y-120935882D01*
X105851093Y-120966563D01*
X105820614Y-121030008D01*
X105829274Y-121099858D01*
X105874416Y-121154049D01*
X105892914Y-121162772D01*
X105894054Y-121164415D01*
X105893201Y-121166224D01*
X105891748Y-121166556D01*
X105800000Y-121152025D01*
X105701994Y-121167547D01*
X105700127Y-121166831D01*
X105699814Y-121164855D01*
X105700612Y-121163882D01*
X105750427Y-121132373D01*
X105780127Y-121068561D01*
X105770612Y-120998822D01*
X105724803Y-120945177D01*
X105708379Y-120937433D01*
X105707239Y-120935790D01*
X105708092Y-120933981D01*
X105709545Y-120933649D01*
X105800000Y-120947975D01*
X105899579Y-120932204D01*
X105901446Y-120932920D01*
G37*
G36*
X116201446Y-120732920D02*
G01*
X116201759Y-120734896D01*
X116200940Y-120735882D01*
X116151093Y-120766563D01*
X116120614Y-120830008D01*
X116129274Y-120899858D01*
X116174416Y-120954049D01*
X116192914Y-120962772D01*
X116194054Y-120964415D01*
X116193201Y-120966224D01*
X116191748Y-120966556D01*
X116100000Y-120952025D01*
X116001994Y-120967547D01*
X116000127Y-120966831D01*
X115999814Y-120964855D01*
X116000612Y-120963882D01*
X116050427Y-120932373D01*
X116080127Y-120868561D01*
X116070612Y-120798822D01*
X116024803Y-120745177D01*
X116008379Y-120737433D01*
X116007239Y-120735790D01*
X116008092Y-120733981D01*
X116009545Y-120733649D01*
X116100000Y-120747975D01*
X116199579Y-120732204D01*
X116201446Y-120732920D01*
G37*
G36*
X193841466Y-120633796D02*
G01*
X193870470Y-120697400D01*
X193929659Y-120735486D01*
X194000045Y-120735526D01*
X194059410Y-120697420D01*
X194071622Y-120678649D01*
X194073404Y-120677743D01*
X194075081Y-120678833D01*
X194075080Y-120680648D01*
X194069055Y-120692471D01*
X194052025Y-120800000D01*
X194067227Y-120895985D01*
X194066511Y-120897852D01*
X194064535Y-120898165D01*
X194063421Y-120897103D01*
X194062310Y-120894578D01*
X194062158Y-120894032D01*
X194058925Y-120869303D01*
X194030385Y-120804635D01*
X193971664Y-120765827D01*
X193901285Y-120764928D01*
X193841459Y-120802303D01*
X193827227Y-120823606D01*
X193825433Y-120824491D01*
X193823770Y-120823380D01*
X193823782Y-120821587D01*
X193830945Y-120807529D01*
X193847975Y-120700000D01*
X193837671Y-120634939D01*
X193838387Y-120633072D01*
X193840363Y-120632759D01*
X193841466Y-120633796D01*
G37*
G36*
X193167592Y-120598145D02*
G01*
X193167926Y-120599601D01*
X193152025Y-120700000D01*
X193167654Y-120798681D01*
X193166938Y-120800548D01*
X193164962Y-120800861D01*
X193164149Y-120800283D01*
X193120009Y-120747891D01*
X193052759Y-120727126D01*
X192984950Y-120746019D01*
X192938410Y-120797780D01*
X192935500Y-120803787D01*
X192933845Y-120804910D01*
X192932045Y-120804038D01*
X192931725Y-120802602D01*
X192947975Y-120700000D01*
X192932352Y-120601357D01*
X192933068Y-120599490D01*
X192935044Y-120599177D01*
X192935841Y-120599737D01*
X192981950Y-120653128D01*
X193049451Y-120673071D01*
X193117022Y-120653351D01*
X193162927Y-120601023D01*
X193164141Y-120598438D01*
X193165782Y-120597295D01*
X193167592Y-120598145D01*
G37*
G36*
X105685120Y-120058222D02*
G01*
X105755720Y-120094195D01*
X105863249Y-120111225D01*
X105970778Y-120094195D01*
X106025804Y-120066158D01*
X106027801Y-120066263D01*
X106028709Y-120068045D01*
X106027758Y-120069644D01*
X105988987Y-120093449D01*
X105990619Y-120096107D01*
X105990673Y-120098106D01*
X105989973Y-120098850D01*
X105959358Y-120117925D01*
X105929226Y-120181533D01*
X105938266Y-120251330D01*
X105981939Y-120302653D01*
X105982300Y-120304620D01*
X105980777Y-120305916D01*
X105979508Y-120305731D01*
X105907529Y-120269055D01*
X105800000Y-120252025D01*
X105692471Y-120269055D01*
X105634798Y-120298441D01*
X105632801Y-120298336D01*
X105631893Y-120296554D01*
X105632823Y-120294968D01*
X105670237Y-120271362D01*
X105669521Y-120270227D01*
X105669442Y-120268229D01*
X105670143Y-120267470D01*
X105705192Y-120245303D01*
X105734893Y-120181492D01*
X105725380Y-120111747D01*
X105682685Y-120061296D01*
X105682330Y-120059328D01*
X105683856Y-120058036D01*
X105685120Y-120058222D01*
G37*
G36*
X116201446Y-119832920D02*
G01*
X116201759Y-119834896D01*
X116200940Y-119835882D01*
X116151093Y-119866563D01*
X116120614Y-119930008D01*
X116129274Y-119999858D01*
X116174416Y-120054049D01*
X116192914Y-120062772D01*
X116194054Y-120064415D01*
X116193201Y-120066224D01*
X116191748Y-120066556D01*
X116100000Y-120052025D01*
X116001994Y-120067547D01*
X116000127Y-120066831D01*
X115999814Y-120064855D01*
X116000612Y-120063882D01*
X116050427Y-120032373D01*
X116080127Y-119968561D01*
X116070612Y-119898822D01*
X116024803Y-119845177D01*
X116008379Y-119837433D01*
X116007239Y-119835790D01*
X116008092Y-119833981D01*
X116009545Y-119833649D01*
X116100000Y-119847975D01*
X116199579Y-119832204D01*
X116201446Y-119832920D01*
G37*
G36*
X161731531Y-116495242D02*
G01*
X161731419Y-116496793D01*
X161713364Y-116532227D01*
X161696334Y-116639756D01*
X161713364Y-116747285D01*
X161720994Y-116762259D01*
X161720889Y-116764256D01*
X161719107Y-116765164D01*
X161717682Y-116764456D01*
X161676725Y-116715841D01*
X161609475Y-116695075D01*
X161541666Y-116713967D01*
X161496780Y-116763889D01*
X161494879Y-116764509D01*
X161493391Y-116763171D01*
X161493511Y-116761644D01*
X161510840Y-116727633D01*
X161527870Y-116620104D01*
X161510840Y-116512575D01*
X161503536Y-116498240D01*
X161503641Y-116496243D01*
X161505423Y-116495335D01*
X161506832Y-116496025D01*
X161548875Y-116544710D01*
X161616376Y-116564653D01*
X161683948Y-116544934D01*
X161728134Y-116494566D01*
X161730027Y-116493923D01*
X161731531Y-116495242D01*
G37*
G36*
X179770563Y-113510489D02*
G01*
X179818483Y-113604536D01*
X179895464Y-113681517D01*
X179979821Y-113724499D01*
X179980910Y-113726176D01*
X179980002Y-113727958D01*
X179978879Y-113728281D01*
X179916302Y-113727203D01*
X179856445Y-113764231D01*
X179826111Y-113827735D01*
X179834612Y-113891107D01*
X179833851Y-113892957D01*
X179831869Y-113893223D01*
X179830848Y-113892281D01*
X179781517Y-113795464D01*
X179704536Y-113718483D01*
X179620876Y-113675856D01*
X179619787Y-113674179D01*
X179620695Y-113672397D01*
X179621794Y-113672074D01*
X179685764Y-113672394D01*
X179745166Y-113634638D01*
X179774727Y-113570756D01*
X179766799Y-113511663D01*
X179767560Y-113509813D01*
X179769542Y-113509547D01*
X179770563Y-113510489D01*
G37*
G36*
X85130130Y-97943056D02*
G01*
X85130625Y-97944714D01*
X85119025Y-98017954D01*
X85136055Y-98125483D01*
X85177698Y-98207211D01*
X85177593Y-98209208D01*
X85175811Y-98210116D01*
X85174385Y-98209406D01*
X85162871Y-98195709D01*
X85103989Y-98156608D01*
X85033611Y-98155554D01*
X84973848Y-98192707D01*
X84943921Y-98257971D01*
X84942290Y-98259128D01*
X84940472Y-98258295D01*
X84940131Y-98256805D01*
X84947868Y-98210817D01*
X84947998Y-98200131D01*
X84929973Y-98074268D01*
X84883317Y-97971653D01*
X84883511Y-97969662D01*
X84885331Y-97968834D01*
X84886725Y-97969607D01*
X84899348Y-97986058D01*
X84901208Y-97985812D01*
X84902000Y-97986405D01*
X84932820Y-98024650D01*
X84999605Y-98046879D01*
X85067802Y-98029472D01*
X85115859Y-97977855D01*
X85126745Y-97943792D01*
X85128225Y-97942447D01*
X85130130Y-97943056D01*
G37*
G36*
X152286725Y-97769607D02*
G01*
X152290151Y-97774072D01*
X152347234Y-97815753D01*
X152417466Y-97819937D01*
X152483391Y-97780712D01*
X152484459Y-97779504D01*
X152486356Y-97778868D01*
X152487854Y-97780192D01*
X152487740Y-97781736D01*
X152444055Y-97867471D01*
X152427025Y-97975000D01*
X152444055Y-98082529D01*
X152493483Y-98179536D01*
X152494298Y-98180351D01*
X152494816Y-98182283D01*
X152493402Y-98183697D01*
X152491778Y-98183431D01*
X152443941Y-98151663D01*
X152373563Y-98150609D01*
X152313680Y-98187836D01*
X152291406Y-98223299D01*
X152290612Y-98225215D01*
X152290351Y-98225667D01*
X152283501Y-98234595D01*
X152281653Y-98235361D01*
X152280066Y-98234143D01*
X152280114Y-98232506D01*
X152326774Y-98136200D01*
X152347868Y-98010817D01*
X152347998Y-98000131D01*
X152329973Y-97874268D01*
X152283317Y-97771653D01*
X152283511Y-97769662D01*
X152285331Y-97768834D01*
X152286725Y-97769607D01*
G37*
G36*
X109966333Y-97829873D02*
G01*
X109966828Y-97831532D01*
X109952025Y-97925000D01*
X109969055Y-98032529D01*
X109976379Y-98046903D01*
X109976274Y-98048900D01*
X109974492Y-98049808D01*
X109973067Y-98049100D01*
X109932196Y-98000588D01*
X109864946Y-97979823D01*
X109797142Y-97998715D01*
X109750223Y-98051367D01*
X109739261Y-98088562D01*
X109735590Y-98116447D01*
X109735455Y-98116951D01*
X109733033Y-98122799D01*
X109731446Y-98124017D01*
X109729598Y-98123252D01*
X109729213Y-98121702D01*
X109747868Y-98010817D01*
X109747998Y-98000131D01*
X109729973Y-97874268D01*
X109725255Y-97863891D01*
X109725449Y-97861900D01*
X109727269Y-97861072D01*
X109728633Y-97861808D01*
X109768918Y-97911799D01*
X109835703Y-97934028D01*
X109903900Y-97916621D01*
X109951958Y-97865004D01*
X109962948Y-97830610D01*
X109964428Y-97829265D01*
X109966333Y-97829873D01*
G37*
G36*
X146366333Y-97829873D02*
G01*
X146366828Y-97831532D01*
X146352025Y-97925000D01*
X146369055Y-98032529D01*
X146376379Y-98046903D01*
X146376274Y-98048900D01*
X146374492Y-98049808D01*
X146373067Y-98049100D01*
X146332196Y-98000588D01*
X146264946Y-97979823D01*
X146197142Y-97998715D01*
X146150223Y-98051367D01*
X146139261Y-98088562D01*
X146135590Y-98116447D01*
X146135455Y-98116951D01*
X146133033Y-98122799D01*
X146131446Y-98124017D01*
X146129598Y-98123252D01*
X146129213Y-98121702D01*
X146147868Y-98010817D01*
X146147998Y-98000131D01*
X146129973Y-97874268D01*
X146125255Y-97863891D01*
X146125449Y-97861900D01*
X146127269Y-97861072D01*
X146128633Y-97861808D01*
X146168918Y-97911799D01*
X146235703Y-97934028D01*
X146303900Y-97916621D01*
X146351958Y-97865004D01*
X146362948Y-97830610D01*
X146364428Y-97829265D01*
X146366333Y-97829873D01*
G37*
G36*
X158335078Y-97782138D02*
G01*
X158336878Y-97786484D01*
X158381229Y-97841521D01*
X158448014Y-97863749D01*
X158516200Y-97846345D01*
X158565138Y-97792437D01*
X158567043Y-97791826D01*
X158568524Y-97793171D01*
X158568401Y-97794689D01*
X158544055Y-97842471D01*
X158527025Y-97950000D01*
X158543689Y-98055216D01*
X158542973Y-98057083D01*
X158540997Y-98057396D01*
X158540184Y-98056818D01*
X158499898Y-98008999D01*
X158432647Y-97988234D01*
X158364869Y-98007118D01*
X158319044Y-98061184D01*
X158317161Y-98061859D01*
X158315635Y-98060566D01*
X158315718Y-98059019D01*
X158326774Y-98036200D01*
X158347868Y-97910817D01*
X158347998Y-97900131D01*
X158331250Y-97783187D01*
X158331995Y-97781330D01*
X158333974Y-97781047D01*
X158335078Y-97782138D01*
G37*
G36*
X159140059Y-89275320D02*
G01*
X159140768Y-89277123D01*
X159134148Y-89327400D01*
X159145040Y-89397239D01*
X159191762Y-89449881D01*
X159259685Y-89468949D01*
X159274572Y-89466774D01*
X159276430Y-89467513D01*
X159276719Y-89469492D01*
X159275769Y-89470535D01*
X159188554Y-89514973D01*
X159111573Y-89591954D01*
X159062145Y-89688961D01*
X159053503Y-89743526D01*
X159052245Y-89745080D01*
X159050269Y-89744767D01*
X159049545Y-89743475D01*
X159040502Y-89674907D01*
X158995032Y-89621179D01*
X158927650Y-89600537D01*
X158891095Y-89607587D01*
X158889205Y-89606933D01*
X158888826Y-89604969D01*
X158889670Y-89603919D01*
X158986154Y-89544677D01*
X159071392Y-89450507D01*
X159126774Y-89336200D01*
X159136813Y-89276530D01*
X159138086Y-89274988D01*
X159140059Y-89275320D01*
G37*
G36*
X73550995Y-89200438D02*
G01*
X73551803Y-89201349D01*
X73579397Y-89263726D01*
X73638152Y-89302481D01*
X73708682Y-89303321D01*
X73741597Y-89288689D01*
X73762289Y-89275633D01*
X73762806Y-89275401D01*
X73775682Y-89271721D01*
X73777623Y-89272207D01*
X73778172Y-89274130D01*
X73777140Y-89275426D01*
X73701207Y-89314116D01*
X73624226Y-89391097D01*
X73574798Y-89488104D01*
X73557768Y-89595633D01*
X73565269Y-89642997D01*
X73564553Y-89644864D01*
X73562577Y-89645177D01*
X73561464Y-89644118D01*
X73533607Y-89580998D01*
X73474886Y-89542191D01*
X73404406Y-89541290D01*
X73376896Y-89555046D01*
X73374900Y-89554926D01*
X73374006Y-89553137D01*
X73374955Y-89551553D01*
X73386155Y-89544676D01*
X73471392Y-89450507D01*
X73526774Y-89336200D01*
X73547868Y-89210817D01*
X73547974Y-89202134D01*
X73548995Y-89200414D01*
X73550995Y-89200438D01*
G37*
G36*
X107348851Y-89178399D02*
G01*
X107376345Y-89240547D01*
X107435100Y-89279302D01*
X107505479Y-89280140D01*
X107565597Y-89242406D01*
X107573187Y-89233812D01*
X107573619Y-89233445D01*
X107580862Y-89228875D01*
X107582860Y-89228796D01*
X107583927Y-89230487D01*
X107583343Y-89231980D01*
X107519171Y-89296152D01*
X107469743Y-89393159D01*
X107452713Y-89500688D01*
X107461497Y-89556150D01*
X107460781Y-89558017D01*
X107458805Y-89558330D01*
X107457692Y-89557271D01*
X107429515Y-89493429D01*
X107370794Y-89454622D01*
X107300415Y-89453724D01*
X107240500Y-89491157D01*
X107234879Y-89497959D01*
X107219008Y-89518643D01*
X107218639Y-89519013D01*
X107205862Y-89528817D01*
X107203879Y-89529078D01*
X107202661Y-89527491D01*
X107203161Y-89525888D01*
X107271392Y-89450507D01*
X107326774Y-89336200D01*
X107347868Y-89210817D01*
X107347998Y-89200131D01*
X107345042Y-89179492D01*
X107345787Y-89177635D01*
X107347766Y-89177352D01*
X107348851Y-89178399D01*
G37*
G36*
X141411689Y-89189357D02*
G01*
X141412415Y-89190606D01*
X141419055Y-89232529D01*
X141468483Y-89329536D01*
X141538277Y-89399330D01*
X141538795Y-89401262D01*
X141537381Y-89402676D01*
X141536269Y-89402654D01*
X141476844Y-89384160D01*
X141408999Y-89402901D01*
X141362061Y-89455338D01*
X141351247Y-89526351D01*
X141349998Y-89527913D01*
X141348021Y-89527612D01*
X141347295Y-89526363D01*
X141340614Y-89484177D01*
X141291186Y-89387170D01*
X141221352Y-89317336D01*
X141220834Y-89315404D01*
X141222248Y-89313990D01*
X141223337Y-89314005D01*
X141284061Y-89332092D01*
X141351671Y-89312524D01*
X141397973Y-89259506D01*
X141408463Y-89190618D01*
X141409712Y-89189056D01*
X141411689Y-89189357D01*
G37*
G36*
X89050928Y-89205895D02*
G01*
X89051890Y-89207354D01*
X89052809Y-89214333D01*
X89054868Y-89214062D01*
X89056716Y-89214828D01*
X89057105Y-89215737D01*
X89063522Y-89256876D01*
X89110247Y-89309516D01*
X89178014Y-89328538D01*
X89245460Y-89307856D01*
X89258247Y-89296748D01*
X89260211Y-89296367D01*
X89261522Y-89297877D01*
X89261341Y-89299166D01*
X89213799Y-89392471D01*
X89196769Y-89500000D01*
X89197127Y-89502261D01*
X89196411Y-89504128D01*
X89194435Y-89504441D01*
X89193322Y-89503382D01*
X89167235Y-89444274D01*
X89108514Y-89405467D01*
X89038135Y-89404568D01*
X88980224Y-89440748D01*
X88978225Y-89440818D01*
X88977165Y-89439122D01*
X88977364Y-89438180D01*
X89026774Y-89336200D01*
X89047868Y-89210817D01*
X89047907Y-89207591D01*
X89048928Y-89205871D01*
X89050928Y-89205895D01*
G37*
G36*
X101349638Y-89183894D02*
G01*
X101377043Y-89245843D01*
X101435798Y-89284598D01*
X101506178Y-89285436D01*
X101560349Y-89251432D01*
X101562347Y-89251358D01*
X101563411Y-89253052D01*
X101563194Y-89254034D01*
X101515747Y-89347154D01*
X101498717Y-89454683D01*
X101505429Y-89497063D01*
X101504713Y-89498930D01*
X101502737Y-89499243D01*
X101501624Y-89498184D01*
X101473962Y-89435506D01*
X101415241Y-89396699D01*
X101344862Y-89395801D01*
X101284948Y-89433233D01*
X101283003Y-89435586D01*
X101281129Y-89436284D01*
X101279587Y-89435010D01*
X101279661Y-89433440D01*
X101326774Y-89336200D01*
X101347868Y-89210817D01*
X101347998Y-89200131D01*
X101345829Y-89184987D01*
X101346574Y-89183130D01*
X101348553Y-89182847D01*
X101349638Y-89183894D01*
G37*
G36*
X113449708Y-89184378D02*
G01*
X113477103Y-89246304D01*
X113535858Y-89285059D01*
X113606237Y-89285897D01*
X113662858Y-89250357D01*
X113664856Y-89250283D01*
X113665920Y-89251977D01*
X113665703Y-89252959D01*
X113619743Y-89343159D01*
X113602713Y-89450688D01*
X113609245Y-89491930D01*
X113608529Y-89493797D01*
X113606553Y-89494110D01*
X113605440Y-89493051D01*
X113577824Y-89430476D01*
X113519102Y-89391669D01*
X113448724Y-89390770D01*
X113388809Y-89428201D01*
X113383423Y-89434718D01*
X113381549Y-89435416D01*
X113380007Y-89434142D01*
X113380081Y-89432572D01*
X113426774Y-89336200D01*
X113447868Y-89210817D01*
X113447998Y-89200130D01*
X113445899Y-89185470D01*
X113446644Y-89183614D01*
X113448623Y-89183331D01*
X113449708Y-89184378D01*
G37*
G36*
X98867592Y-89073144D02*
G01*
X98867926Y-89074600D01*
X98852025Y-89175000D01*
X98869055Y-89282529D01*
X98918483Y-89379536D01*
X98922636Y-89383689D01*
X98923154Y-89385621D01*
X98921740Y-89387035D01*
X98920116Y-89386769D01*
X98871073Y-89354203D01*
X98800696Y-89353149D01*
X98740916Y-89390314D01*
X98712076Y-89450349D01*
X98710424Y-89451477D01*
X98708622Y-89450611D01*
X98708298Y-89449170D01*
X98723657Y-89352193D01*
X98706627Y-89244664D01*
X98657199Y-89147657D01*
X98652860Y-89143318D01*
X98652342Y-89141386D01*
X98653756Y-89139972D01*
X98655360Y-89140225D01*
X98705606Y-89172714D01*
X98775990Y-89172908D01*
X98835313Y-89135017D01*
X98856904Y-89088628D01*
X98857060Y-89088518D01*
X98864141Y-89073437D01*
X98865782Y-89072294D01*
X98867592Y-89073144D01*
G37*
G36*
X103850869Y-89192489D02*
G01*
X103878132Y-89254117D01*
X103936887Y-89292872D01*
X104007267Y-89293710D01*
X104067056Y-89256284D01*
X104080843Y-89235350D01*
X104081014Y-89235126D01*
X104087068Y-89228271D01*
X104088964Y-89227635D01*
X104090463Y-89228959D01*
X104090349Y-89230503D01*
X104046666Y-89316235D01*
X104029636Y-89423764D01*
X104033679Y-89449291D01*
X104032963Y-89451158D01*
X104030987Y-89451471D01*
X104029874Y-89450412D01*
X104002873Y-89389233D01*
X103944152Y-89350426D01*
X103873772Y-89349528D01*
X103813974Y-89386888D01*
X103791885Y-89422141D01*
X103790611Y-89425217D01*
X103790350Y-89425670D01*
X103783500Y-89434597D01*
X103781652Y-89435362D01*
X103780065Y-89434144D01*
X103780113Y-89432507D01*
X103826774Y-89336200D01*
X103847868Y-89210817D01*
X103847998Y-89200131D01*
X103847060Y-89193582D01*
X103847805Y-89191725D01*
X103849784Y-89191442D01*
X103850869Y-89192489D01*
G37*
G36*
X85569811Y-89202107D02*
G01*
X85570619Y-89203018D01*
X85598556Y-89266169D01*
X85657311Y-89304924D01*
X85727692Y-89305762D01*
X85787480Y-89268335D01*
X85807137Y-89238490D01*
X85816845Y-89217812D01*
X85817156Y-89217338D01*
X85819563Y-89214612D01*
X85821459Y-89213976D01*
X85822958Y-89215300D01*
X85822844Y-89216844D01*
X85779161Y-89302577D01*
X85762131Y-89410106D01*
X85763621Y-89419518D01*
X85762905Y-89421385D01*
X85760929Y-89421698D01*
X85759816Y-89420639D01*
X85733449Y-89360895D01*
X85674728Y-89322088D01*
X85604349Y-89321189D01*
X85544550Y-89358549D01*
X85522460Y-89393803D01*
X85509449Y-89425215D01*
X85509188Y-89425667D01*
X85502338Y-89434595D01*
X85500490Y-89435361D01*
X85498903Y-89434143D01*
X85498951Y-89432506D01*
X85545611Y-89336200D01*
X85566705Y-89210817D01*
X85566790Y-89203803D01*
X85567811Y-89202083D01*
X85569811Y-89202107D01*
G37*
G36*
X111010302Y-89131928D02*
G01*
X111011264Y-89133339D01*
X111019055Y-89182529D01*
X111068483Y-89279536D01*
X111099273Y-89310326D01*
X111099534Y-89311301D01*
X111100576Y-89311629D01*
X111129435Y-89340488D01*
X111129953Y-89342420D01*
X111128539Y-89343834D01*
X111126913Y-89343567D01*
X111116469Y-89336615D01*
X111116046Y-89336237D01*
X111097631Y-89314330D01*
X111097489Y-89313526D01*
X111096753Y-89313406D01*
X111038100Y-89274457D01*
X110967722Y-89273403D01*
X110907947Y-89310564D01*
X110877690Y-89374275D01*
X110877420Y-89409018D01*
X110876407Y-89410742D01*
X110874407Y-89410726D01*
X110873445Y-89409315D01*
X110865519Y-89359273D01*
X110816091Y-89262266D01*
X110787541Y-89233716D01*
X110787023Y-89231784D01*
X110788437Y-89230370D01*
X110790041Y-89230622D01*
X110847854Y-89268003D01*
X110918238Y-89268197D01*
X110977554Y-89230309D01*
X111007036Y-89166223D01*
X111007289Y-89133636D01*
X111008302Y-89131912D01*
X111010302Y-89131928D01*
G37*
G36*
X60067592Y-79898145D02*
G01*
X60067926Y-79899601D01*
X60052025Y-80000000D01*
X60067654Y-80098681D01*
X60066938Y-80100548D01*
X60064962Y-80100861D01*
X60064149Y-80100283D01*
X60020009Y-80047891D01*
X59952759Y-80027126D01*
X59884950Y-80046019D01*
X59838410Y-80097780D01*
X59835500Y-80103787D01*
X59833845Y-80104910D01*
X59832045Y-80104038D01*
X59831725Y-80102602D01*
X59847975Y-80000000D01*
X59832352Y-79901357D01*
X59833068Y-79899490D01*
X59835044Y-79899177D01*
X59835841Y-79899737D01*
X59881950Y-79953128D01*
X59949451Y-79973071D01*
X60017022Y-79953351D01*
X60062927Y-79901023D01*
X60064141Y-79898438D01*
X60065782Y-79897295D01*
X60067592Y-79898145D01*
G37*
G36*
X60967592Y-79898145D02*
G01*
X60967926Y-79899601D01*
X60952025Y-80000000D01*
X60967654Y-80098681D01*
X60966938Y-80100548D01*
X60964962Y-80100861D01*
X60964149Y-80100283D01*
X60920009Y-80047891D01*
X60852759Y-80027126D01*
X60784950Y-80046019D01*
X60738410Y-80097780D01*
X60735500Y-80103787D01*
X60733845Y-80104910D01*
X60732045Y-80104038D01*
X60731725Y-80102602D01*
X60747975Y-80000000D01*
X60732352Y-79901357D01*
X60733068Y-79899490D01*
X60735044Y-79899177D01*
X60735841Y-79899737D01*
X60781950Y-79953128D01*
X60849451Y-79973071D01*
X60917022Y-79953351D01*
X60962927Y-79901023D01*
X60964141Y-79898438D01*
X60965782Y-79897295D01*
X60967592Y-79898145D01*
G37*
M02*
