%TF.GenerationSoftware,KiCad,Pcbnew,(6.0.0-0)*%
%TF.CreationDate,2023-03-21T22:31:33-06:00*%
%TF.ProjectId,FlippyDriver,466c6970-7079-4447-9269-7665722e6b69,D.1*%
%TF.SameCoordinates,Original*%
%TF.FileFunction,Soldermask,Top*%
%TF.FilePolarity,Negative*%
%FSLAX46Y46*%
G04 Gerber Fmt 4.6, Leading zero omitted, Abs format (unit mm)*
G04 Created by KiCad (PCBNEW (6.0.0-0)) date 2023-03-21 22:31:33*
%MOMM*%
%LPD*%
G01*
G04 APERTURE LIST*
G04 Aperture macros list*
%AMRoundRect*
0 Rectangle with rounded corners*
0 $1 Rounding radius*
0 $2 $3 $4 $5 $6 $7 $8 $9 X,Y pos of 4 corners*
0 Add a 4 corners polygon primitive as box body*
4,1,4,$2,$3,$4,$5,$6,$7,$8,$9,$2,$3,0*
0 Add four circle primitives for the rounded corners*
1,1,$1+$1,$2,$3*
1,1,$1+$1,$4,$5*
1,1,$1+$1,$6,$7*
1,1,$1+$1,$8,$9*
0 Add four rect primitives between the rounded corners*
20,1,$1+$1,$2,$3,$4,$5,0*
20,1,$1+$1,$4,$5,$6,$7,0*
20,1,$1+$1,$6,$7,$8,$9,0*
20,1,$1+$1,$8,$9,$2,$3,0*%
G04 Aperture macros list end*
%ADD10RoundRect,0.200000X-0.275000X0.200000X-0.275000X-0.200000X0.275000X-0.200000X0.275000X0.200000X0*%
%ADD11RoundRect,0.243750X0.456250X-0.243750X0.456250X0.243750X-0.456250X0.243750X-0.456250X-0.243750X0*%
%ADD12RoundRect,0.225000X0.250000X-0.225000X0.250000X0.225000X-0.250000X0.225000X-0.250000X-0.225000X0*%
%ADD13RoundRect,0.225000X-0.250000X0.225000X-0.250000X-0.225000X0.250000X-0.225000X0.250000X0.225000X0*%
%ADD14RoundRect,0.225000X-0.225000X-0.250000X0.225000X-0.250000X0.225000X0.250000X-0.225000X0.250000X0*%
%ADD15RoundRect,0.225000X0.225000X0.250000X-0.225000X0.250000X-0.225000X-0.250000X0.225000X-0.250000X0*%
%ADD16C,3.900000*%
%ADD17C,7.000000*%
%ADD18C,4.900000*%
%ADD19C,9.000000*%
%ADD20RoundRect,0.150000X0.150000X-0.825000X0.150000X0.825000X-0.150000X0.825000X-0.150000X-0.825000X0*%
%ADD21RoundRect,0.200000X0.200000X0.275000X-0.200000X0.275000X-0.200000X-0.275000X0.200000X-0.275000X0*%
%ADD22RoundRect,0.200000X0.275000X-0.200000X0.275000X0.200000X-0.275000X0.200000X-0.275000X-0.200000X0*%
%ADD23RoundRect,0.150000X-0.825000X-0.150000X0.825000X-0.150000X0.825000X0.150000X-0.825000X0.150000X0*%
%ADD24RoundRect,0.100000X0.100000X-0.637500X0.100000X0.637500X-0.100000X0.637500X-0.100000X-0.637500X0*%
%ADD25RoundRect,0.100000X-0.637500X-0.100000X0.637500X-0.100000X0.637500X0.100000X-0.637500X0.100000X0*%
%ADD26RoundRect,0.150000X0.587500X0.150000X-0.587500X0.150000X-0.587500X-0.150000X0.587500X-0.150000X0*%
%ADD27RoundRect,0.218750X0.256250X-0.218750X0.256250X0.218750X-0.256250X0.218750X-0.256250X-0.218750X0*%
%ADD28RoundRect,0.218750X0.218750X0.256250X-0.218750X0.256250X-0.218750X-0.256250X0.218750X-0.256250X0*%
%ADD29RoundRect,0.200000X-0.200000X-0.275000X0.200000X-0.275000X0.200000X0.275000X-0.200000X0.275000X0*%
%ADD30R,3.500000X3.500000*%
%ADD31RoundRect,0.750000X1.000000X-0.750000X1.000000X0.750000X-1.000000X0.750000X-1.000000X-0.750000X0*%
%ADD32RoundRect,0.875000X0.875000X-0.875000X0.875000X0.875000X-0.875000X0.875000X-0.875000X-0.875000X0*%
%ADD33C,2.800000*%
%ADD34R,1.700000X1.300000*%
%ADD35R,1.300000X1.700000*%
%ADD36RoundRect,0.250000X0.475000X-0.250000X0.475000X0.250000X-0.475000X0.250000X-0.475000X-0.250000X0*%
%ADD37R,2.300000X1.500000*%
%ADD38O,2.300000X1.500000*%
%ADD39RoundRect,0.150000X0.825000X0.150000X-0.825000X0.150000X-0.825000X-0.150000X0.825000X-0.150000X0*%
%ADD40RoundRect,0.150000X0.150000X-0.587500X0.150000X0.587500X-0.150000X0.587500X-0.150000X-0.587500X0*%
%ADD41RoundRect,0.150000X-0.150000X0.587500X-0.150000X-0.587500X0.150000X-0.587500X0.150000X0.587500X0*%
%ADD42R,2.500000X1.800000*%
%ADD43RoundRect,0.250000X-0.475000X0.250000X-0.475000X-0.250000X0.475000X-0.250000X0.475000X0.250000X0*%
%ADD44R,2.600000X2.600000*%
%ADD45C,2.600000*%
%ADD46RoundRect,0.218750X-0.256250X0.218750X-0.256250X-0.218750X0.256250X-0.218750X0.256250X0.218750X0*%
%ADD47RoundRect,0.250000X0.650000X-0.325000X0.650000X0.325000X-0.650000X0.325000X-0.650000X-0.325000X0*%
%ADD48RoundRect,0.250000X-1.000000X1.750000X-1.000000X-1.750000X1.000000X-1.750000X1.000000X1.750000X0*%
%ADD49RoundRect,0.250000X0.262500X0.450000X-0.262500X0.450000X-0.262500X-0.450000X0.262500X-0.450000X0*%
%ADD50R,1.700000X1.700000*%
%ADD51O,1.700000X1.700000*%
%ADD52C,1.152000*%
%ADD53RoundRect,0.150000X-0.150000X0.825000X-0.150000X-0.825000X0.150000X-0.825000X0.150000X0.825000X0*%
%ADD54RoundRect,0.250000X0.450000X-0.262500X0.450000X0.262500X-0.450000X0.262500X-0.450000X-0.262500X0*%
%ADD55C,2.000000*%
%ADD56RoundRect,0.250000X-0.450000X0.262500X-0.450000X-0.262500X0.450000X-0.262500X0.450000X0.262500X0*%
%ADD57C,1.700000*%
%ADD58RoundRect,0.250000X-0.600000X-0.600000X0.600000X-0.600000X0.600000X0.600000X-0.600000X0.600000X0*%
%ADD59C,0.600000*%
%ADD60C,0.800000*%
G04 APERTURE END LIST*
D10*
%TO.C,R2*%
X219150000Y-91655000D03*
X219150000Y-93305000D03*
%TD*%
D11*
%TO.C,D18*%
X217220000Y-93177500D03*
X217220000Y-91302500D03*
%TD*%
D12*
%TO.C,C18*%
X126400000Y-119075000D03*
X126400000Y-117525000D03*
%TD*%
D13*
%TO.C,C20*%
X69044743Y-109290000D03*
X69044743Y-110840000D03*
%TD*%
%TO.C,C21*%
X80870000Y-119225000D03*
X80870000Y-120775000D03*
%TD*%
%TO.C,C23*%
X146070000Y-117915000D03*
X146070000Y-119465000D03*
%TD*%
%TO.C,C25*%
X98360000Y-118560000D03*
X98360000Y-120110000D03*
%TD*%
%TO.C,C26*%
X177140458Y-109255000D03*
X177140458Y-110805000D03*
%TD*%
%TO.C,C27*%
X162600000Y-119225000D03*
X162600000Y-120775000D03*
%TD*%
%TO.C,C28*%
X189881250Y-120306250D03*
X189881250Y-121856250D03*
%TD*%
D14*
%TO.C,C29*%
X180925000Y-120300000D03*
X182475000Y-120300000D03*
%TD*%
D15*
%TO.C,C30*%
X123645000Y-118420000D03*
X122095000Y-118420000D03*
%TD*%
D16*
%TO.C,H1*%
X226314000Y-73914000D03*
D17*
X226314000Y-73914000D03*
%TD*%
D16*
%TO.C,H2*%
X73279000Y-73914000D03*
D17*
X73279000Y-73914000D03*
%TD*%
D16*
%TO.C,H4*%
X73279000Y-121031000D03*
D17*
X73279000Y-121031000D03*
%TD*%
D18*
%TO.C,H5*%
X171577000Y-83312000D03*
D19*
X171577000Y-83312000D03*
%TD*%
D20*
%TO.C,Q4*%
X118645844Y-96355000D03*
X119915844Y-96355000D03*
X121185844Y-96355000D03*
X122455844Y-96355000D03*
X122455844Y-91405000D03*
X121185844Y-91405000D03*
X119915844Y-91405000D03*
X118645844Y-91405000D03*
%TD*%
%TO.C,Q5*%
X125777668Y-87575000D03*
X127047668Y-87575000D03*
X128317668Y-87575000D03*
X129587668Y-87575000D03*
X129587668Y-82625000D03*
X128317668Y-82625000D03*
X127047668Y-82625000D03*
X125777668Y-82625000D03*
%TD*%
%TO.C,Q6*%
X124720068Y-96355000D03*
X125990068Y-96355000D03*
X127260068Y-96355000D03*
X128530068Y-96355000D03*
X128530068Y-91405000D03*
X127260068Y-91405000D03*
X125990068Y-91405000D03*
X124720068Y-91405000D03*
%TD*%
%TO.C,Q8*%
X130794292Y-96355000D03*
X132064292Y-96355000D03*
X133334292Y-96355000D03*
X134604292Y-96355000D03*
X134604292Y-91405000D03*
X133334292Y-91405000D03*
X132064292Y-91405000D03*
X130794292Y-91405000D03*
%TD*%
%TO.C,Q9*%
X137936334Y-87575000D03*
X139206334Y-87575000D03*
X140476334Y-87575000D03*
X141746334Y-87575000D03*
X141746334Y-82625000D03*
X140476334Y-82625000D03*
X139206334Y-82625000D03*
X137936334Y-82625000D03*
%TD*%
%TO.C,Q10*%
X136868516Y-96355000D03*
X138138516Y-96355000D03*
X139408516Y-96355000D03*
X140678516Y-96355000D03*
X140678516Y-91405000D03*
X139408516Y-91405000D03*
X138138516Y-91405000D03*
X136868516Y-91405000D03*
%TD*%
%TO.C,Q11*%
X144015667Y-87575000D03*
X145285667Y-87575000D03*
X146555667Y-87575000D03*
X147825667Y-87575000D03*
X147825667Y-82625000D03*
X146555667Y-82625000D03*
X145285667Y-82625000D03*
X144015667Y-82625000D03*
%TD*%
%TO.C,Q12*%
X142942740Y-96355000D03*
X144212740Y-96355000D03*
X145482740Y-96355000D03*
X146752740Y-96355000D03*
X146752740Y-91405000D03*
X145482740Y-91405000D03*
X144212740Y-91405000D03*
X142942740Y-91405000D03*
%TD*%
%TO.C,Q13*%
X150095000Y-87575000D03*
X151365000Y-87575000D03*
X152635000Y-87575000D03*
X153905000Y-87575000D03*
X153905000Y-82625000D03*
X152635000Y-82625000D03*
X151365000Y-82625000D03*
X150095000Y-82625000D03*
%TD*%
%TO.C,Q14*%
X149016964Y-96355000D03*
X150286964Y-96355000D03*
X151556964Y-96355000D03*
X152826964Y-96355000D03*
X152826964Y-91405000D03*
X151556964Y-91405000D03*
X150286964Y-91405000D03*
X149016964Y-91405000D03*
%TD*%
%TO.C,Q15*%
X156174333Y-87575000D03*
X157444333Y-87575000D03*
X158714333Y-87575000D03*
X159984333Y-87575000D03*
X159984333Y-82625000D03*
X158714333Y-82625000D03*
X157444333Y-82625000D03*
X156174333Y-82625000D03*
%TD*%
%TO.C,Q16*%
X155091188Y-96355000D03*
X156361188Y-96355000D03*
X157631188Y-96355000D03*
X158901188Y-96355000D03*
X158901188Y-91405000D03*
X157631188Y-91405000D03*
X156361188Y-91405000D03*
X155091188Y-91405000D03*
%TD*%
%TO.C,Q17*%
X162253679Y-87575000D03*
X163523679Y-87575000D03*
X164793679Y-87575000D03*
X166063679Y-87575000D03*
X166063679Y-82625000D03*
X164793679Y-82625000D03*
X163523679Y-82625000D03*
X162253679Y-82625000D03*
%TD*%
%TO.C,Q18*%
X161165412Y-96355000D03*
X162435412Y-96355000D03*
X163705412Y-96355000D03*
X164975412Y-96355000D03*
X164975412Y-91405000D03*
X163705412Y-91405000D03*
X162435412Y-91405000D03*
X161165412Y-91405000D03*
%TD*%
%TO.C,Q20*%
X173313860Y-96355000D03*
X174583860Y-96355000D03*
X175853860Y-96355000D03*
X177123860Y-96355000D03*
X177123860Y-91405000D03*
X175853860Y-91405000D03*
X174583860Y-91405000D03*
X173313860Y-91405000D03*
%TD*%
%TO.C,Q21*%
X177960008Y-85710000D03*
X179230008Y-85710000D03*
X180500008Y-85710000D03*
X181770008Y-85710000D03*
X181770008Y-80760000D03*
X180500008Y-80760000D03*
X179230008Y-80760000D03*
X177960008Y-80760000D03*
%TD*%
%TO.C,Q22*%
X179388084Y-96355000D03*
X180658084Y-96355000D03*
X181928084Y-96355000D03*
X183198084Y-96355000D03*
X183198084Y-91405000D03*
X181928084Y-91405000D03*
X180658084Y-91405000D03*
X179388084Y-91405000D03*
%TD*%
%TO.C,Q23*%
X184290008Y-85710000D03*
X185560008Y-85710000D03*
X186830008Y-85710000D03*
X188100008Y-85710000D03*
X188100008Y-80760000D03*
X186830008Y-80760000D03*
X185560008Y-80760000D03*
X184290008Y-80760000D03*
%TD*%
%TO.C,Q24*%
X185462308Y-96355000D03*
X186732308Y-96355000D03*
X188002308Y-96355000D03*
X189272308Y-96355000D03*
X189272308Y-91405000D03*
X188002308Y-91405000D03*
X186732308Y-91405000D03*
X185462308Y-91405000D03*
%TD*%
%TO.C,Q25*%
X190620008Y-85710000D03*
X191890008Y-85710000D03*
X193160008Y-85710000D03*
X194430008Y-85710000D03*
X194430008Y-80760000D03*
X193160008Y-80760000D03*
X191890008Y-80760000D03*
X190620008Y-80760000D03*
%TD*%
%TO.C,Q26*%
X191536532Y-96355000D03*
X192806532Y-96355000D03*
X194076532Y-96355000D03*
X195346532Y-96355000D03*
X195346532Y-91405000D03*
X194076532Y-91405000D03*
X192806532Y-91405000D03*
X191536532Y-91405000D03*
%TD*%
%TO.C,Q27*%
X196950008Y-85710000D03*
X198220008Y-85710000D03*
X199490008Y-85710000D03*
X200760008Y-85710000D03*
X200760008Y-80760000D03*
X199490008Y-80760000D03*
X198220008Y-80760000D03*
X196950008Y-80760000D03*
%TD*%
%TO.C,Q28*%
X197610756Y-96355000D03*
X198880756Y-96355000D03*
X200150756Y-96355000D03*
X201420756Y-96355000D03*
X201420756Y-91405000D03*
X200150756Y-91405000D03*
X198880756Y-91405000D03*
X197610756Y-91405000D03*
%TD*%
%TO.C,Q29*%
X203280008Y-85710000D03*
X204550008Y-85710000D03*
X205820008Y-85710000D03*
X207090008Y-85710000D03*
X207090008Y-80760000D03*
X205820008Y-80760000D03*
X204550008Y-80760000D03*
X203280008Y-80760000D03*
%TD*%
%TO.C,Q30*%
X203685000Y-96355000D03*
X204955000Y-96355000D03*
X206225000Y-96355000D03*
X207495000Y-96355000D03*
X207495000Y-91405000D03*
X206225000Y-91405000D03*
X204955000Y-91405000D03*
X203685000Y-91405000D03*
%TD*%
%TO.C,Q31*%
X112571620Y-96355000D03*
X113841620Y-96355000D03*
X115111620Y-96355000D03*
X116381620Y-96355000D03*
X116381620Y-91405000D03*
X115111620Y-91405000D03*
X113841620Y-91405000D03*
X112571620Y-91405000D03*
%TD*%
%TO.C,Q32*%
X71063671Y-87575000D03*
X72333671Y-87575000D03*
X73603671Y-87575000D03*
X74873671Y-87575000D03*
X74873671Y-82625000D03*
X73603671Y-82625000D03*
X72333671Y-82625000D03*
X71063671Y-82625000D03*
%TD*%
%TO.C,Q33*%
X113619002Y-87575000D03*
X114889002Y-87575000D03*
X116159002Y-87575000D03*
X117429002Y-87575000D03*
X117429002Y-82625000D03*
X116159002Y-82625000D03*
X114889002Y-82625000D03*
X113619002Y-82625000D03*
%TD*%
%TO.C,Q34*%
X70052052Y-96355000D03*
X71322052Y-96355000D03*
X72592052Y-96355000D03*
X73862052Y-96355000D03*
X73862052Y-91405000D03*
X72592052Y-91405000D03*
X71322052Y-91405000D03*
X70052052Y-91405000D03*
%TD*%
%TO.C,Q35*%
X106497396Y-96355000D03*
X107767396Y-96355000D03*
X109037396Y-96355000D03*
X110307396Y-96355000D03*
X110307396Y-91405000D03*
X109037396Y-91405000D03*
X107767396Y-91405000D03*
X106497396Y-91405000D03*
%TD*%
%TO.C,Q36*%
X77143004Y-87575000D03*
X78413004Y-87575000D03*
X79683004Y-87575000D03*
X80953004Y-87575000D03*
X80953004Y-82625000D03*
X79683004Y-82625000D03*
X78413004Y-82625000D03*
X77143004Y-82625000D03*
%TD*%
%TO.C,Q37*%
X107539669Y-87575000D03*
X108809669Y-87575000D03*
X110079669Y-87575000D03*
X111349669Y-87575000D03*
X111349669Y-82625000D03*
X110079669Y-82625000D03*
X108809669Y-82625000D03*
X107539669Y-82625000D03*
%TD*%
%TO.C,Q38*%
X76126276Y-96355000D03*
X77396276Y-96355000D03*
X78666276Y-96355000D03*
X79936276Y-96355000D03*
X79936276Y-91405000D03*
X78666276Y-91405000D03*
X77396276Y-91405000D03*
X76126276Y-91405000D03*
%TD*%
%TO.C,Q39*%
X100423172Y-96355000D03*
X101693172Y-96355000D03*
X102963172Y-96355000D03*
X104233172Y-96355000D03*
X104233172Y-91405000D03*
X102963172Y-91405000D03*
X101693172Y-91405000D03*
X100423172Y-91405000D03*
%TD*%
%TO.C,Q40*%
X83222337Y-87575000D03*
X84492337Y-87575000D03*
X85762337Y-87575000D03*
X87032337Y-87575000D03*
X87032337Y-82625000D03*
X85762337Y-82625000D03*
X84492337Y-82625000D03*
X83222337Y-82625000D03*
%TD*%
%TO.C,Q41*%
X101460336Y-87575000D03*
X102730336Y-87575000D03*
X104000336Y-87575000D03*
X105270336Y-87575000D03*
X105270336Y-82625000D03*
X104000336Y-82625000D03*
X102730336Y-82625000D03*
X101460336Y-82625000D03*
%TD*%
%TO.C,Q42*%
X82200500Y-96355000D03*
X83470500Y-96355000D03*
X84740500Y-96355000D03*
X86010500Y-96355000D03*
X86010500Y-91405000D03*
X84740500Y-91405000D03*
X83470500Y-91405000D03*
X82200500Y-91405000D03*
%TD*%
%TO.C,Q43*%
X94348948Y-96355000D03*
X95618948Y-96355000D03*
X96888948Y-96355000D03*
X98158948Y-96355000D03*
X98158948Y-91405000D03*
X96888948Y-91405000D03*
X95618948Y-91405000D03*
X94348948Y-91405000D03*
%TD*%
%TO.C,Q44*%
X89301670Y-87575000D03*
X90571670Y-87575000D03*
X91841670Y-87575000D03*
X93111670Y-87575000D03*
X93111670Y-82625000D03*
X91841670Y-82625000D03*
X90571670Y-82625000D03*
X89301670Y-82625000D03*
%TD*%
%TO.C,Q45*%
X95381003Y-87575000D03*
X96651003Y-87575000D03*
X97921003Y-87575000D03*
X99191003Y-87575000D03*
X99191003Y-82625000D03*
X97921003Y-82625000D03*
X96651003Y-82625000D03*
X95381003Y-82625000D03*
%TD*%
D21*
%TO.C,R8*%
X66625000Y-115450000D03*
X64975000Y-115450000D03*
%TD*%
D10*
%TO.C,R17*%
X96350000Y-70175000D03*
X96350000Y-71825000D03*
%TD*%
%TO.C,R20*%
X117495000Y-100200000D03*
X117495000Y-101850000D03*
%TD*%
%TO.C,R21*%
X122235000Y-100200000D03*
X122235000Y-101850000D03*
%TD*%
%TO.C,R22*%
X120655000Y-100200000D03*
X120655000Y-101850000D03*
%TD*%
%TO.C,R23*%
X125395000Y-100200000D03*
X125395000Y-101850000D03*
%TD*%
%TO.C,R24*%
X123815000Y-100200000D03*
X123815000Y-101850000D03*
%TD*%
%TO.C,R25*%
X141225000Y-100200000D03*
X141225000Y-101850000D03*
%TD*%
%TO.C,R26*%
X126975000Y-100200000D03*
X126975000Y-101850000D03*
%TD*%
D22*
%TO.C,R27*%
X119074438Y-105575000D03*
X119074438Y-103925000D03*
%TD*%
%TO.C,R28*%
X117492255Y-105575000D03*
X117492255Y-103925000D03*
%TD*%
%TO.C,R29*%
X122238804Y-105575000D03*
X122238804Y-103925000D03*
%TD*%
%TO.C,R30*%
X120656621Y-105575000D03*
X120656621Y-103925000D03*
%TD*%
%TO.C,R31*%
X125403170Y-105575000D03*
X125403170Y-103925000D03*
%TD*%
%TO.C,R32*%
X123820987Y-105575000D03*
X123820987Y-103925000D03*
%TD*%
%TO.C,R33*%
X141225000Y-105575000D03*
X141225000Y-103925000D03*
%TD*%
%TO.C,R34*%
X126985353Y-105575000D03*
X126985353Y-103925000D03*
%TD*%
%TO.C,R35*%
X130149719Y-105575000D03*
X130149719Y-103925000D03*
%TD*%
%TO.C,R36*%
X128567536Y-105575000D03*
X128567536Y-103925000D03*
%TD*%
%TO.C,R37*%
X133314085Y-105575000D03*
X133314085Y-103925000D03*
%TD*%
%TO.C,R38*%
X131731902Y-105575000D03*
X131731902Y-103925000D03*
%TD*%
%TO.C,R39*%
X136478451Y-105575000D03*
X136478451Y-103925000D03*
%TD*%
%TO.C,R40*%
X134896268Y-105575000D03*
X134896268Y-103925000D03*
%TD*%
%TO.C,R41*%
X139642817Y-105575000D03*
X139642817Y-103925000D03*
%TD*%
%TO.C,R42*%
X138060634Y-105575000D03*
X138060634Y-103925000D03*
%TD*%
D10*
%TO.C,R43*%
X144391666Y-100200000D03*
X144391666Y-101850000D03*
%TD*%
%TO.C,R44*%
X142808333Y-100200000D03*
X142808333Y-101850000D03*
%TD*%
%TO.C,R45*%
X147558332Y-100200000D03*
X147558332Y-101850000D03*
%TD*%
%TO.C,R46*%
X145974999Y-100200000D03*
X145974999Y-101850000D03*
%TD*%
%TO.C,R47*%
X150725000Y-100200000D03*
X150725000Y-101850000D03*
%TD*%
%TO.C,R48*%
X149141665Y-100200000D03*
X149141665Y-101850000D03*
%TD*%
%TO.C,R49*%
X166550000Y-100200000D03*
X166550000Y-101850000D03*
%TD*%
%TO.C,R50*%
X164975000Y-100200000D03*
X164975000Y-101850000D03*
%TD*%
D22*
%TO.C,R52*%
X142807183Y-105575000D03*
X142807183Y-103925000D03*
%TD*%
%TO.C,R53*%
X147553732Y-105575000D03*
X147553732Y-103925000D03*
%TD*%
%TO.C,R54*%
X145971549Y-105575000D03*
X145971549Y-103925000D03*
%TD*%
%TO.C,R55*%
X150718098Y-105575000D03*
X150718098Y-103925000D03*
%TD*%
%TO.C,R56*%
X149135915Y-105575000D03*
X149135915Y-103925000D03*
%TD*%
%TO.C,R57*%
X166539928Y-105575000D03*
X166539928Y-103925000D03*
%TD*%
%TO.C,R58*%
X164957745Y-105575000D03*
X164957745Y-103925000D03*
%TD*%
%TO.C,R59*%
X153882464Y-105575000D03*
X153882464Y-103925000D03*
%TD*%
%TO.C,R60*%
X152300281Y-105575000D03*
X152300281Y-103925000D03*
%TD*%
%TO.C,R61*%
X157046830Y-105575000D03*
X157046830Y-103925000D03*
%TD*%
%TO.C,R62*%
X155464647Y-105575000D03*
X155464647Y-103925000D03*
%TD*%
%TO.C,R63*%
X160211196Y-105575000D03*
X160211196Y-103925000D03*
%TD*%
%TO.C,R64*%
X158629013Y-105575000D03*
X158629013Y-103925000D03*
%TD*%
%TO.C,R65*%
X163375562Y-105575000D03*
X163375562Y-103925000D03*
%TD*%
D23*
%TO.C,U5*%
X215215000Y-83735000D03*
X215215000Y-85005000D03*
X215215000Y-86275000D03*
X215215000Y-87545000D03*
X220165000Y-87545000D03*
X220165000Y-86275000D03*
X220165000Y-85005000D03*
X220165000Y-83735000D03*
%TD*%
D20*
%TO.C,U8*%
X124388791Y-114725000D03*
X125658791Y-114725000D03*
X126928791Y-114725000D03*
X128198791Y-114725000D03*
X129468791Y-114725000D03*
X130738791Y-114725000D03*
X132008791Y-114725000D03*
X133278791Y-114725000D03*
X133278791Y-109775000D03*
X132008791Y-109775000D03*
X130738791Y-109775000D03*
X129468791Y-109775000D03*
X128198791Y-109775000D03*
X126928791Y-109775000D03*
X125658791Y-109775000D03*
X124388791Y-109775000D03*
%TD*%
D24*
%TO.C,U10*%
X137000000Y-115250000D03*
X137650000Y-115250000D03*
X138300000Y-115250000D03*
X138950000Y-115250000D03*
X139600000Y-115250000D03*
X140250000Y-115250000D03*
X140900000Y-115250000D03*
X141550000Y-115250000D03*
X141550000Y-109525000D03*
X140900000Y-109525000D03*
X140250000Y-109525000D03*
X139600000Y-109525000D03*
X138950000Y-109525000D03*
X138300000Y-109525000D03*
X137650000Y-109525000D03*
X137000000Y-109525000D03*
%TD*%
%TO.C,U11*%
X128125000Y-124102500D03*
X128775000Y-124102500D03*
X129425000Y-124102500D03*
X130075000Y-124102500D03*
X130725000Y-124102500D03*
X131375000Y-124102500D03*
X132025000Y-124102500D03*
X132675000Y-124102500D03*
X132675000Y-118377500D03*
X132025000Y-118377500D03*
X131375000Y-118377500D03*
X130725000Y-118377500D03*
X130075000Y-118377500D03*
X129425000Y-118377500D03*
X128775000Y-118377500D03*
X128125000Y-118377500D03*
%TD*%
%TO.C,U13*%
X82525000Y-124562500D03*
X83175000Y-124562500D03*
X83825000Y-124562500D03*
X84475000Y-124562500D03*
X85125000Y-124562500D03*
X85775000Y-124562500D03*
X86425000Y-124562500D03*
X87075000Y-124562500D03*
X87075000Y-118837500D03*
X86425000Y-118837500D03*
X85775000Y-118837500D03*
X85125000Y-118837500D03*
X84475000Y-118837500D03*
X83825000Y-118837500D03*
X83175000Y-118837500D03*
X82525000Y-118837500D03*
%TD*%
D20*
%TO.C,U14*%
X145035934Y-114725000D03*
X146305934Y-114725000D03*
X147575934Y-114725000D03*
X148845934Y-114725000D03*
X150115934Y-114725000D03*
X151385934Y-114725000D03*
X152655934Y-114725000D03*
X153925934Y-114725000D03*
X153925934Y-109775000D03*
X152655934Y-109775000D03*
X151385934Y-109775000D03*
X150115934Y-109775000D03*
X148845934Y-109775000D03*
X147575934Y-109775000D03*
X146305934Y-109775000D03*
X145035934Y-109775000D03*
%TD*%
%TO.C,U15*%
X101424029Y-114725000D03*
X102694029Y-114725000D03*
X103964029Y-114725000D03*
X105234029Y-114725000D03*
X106504029Y-114725000D03*
X107774029Y-114725000D03*
X109044029Y-114725000D03*
X110314029Y-114725000D03*
X110314029Y-109775000D03*
X109044029Y-109775000D03*
X107774029Y-109775000D03*
X106504029Y-109775000D03*
X105234029Y-109775000D03*
X103964029Y-109775000D03*
X102694029Y-109775000D03*
X101424029Y-109775000D03*
%TD*%
D24*
%TO.C,U17*%
X147595000Y-123992500D03*
X148245000Y-123992500D03*
X148895000Y-123992500D03*
X149545000Y-123992500D03*
X150195000Y-123992500D03*
X150845000Y-123992500D03*
X151495000Y-123992500D03*
X152145000Y-123992500D03*
X152145000Y-118267500D03*
X151495000Y-118267500D03*
X150845000Y-118267500D03*
X150195000Y-118267500D03*
X149545000Y-118267500D03*
X148895000Y-118267500D03*
X148245000Y-118267500D03*
X147595000Y-118267500D03*
%TD*%
%TO.C,U19*%
X100225000Y-124542500D03*
X100875000Y-124542500D03*
X101525000Y-124542500D03*
X102175000Y-124542500D03*
X102825000Y-124542500D03*
X103475000Y-124542500D03*
X104125000Y-124542500D03*
X104775000Y-124542500D03*
X104775000Y-118817500D03*
X104125000Y-118817500D03*
X103475000Y-118817500D03*
X102825000Y-118817500D03*
X102175000Y-118817500D03*
X101525000Y-118817500D03*
X100875000Y-118817500D03*
X100225000Y-118817500D03*
%TD*%
D20*
%TO.C,U20*%
X165683077Y-114725000D03*
X166953077Y-114725000D03*
X168223077Y-114725000D03*
X169493077Y-114725000D03*
X170763077Y-114725000D03*
X172033077Y-114725000D03*
X173303077Y-114725000D03*
X174573077Y-114725000D03*
X174573077Y-109775000D03*
X173303077Y-109775000D03*
X172033077Y-109775000D03*
X170763077Y-109775000D03*
X169493077Y-109775000D03*
X168223077Y-109775000D03*
X166953077Y-109775000D03*
X165683077Y-109775000D03*
%TD*%
D24*
%TO.C,U22*%
X179447839Y-115262500D03*
X180097839Y-115262500D03*
X180747839Y-115262500D03*
X181397839Y-115262500D03*
X182047839Y-115262500D03*
X182697839Y-115262500D03*
X183347839Y-115262500D03*
X183997839Y-115262500D03*
X183997839Y-109537500D03*
X183347839Y-109537500D03*
X182697839Y-109537500D03*
X182047839Y-109537500D03*
X181397839Y-109537500D03*
X180747839Y-109537500D03*
X180097839Y-109537500D03*
X179447839Y-109537500D03*
%TD*%
D20*
%TO.C,U24*%
X186330220Y-114725000D03*
X187600220Y-114725000D03*
X188870220Y-114725000D03*
X190140220Y-114725000D03*
X191410220Y-114725000D03*
X192680220Y-114725000D03*
X193950220Y-114725000D03*
X195220220Y-114725000D03*
X195220220Y-109775000D03*
X193950220Y-109775000D03*
X192680220Y-109775000D03*
X191410220Y-109775000D03*
X190140220Y-109775000D03*
X188870220Y-109775000D03*
X187600220Y-109775000D03*
X186330220Y-109775000D03*
%TD*%
D24*
%TO.C,U25*%
X191525000Y-124762500D03*
X192175000Y-124762500D03*
X192825000Y-124762500D03*
X193475000Y-124762500D03*
X194125000Y-124762500D03*
X194775000Y-124762500D03*
X195425000Y-124762500D03*
X196075000Y-124762500D03*
X196075000Y-119037500D03*
X195425000Y-119037500D03*
X194775000Y-119037500D03*
X194125000Y-119037500D03*
X193475000Y-119037500D03*
X192825000Y-119037500D03*
X192175000Y-119037500D03*
X191525000Y-119037500D03*
%TD*%
D25*
%TO.C,U27*%
X107287500Y-120235000D03*
X107287500Y-120885000D03*
X107287500Y-121535000D03*
X107287500Y-122185000D03*
X107287500Y-122835000D03*
X107287500Y-123485000D03*
X107287500Y-124135000D03*
X107287500Y-124785000D03*
X113012500Y-124785000D03*
X113012500Y-124135000D03*
X113012500Y-123485000D03*
X113012500Y-122835000D03*
X113012500Y-122185000D03*
X113012500Y-121535000D03*
X113012500Y-120885000D03*
X113012500Y-120235000D03*
%TD*%
%TO.C,U28*%
X117637500Y-120045000D03*
X117637500Y-120695000D03*
X117637500Y-121345000D03*
X117637500Y-121995000D03*
X117637500Y-122645000D03*
X117637500Y-123295000D03*
X117637500Y-123945000D03*
X117637500Y-124595000D03*
X123362500Y-124595000D03*
X123362500Y-123945000D03*
X123362500Y-123295000D03*
X123362500Y-122645000D03*
X123362500Y-121995000D03*
X123362500Y-121345000D03*
X123362500Y-120695000D03*
X123362500Y-120045000D03*
%TD*%
D26*
%TO.C,U6*%
X163947500Y-80790000D03*
X163947500Y-78890000D03*
X162072500Y-79840000D03*
%TD*%
D22*
%TO.C,R51*%
X144389366Y-105575000D03*
X144389366Y-103925000D03*
%TD*%
D24*
%TO.C,U12*%
X71352124Y-115262500D03*
X72002124Y-115262500D03*
X72652124Y-115262500D03*
X73302124Y-115262500D03*
X73952124Y-115262500D03*
X74602124Y-115262500D03*
X75252124Y-115262500D03*
X75902124Y-115262500D03*
X75902124Y-109537500D03*
X75252124Y-109537500D03*
X74602124Y-109537500D03*
X73952124Y-109537500D03*
X73302124Y-109537500D03*
X72652124Y-109537500D03*
X72002124Y-109537500D03*
X71352124Y-109537500D03*
%TD*%
D13*
%TO.C,C22*%
X156493315Y-109255000D03*
X156493315Y-110805000D03*
%TD*%
%TO.C,C24*%
X90450000Y-109225000D03*
X90450000Y-110775000D03*
%TD*%
D24*
%TO.C,U18*%
X91999267Y-115262500D03*
X92649267Y-115262500D03*
X93299267Y-115262500D03*
X93949267Y-115262500D03*
X94599267Y-115262500D03*
X95249267Y-115262500D03*
X95899267Y-115262500D03*
X96549267Y-115262500D03*
X96549267Y-109537500D03*
X95899267Y-109537500D03*
X95249267Y-109537500D03*
X94599267Y-109537500D03*
X93949267Y-109537500D03*
X93299267Y-109537500D03*
X92649267Y-109537500D03*
X91999267Y-109537500D03*
%TD*%
D20*
%TO.C,U21*%
X112906410Y-114725000D03*
X114176410Y-114725000D03*
X115446410Y-114725000D03*
X116716410Y-114725000D03*
X117986410Y-114725000D03*
X119256410Y-114725000D03*
X120526410Y-114725000D03*
X121796410Y-114725000D03*
X121796410Y-109775000D03*
X120526410Y-109775000D03*
X119256410Y-109775000D03*
X117986410Y-109775000D03*
X116716410Y-109775000D03*
X115446410Y-109775000D03*
X114176410Y-109775000D03*
X112906410Y-109775000D03*
%TD*%
D24*
%TO.C,U23*%
X164525000Y-124162500D03*
X165175000Y-124162500D03*
X165825000Y-124162500D03*
X166475000Y-124162500D03*
X167125000Y-124162500D03*
X167775000Y-124162500D03*
X168425000Y-124162500D03*
X169075000Y-124162500D03*
X169075000Y-118437500D03*
X168425000Y-118437500D03*
X167775000Y-118437500D03*
X167125000Y-118437500D03*
X166475000Y-118437500D03*
X165825000Y-118437500D03*
X165175000Y-118437500D03*
X164525000Y-118437500D03*
%TD*%
%TO.C,U16*%
X158800696Y-115262500D03*
X159450696Y-115262500D03*
X160100696Y-115262500D03*
X160750696Y-115262500D03*
X161400696Y-115262500D03*
X162050696Y-115262500D03*
X162700696Y-115262500D03*
X163350696Y-115262500D03*
X163350696Y-109537500D03*
X162700696Y-109537500D03*
X162050696Y-109537500D03*
X161400696Y-109537500D03*
X160750696Y-109537500D03*
X160100696Y-109537500D03*
X159450696Y-109537500D03*
X158800696Y-109537500D03*
%TD*%
D25*
%TO.C,U26*%
X173137500Y-120025000D03*
X173137500Y-120675000D03*
X173137500Y-121325000D03*
X173137500Y-121975000D03*
X173137500Y-122625000D03*
X173137500Y-123275000D03*
X173137500Y-123925000D03*
X173137500Y-124575000D03*
X178862500Y-124575000D03*
X178862500Y-123925000D03*
X178862500Y-123275000D03*
X178862500Y-122625000D03*
X178862500Y-121975000D03*
X178862500Y-121325000D03*
X178862500Y-120675000D03*
X178862500Y-120025000D03*
%TD*%
D16*
%TO.C,H3*%
X226314000Y-121031000D03*
D17*
X226314000Y-121031000D03*
%TD*%
D12*
%TO.C,C6*%
X227225000Y-104575000D03*
X227225000Y-103025000D03*
%TD*%
D27*
%TO.C,F1*%
X198275000Y-117637500D03*
X198275000Y-116062500D03*
%TD*%
D20*
%TO.C,Q19*%
X167239636Y-96355000D03*
X168509636Y-96355000D03*
X169779636Y-96355000D03*
X171049636Y-96355000D03*
X171049636Y-91405000D03*
X169779636Y-91405000D03*
X168509636Y-91405000D03*
X167239636Y-91405000D03*
%TD*%
%TO.C,Q46*%
X88274724Y-96355000D03*
X89544724Y-96355000D03*
X90814724Y-96355000D03*
X92084724Y-96355000D03*
X92084724Y-91405000D03*
X90814724Y-91405000D03*
X89544724Y-91405000D03*
X88274724Y-91405000D03*
%TD*%
D28*
%TO.C,D2*%
X58287500Y-115450000D03*
X56712500Y-115450000D03*
%TD*%
D20*
%TO.C,Q7*%
X131857001Y-87575000D03*
X133127001Y-87575000D03*
X134397001Y-87575000D03*
X135667001Y-87575000D03*
X135667001Y-82625000D03*
X134397001Y-82625000D03*
X133127001Y-82625000D03*
X131857001Y-82625000D03*
%TD*%
%TO.C,U9*%
X78234505Y-114725000D03*
X79504505Y-114725000D03*
X80774505Y-114725000D03*
X82044505Y-114725000D03*
X83314505Y-114725000D03*
X84584505Y-114725000D03*
X85854505Y-114725000D03*
X87124505Y-114725000D03*
X87124505Y-109775000D03*
X85854505Y-109775000D03*
X84584505Y-109775000D03*
X83314505Y-109775000D03*
X82044505Y-109775000D03*
X80774505Y-109775000D03*
X79504505Y-109775000D03*
X78234505Y-109775000D03*
%TD*%
D13*
%TO.C,C7*%
X214675000Y-98450000D03*
X214675000Y-100000000D03*
%TD*%
D21*
%TO.C,R11*%
X66625000Y-119000000D03*
X64975000Y-119000000D03*
%TD*%
D10*
%TO.C,R19*%
X119075000Y-100200000D03*
X119075000Y-101850000D03*
%TD*%
D26*
%TO.C,Q2*%
X201437500Y-110480000D03*
X201437500Y-108580000D03*
X199562500Y-109530000D03*
%TD*%
D13*
%TO.C,C19*%
X135350000Y-109275000D03*
X135350000Y-110825000D03*
%TD*%
D29*
%TO.C,R1*%
X207300000Y-114100000D03*
X208950000Y-114100000D03*
%TD*%
D15*
%TO.C,C31*%
X113165000Y-118650000D03*
X111615000Y-118650000D03*
%TD*%
D30*
%TO.C,J5*%
X215492500Y-116350000D03*
D31*
X215492500Y-122350000D03*
D32*
X220192500Y-119350000D03*
%TD*%
D10*
%TO.C,R13*%
X98100000Y-70175000D03*
X98100000Y-71825000D03*
%TD*%
%TO.C,R67*%
X168125000Y-100200000D03*
X168125000Y-101850000D03*
%TD*%
%TO.C,R68*%
X169700000Y-100200000D03*
X169700000Y-101850000D03*
%TD*%
D33*
%TO.C,TP6*%
X156200000Y-120050000D03*
%TD*%
D20*
%TO.C,U3*%
X58855000Y-86475000D03*
X60125000Y-86475000D03*
X61395000Y-86475000D03*
X62665000Y-86475000D03*
X63935000Y-86475000D03*
X65205000Y-86475000D03*
X66475000Y-86475000D03*
X67745000Y-86475000D03*
X67745000Y-81525000D03*
X66475000Y-81525000D03*
X65205000Y-81525000D03*
X63935000Y-81525000D03*
X62665000Y-81525000D03*
X61395000Y-81525000D03*
X60125000Y-81525000D03*
X58855000Y-81525000D03*
%TD*%
D28*
%TO.C,D3*%
X58287500Y-119000000D03*
X56712500Y-119000000D03*
%TD*%
D22*
%TO.C,R66*%
X161793379Y-105575000D03*
X161793379Y-103925000D03*
%TD*%
D34*
%TO.C,D1*%
X207750000Y-108725000D03*
X207750000Y-112225000D03*
%TD*%
D10*
%TO.C,R130*%
X85858332Y-100200000D03*
X85858332Y-101850000D03*
%TD*%
%TO.C,R106*%
X79525000Y-100200000D03*
X79525000Y-101850000D03*
%TD*%
D12*
%TO.C,C33*%
X236200000Y-87225000D03*
X236200000Y-85675000D03*
%TD*%
D10*
%TO.C,R4*%
X227375000Y-93410000D03*
X227375000Y-95060000D03*
%TD*%
D13*
%TO.C,C38*%
X103010000Y-74805000D03*
X103010000Y-76355000D03*
%TD*%
D10*
%TO.C,R133*%
X106435000Y-100200000D03*
X106435000Y-101850000D03*
%TD*%
D35*
%TO.C,D6*%
X232750000Y-99800000D03*
X229250000Y-99800000D03*
%TD*%
D36*
%TO.C,C17*%
X232800000Y-121400000D03*
X232800000Y-119500000D03*
%TD*%
D22*
%TO.C,R85*%
X179197392Y-105575000D03*
X179197392Y-103925000D03*
%TD*%
D10*
%TO.C,R94*%
X198175000Y-100200000D03*
X198175000Y-101850000D03*
%TD*%
D37*
%TO.C,U4*%
X236262500Y-116353000D03*
D38*
X236262500Y-118893000D03*
X236262500Y-121433000D03*
%TD*%
D22*
%TO.C,R143*%
X93759582Y-105575000D03*
X93759582Y-103925000D03*
%TD*%
D28*
%TO.C,D15*%
X58287500Y-117200000D03*
X56712500Y-117200000D03*
%TD*%
D29*
%TO.C,R151*%
X66325000Y-97750000D03*
X67975000Y-97750000D03*
%TD*%
D22*
%TO.C,R82*%
X191854856Y-105575000D03*
X191854856Y-103925000D03*
%TD*%
D29*
%TO.C,R154*%
X239580000Y-80250000D03*
X241230000Y-80250000D03*
%TD*%
D12*
%TO.C,C16*%
X56975000Y-74500000D03*
X56975000Y-72950000D03*
%TD*%
D10*
%TO.C,R127*%
X108015000Y-100200000D03*
X108015000Y-101850000D03*
%TD*%
D22*
%TO.C,R123*%
X96923948Y-105575000D03*
X96923948Y-103925000D03*
%TD*%
%TO.C,R144*%
X74773314Y-105575000D03*
X74773314Y-103925000D03*
%TD*%
%TO.C,R120*%
X68444582Y-105575000D03*
X68444582Y-103925000D03*
%TD*%
%TO.C,R76*%
X169704294Y-105575000D03*
X169704294Y-103925000D03*
%TD*%
%TO.C,R136*%
X87430778Y-105575000D03*
X87430778Y-103925000D03*
%TD*%
%TO.C,R99*%
X199765771Y-105575000D03*
X199765771Y-103925000D03*
%TD*%
D39*
%TO.C,U1*%
X226875000Y-100755000D03*
X226875000Y-99485000D03*
X226875000Y-98215000D03*
X226875000Y-96945000D03*
X221925000Y-96945000D03*
X221925000Y-98215000D03*
X221925000Y-99485000D03*
X221925000Y-100755000D03*
%TD*%
D12*
%TO.C,C11*%
X241905000Y-78025000D03*
X241905000Y-76475000D03*
%TD*%
D22*
%TO.C,R77*%
X171286477Y-105575000D03*
X171286477Y-103925000D03*
%TD*%
%TO.C,R114*%
X79519863Y-105575000D03*
X79519863Y-103925000D03*
%TD*%
%TO.C,R83*%
X176033026Y-105575000D03*
X176033026Y-103925000D03*
%TD*%
D12*
%TO.C,C2*%
X224425000Y-116300000D03*
X224425000Y-114750000D03*
%TD*%
D22*
%TO.C,R112*%
X81102046Y-105575000D03*
X81102046Y-103925000D03*
%TD*%
D10*
%TO.C,R104*%
X81108333Y-100200000D03*
X81108333Y-101850000D03*
%TD*%
D22*
%TO.C,R98*%
X198183588Y-105575000D03*
X198183588Y-103925000D03*
%TD*%
D40*
%TO.C,U29*%
X104780000Y-76357500D03*
X106680000Y-76357500D03*
X105730000Y-74482500D03*
%TD*%
D22*
%TO.C,R80*%
X188690490Y-105575000D03*
X188690490Y-103925000D03*
%TD*%
D10*
%TO.C,R132*%
X103275000Y-100200000D03*
X103275000Y-101850000D03*
%TD*%
%TO.C,R128*%
X87441665Y-100200000D03*
X87441665Y-101850000D03*
%TD*%
%TO.C,R134*%
X89025000Y-100200000D03*
X89025000Y-101850000D03*
%TD*%
D22*
%TO.C,R96*%
X195019222Y-105575000D03*
X195019222Y-103925000D03*
%TD*%
D41*
%TO.C,Q47*%
X212575000Y-108137500D03*
X210675000Y-108137500D03*
X211625000Y-110012500D03*
%TD*%
D42*
%TO.C,D5*%
X204875000Y-113325000D03*
X200875000Y-113325000D03*
%TD*%
D10*
%TO.C,R109*%
X112755000Y-100200000D03*
X112755000Y-101850000D03*
%TD*%
D22*
%TO.C,R113*%
X115910072Y-105575000D03*
X115910072Y-103925000D03*
%TD*%
D10*
%TO.C,R69*%
X171275000Y-100200000D03*
X171275000Y-101850000D03*
%TD*%
D12*
%TO.C,C12*%
X237905000Y-81825000D03*
X237905000Y-80275000D03*
%TD*%
D28*
%TO.C,D14*%
X58287500Y-120800000D03*
X56712500Y-120800000D03*
%TD*%
D22*
%TO.C,R95*%
X193437039Y-105575000D03*
X193437039Y-103925000D03*
%TD*%
%TO.C,R147*%
X90595216Y-105575000D03*
X90595216Y-103925000D03*
%TD*%
D29*
%TO.C,R158*%
X222815000Y-84880000D03*
X224465000Y-84880000D03*
%TD*%
D35*
%TO.C,D13*%
X232750000Y-92300000D03*
X229250000Y-92300000D03*
%TD*%
D43*
%TO.C,C15*%
X232800000Y-115750000D03*
X232800000Y-117650000D03*
%TD*%
D10*
%TO.C,R108*%
X84274999Y-100200000D03*
X84274999Y-101850000D03*
%TD*%
D44*
%TO.C,J4*%
X202370000Y-121055000D03*
D45*
X207370000Y-121055000D03*
%TD*%
D10*
%TO.C,R70*%
X172850000Y-100200000D03*
X172850000Y-101850000D03*
%TD*%
D14*
%TO.C,C36*%
X219135000Y-81930000D03*
X220685000Y-81930000D03*
%TD*%
D41*
%TO.C,U2*%
X213100000Y-96212500D03*
X211200000Y-96212500D03*
X212150000Y-98087500D03*
%TD*%
D10*
%TO.C,R73*%
X190300000Y-100200000D03*
X190300000Y-101850000D03*
%TD*%
%TO.C,R129*%
X109595000Y-100200000D03*
X109595000Y-101850000D03*
%TD*%
D22*
%TO.C,R75*%
X168122111Y-105575000D03*
X168122111Y-103925000D03*
%TD*%
%TO.C,R126*%
X70026765Y-105575000D03*
X70026765Y-103925000D03*
%TD*%
D10*
%TO.C,R156*%
X229660000Y-84675000D03*
X229660000Y-86325000D03*
%TD*%
D46*
%TO.C,F2*%
X231000000Y-88562500D03*
X231000000Y-90137500D03*
%TD*%
D12*
%TO.C,C34*%
X237900000Y-87225000D03*
X237900000Y-85675000D03*
%TD*%
%TO.C,C32*%
X57125000Y-82550000D03*
X57125000Y-81000000D03*
%TD*%
D47*
%TO.C,C8*%
X216775000Y-99875000D03*
X216775000Y-96925000D03*
%TD*%
D10*
%TO.C,R5*%
X225725000Y-93425000D03*
X225725000Y-95075000D03*
%TD*%
D22*
%TO.C,R135*%
X107999157Y-105575000D03*
X107999157Y-103925000D03*
%TD*%
%TO.C,R116*%
X84266412Y-105575000D03*
X84266412Y-103925000D03*
%TD*%
D10*
%TO.C,R103*%
X114335000Y-100200000D03*
X114335000Y-101850000D03*
%TD*%
D29*
%TO.C,R161*%
X64815000Y-71170000D03*
X66465000Y-71170000D03*
%TD*%
D48*
%TO.C,C4*%
X218975000Y-103225000D03*
X218975000Y-111225000D03*
%TD*%
D40*
%TO.C,Q55*%
X222670000Y-82967500D03*
X224570000Y-82967500D03*
X223620000Y-81092500D03*
%TD*%
D10*
%TO.C,R92*%
X195025000Y-100200000D03*
X195025000Y-101850000D03*
%TD*%
D22*
%TO.C,R101*%
X202930137Y-105575000D03*
X202930137Y-103925000D03*
%TD*%
D13*
%TO.C,C10*%
X241905000Y-73175000D03*
X241905000Y-74725000D03*
%TD*%
D22*
%TO.C,R124*%
X71608948Y-105575000D03*
X71608948Y-103925000D03*
%TD*%
%TO.C,R142*%
X89012961Y-105575000D03*
X89012961Y-103925000D03*
%TD*%
D49*
%TO.C,R14*%
X66512500Y-121050000D03*
X64687500Y-121050000D03*
%TD*%
D21*
%TO.C,R12*%
X211055000Y-92525000D03*
X209405000Y-92525000D03*
%TD*%
D29*
%TO.C,R152*%
X66325000Y-96050000D03*
X67975000Y-96050000D03*
%TD*%
D35*
%TO.C,D4*%
X232760000Y-94790000D03*
X229260000Y-94790000D03*
%TD*%
D40*
%TO.C,Q50*%
X225325000Y-112762500D03*
X227225000Y-112762500D03*
X226275000Y-110887500D03*
%TD*%
D50*
%TO.C,J3*%
X110230000Y-76340000D03*
X110230000Y-71260000D03*
D51*
X112770000Y-76340000D03*
X112770000Y-71260000D03*
X115310000Y-76340000D03*
X115310000Y-71260000D03*
X117850000Y-76340000D03*
X117850000Y-71260000D03*
X120390000Y-76340000D03*
X120390000Y-71260000D03*
X122930000Y-76340000D03*
X122930000Y-71260000D03*
X125470000Y-76340000D03*
X125470000Y-71260000D03*
X128010000Y-76340000D03*
X128010000Y-71260000D03*
X130550000Y-76340000D03*
X130550000Y-71260000D03*
X133090000Y-76340000D03*
X133090000Y-71260000D03*
X135630000Y-76340000D03*
X135630000Y-71260000D03*
X138170000Y-76340000D03*
X138170000Y-71260000D03*
X140710000Y-76340000D03*
X140710000Y-71260000D03*
X143250000Y-76340000D03*
X143250000Y-71260000D03*
X145790000Y-76340000D03*
X145790000Y-71260000D03*
X148330000Y-76340000D03*
X148330000Y-71260000D03*
X150870000Y-76340000D03*
X150870000Y-71260000D03*
X153410000Y-76340000D03*
X153410000Y-71260000D03*
X155950000Y-76340000D03*
X155950000Y-71260000D03*
X158490000Y-76340000D03*
X158490000Y-71260000D03*
X161030000Y-76340000D03*
X161030000Y-71260000D03*
X163570000Y-76340000D03*
X163570000Y-71260000D03*
X166110000Y-76340000D03*
X166110000Y-71260000D03*
X168650000Y-76340000D03*
X168650000Y-71260000D03*
X171190000Y-76340000D03*
X171190000Y-71260000D03*
X173730000Y-76340000D03*
X173730000Y-71260000D03*
X176270000Y-76340000D03*
X176270000Y-71260000D03*
X178810000Y-76340000D03*
X178810000Y-71260000D03*
X181350000Y-76340000D03*
X181350000Y-71260000D03*
X183890000Y-76340000D03*
X183890000Y-71260000D03*
X186430000Y-76340000D03*
X186430000Y-71260000D03*
X188970000Y-76340000D03*
X188970000Y-71260000D03*
%TD*%
D22*
%TO.C,R119*%
X100088314Y-105575000D03*
X100088314Y-103925000D03*
%TD*%
D52*
%TO.C,REF\u002A\u002A*%
X241200000Y-123100000D03*
%TD*%
D22*
%TO.C,R141*%
X106416974Y-105575000D03*
X106416974Y-103925000D03*
%TD*%
D29*
%TO.C,R157*%
X222815000Y-87120000D03*
X224465000Y-87120000D03*
%TD*%
D22*
%TO.C,R102*%
X204512399Y-105575000D03*
X204512399Y-103925000D03*
%TD*%
D35*
%TO.C,D8*%
X212450000Y-101925000D03*
X208950000Y-101925000D03*
%TD*%
D22*
%TO.C,R145*%
X95341765Y-105575000D03*
X95341765Y-103925000D03*
%TD*%
D26*
%TO.C,Q1*%
X205387500Y-110475000D03*
X205387500Y-108575000D03*
X203512500Y-109525000D03*
%TD*%
D22*
%TO.C,R90*%
X187108307Y-105575000D03*
X187108307Y-103925000D03*
%TD*%
D10*
%TO.C,R71*%
X174425000Y-100200000D03*
X174425000Y-101850000D03*
%TD*%
D22*
%TO.C,R97*%
X196601405Y-105575000D03*
X196601405Y-103925000D03*
%TD*%
%TO.C,R125*%
X98506131Y-105575000D03*
X98506131Y-103925000D03*
%TD*%
D35*
%TO.C,D9*%
X232760000Y-109800000D03*
X229260000Y-109800000D03*
%TD*%
D10*
%TO.C,R110*%
X82691666Y-100200000D03*
X82691666Y-101850000D03*
%TD*%
D22*
%TO.C,R88*%
X183943941Y-105575000D03*
X183943941Y-103925000D03*
%TD*%
D10*
%TO.C,R74*%
X191875000Y-100200000D03*
X191875000Y-101850000D03*
%TD*%
D22*
%TO.C,R146*%
X73191131Y-105575000D03*
X73191131Y-103925000D03*
%TD*%
D52*
%TO.C,REF\u002A\u002A*%
X235175000Y-69050000D03*
%TD*%
D40*
%TO.C,Q49*%
X225330000Y-108767500D03*
X227230000Y-108767500D03*
X226280000Y-106892500D03*
%TD*%
D12*
%TO.C,C5*%
X209400000Y-106075000D03*
X209400000Y-104525000D03*
%TD*%
D22*
%TO.C,R115*%
X111163523Y-105575000D03*
X111163523Y-103925000D03*
%TD*%
D43*
%TO.C,C3*%
X222425000Y-114325000D03*
X222425000Y-116225000D03*
%TD*%
D29*
%TO.C,R10*%
X209400000Y-94100000D03*
X211050000Y-94100000D03*
%TD*%
D13*
%TO.C,C37*%
X165890000Y-78995000D03*
X165890000Y-80545000D03*
%TD*%
D35*
%TO.C,D7*%
X232760000Y-104800000D03*
X229260000Y-104800000D03*
%TD*%
D21*
%TO.C,R15*%
X66625000Y-117200000D03*
X64975000Y-117200000D03*
%TD*%
D35*
%TO.C,D12*%
X232750000Y-97300000D03*
X229250000Y-97300000D03*
%TD*%
D10*
%TO.C,R107*%
X111175000Y-100200000D03*
X111175000Y-101850000D03*
%TD*%
D53*
%TO.C,U30*%
X240110000Y-73075000D03*
X238840000Y-73075000D03*
X237570000Y-73075000D03*
X236300000Y-73075000D03*
X236300000Y-78025000D03*
X237570000Y-78025000D03*
X238840000Y-78025000D03*
X240110000Y-78025000D03*
%TD*%
D10*
%TO.C,R72*%
X188725000Y-100200000D03*
X188725000Y-101850000D03*
%TD*%
D22*
%TO.C,R122*%
X66862399Y-105575000D03*
X66862399Y-103925000D03*
%TD*%
D35*
%TO.C,D10*%
X232750000Y-107300000D03*
X229250000Y-107300000D03*
%TD*%
D29*
%TO.C,R7*%
X211475000Y-99950000D03*
X213125000Y-99950000D03*
%TD*%
D21*
%TO.C,R18*%
X237830000Y-70850000D03*
X236180000Y-70850000D03*
%TD*%
D54*
%TO.C,R9*%
X209450000Y-99737500D03*
X209450000Y-97912500D03*
%TD*%
D22*
%TO.C,R84*%
X177615209Y-105575000D03*
X177615209Y-103925000D03*
%TD*%
%TO.C,R121*%
X101677399Y-105575000D03*
X101677399Y-103925000D03*
%TD*%
%TO.C,R137*%
X109581340Y-105575000D03*
X109581340Y-103925000D03*
%TD*%
D34*
%TO.C,D17*%
X242225000Y-87050000D03*
X242225000Y-83550000D03*
%TD*%
D22*
%TO.C,R79*%
X174450843Y-105575000D03*
X174450843Y-103925000D03*
%TD*%
D41*
%TO.C,Q54*%
X228040000Y-81092500D03*
X226140000Y-81092500D03*
X227090000Y-82967500D03*
%TD*%
D34*
%TO.C,D16*%
X219275000Y-99775000D03*
X219275000Y-96275000D03*
%TD*%
D15*
%TO.C,C13*%
X240980000Y-70850000D03*
X239430000Y-70850000D03*
%TD*%
D55*
%TO.C,REF\u002A\u002A*%
X61100000Y-124500000D03*
%TD*%
D41*
%TO.C,Q52*%
X103140000Y-70182500D03*
X101240000Y-70182500D03*
X102190000Y-72057500D03*
%TD*%
%TO.C,Q48*%
X212575000Y-112062500D03*
X210675000Y-112062500D03*
X211625000Y-113937500D03*
%TD*%
D22*
%TO.C,R100*%
X201347954Y-105575000D03*
X201347954Y-103925000D03*
%TD*%
D10*
%TO.C,R91*%
X193450000Y-100200000D03*
X193450000Y-101850000D03*
%TD*%
D55*
%TO.C,REF\u002A\u002A*%
X230400000Y-77400000D03*
%TD*%
D22*
%TO.C,R89*%
X185526124Y-105575000D03*
X185526124Y-103925000D03*
%TD*%
D29*
%TO.C,R6*%
X226100000Y-114775000D03*
X227750000Y-114775000D03*
%TD*%
D10*
%TO.C,R160*%
X213050000Y-86475000D03*
X213050000Y-88125000D03*
%TD*%
D21*
%TO.C,R155*%
X227905000Y-88770000D03*
X226255000Y-88770000D03*
%TD*%
D22*
%TO.C,R117*%
X112745706Y-105575000D03*
X112745706Y-103925000D03*
%TD*%
%TO.C,R140*%
X103252608Y-105575000D03*
X103252608Y-103925000D03*
%TD*%
D56*
%TO.C,R3*%
X212350000Y-104362500D03*
X212350000Y-106187500D03*
%TD*%
D41*
%TO.C,Q51*%
X106760000Y-70192500D03*
X104860000Y-70192500D03*
X105810000Y-72067500D03*
%TD*%
D52*
%TO.C,REF\u002A\u002A*%
X58650000Y-69950000D03*
%TD*%
D43*
%TO.C,C1*%
X198025000Y-112425000D03*
X198025000Y-114325000D03*
%TD*%
D29*
%TO.C,R16*%
X209400000Y-90950000D03*
X211050000Y-90950000D03*
%TD*%
D22*
%TO.C,R150*%
X76355497Y-105575000D03*
X76355497Y-103925000D03*
%TD*%
D10*
%TO.C,R93*%
X196600000Y-100200000D03*
X196600000Y-101850000D03*
%TD*%
%TO.C,R131*%
X104855000Y-100200000D03*
X104855000Y-101850000D03*
%TD*%
D55*
%TO.C,REF\u002A\u002A*%
X61600000Y-69400000D03*
%TD*%
D22*
%TO.C,R78*%
X172868660Y-105575000D03*
X172868660Y-103925000D03*
%TD*%
D41*
%TO.C,Q53*%
X228040000Y-84992500D03*
X226140000Y-84992500D03*
X227090000Y-86867500D03*
%TD*%
D55*
%TO.C,REF\u002A\u002A*%
X241200000Y-120025000D03*
%TD*%
D57*
%TO.C,J1*%
X240247500Y-106770000D03*
X237707500Y-106770000D03*
X240247500Y-104230000D03*
X237707500Y-104230000D03*
X240247500Y-101690000D03*
X237707500Y-101690000D03*
X240247500Y-99150000D03*
X237707500Y-99150000D03*
X240247500Y-96610000D03*
X237707500Y-96610000D03*
X240247500Y-94070000D03*
D58*
X237707500Y-94070000D03*
%TD*%
D20*
%TO.C,Q3*%
X119698335Y-87575000D03*
X120968335Y-87575000D03*
X122238335Y-87575000D03*
X123508335Y-87575000D03*
X123508335Y-82625000D03*
X122238335Y-82625000D03*
X120968335Y-82625000D03*
X119698335Y-82625000D03*
%TD*%
D22*
%TO.C,R148*%
X77937680Y-105575000D03*
X77937680Y-103925000D03*
%TD*%
D58*
%TO.C,J2*%
X58847500Y-93950000D03*
D57*
X61387500Y-93950000D03*
X58847500Y-96490000D03*
X61387500Y-96490000D03*
X58847500Y-99030000D03*
X61387500Y-99030000D03*
X58847500Y-101570000D03*
X61387500Y-101570000D03*
X58847500Y-104110000D03*
X61387500Y-104110000D03*
X58847500Y-106650000D03*
X61387500Y-106650000D03*
%TD*%
D12*
%TO.C,C14*%
X236205000Y-81825000D03*
X236205000Y-80275000D03*
%TD*%
D22*
%TO.C,R138*%
X85848595Y-105575000D03*
X85848595Y-103925000D03*
%TD*%
D52*
%TO.C,REF\u002A\u002A*%
X58100000Y-123500000D03*
%TD*%
D22*
%TO.C,R111*%
X114327889Y-105575000D03*
X114327889Y-103925000D03*
%TD*%
D35*
%TO.C,D11*%
X232750000Y-102300000D03*
X229250000Y-102300000D03*
%TD*%
D43*
%TO.C,C35*%
X239950000Y-85300000D03*
X239950000Y-87200000D03*
%TD*%
D22*
%TO.C,R149*%
X92177399Y-105575000D03*
X92177399Y-103925000D03*
%TD*%
D20*
%TO.C,U7*%
X58855000Y-78425000D03*
X60125000Y-78425000D03*
X61395000Y-78425000D03*
X62665000Y-78425000D03*
X63935000Y-78425000D03*
X65205000Y-78425000D03*
X66475000Y-78425000D03*
X67745000Y-78425000D03*
X67745000Y-73475000D03*
X66475000Y-73475000D03*
X65205000Y-73475000D03*
X63935000Y-73475000D03*
X62665000Y-73475000D03*
X61395000Y-73475000D03*
X60125000Y-73475000D03*
X58855000Y-73475000D03*
%TD*%
D22*
%TO.C,R81*%
X190272673Y-105575000D03*
X190272673Y-103925000D03*
%TD*%
%TO.C,R87*%
X182361758Y-105575000D03*
X182361758Y-103925000D03*
%TD*%
%TO.C,R118*%
X82684229Y-105575000D03*
X82684229Y-103925000D03*
%TD*%
D10*
%TO.C,R159*%
X213050000Y-83325000D03*
X213050000Y-84975000D03*
%TD*%
D29*
%TO.C,R153*%
X66325000Y-94350000D03*
X67975000Y-94350000D03*
%TD*%
D12*
%TO.C,C9*%
X225475000Y-104575000D03*
X225475000Y-103025000D03*
%TD*%
D22*
%TO.C,R86*%
X180779575Y-105575000D03*
X180779575Y-103925000D03*
%TD*%
D10*
%TO.C,R105*%
X115915000Y-100200000D03*
X115915000Y-101850000D03*
%TD*%
D22*
%TO.C,R139*%
X104834791Y-105575000D03*
X104834791Y-103925000D03*
%TD*%
D59*
X217910000Y-90050000D03*
X218602500Y-80897500D03*
X219160000Y-90050000D03*
X218630000Y-84630000D03*
X116734450Y-89766926D03*
X113950688Y-89450688D03*
X117800000Y-84300000D03*
X114900000Y-84050000D03*
X141750000Y-84500500D03*
X73905743Y-89595633D03*
X141009669Y-89591706D03*
X71300000Y-89400000D03*
X147878528Y-84500500D03*
X110534574Y-89466802D03*
X142834339Y-89565659D03*
X107800688Y-89500688D03*
X150125458Y-84500500D03*
X148954539Y-89648948D03*
X160295016Y-84450500D03*
X111250000Y-84000000D03*
X159393090Y-89796490D03*
X108900000Y-83950000D03*
X166100000Y-84500000D03*
X80095463Y-89342379D03*
X163699500Y-89300000D03*
X77450688Y-89350688D03*
X175750000Y-89150000D03*
X104377611Y-89423764D03*
X174600000Y-89200000D03*
X101846692Y-89454683D03*
X105300000Y-84100000D03*
X102800000Y-84100000D03*
X86110106Y-89410106D03*
X83450688Y-89450688D03*
X98375682Y-89352193D03*
X95800000Y-89400000D03*
X93100000Y-84350000D03*
X207500000Y-88200000D03*
X88850500Y-84300000D03*
X92200688Y-89400688D03*
X99200000Y-84100000D03*
X89544744Y-89500000D03*
X96550000Y-84150000D03*
X72600000Y-112300000D03*
X83800000Y-121400000D03*
X93300000Y-112100000D03*
X101500000Y-122100000D03*
X63000000Y-84900000D03*
X100900000Y-122800000D03*
X62000000Y-84900000D03*
X92600000Y-112900000D03*
X83200000Y-122500000D03*
X72000000Y-113200000D03*
X61000000Y-84900000D03*
X82500000Y-123200000D03*
X71400000Y-114000000D03*
X92000000Y-113800000D03*
X100200000Y-123400000D03*
X188700000Y-124250000D03*
X179500000Y-114000000D03*
X65200000Y-84900000D03*
X128100000Y-121600000D03*
X175700000Y-120000000D03*
X158700000Y-114000000D03*
X137000000Y-114000000D03*
X147600000Y-121700000D03*
X164500000Y-122300000D03*
X188700000Y-123400000D03*
X148200000Y-121000000D03*
X165300000Y-121773500D03*
X137700000Y-113400000D03*
X128800000Y-120900000D03*
X159400000Y-113400000D03*
X66200000Y-84900000D03*
X180100000Y-113400000D03*
X175000000Y-120700000D03*
X148877708Y-120277708D03*
X67200000Y-84900000D03*
X129500000Y-119900000D03*
X188700000Y-122450000D03*
X174400000Y-121300000D03*
X166000000Y-121200000D03*
X138300000Y-112700000D03*
X180800000Y-112800000D03*
X160100000Y-112600000D03*
X200500000Y-106800000D03*
X192600000Y-120700000D03*
X199600000Y-106500000D03*
X191600000Y-120700000D03*
X194400000Y-120800000D03*
X204500000Y-106700000D03*
X193500000Y-120700000D03*
X201600000Y-106800000D03*
X124980000Y-118420000D03*
X190743750Y-119443750D03*
X136250000Y-109275000D03*
X67600000Y-109600000D03*
X240945000Y-77190000D03*
X177500000Y-120700000D03*
X104012500Y-76426500D03*
X81800000Y-118300000D03*
D60*
X59300000Y-91550000D03*
D59*
X91425000Y-109225000D03*
X99450000Y-118600000D03*
X58500000Y-80000000D03*
X163762500Y-118437500D03*
X146982500Y-118267500D03*
X178395000Y-109255000D03*
X113165000Y-119535000D03*
X57500000Y-118100000D03*
X58800000Y-72000000D03*
X157595000Y-109255000D03*
D60*
X115300000Y-97900000D03*
X134400000Y-89200000D03*
X164800000Y-85400000D03*
X97326500Y-89200000D03*
X127300000Y-98000000D03*
X139400000Y-98000000D03*
X128300000Y-89200000D03*
X145700000Y-98000000D03*
X199500000Y-87400000D03*
X72600000Y-97900000D03*
X186800000Y-87300000D03*
D59*
X196127708Y-109227708D03*
D60*
X152600000Y-89200000D03*
X163700000Y-98100000D03*
X206200000Y-98000000D03*
X146600000Y-89200000D03*
D59*
X175900000Y-109300000D03*
D60*
X180500000Y-87400000D03*
X73100000Y-89200000D03*
X85118837Y-89200000D03*
D59*
X57651214Y-119748786D03*
X134300000Y-109300000D03*
D60*
X79039504Y-89196963D03*
X164800000Y-89200000D03*
X161099999Y-85400001D03*
D59*
X122700000Y-109300000D03*
D60*
X87600000Y-85400000D03*
X91200000Y-89200000D03*
X84500000Y-98200000D03*
X115700000Y-89200000D03*
X169800000Y-98000000D03*
X122200000Y-89200000D03*
D59*
X111200000Y-109300000D03*
D60*
X139900000Y-89500000D03*
X158700000Y-89200000D03*
X78800000Y-85300000D03*
X182000000Y-98000000D03*
X78700000Y-97967447D03*
X194100000Y-98000000D03*
X200100000Y-98000000D03*
X188000000Y-97900000D03*
X109300000Y-98000000D03*
X84700000Y-85300000D03*
X121100000Y-98000000D03*
X109500000Y-89300000D03*
X193200000Y-87400000D03*
X103000000Y-97900000D03*
D59*
X88100000Y-109200000D03*
D60*
X70100000Y-79800000D03*
X133400000Y-98000000D03*
X103400000Y-89200000D03*
X73106243Y-85217396D03*
X157900000Y-97900000D03*
X175672205Y-97872205D03*
X97000000Y-98000000D03*
X158000000Y-85400000D03*
X151900000Y-98000000D03*
X205500000Y-87300000D03*
X90900000Y-98200000D03*
D59*
X155200000Y-109200000D03*
X63900000Y-80000000D03*
X59600000Y-116300000D03*
X108900000Y-123300000D03*
X57600000Y-114625000D03*
X227025000Y-89825000D03*
X116200000Y-123300000D03*
X68500000Y-77000000D03*
X125100000Y-121750000D03*
X182685445Y-116373500D03*
X125050000Y-119850000D03*
X140250000Y-116925000D03*
X125100000Y-120800000D03*
X162044309Y-116639756D03*
X125100000Y-122650000D03*
X194800000Y-123200000D03*
X66000000Y-89000000D03*
X116100000Y-119500000D03*
X116100000Y-120400000D03*
X61300000Y-80000000D03*
X60400000Y-80000000D03*
X116100000Y-121300000D03*
X105800000Y-121500000D03*
X59500000Y-80000000D03*
X64300000Y-89000000D03*
X105863249Y-119763250D03*
X123550000Y-89250000D03*
X119075000Y-102875000D03*
X117495000Y-102805000D03*
X122525000Y-97925000D03*
X129650000Y-89275000D03*
X122235000Y-102985000D03*
X120655000Y-102980000D03*
X128550000Y-97850000D03*
X135700000Y-89100000D03*
X125425000Y-102900000D03*
X134600000Y-97900000D03*
X123862292Y-102882292D03*
X141225000Y-102825000D03*
X141750000Y-89125000D03*
X126975000Y-102850000D03*
X140675000Y-97950000D03*
X147825000Y-89100000D03*
X144391666Y-102808334D03*
X146700000Y-97925000D03*
X142808333Y-102866667D03*
X153900000Y-89100000D03*
X147558332Y-102858332D03*
X152775000Y-97975000D03*
X145974999Y-102925001D03*
X150725000Y-102875000D03*
X160199001Y-89211533D03*
X158875000Y-97950000D03*
X149141665Y-102833335D03*
X166025000Y-89150000D03*
X166550000Y-102975000D03*
X164975000Y-102850000D03*
X165025000Y-98150000D03*
X171050000Y-97950000D03*
X168125000Y-102850000D03*
X176852708Y-97577708D03*
X169700000Y-102875000D03*
X181750000Y-87275000D03*
X171275000Y-102850000D03*
X183225000Y-97850000D03*
X172848708Y-102850844D03*
X188150000Y-87425000D03*
X174425000Y-102800000D03*
X188725000Y-102950000D03*
X189250000Y-97975000D03*
X194450000Y-87250000D03*
X190300000Y-102875000D03*
X191875000Y-102900000D03*
X195400000Y-98100000D03*
X193450000Y-102925000D03*
X200750000Y-87250000D03*
X195025000Y-102825000D03*
X201422023Y-97730111D03*
X196600000Y-102875000D03*
X207100000Y-87300000D03*
X198175000Y-102825000D03*
X204950000Y-97875000D03*
X116375000Y-97825000D03*
X114335000Y-102885000D03*
X75325000Y-89250000D03*
X81108333Y-102916667D03*
X115915000Y-102890000D03*
X117599001Y-89125000D03*
X79519863Y-102869863D03*
X73978170Y-97846830D03*
X110300000Y-97925000D03*
X111175000Y-102875000D03*
X81000000Y-89150000D03*
X84274999Y-102825001D03*
X112755000Y-102920000D03*
X111350000Y-89075000D03*
X79900000Y-97900000D03*
X82691666Y-102858334D03*
X108015000Y-102965000D03*
X104250000Y-97770478D03*
X87441665Y-102916665D03*
X87075000Y-89275000D03*
X105300000Y-89150000D03*
X109595000Y-102880000D03*
X85467000Y-98017954D03*
X85858332Y-102866668D03*
X104855000Y-102920000D03*
X98175000Y-97975000D03*
X93150000Y-89250000D03*
X103275000Y-102925000D03*
X106435000Y-102885000D03*
X99200000Y-89175000D03*
X108900000Y-122300000D03*
X116200000Y-122300000D03*
X68700000Y-101000000D03*
X74600000Y-116700000D03*
X111173500Y-120903319D03*
X95300000Y-116700000D03*
X111700000Y-121600000D03*
X67100000Y-77000000D03*
X65800000Y-77000000D03*
X64600000Y-77100000D03*
D60*
X61400000Y-76600000D03*
X106400000Y-97800000D03*
X142950000Y-97950000D03*
X185400000Y-97900000D03*
X76400000Y-89200000D03*
X58750000Y-75200000D03*
X203300000Y-87400000D03*
X156200000Y-89200000D03*
X121400000Y-120000000D03*
X125800000Y-89200000D03*
X184300000Y-87300000D03*
X60100000Y-108700000D03*
X88325000Y-98000000D03*
X179400000Y-98100000D03*
X190600000Y-87400000D03*
X124725000Y-97900000D03*
X144000000Y-89200000D03*
X197200000Y-98100000D03*
X134000000Y-124300000D03*
X162300000Y-89200000D03*
D59*
X211075000Y-98075000D03*
X161179895Y-116620104D03*
X62600000Y-80000000D03*
D60*
X112575000Y-97900000D03*
X136875000Y-98025000D03*
X196900000Y-87300000D03*
X137900000Y-89300000D03*
X150200000Y-89200000D03*
D59*
X139300000Y-116600000D03*
X164400000Y-114700000D03*
D60*
X100425000Y-97875000D03*
X70300000Y-89100000D03*
X131300000Y-120900000D03*
X191400000Y-98000000D03*
X155075000Y-98025000D03*
X167300000Y-98000000D03*
X113000000Y-89200000D03*
X82165879Y-89296544D03*
X94350000Y-98075000D03*
X203600000Y-98100000D03*
X161175000Y-97875000D03*
D59*
X105800000Y-120600000D03*
X225500000Y-101925000D03*
D60*
X119700000Y-89200000D03*
X88600000Y-89200000D03*
D59*
X223300000Y-101950000D03*
D60*
X173300000Y-98000000D03*
X100900000Y-89200000D03*
X149025000Y-97925000D03*
X70163714Y-98063714D03*
D59*
X225575000Y-83000000D03*
D60*
X167300000Y-120600000D03*
X82205503Y-97819497D03*
D59*
X241250000Y-72050000D03*
D60*
X76100000Y-98100000D03*
X118650000Y-98000000D03*
X130800000Y-97925000D03*
X94700000Y-89200000D03*
D59*
X64206033Y-94000000D03*
D60*
X102600000Y-122900000D03*
X131800000Y-89200000D03*
X106900000Y-89200000D03*
X178000000Y-87400000D03*
D59*
X242225000Y-79325000D03*
X209400000Y-103450000D03*
X213368750Y-105381250D03*
X226373480Y-101751520D03*
X226300000Y-96100000D03*
X224775000Y-96225000D03*
X224575000Y-101125000D03*
X97225000Y-71825000D03*
X214150000Y-96300000D03*
X211875000Y-83350000D03*
X225070469Y-98275000D03*
X212075000Y-95350000D03*
X223900000Y-99275000D03*
X210225000Y-95250000D03*
X162500000Y-78700000D03*
X216950000Y-86275000D03*
X105700000Y-75900000D03*
X217875000Y-87550000D03*
M02*
