%TF.GenerationSoftware,KiCad,Pcbnew,(6.0.0-0)*%
%TF.CreationDate,2022-08-24T22:51:58-06:00*%
%TF.ProjectId,FlippyDriver,466c6970-7079-4447-9269-7665722e6b69,C.2*%
%TF.SameCoordinates,Original*%
%TF.FileFunction,Legend,Bot*%
%TF.FilePolarity,Positive*%
%FSLAX46Y46*%
G04 Gerber Fmt 4.6, Leading zero omitted, Abs format (unit mm)*
G04 Created by KiCad (PCBNEW (6.0.0-0)) date 2022-08-24 22:51:58*
%MOMM*%
%LPD*%
G01*
G04 APERTURE LIST*
G04 Aperture macros list*
%AMRoundRect*
0 Rectangle with rounded corners*
0 $1 Rounding radius*
0 $2 $3 $4 $5 $6 $7 $8 $9 X,Y pos of 4 corners*
0 Add a 4 corners polygon primitive as box body*
4,1,4,$2,$3,$4,$5,$6,$7,$8,$9,$2,$3,0*
0 Add four circle primitives for the rounded corners*
1,1,$1+$1,$2,$3*
1,1,$1+$1,$4,$5*
1,1,$1+$1,$6,$7*
1,1,$1+$1,$8,$9*
0 Add four rect primitives between the rounded corners*
20,1,$1+$1,$2,$3,$4,$5,0*
20,1,$1+$1,$4,$5,$6,$7,0*
20,1,$1+$1,$6,$7,$8,$9,0*
20,1,$1+$1,$8,$9,$2,$3,0*%
G04 Aperture macros list end*
%ADD10C,0.150000*%
%ADD11C,0.099200*%
%ADD12C,0.250000*%
%ADD13C,0.300000*%
%ADD14C,0.120000*%
%ADD15C,0.500000*%
%ADD16C,0.010000*%
%ADD17C,1.152000*%
%ADD18C,1.800000*%
%ADD19O,1.800000X1.800000*%
%ADD20RoundRect,0.050000X0.850000X-0.850000X0.850000X0.850000X-0.850000X0.850000X-0.850000X-0.850000X0*%
%ADD21C,7.100000*%
%ADD22C,4.000000*%
%ADD23C,9.100000*%
%ADD24C,5.000000*%
%ADD25RoundRect,0.925000X0.875000X-0.875000X0.875000X0.875000X-0.875000X0.875000X-0.875000X-0.875000X0*%
%ADD26RoundRect,0.800000X1.000000X-0.750000X1.000000X0.750000X-1.000000X0.750000X-1.000000X-0.750000X0*%
%ADD27RoundRect,0.050000X1.750000X-1.750000X1.750000X1.750000X-1.750000X1.750000X-1.750000X-1.750000X0*%
%ADD28C,2.900000*%
%ADD29C,2.700000*%
%ADD30RoundRect,0.050000X-1.300000X-1.300000X1.300000X-1.300000X1.300000X1.300000X-1.300000X1.300000X0*%
%ADD31RoundRect,0.300000X-0.600000X-0.600000X0.600000X-0.600000X0.600000X0.600000X-0.600000X0.600000X0*%
%ADD32C,1.600000*%
%ADD33C,0.700000*%
%ADD34C,0.900000*%
%ADD35C,1.700000*%
G04 APERTURE END LIST*
D10*
X224500000Y-87400000D02*
X225300000Y-88600000D01*
X225300000Y-88600000D02*
X226000000Y-87400000D01*
X56900000Y-88500000D02*
X57600000Y-87200000D01*
X57600000Y-87200000D02*
X56100000Y-87200000D01*
X56100000Y-87200000D02*
X56900000Y-88500000D01*
X226000000Y-87400000D02*
X224500000Y-87400000D01*
X180807261Y-120642380D02*
X180473928Y-121642380D01*
X180140595Y-120642380D01*
X179378690Y-121642380D02*
X179378690Y-120642380D01*
X179378690Y-121594761D02*
X179473928Y-121642380D01*
X179664404Y-121642380D01*
X179759642Y-121594761D01*
X179807261Y-121547142D01*
X179854880Y-121451904D01*
X179854880Y-121166190D01*
X179807261Y-121070952D01*
X179759642Y-121023333D01*
X179664404Y-120975714D01*
X179473928Y-120975714D01*
X179378690Y-121023333D01*
X178902500Y-121642380D02*
X178902500Y-120975714D01*
X178902500Y-121166190D02*
X178854880Y-121070952D01*
X178807261Y-121023333D01*
X178712023Y-120975714D01*
X178616785Y-120975714D01*
X178283452Y-121642380D02*
X178283452Y-120975714D01*
X178283452Y-120642380D02*
X178331071Y-120690000D01*
X178283452Y-120737619D01*
X178235833Y-120690000D01*
X178283452Y-120642380D01*
X178283452Y-120737619D01*
X177902500Y-120975714D02*
X177664404Y-121642380D01*
X177426309Y-120975714D01*
X176664404Y-121594761D02*
X176759642Y-121642380D01*
X176950119Y-121642380D01*
X177045357Y-121594761D01*
X177092976Y-121499523D01*
X177092976Y-121118571D01*
X177045357Y-121023333D01*
X176950119Y-120975714D01*
X176759642Y-120975714D01*
X176664404Y-121023333D01*
X176616785Y-121118571D01*
X176616785Y-121213809D01*
X177092976Y-121309047D01*
X176188214Y-121547142D02*
X176140595Y-121594761D01*
X176188214Y-121642380D01*
X176235833Y-121594761D01*
X176188214Y-121547142D01*
X176188214Y-121642380D01*
X176188214Y-121023333D02*
X176140595Y-121070952D01*
X176188214Y-121118571D01*
X176235833Y-121070952D01*
X176188214Y-121023333D01*
X176188214Y-121118571D01*
X174997738Y-120737619D02*
X174950119Y-120690000D01*
X174854880Y-120642380D01*
X174616785Y-120642380D01*
X174521547Y-120690000D01*
X174473928Y-120737619D01*
X174426309Y-120832857D01*
X174426309Y-120928095D01*
X174473928Y-121070952D01*
X175045357Y-121642380D01*
X174426309Y-121642380D01*
X173807261Y-120642380D02*
X173712023Y-120642380D01*
X173616785Y-120690000D01*
X173569166Y-120737619D01*
X173521547Y-120832857D01*
X173473928Y-121023333D01*
X173473928Y-121261428D01*
X173521547Y-121451904D01*
X173569166Y-121547142D01*
X173616785Y-121594761D01*
X173712023Y-121642380D01*
X173807261Y-121642380D01*
X173902500Y-121594761D01*
X173950119Y-121547142D01*
X173997738Y-121451904D01*
X174045357Y-121261428D01*
X174045357Y-121023333D01*
X173997738Y-120832857D01*
X173950119Y-120737619D01*
X173902500Y-120690000D01*
X173807261Y-120642380D01*
X173188214Y-120642380D02*
X172854880Y-121642380D01*
X172521547Y-120642380D01*
X171426309Y-121261428D02*
X170664404Y-121261428D01*
X169473928Y-120737619D02*
X169426309Y-120690000D01*
X169331071Y-120642380D01*
X169092976Y-120642380D01*
X168997738Y-120690000D01*
X168950119Y-120737619D01*
X168902500Y-120832857D01*
X168902500Y-120928095D01*
X168950119Y-121070952D01*
X169521547Y-121642380D01*
X168902500Y-121642380D01*
X168569166Y-120642380D02*
X167902500Y-120642380D01*
X168331071Y-121642380D01*
X167664404Y-120642380D02*
X167331071Y-121642380D01*
X166997738Y-120642380D01*
X180807261Y-122252380D02*
X180473928Y-123252380D01*
X180140595Y-122252380D01*
X179378690Y-123204761D02*
X179473928Y-123252380D01*
X179664404Y-123252380D01*
X179759642Y-123204761D01*
X179807261Y-123157142D01*
X179854880Y-123061904D01*
X179854880Y-122776190D01*
X179807261Y-122680952D01*
X179759642Y-122633333D01*
X179664404Y-122585714D01*
X179473928Y-122585714D01*
X179378690Y-122633333D01*
X178521547Y-123204761D02*
X178616785Y-123252380D01*
X178807261Y-123252380D01*
X178902500Y-123204761D01*
X178950119Y-123157142D01*
X178997738Y-123061904D01*
X178997738Y-122776190D01*
X178950119Y-122680952D01*
X178902500Y-122633333D01*
X178807261Y-122585714D01*
X178616785Y-122585714D01*
X178521547Y-122633333D01*
X178092976Y-123157142D02*
X178045357Y-123204761D01*
X178092976Y-123252380D01*
X178140595Y-123204761D01*
X178092976Y-123157142D01*
X178092976Y-123252380D01*
X178092976Y-122633333D02*
X178045357Y-122680952D01*
X178092976Y-122728571D01*
X178140595Y-122680952D01*
X178092976Y-122633333D01*
X178092976Y-122728571D01*
X176950119Y-122252380D02*
X176331071Y-122252380D01*
X176664404Y-122633333D01*
X176521547Y-122633333D01*
X176426309Y-122680952D01*
X176378690Y-122728571D01*
X176331071Y-122823809D01*
X176331071Y-123061904D01*
X176378690Y-123157142D01*
X176426309Y-123204761D01*
X176521547Y-123252380D01*
X176807261Y-123252380D01*
X176902500Y-123204761D01*
X176950119Y-123157142D01*
X175902500Y-123157142D02*
X175854880Y-123204761D01*
X175902500Y-123252380D01*
X175950119Y-123204761D01*
X175902500Y-123157142D01*
X175902500Y-123252380D01*
X174902500Y-123252380D02*
X175473928Y-123252380D01*
X175188214Y-123252380D02*
X175188214Y-122252380D01*
X175283452Y-122395238D01*
X175378690Y-122490476D01*
X175473928Y-122538095D01*
X173712023Y-122871428D02*
X172950119Y-122871428D01*
X171235833Y-122252380D02*
X171712023Y-122252380D01*
X171759642Y-122728571D01*
X171712023Y-122680952D01*
X171616785Y-122633333D01*
X171378690Y-122633333D01*
X171283452Y-122680952D01*
X171235833Y-122728571D01*
X171188214Y-122823809D01*
X171188214Y-123061904D01*
X171235833Y-123157142D01*
X171283452Y-123204761D01*
X171378690Y-123252380D01*
X171616785Y-123252380D01*
X171712023Y-123204761D01*
X171759642Y-123157142D01*
X170759642Y-123157142D02*
X170712023Y-123204761D01*
X170759642Y-123252380D01*
X170807261Y-123204761D01*
X170759642Y-123157142D01*
X170759642Y-123252380D01*
X169807261Y-122252380D02*
X170283452Y-122252380D01*
X170331071Y-122728571D01*
X170283452Y-122680952D01*
X170188214Y-122633333D01*
X169950119Y-122633333D01*
X169854880Y-122680952D01*
X169807261Y-122728571D01*
X169759642Y-122823809D01*
X169759642Y-123061904D01*
X169807261Y-123157142D01*
X169854880Y-123204761D01*
X169950119Y-123252380D01*
X170188214Y-123252380D01*
X170283452Y-123204761D01*
X170331071Y-123157142D01*
X169473928Y-122252380D02*
X169140595Y-123252380D01*
X168807261Y-122252380D01*
X180664404Y-124862380D02*
X180664404Y-123862380D01*
X179759642Y-124862380D02*
X179759642Y-123862380D01*
X179759642Y-124814761D02*
X179854880Y-124862380D01*
X180045357Y-124862380D01*
X180140595Y-124814761D01*
X180188214Y-124767142D01*
X180235833Y-124671904D01*
X180235833Y-124386190D01*
X180188214Y-124290952D01*
X180140595Y-124243333D01*
X180045357Y-124195714D01*
X179854880Y-124195714D01*
X179759642Y-124243333D01*
X179283452Y-124862380D02*
X179283452Y-124195714D01*
X179283452Y-124386190D02*
X179235833Y-124290952D01*
X179188214Y-124243333D01*
X179092976Y-124195714D01*
X178997738Y-124195714D01*
X178664404Y-124862380D02*
X178664404Y-124195714D01*
X178664404Y-123862380D02*
X178712023Y-123910000D01*
X178664404Y-123957619D01*
X178616785Y-123910000D01*
X178664404Y-123862380D01*
X178664404Y-123957619D01*
X178283452Y-124195714D02*
X178045357Y-124862380D01*
X177807261Y-124195714D01*
X177045357Y-124814761D02*
X177140595Y-124862380D01*
X177331071Y-124862380D01*
X177426309Y-124814761D01*
X177473928Y-124719523D01*
X177473928Y-124338571D01*
X177426309Y-124243333D01*
X177331071Y-124195714D01*
X177140595Y-124195714D01*
X177045357Y-124243333D01*
X176997738Y-124338571D01*
X176997738Y-124433809D01*
X177473928Y-124529047D01*
X176569166Y-124767142D02*
X176521547Y-124814761D01*
X176569166Y-124862380D01*
X176616785Y-124814761D01*
X176569166Y-124767142D01*
X176569166Y-124862380D01*
X176569166Y-124243333D02*
X176521547Y-124290952D01*
X176569166Y-124338571D01*
X176616785Y-124290952D01*
X176569166Y-124243333D01*
X176569166Y-124338571D01*
X174902500Y-124195714D02*
X174902500Y-124862380D01*
X175140595Y-123814761D02*
X175378690Y-124529047D01*
X174759642Y-124529047D01*
X174426309Y-124576666D02*
X173950119Y-124576666D01*
X174521547Y-124862380D02*
X174188214Y-123862380D01*
X173854880Y-124862380D01*
X172473928Y-125243333D02*
X172521547Y-125195714D01*
X172616785Y-125052857D01*
X172664404Y-124957619D01*
X172712023Y-124814761D01*
X172759642Y-124576666D01*
X172759642Y-124386190D01*
X172712023Y-124148095D01*
X172664404Y-124005238D01*
X172616785Y-123910000D01*
X172521547Y-123767142D01*
X172473928Y-123719523D01*
X172188214Y-123862380D02*
X171569166Y-123862380D01*
X171902500Y-124243333D01*
X171759642Y-124243333D01*
X171664404Y-124290952D01*
X171616785Y-124338571D01*
X171569166Y-124433809D01*
X171569166Y-124671904D01*
X171616785Y-124767142D01*
X171664404Y-124814761D01*
X171759642Y-124862380D01*
X172045357Y-124862380D01*
X172140595Y-124814761D01*
X172188214Y-124767142D01*
X171188214Y-124576666D02*
X170712023Y-124576666D01*
X171283452Y-124862380D02*
X170950119Y-123862380D01*
X170616785Y-124862380D01*
X169664404Y-124195714D02*
X169283452Y-124195714D01*
X169521547Y-124862380D02*
X169521547Y-124005238D01*
X169473928Y-123910000D01*
X169378690Y-123862380D01*
X169283452Y-123862380D01*
X168807261Y-124862380D02*
X168902500Y-124814761D01*
X168950119Y-124767142D01*
X168997738Y-124671904D01*
X168997738Y-124386190D01*
X168950119Y-124290952D01*
X168902500Y-124243333D01*
X168807261Y-124195714D01*
X168664404Y-124195714D01*
X168569166Y-124243333D01*
X168521547Y-124290952D01*
X168473928Y-124386190D01*
X168473928Y-124671904D01*
X168521547Y-124767142D01*
X168569166Y-124814761D01*
X168664404Y-124862380D01*
X168807261Y-124862380D01*
X168045357Y-124862380D02*
X168045357Y-124195714D01*
X168045357Y-124386190D02*
X167997738Y-124290952D01*
X167950119Y-124243333D01*
X167854880Y-124195714D01*
X167759642Y-124195714D01*
X166664404Y-124862380D02*
X166664404Y-123862380D01*
X166426309Y-123862380D01*
X166283452Y-123910000D01*
X166188214Y-124005238D01*
X166140595Y-124100476D01*
X166092976Y-124290952D01*
X166092976Y-124433809D01*
X166140595Y-124624285D01*
X166188214Y-124719523D01*
X166283452Y-124814761D01*
X166426309Y-124862380D01*
X166664404Y-124862380D01*
X165521547Y-124862380D02*
X165616785Y-124814761D01*
X165664404Y-124767142D01*
X165712023Y-124671904D01*
X165712023Y-124386190D01*
X165664404Y-124290952D01*
X165616785Y-124243333D01*
X165521547Y-124195714D01*
X165378690Y-124195714D01*
X165283452Y-124243333D01*
X165235833Y-124290952D01*
X165188214Y-124386190D01*
X165188214Y-124671904D01*
X165235833Y-124767142D01*
X165283452Y-124814761D01*
X165378690Y-124862380D01*
X165521547Y-124862380D01*
X164902500Y-124195714D02*
X164521547Y-124195714D01*
X164759642Y-123862380D02*
X164759642Y-124719523D01*
X164712023Y-124814761D01*
X164616785Y-124862380D01*
X164521547Y-124862380D01*
X164235833Y-124814761D02*
X164140595Y-124862380D01*
X163950119Y-124862380D01*
X163854880Y-124814761D01*
X163807261Y-124719523D01*
X163807261Y-124671904D01*
X163854880Y-124576666D01*
X163950119Y-124529047D01*
X164092976Y-124529047D01*
X164188214Y-124481428D01*
X164235833Y-124386190D01*
X164235833Y-124338571D01*
X164188214Y-124243333D01*
X164092976Y-124195714D01*
X163950119Y-124195714D01*
X163854880Y-124243333D01*
X163331071Y-124814761D02*
X163331071Y-124862380D01*
X163378690Y-124957619D01*
X163426309Y-125005238D01*
X161616785Y-124862380D02*
X162188214Y-124862380D01*
X161902500Y-124862380D02*
X161902500Y-123862380D01*
X161997738Y-124005238D01*
X162092976Y-124100476D01*
X162188214Y-124148095D01*
X161235833Y-124576666D02*
X160759642Y-124576666D01*
X161331071Y-124862380D02*
X160997738Y-123862380D01*
X160664404Y-124862380D01*
X159712023Y-124195714D02*
X159331071Y-124195714D01*
X159569166Y-124862380D02*
X159569166Y-124005238D01*
X159521547Y-123910000D01*
X159426309Y-123862380D01*
X159331071Y-123862380D01*
X158854880Y-124862380D02*
X158950119Y-124814761D01*
X158997738Y-124767142D01*
X159045357Y-124671904D01*
X159045357Y-124386190D01*
X158997738Y-124290952D01*
X158950119Y-124243333D01*
X158854880Y-124195714D01*
X158712023Y-124195714D01*
X158616785Y-124243333D01*
X158569166Y-124290952D01*
X158521547Y-124386190D01*
X158521547Y-124671904D01*
X158569166Y-124767142D01*
X158616785Y-124814761D01*
X158712023Y-124862380D01*
X158854880Y-124862380D01*
X158092976Y-124862380D02*
X158092976Y-124195714D01*
X158092976Y-124386190D02*
X158045357Y-124290952D01*
X157997738Y-124243333D01*
X157902500Y-124195714D01*
X157807261Y-124195714D01*
X156235833Y-124862380D02*
X156712023Y-124862380D01*
X156712023Y-123862380D01*
X155902500Y-124338571D02*
X155569166Y-124338571D01*
X155426309Y-124862380D02*
X155902500Y-124862380D01*
X155902500Y-123862380D01*
X155426309Y-123862380D01*
X154997738Y-124862380D02*
X154997738Y-123862380D01*
X154759642Y-123862380D01*
X154616785Y-123910000D01*
X154521547Y-124005238D01*
X154473928Y-124100476D01*
X154426309Y-124290952D01*
X154426309Y-124433809D01*
X154473928Y-124624285D01*
X154521547Y-124719523D01*
X154616785Y-124814761D01*
X154759642Y-124862380D01*
X154997738Y-124862380D01*
X154045357Y-124814761D02*
X153950119Y-124862380D01*
X153759642Y-124862380D01*
X153664404Y-124814761D01*
X153616785Y-124719523D01*
X153616785Y-124671904D01*
X153664404Y-124576666D01*
X153759642Y-124529047D01*
X153902500Y-124529047D01*
X153997738Y-124481428D01*
X154045357Y-124386190D01*
X154045357Y-124338571D01*
X153997738Y-124243333D01*
X153902500Y-124195714D01*
X153759642Y-124195714D01*
X153664404Y-124243333D01*
X153283452Y-125243333D02*
X153235833Y-125195714D01*
X153140595Y-125052857D01*
X153092976Y-124957619D01*
X153045357Y-124814761D01*
X152997738Y-124576666D01*
X152997738Y-124386190D01*
X153045357Y-124148095D01*
X153092976Y-124005238D01*
X153140595Y-123910000D01*
X153235833Y-123767142D01*
X153283452Y-123719523D01*
D11*
X173538281Y-74166428D02*
X173573805Y-74201952D01*
X173680377Y-74237476D01*
X173751424Y-74237476D01*
X173857996Y-74201952D01*
X173929043Y-74130904D01*
X173964567Y-74059857D01*
X174000091Y-73917761D01*
X174000091Y-73811190D01*
X173964567Y-73669095D01*
X173929043Y-73598047D01*
X173857996Y-73527000D01*
X173751424Y-73491476D01*
X173680377Y-73491476D01*
X173573805Y-73527000D01*
X173538281Y-73562523D01*
X173076472Y-73491476D02*
X172934377Y-73491476D01*
X172863329Y-73527000D01*
X172792281Y-73598047D01*
X172756758Y-73740142D01*
X172756758Y-73988809D01*
X172792281Y-74130904D01*
X172863329Y-74201952D01*
X172934377Y-74237476D01*
X173076472Y-74237476D01*
X173147519Y-74201952D01*
X173218567Y-74130904D01*
X173254091Y-73988809D01*
X173254091Y-73740142D01*
X173218567Y-73598047D01*
X173147519Y-73527000D01*
X173076472Y-73491476D01*
X172081805Y-74237476D02*
X172437043Y-74237476D01*
X172437043Y-73491476D01*
X171833139Y-73491476D02*
X171833139Y-74095380D01*
X171797615Y-74166428D01*
X171762091Y-74201952D01*
X171691043Y-74237476D01*
X171548948Y-74237476D01*
X171477900Y-74201952D01*
X171442377Y-74166428D01*
X171406853Y-74095380D01*
X171406853Y-73491476D01*
X171051615Y-74237476D02*
X171051615Y-73491476D01*
X170802948Y-74024333D01*
X170554281Y-73491476D01*
X170554281Y-74237476D01*
X170199043Y-74237476D02*
X170199043Y-73491476D01*
X169772758Y-74237476D01*
X169772758Y-73491476D01*
X169453043Y-74201952D02*
X169346472Y-74237476D01*
X169168853Y-74237476D01*
X169097805Y-74201952D01*
X169062281Y-74166428D01*
X169026758Y-74095380D01*
X169026758Y-74024333D01*
X169062281Y-73953285D01*
X169097805Y-73917761D01*
X169168853Y-73882238D01*
X169310948Y-73846714D01*
X169381996Y-73811190D01*
X169417519Y-73775666D01*
X169453043Y-73704619D01*
X169453043Y-73633571D01*
X169417519Y-73562523D01*
X169381996Y-73527000D01*
X169310948Y-73491476D01*
X169133329Y-73491476D01*
X169026758Y-73527000D01*
X154888281Y-74486142D02*
X154888281Y-73420428D01*
X145403424Y-74237476D02*
X145652091Y-73882238D01*
X145829710Y-74237476D02*
X145829710Y-73491476D01*
X145545519Y-73491476D01*
X145474472Y-73527000D01*
X145438948Y-73562523D01*
X145403424Y-73633571D01*
X145403424Y-73740142D01*
X145438948Y-73811190D01*
X145474472Y-73846714D01*
X145545519Y-73882238D01*
X145829710Y-73882238D01*
X144941615Y-73491476D02*
X144799519Y-73491476D01*
X144728472Y-73527000D01*
X144657424Y-73598047D01*
X144621900Y-73740142D01*
X144621900Y-73988809D01*
X144657424Y-74130904D01*
X144728472Y-74201952D01*
X144799519Y-74237476D01*
X144941615Y-74237476D01*
X145012662Y-74201952D01*
X145083710Y-74130904D01*
X145119234Y-73988809D01*
X145119234Y-73740142D01*
X145083710Y-73598047D01*
X145012662Y-73527000D01*
X144941615Y-73491476D01*
X144373234Y-73491476D02*
X144195615Y-74237476D01*
X144053519Y-73704619D01*
X143911424Y-74237476D01*
X143733805Y-73491476D01*
X142454948Y-74237476D02*
X142703615Y-73882238D01*
X142881234Y-74237476D02*
X142881234Y-73491476D01*
X142597043Y-73491476D01*
X142525996Y-73527000D01*
X142490472Y-73562523D01*
X142454948Y-73633571D01*
X142454948Y-73740142D01*
X142490472Y-73811190D01*
X142525996Y-73846714D01*
X142597043Y-73882238D01*
X142881234Y-73882238D01*
X142135234Y-73846714D02*
X141886567Y-73846714D01*
X141779996Y-74237476D02*
X142135234Y-74237476D01*
X142135234Y-73491476D01*
X141779996Y-73491476D01*
X141495805Y-74201952D02*
X141389234Y-74237476D01*
X141211615Y-74237476D01*
X141140567Y-74201952D01*
X141105043Y-74166428D01*
X141069519Y-74095380D01*
X141069519Y-74024333D01*
X141105043Y-73953285D01*
X141140567Y-73917761D01*
X141211615Y-73882238D01*
X141353710Y-73846714D01*
X141424758Y-73811190D01*
X141460281Y-73775666D01*
X141495805Y-73704619D01*
X141495805Y-73633571D01*
X141460281Y-73562523D01*
X141424758Y-73527000D01*
X141353710Y-73491476D01*
X141176091Y-73491476D01*
X141069519Y-73527000D01*
X140749805Y-73846714D02*
X140501139Y-73846714D01*
X140394567Y-74237476D02*
X140749805Y-74237476D01*
X140749805Y-73491476D01*
X140394567Y-73491476D01*
X140181424Y-73491476D02*
X139755139Y-73491476D01*
X139968281Y-74237476D02*
X139968281Y-73491476D01*
X127712567Y-74237476D02*
X127961234Y-73882238D01*
X128138853Y-74237476D02*
X128138853Y-73491476D01*
X127854662Y-73491476D01*
X127783615Y-73527000D01*
X127748091Y-73562523D01*
X127712567Y-73633571D01*
X127712567Y-73740142D01*
X127748091Y-73811190D01*
X127783615Y-73846714D01*
X127854662Y-73882238D01*
X128138853Y-73882238D01*
X127250758Y-73491476D02*
X127108662Y-73491476D01*
X127037615Y-73527000D01*
X126966567Y-73598047D01*
X126931043Y-73740142D01*
X126931043Y-73988809D01*
X126966567Y-74130904D01*
X127037615Y-74201952D01*
X127108662Y-74237476D01*
X127250758Y-74237476D01*
X127321805Y-74201952D01*
X127392853Y-74130904D01*
X127428377Y-73988809D01*
X127428377Y-73740142D01*
X127392853Y-73598047D01*
X127321805Y-73527000D01*
X127250758Y-73491476D01*
X126682377Y-73491476D02*
X126504758Y-74237476D01*
X126362662Y-73704619D01*
X126220567Y-74237476D01*
X126042948Y-73491476D01*
X125225900Y-74201952D02*
X125119329Y-74237476D01*
X124941710Y-74237476D01*
X124870662Y-74201952D01*
X124835139Y-74166428D01*
X124799615Y-74095380D01*
X124799615Y-74024333D01*
X124835139Y-73953285D01*
X124870662Y-73917761D01*
X124941710Y-73882238D01*
X125083805Y-73846714D01*
X125154853Y-73811190D01*
X125190377Y-73775666D01*
X125225900Y-73704619D01*
X125225900Y-73633571D01*
X125190377Y-73562523D01*
X125154853Y-73527000D01*
X125083805Y-73491476D01*
X124906186Y-73491476D01*
X124799615Y-73527000D01*
X124479900Y-73846714D02*
X124231234Y-73846714D01*
X124124662Y-74237476D02*
X124479900Y-74237476D01*
X124479900Y-73491476D01*
X124124662Y-73491476D01*
X123911519Y-73491476D02*
X123485234Y-73491476D01*
X123698377Y-74237476D02*
X123698377Y-73491476D01*
X113964853Y-74486142D02*
X113964853Y-73420428D01*
X112863615Y-73953285D02*
X112295234Y-73953285D01*
X111584758Y-74237476D02*
X111939996Y-74237476D01*
X111939996Y-73491476D01*
X111336091Y-73846714D02*
X111087424Y-73846714D01*
X110980853Y-74237476D02*
X111336091Y-74237476D01*
X111336091Y-73491476D01*
X110980853Y-73491476D01*
X110661139Y-74237476D02*
X110661139Y-73491476D01*
X110483519Y-73491476D01*
X110376948Y-73527000D01*
X110305900Y-73598047D01*
X110270377Y-73669095D01*
X110234853Y-73811190D01*
X110234853Y-73917761D01*
X110270377Y-74059857D01*
X110305900Y-74130904D01*
X110376948Y-74201952D01*
X110483519Y-74237476D01*
X110661139Y-74237476D01*
X109915139Y-73953285D02*
X109346758Y-73953285D01*
X109630948Y-74237476D02*
X109630948Y-73669095D01*
D12*
X65578571Y-89500000D02*
X65578571Y-89785714D01*
X65650000Y-89928571D01*
X65792857Y-90071428D01*
X66078571Y-90142857D01*
X66578571Y-90142857D01*
X66864285Y-90071428D01*
X67007142Y-89928571D01*
X67078571Y-89785714D01*
X67078571Y-89500000D01*
X67007142Y-89357142D01*
X66864285Y-89214285D01*
X66578571Y-89142857D01*
X66078571Y-89142857D01*
X65792857Y-89214285D01*
X65650000Y-89357142D01*
X65578571Y-89500000D01*
X65578571Y-90785714D02*
X66792857Y-90785714D01*
X66935714Y-90857142D01*
X67007142Y-90928571D01*
X67078571Y-91071428D01*
X67078571Y-91357142D01*
X67007142Y-91500000D01*
X66935714Y-91571428D01*
X66792857Y-91642857D01*
X65578571Y-91642857D01*
X65578571Y-92142857D02*
X65578571Y-93000000D01*
X67078571Y-92571428D02*
X65578571Y-92571428D01*
X228685714Y-88478571D02*
X228685714Y-86978571D01*
X227971428Y-88478571D02*
X227971428Y-86978571D01*
X227114285Y-88478571D01*
X227114285Y-86978571D01*
D10*
X230896428Y-113880952D02*
X230896428Y-113119047D01*
X122814285Y-74280952D02*
X122528571Y-73519047D01*
X122242857Y-74280952D01*
X129514285Y-74280952D02*
X129228571Y-73519047D01*
X128942857Y-74280952D01*
X205909523Y-73727380D02*
X205909523Y-72727380D01*
X205338095Y-73727380D01*
X205338095Y-72727380D01*
X204147619Y-72679761D02*
X205004761Y-73965476D01*
X203242857Y-73632142D02*
X203290476Y-73679761D01*
X203433333Y-73727380D01*
X203528571Y-73727380D01*
X203671428Y-73679761D01*
X203766666Y-73584523D01*
X203814285Y-73489285D01*
X203861904Y-73298809D01*
X203861904Y-73155952D01*
X203814285Y-72965476D01*
X203766666Y-72870238D01*
X203671428Y-72775000D01*
X203528571Y-72727380D01*
X203433333Y-72727380D01*
X203290476Y-72775000D01*
X203242857Y-72822619D01*
D13*
X116833571Y-119563571D02*
X117547857Y-119563571D01*
X117547857Y-118063571D01*
X115690714Y-118563571D02*
X115690714Y-119563571D01*
X116333571Y-118563571D02*
X116333571Y-119349285D01*
X116262142Y-119492142D01*
X116119285Y-119563571D01*
X115905000Y-119563571D01*
X115762142Y-119492142D01*
X115690714Y-119420714D01*
X114976428Y-119563571D02*
X114976428Y-118563571D01*
X114976428Y-118706428D02*
X114905000Y-118635000D01*
X114762142Y-118563571D01*
X114547857Y-118563571D01*
X114405000Y-118635000D01*
X114333571Y-118777857D01*
X114333571Y-119563571D01*
X114333571Y-118777857D02*
X114262142Y-118635000D01*
X114119285Y-118563571D01*
X113905000Y-118563571D01*
X113762142Y-118635000D01*
X113690714Y-118777857D01*
X113690714Y-119563571D01*
X112976428Y-119563571D02*
X112976428Y-118563571D01*
X112976428Y-118063571D02*
X113047857Y-118135000D01*
X112976428Y-118206428D01*
X112905000Y-118135000D01*
X112976428Y-118063571D01*
X112976428Y-118206428D01*
X112262142Y-118563571D02*
X112262142Y-119563571D01*
X112262142Y-118706428D02*
X112190714Y-118635000D01*
X112047857Y-118563571D01*
X111833571Y-118563571D01*
X111690714Y-118635000D01*
X111619285Y-118777857D01*
X111619285Y-119563571D01*
X110262142Y-119563571D02*
X110262142Y-118777857D01*
X110333571Y-118635000D01*
X110476428Y-118563571D01*
X110762142Y-118563571D01*
X110905000Y-118635000D01*
X110262142Y-119492142D02*
X110405000Y-119563571D01*
X110762142Y-119563571D01*
X110905000Y-119492142D01*
X110976428Y-119349285D01*
X110976428Y-119206428D01*
X110905000Y-119063571D01*
X110762142Y-118992142D01*
X110405000Y-118992142D01*
X110262142Y-118920714D01*
X109762142Y-118563571D02*
X109190714Y-118563571D01*
X109547857Y-118063571D02*
X109547857Y-119349285D01*
X109476428Y-119492142D01*
X109333571Y-119563571D01*
X109190714Y-119563571D01*
X108476428Y-119563571D02*
X108619285Y-119492142D01*
X108690714Y-119420714D01*
X108762142Y-119277857D01*
X108762142Y-118849285D01*
X108690714Y-118706428D01*
X108619285Y-118635000D01*
X108476428Y-118563571D01*
X108262142Y-118563571D01*
X108119285Y-118635000D01*
X108047857Y-118706428D01*
X107976428Y-118849285D01*
X107976428Y-119277857D01*
X108047857Y-119420714D01*
X108119285Y-119492142D01*
X108262142Y-119563571D01*
X108476428Y-119563571D01*
X107333571Y-119563571D02*
X107333571Y-118563571D01*
X107333571Y-118849285D02*
X107262142Y-118706428D01*
X107190714Y-118635000D01*
X107047857Y-118563571D01*
X106905000Y-118563571D01*
X105262142Y-119563571D02*
X105262142Y-118063571D01*
X104762142Y-119135000D01*
X104262142Y-118063571D01*
X104262142Y-119563571D01*
X103619285Y-119135000D02*
X102905000Y-119135000D01*
X103762142Y-119563571D02*
X103262142Y-118063571D01*
X102762142Y-119563571D01*
X102405000Y-118063571D02*
X101405000Y-119563571D01*
X101405000Y-118063571D02*
X102405000Y-119563571D01*
X100976428Y-118063571D02*
X100047857Y-118063571D01*
X100547857Y-118635000D01*
X100333571Y-118635000D01*
X100190714Y-118706428D01*
X100119285Y-118777857D01*
X100047857Y-118920714D01*
X100047857Y-119277857D01*
X100119285Y-119420714D01*
X100190714Y-119492142D01*
X100333571Y-119563571D01*
X100762142Y-119563571D01*
X100905000Y-119492142D01*
X100976428Y-119420714D01*
X99119285Y-118063571D02*
X98976428Y-118063571D01*
X98833571Y-118135000D01*
X98762142Y-118206428D01*
X98690714Y-118349285D01*
X98619285Y-118635000D01*
X98619285Y-118992142D01*
X98690714Y-119277857D01*
X98762142Y-119420714D01*
X98833571Y-119492142D01*
X98976428Y-119563571D01*
X99119285Y-119563571D01*
X99262142Y-119492142D01*
X99333571Y-119420714D01*
X99405000Y-119277857D01*
X99476428Y-118992142D01*
X99476428Y-118635000D01*
X99405000Y-118349285D01*
X99333571Y-118206428D01*
X99262142Y-118135000D01*
X99119285Y-118063571D01*
X97690714Y-118063571D02*
X97547857Y-118063571D01*
X97405000Y-118135000D01*
X97333571Y-118206428D01*
X97262142Y-118349285D01*
X97190714Y-118635000D01*
X97190714Y-118992142D01*
X97262142Y-119277857D01*
X97333571Y-119420714D01*
X97405000Y-119492142D01*
X97547857Y-119563571D01*
X97690714Y-119563571D01*
X97833571Y-119492142D01*
X97905000Y-119420714D01*
X97976428Y-119277857D01*
X98047857Y-118992142D01*
X98047857Y-118635000D01*
X97976428Y-118349285D01*
X97905000Y-118206428D01*
X97833571Y-118135000D01*
X97690714Y-118063571D01*
X96262142Y-118063571D02*
X96119285Y-118063571D01*
X95976428Y-118135000D01*
X95905000Y-118206428D01*
X95833571Y-118349285D01*
X95762142Y-118635000D01*
X95762142Y-118992142D01*
X95833571Y-119277857D01*
X95905000Y-119420714D01*
X95976428Y-119492142D01*
X96119285Y-119563571D01*
X96262142Y-119563571D01*
X96405000Y-119492142D01*
X96476428Y-119420714D01*
X96547857Y-119277857D01*
X96619285Y-118992142D01*
X96619285Y-118635000D01*
X96547857Y-118349285D01*
X96476428Y-118206428D01*
X96405000Y-118135000D01*
X96262142Y-118063571D01*
X117547857Y-121978571D02*
X117547857Y-120478571D01*
X117190714Y-120478571D01*
X116976428Y-120550000D01*
X116833571Y-120692857D01*
X116762142Y-120835714D01*
X116690714Y-121121428D01*
X116690714Y-121335714D01*
X116762142Y-121621428D01*
X116833571Y-121764285D01*
X116976428Y-121907142D01*
X117190714Y-121978571D01*
X117547857Y-121978571D01*
X115476428Y-121907142D02*
X115619285Y-121978571D01*
X115905000Y-121978571D01*
X116047857Y-121907142D01*
X116119285Y-121764285D01*
X116119285Y-121192857D01*
X116047857Y-121050000D01*
X115905000Y-120978571D01*
X115619285Y-120978571D01*
X115476428Y-121050000D01*
X115405000Y-121192857D01*
X115405000Y-121335714D01*
X116119285Y-121478571D01*
X114119285Y-121907142D02*
X114262142Y-121978571D01*
X114547857Y-121978571D01*
X114690714Y-121907142D01*
X114762142Y-121835714D01*
X114833571Y-121692857D01*
X114833571Y-121264285D01*
X114762142Y-121121428D01*
X114690714Y-121050000D01*
X114547857Y-120978571D01*
X114262142Y-120978571D01*
X114119285Y-121050000D01*
X113262142Y-121978571D02*
X113405000Y-121907142D01*
X113476428Y-121835714D01*
X113547857Y-121692857D01*
X113547857Y-121264285D01*
X113476428Y-121121428D01*
X113405000Y-121050000D01*
X113262142Y-120978571D01*
X113047857Y-120978571D01*
X112905000Y-121050000D01*
X112833571Y-121121428D01*
X112762142Y-121264285D01*
X112762142Y-121692857D01*
X112833571Y-121835714D01*
X112905000Y-121907142D01*
X113047857Y-121978571D01*
X113262142Y-121978571D01*
X111476428Y-121978571D02*
X111476428Y-120478571D01*
X111476428Y-121907142D02*
X111619285Y-121978571D01*
X111905000Y-121978571D01*
X112047857Y-121907142D01*
X112119285Y-121835714D01*
X112190714Y-121692857D01*
X112190714Y-121264285D01*
X112119285Y-121121428D01*
X112047857Y-121050000D01*
X111905000Y-120978571D01*
X111619285Y-120978571D01*
X111476428Y-121050000D01*
X110190714Y-121907142D02*
X110333571Y-121978571D01*
X110619285Y-121978571D01*
X110762142Y-121907142D01*
X110833571Y-121764285D01*
X110833571Y-121192857D01*
X110762142Y-121050000D01*
X110619285Y-120978571D01*
X110333571Y-120978571D01*
X110190714Y-121050000D01*
X110119285Y-121192857D01*
X110119285Y-121335714D01*
X110833571Y-121478571D01*
X109476428Y-121978571D02*
X109476428Y-120978571D01*
X109476428Y-121264285D02*
X109405000Y-121121428D01*
X109333571Y-121050000D01*
X109190714Y-120978571D01*
X109047857Y-120978571D01*
X106762142Y-121978571D02*
X106762142Y-121192857D01*
X106833571Y-121050000D01*
X106976428Y-120978571D01*
X107262142Y-120978571D01*
X107405000Y-121050000D01*
X106762142Y-121907142D02*
X106905000Y-121978571D01*
X107262142Y-121978571D01*
X107405000Y-121907142D01*
X107476428Y-121764285D01*
X107476428Y-121621428D01*
X107405000Y-121478571D01*
X107262142Y-121407142D01*
X106905000Y-121407142D01*
X106762142Y-121335714D01*
X106047857Y-120978571D02*
X106047857Y-121978571D01*
X106047857Y-121121428D02*
X105976428Y-121050000D01*
X105833571Y-120978571D01*
X105619285Y-120978571D01*
X105476428Y-121050000D01*
X105405000Y-121192857D01*
X105405000Y-121978571D01*
X104047857Y-121978571D02*
X104047857Y-120478571D01*
X104047857Y-121907142D02*
X104190714Y-121978571D01*
X104476428Y-121978571D01*
X104619285Y-121907142D01*
X104690714Y-121835714D01*
X104762142Y-121692857D01*
X104762142Y-121264285D01*
X104690714Y-121121428D01*
X104619285Y-121050000D01*
X104476428Y-120978571D01*
X104190714Y-120978571D01*
X104047857Y-121050000D01*
X102190714Y-121978571D02*
X102190714Y-120478571D01*
X101833571Y-120478571D01*
X101619285Y-120550000D01*
X101476428Y-120692857D01*
X101405000Y-120835714D01*
X101333571Y-121121428D01*
X101333571Y-121335714D01*
X101405000Y-121621428D01*
X101476428Y-121764285D01*
X101619285Y-121907142D01*
X101833571Y-121978571D01*
X102190714Y-121978571D01*
X100690714Y-121978571D02*
X100690714Y-120978571D01*
X100690714Y-121264285D02*
X100619285Y-121121428D01*
X100547857Y-121050000D01*
X100405000Y-120978571D01*
X100262142Y-120978571D01*
X99762142Y-121978571D02*
X99762142Y-120978571D01*
X99762142Y-120478571D02*
X99833571Y-120550000D01*
X99762142Y-120621428D01*
X99690714Y-120550000D01*
X99762142Y-120478571D01*
X99762142Y-120621428D01*
X99190714Y-120978571D02*
X98833571Y-121978571D01*
X98476428Y-120978571D01*
X97333571Y-121907142D02*
X97476428Y-121978571D01*
X97762142Y-121978571D01*
X97905000Y-121907142D01*
X97976428Y-121764285D01*
X97976428Y-121192857D01*
X97905000Y-121050000D01*
X97762142Y-120978571D01*
X97476428Y-120978571D01*
X97333571Y-121050000D01*
X97262142Y-121192857D01*
X97262142Y-121335714D01*
X97976428Y-121478571D01*
X96619285Y-121978571D02*
X96619285Y-120978571D01*
X96619285Y-121264285D02*
X96547857Y-121121428D01*
X96476428Y-121050000D01*
X96333571Y-120978571D01*
X96190714Y-120978571D01*
X94047857Y-121192857D02*
X93833571Y-121264285D01*
X93762142Y-121335714D01*
X93690714Y-121478571D01*
X93690714Y-121692857D01*
X93762142Y-121835714D01*
X93833571Y-121907142D01*
X93976428Y-121978571D01*
X94547857Y-121978571D01*
X94547857Y-120478571D01*
X94047857Y-120478571D01*
X93905000Y-120550000D01*
X93833571Y-120621428D01*
X93762142Y-120764285D01*
X93762142Y-120907142D01*
X93833571Y-121050000D01*
X93905000Y-121121428D01*
X94047857Y-121192857D01*
X94547857Y-121192857D01*
X92833571Y-121978571D02*
X92976428Y-121907142D01*
X93047857Y-121835714D01*
X93119285Y-121692857D01*
X93119285Y-121264285D01*
X93047857Y-121121428D01*
X92976428Y-121050000D01*
X92833571Y-120978571D01*
X92619285Y-120978571D01*
X92476428Y-121050000D01*
X92405000Y-121121428D01*
X92333571Y-121264285D01*
X92333571Y-121692857D01*
X92405000Y-121835714D01*
X92476428Y-121907142D01*
X92619285Y-121978571D01*
X92833571Y-121978571D01*
X91047857Y-121978571D02*
X91047857Y-121192857D01*
X91119285Y-121050000D01*
X91262142Y-120978571D01*
X91547857Y-120978571D01*
X91690714Y-121050000D01*
X91047857Y-121907142D02*
X91190714Y-121978571D01*
X91547857Y-121978571D01*
X91690714Y-121907142D01*
X91762142Y-121764285D01*
X91762142Y-121621428D01*
X91690714Y-121478571D01*
X91547857Y-121407142D01*
X91190714Y-121407142D01*
X91047857Y-121335714D01*
X90333571Y-121978571D02*
X90333571Y-120978571D01*
X90333571Y-121264285D02*
X90262142Y-121121428D01*
X90190714Y-121050000D01*
X90047857Y-120978571D01*
X89905000Y-120978571D01*
X88762142Y-121978571D02*
X88762142Y-120478571D01*
X88762142Y-121907142D02*
X88905000Y-121978571D01*
X89190714Y-121978571D01*
X89333571Y-121907142D01*
X89405000Y-121835714D01*
X89476428Y-121692857D01*
X89476428Y-121264285D01*
X89405000Y-121121428D01*
X89333571Y-121050000D01*
X89190714Y-120978571D01*
X88905000Y-120978571D01*
X88762142Y-121050000D01*
X117619285Y-123036428D02*
X117547857Y-122965000D01*
X117405000Y-122893571D01*
X117047857Y-122893571D01*
X116905000Y-122965000D01*
X116833571Y-123036428D01*
X116762142Y-123179285D01*
X116762142Y-123322142D01*
X116833571Y-123536428D01*
X117690714Y-124393571D01*
X116762142Y-124393571D01*
X115833571Y-122893571D02*
X115690714Y-122893571D01*
X115547857Y-122965000D01*
X115476428Y-123036428D01*
X115405000Y-123179285D01*
X115333571Y-123465000D01*
X115333571Y-123822142D01*
X115405000Y-124107857D01*
X115476428Y-124250714D01*
X115547857Y-124322142D01*
X115690714Y-124393571D01*
X115833571Y-124393571D01*
X115976428Y-124322142D01*
X116047857Y-124250714D01*
X116119285Y-124107857D01*
X116190714Y-123822142D01*
X116190714Y-123465000D01*
X116119285Y-123179285D01*
X116047857Y-123036428D01*
X115976428Y-122965000D01*
X115833571Y-122893571D01*
X114762142Y-123036428D02*
X114690714Y-122965000D01*
X114547857Y-122893571D01*
X114190714Y-122893571D01*
X114047857Y-122965000D01*
X113976428Y-123036428D01*
X113905000Y-123179285D01*
X113905000Y-123322142D01*
X113976428Y-123536428D01*
X114833571Y-124393571D01*
X113905000Y-124393571D01*
X113333571Y-123036428D02*
X113262142Y-122965000D01*
X113119285Y-122893571D01*
X112762142Y-122893571D01*
X112619285Y-122965000D01*
X112547857Y-123036428D01*
X112476428Y-123179285D01*
X112476428Y-123322142D01*
X112547857Y-123536428D01*
X113405000Y-124393571D01*
X112476428Y-124393571D01*
X111833571Y-123822142D02*
X110690714Y-123822142D01*
X109690714Y-122893571D02*
X109547857Y-122893571D01*
X109404999Y-122965000D01*
X109333571Y-123036428D01*
X109262142Y-123179285D01*
X109190714Y-123465000D01*
X109190714Y-123822142D01*
X109262142Y-124107857D01*
X109333571Y-124250714D01*
X109404999Y-124322142D01*
X109547857Y-124393571D01*
X109690714Y-124393571D01*
X109833571Y-124322142D01*
X109904999Y-124250714D01*
X109976428Y-124107857D01*
X110047857Y-123822142D01*
X110047857Y-123465000D01*
X109976428Y-123179285D01*
X109904999Y-123036428D01*
X109833571Y-122965000D01*
X109690714Y-122893571D01*
X108333571Y-123536428D02*
X108476428Y-123465000D01*
X108547857Y-123393571D01*
X108619285Y-123250714D01*
X108619285Y-123179285D01*
X108547857Y-123036428D01*
X108476428Y-122965000D01*
X108333571Y-122893571D01*
X108047857Y-122893571D01*
X107904999Y-122965000D01*
X107833571Y-123036428D01*
X107762142Y-123179285D01*
X107762142Y-123250714D01*
X107833571Y-123393571D01*
X107904999Y-123465000D01*
X108047857Y-123536428D01*
X108333571Y-123536428D01*
X108476428Y-123607857D01*
X108547857Y-123679285D01*
X108619285Y-123822142D01*
X108619285Y-124107857D01*
X108547857Y-124250714D01*
X108476428Y-124322142D01*
X108333571Y-124393571D01*
X108047857Y-124393571D01*
X107904999Y-124322142D01*
X107833571Y-124250714D01*
X107762142Y-124107857D01*
X107762142Y-123822142D01*
X107833571Y-123679285D01*
X107904999Y-123607857D01*
X108047857Y-123536428D01*
X107119285Y-123822142D02*
X105976428Y-123822142D01*
X104476428Y-124393571D02*
X105333571Y-124393571D01*
X104904999Y-124393571D02*
X104904999Y-122893571D01*
X105047857Y-123107857D01*
X105190714Y-123250714D01*
X105333571Y-123322142D01*
X103190714Y-123393571D02*
X103190714Y-124393571D01*
X103547857Y-122822142D02*
X103904999Y-123893571D01*
X102976428Y-123893571D01*
X100833571Y-124965000D02*
X100904999Y-124893571D01*
X101047857Y-124679285D01*
X101119285Y-124536428D01*
X101190714Y-124322142D01*
X101262142Y-123965000D01*
X101262142Y-123679285D01*
X101190714Y-123322142D01*
X101119285Y-123107857D01*
X101047857Y-122965000D01*
X100904999Y-122750714D01*
X100833571Y-122679285D01*
X99404999Y-124393571D02*
X99904999Y-123679285D01*
X100262142Y-124393571D02*
X100262142Y-122893571D01*
X99690714Y-122893571D01*
X99547857Y-122965000D01*
X99476428Y-123036428D01*
X99404999Y-123179285D01*
X99404999Y-123393571D01*
X99476428Y-123536428D01*
X99547857Y-123607857D01*
X99690714Y-123679285D01*
X100262142Y-123679285D01*
X98190714Y-124322142D02*
X98333571Y-124393571D01*
X98619285Y-124393571D01*
X98762142Y-124322142D01*
X98833571Y-124179285D01*
X98833571Y-123607857D01*
X98762142Y-123465000D01*
X98619285Y-123393571D01*
X98333571Y-123393571D01*
X98190714Y-123465000D01*
X98119285Y-123607857D01*
X98119285Y-123750714D01*
X98833571Y-123893571D01*
X97619285Y-123393571D02*
X97262142Y-124393571D01*
X96904999Y-123393571D01*
X94333571Y-124250714D02*
X94404999Y-124322142D01*
X94619285Y-124393571D01*
X94762142Y-124393571D01*
X94976428Y-124322142D01*
X95119285Y-124179285D01*
X95190714Y-124036428D01*
X95262142Y-123750714D01*
X95262142Y-123536428D01*
X95190714Y-123250714D01*
X95119285Y-123107857D01*
X94976428Y-122965000D01*
X94762142Y-122893571D01*
X94619285Y-122893571D01*
X94404999Y-122965000D01*
X94333571Y-123036428D01*
X93833571Y-124965000D02*
X93762142Y-124893571D01*
X93619285Y-124679285D01*
X93547857Y-124536428D01*
X93476428Y-124322142D01*
X93404999Y-123965000D01*
X93404999Y-123679285D01*
X93476428Y-123322142D01*
X93547857Y-123107857D01*
X93619285Y-122965000D01*
X93762142Y-122750714D01*
X93833571Y-122679285D01*
D10*
X214147619Y-79052380D02*
X214480952Y-78576190D01*
X214719047Y-79052380D02*
X214719047Y-78052380D01*
X214338095Y-78052380D01*
X214242857Y-78100000D01*
X214195238Y-78147619D01*
X214147619Y-78242857D01*
X214147619Y-78385714D01*
X214195238Y-78480952D01*
X214242857Y-78528571D01*
X214338095Y-78576190D01*
X214719047Y-78576190D01*
X213766666Y-79004761D02*
X213623809Y-79052380D01*
X213385714Y-79052380D01*
X213290476Y-79004761D01*
X213242857Y-78957142D01*
X213195238Y-78861904D01*
X213195238Y-78766666D01*
X213242857Y-78671428D01*
X213290476Y-78623809D01*
X213385714Y-78576190D01*
X213576190Y-78528571D01*
X213671428Y-78480952D01*
X213719047Y-78433333D01*
X213766666Y-78338095D01*
X213766666Y-78242857D01*
X213719047Y-78147619D01*
X213671428Y-78100000D01*
X213576190Y-78052380D01*
X213338095Y-78052380D01*
X213195238Y-78100000D01*
X212909523Y-78052380D02*
X212338095Y-78052380D01*
X212623809Y-79052380D02*
X212623809Y-78052380D01*
X146885714Y-73519047D02*
X147171428Y-74280952D01*
X147457142Y-73519047D01*
X205846428Y-76502380D02*
X205846428Y-75502380D01*
X205513095Y-76216666D01*
X205179761Y-75502380D01*
X205179761Y-76502380D01*
X204513095Y-75502380D02*
X204322619Y-75502380D01*
X204227380Y-75550000D01*
X204132142Y-75645238D01*
X204084523Y-75835714D01*
X204084523Y-76169047D01*
X204132142Y-76359523D01*
X204227380Y-76454761D01*
X204322619Y-76502380D01*
X204513095Y-76502380D01*
X204608333Y-76454761D01*
X204703571Y-76359523D01*
X204751190Y-76169047D01*
X204751190Y-75835714D01*
X204703571Y-75645238D01*
X204608333Y-75550000D01*
X204513095Y-75502380D01*
X203703571Y-76454761D02*
X203560714Y-76502380D01*
X203322619Y-76502380D01*
X203227380Y-76454761D01*
X203179761Y-76407142D01*
X203132142Y-76311904D01*
X203132142Y-76216666D01*
X203179761Y-76121428D01*
X203227380Y-76073809D01*
X203322619Y-76026190D01*
X203513095Y-75978571D01*
X203608333Y-75930952D01*
X203655952Y-75883333D01*
X203703571Y-75788095D01*
X203703571Y-75692857D01*
X203655952Y-75597619D01*
X203608333Y-75550000D01*
X203513095Y-75502380D01*
X203275000Y-75502380D01*
X203132142Y-75550000D01*
X202703571Y-76502380D02*
X202703571Y-75502380D01*
X138485714Y-73519047D02*
X138771428Y-74280952D01*
X139057142Y-73519047D01*
X187000000Y-122938095D02*
X186952380Y-122842857D01*
X186952380Y-122700000D01*
X187000000Y-122557142D01*
X187095238Y-122461904D01*
X187190476Y-122414285D01*
X187380952Y-122366666D01*
X187523809Y-122366666D01*
X187714285Y-122414285D01*
X187809523Y-122461904D01*
X187904761Y-122557142D01*
X187952380Y-122700000D01*
X187952380Y-122795238D01*
X187904761Y-122938095D01*
X187857142Y-122985714D01*
X187523809Y-122985714D01*
X187523809Y-122795238D01*
X187952380Y-123414285D02*
X186952380Y-123414285D01*
X187952380Y-123985714D01*
X186952380Y-123985714D01*
X187952380Y-124461904D02*
X186952380Y-124461904D01*
X186952380Y-124700000D01*
X187000000Y-124842857D01*
X187095238Y-124938095D01*
X187190476Y-124985714D01*
X187380952Y-125033333D01*
X187523809Y-125033333D01*
X187714285Y-124985714D01*
X187809523Y-124938095D01*
X187904761Y-124842857D01*
X187952380Y-124700000D01*
X187952380Y-124461904D01*
D13*
X200661904Y-124042857D02*
X199138095Y-124042857D01*
X199900000Y-124804761D02*
X199900000Y-123280952D01*
D10*
X214985714Y-76404761D02*
X214842857Y-76452380D01*
X214604761Y-76452380D01*
X214509523Y-76404761D01*
X214461904Y-76357142D01*
X214414285Y-76261904D01*
X214414285Y-76166666D01*
X214461904Y-76071428D01*
X214509523Y-76023809D01*
X214604761Y-75976190D01*
X214795238Y-75928571D01*
X214890476Y-75880952D01*
X214938095Y-75833333D01*
X214985714Y-75738095D01*
X214985714Y-75642857D01*
X214938095Y-75547619D01*
X214890476Y-75500000D01*
X214795238Y-75452380D01*
X214557142Y-75452380D01*
X214414285Y-75500000D01*
X213414285Y-76357142D02*
X213461904Y-76404761D01*
X213604761Y-76452380D01*
X213700000Y-76452380D01*
X213842857Y-76404761D01*
X213938095Y-76309523D01*
X213985714Y-76214285D01*
X214033333Y-76023809D01*
X214033333Y-75880952D01*
X213985714Y-75690476D01*
X213938095Y-75595238D01*
X213842857Y-75500000D01*
X213700000Y-75452380D01*
X213604761Y-75452380D01*
X213461904Y-75500000D01*
X213414285Y-75547619D01*
X212985714Y-76452380D02*
X212985714Y-75452380D01*
X212414285Y-76452380D02*
X212842857Y-75880952D01*
X212414285Y-75452380D02*
X212985714Y-76023809D01*
X191680714Y-71300000D02*
X191966428Y-70538095D01*
X192252142Y-71300000D01*
X191966428Y-71776190D02*
X191966428Y-72538095D01*
X192347380Y-73776190D02*
X191347380Y-73776190D01*
X191347380Y-74014285D01*
X191395000Y-74157142D01*
X191490238Y-74252380D01*
X191585476Y-74300000D01*
X191775952Y-74347619D01*
X191918809Y-74347619D01*
X192109285Y-74300000D01*
X192204523Y-74252380D01*
X192299761Y-74157142D01*
X192347380Y-74014285D01*
X192347380Y-73776190D01*
X191347380Y-74966666D02*
X191347380Y-75157142D01*
X191395000Y-75252380D01*
X191490238Y-75347619D01*
X191680714Y-75395238D01*
X192014047Y-75395238D01*
X192204523Y-75347619D01*
X192299761Y-75252380D01*
X192347380Y-75157142D01*
X192347380Y-74966666D01*
X192299761Y-74871428D01*
X192204523Y-74776190D01*
X192014047Y-74728571D01*
X191680714Y-74728571D01*
X191490238Y-74776190D01*
X191395000Y-74871428D01*
X191347380Y-74966666D01*
X191347380Y-75680952D02*
X191347380Y-76252380D01*
X192347380Y-75966666D02*
X191347380Y-75966666D01*
X192299761Y-76538095D02*
X192347380Y-76680952D01*
X192347380Y-76919047D01*
X192299761Y-77014285D01*
X192252142Y-77061904D01*
X192156904Y-77109523D01*
X192061666Y-77109523D01*
X191966428Y-77061904D01*
X191918809Y-77014285D01*
X191871190Y-76919047D01*
X191823571Y-76728571D01*
X191775952Y-76633333D01*
X191728333Y-76585714D01*
X191633095Y-76538095D01*
X191537857Y-76538095D01*
X191442619Y-76585714D01*
X191395000Y-76633333D01*
X191347380Y-76728571D01*
X191347380Y-76966666D01*
X191395000Y-77109523D01*
X215571428Y-73952380D02*
X215571428Y-72952380D01*
X215238095Y-73666666D01*
X214904761Y-72952380D01*
X214904761Y-73952380D01*
X214428571Y-73952380D02*
X214428571Y-72952380D01*
X214000000Y-73904761D02*
X213857142Y-73952380D01*
X213619047Y-73952380D01*
X213523809Y-73904761D01*
X213476190Y-73857142D01*
X213428571Y-73761904D01*
X213428571Y-73666666D01*
X213476190Y-73571428D01*
X213523809Y-73523809D01*
X213619047Y-73476190D01*
X213809523Y-73428571D01*
X213904761Y-73380952D01*
X213952380Y-73333333D01*
X214000000Y-73238095D01*
X214000000Y-73142857D01*
X213952380Y-73047619D01*
X213904761Y-73000000D01*
X213809523Y-72952380D01*
X213571428Y-72952380D01*
X213428571Y-73000000D01*
X212809523Y-72952380D02*
X212619047Y-72952380D01*
X212523809Y-73000000D01*
X212428571Y-73095238D01*
X212380952Y-73285714D01*
X212380952Y-73619047D01*
X212428571Y-73809523D01*
X212523809Y-73904761D01*
X212619047Y-73952380D01*
X212809523Y-73952380D01*
X212904761Y-73904761D01*
X213000000Y-73809523D01*
X213047619Y-73619047D01*
X213047619Y-73285714D01*
X213000000Y-73095238D01*
X212904761Y-73000000D01*
X212809523Y-72952380D01*
X230946428Y-119905952D02*
X230946428Y-119144047D01*
X231327380Y-119525000D02*
X230565476Y-119525000D01*
X205361904Y-78100000D02*
X205457142Y-78052380D01*
X205600000Y-78052380D01*
X205742857Y-78100000D01*
X205838095Y-78195238D01*
X205885714Y-78290476D01*
X205933333Y-78480952D01*
X205933333Y-78623809D01*
X205885714Y-78814285D01*
X205838095Y-78909523D01*
X205742857Y-79004761D01*
X205600000Y-79052380D01*
X205504761Y-79052380D01*
X205361904Y-79004761D01*
X205314285Y-78957142D01*
X205314285Y-78623809D01*
X205504761Y-78623809D01*
X204885714Y-79052380D02*
X204885714Y-78052380D01*
X204314285Y-79052380D01*
X204314285Y-78052380D01*
X203838095Y-79052380D02*
X203838095Y-78052380D01*
X203600000Y-78052380D01*
X203457142Y-78100000D01*
X203361904Y-78195238D01*
X203314285Y-78290476D01*
X203266666Y-78480952D01*
X203266666Y-78623809D01*
X203314285Y-78814285D01*
X203361904Y-78909523D01*
X203457142Y-79004761D01*
X203600000Y-79052380D01*
X203838095Y-79052380D01*
%TO.C,J6*%
X209488333Y-70547380D02*
X209488333Y-71261666D01*
X209535952Y-71404523D01*
X209631190Y-71499761D01*
X209774047Y-71547380D01*
X209869285Y-71547380D01*
X208583571Y-70547380D02*
X208774047Y-70547380D01*
X208869285Y-70595000D01*
X208916904Y-70642619D01*
X209012142Y-70785476D01*
X209059761Y-70975952D01*
X209059761Y-71356904D01*
X209012142Y-71452142D01*
X208964523Y-71499761D01*
X208869285Y-71547380D01*
X208678809Y-71547380D01*
X208583571Y-71499761D01*
X208535952Y-71452142D01*
X208488333Y-71356904D01*
X208488333Y-71118809D01*
X208535952Y-71023571D01*
X208583571Y-70975952D01*
X208678809Y-70928333D01*
X208869285Y-70928333D01*
X208964523Y-70975952D01*
X209012142Y-71023571D01*
X209059761Y-71118809D01*
%TO.C,TP12*%
X60319047Y-75375000D02*
X60319047Y-74898809D01*
X59319047Y-74898809D01*
X60033333Y-75660714D02*
X60033333Y-76136904D01*
X60319047Y-75565476D02*
X59319047Y-75898809D01*
X60319047Y-76232142D01*
X59319047Y-76422619D02*
X59319047Y-76994047D01*
X60319047Y-76708333D02*
X59319047Y-76708333D01*
%TO.C,TP11*%
X57827380Y-74776190D02*
X56827380Y-74776190D01*
X56827380Y-75014285D01*
X56875000Y-75157142D01*
X56970238Y-75252380D01*
X57065476Y-75300000D01*
X57255952Y-75347619D01*
X57398809Y-75347619D01*
X57589285Y-75300000D01*
X57684523Y-75252380D01*
X57779761Y-75157142D01*
X57827380Y-75014285D01*
X57827380Y-74776190D01*
X57827380Y-75776190D02*
X56827380Y-75776190D01*
X57827380Y-76252380D02*
X56827380Y-76252380D01*
X57827380Y-76823809D01*
X56827380Y-76823809D01*
%TO.C,TP15*%
X70319047Y-99357142D02*
X70366666Y-99404761D01*
X70509523Y-99452380D01*
X70604761Y-99452380D01*
X70747619Y-99404761D01*
X70842857Y-99309523D01*
X70890476Y-99214285D01*
X70938095Y-99023809D01*
X70938095Y-98880952D01*
X70890476Y-98690476D01*
X70842857Y-98595238D01*
X70747619Y-98500000D01*
X70604761Y-98452380D01*
X70509523Y-98452380D01*
X70366666Y-98500000D01*
X70319047Y-98547619D01*
X69700000Y-98452380D02*
X69509523Y-98452380D01*
X69414285Y-98500000D01*
X69319047Y-98595238D01*
X69271428Y-98785714D01*
X69271428Y-99119047D01*
X69319047Y-99309523D01*
X69414285Y-99404761D01*
X69509523Y-99452380D01*
X69700000Y-99452380D01*
X69795238Y-99404761D01*
X69890476Y-99309523D01*
X69938095Y-99119047D01*
X69938095Y-98785714D01*
X69890476Y-98595238D01*
X69795238Y-98500000D01*
X69700000Y-98452380D01*
X68366666Y-99452380D02*
X68842857Y-99452380D01*
X68842857Y-98452380D01*
%TO.C,TP2*%
X65377380Y-75552380D02*
X64901190Y-75219047D01*
X65377380Y-74980952D02*
X64377380Y-74980952D01*
X64377380Y-75361904D01*
X64425000Y-75457142D01*
X64472619Y-75504761D01*
X64567857Y-75552380D01*
X64710714Y-75552380D01*
X64805952Y-75504761D01*
X64853571Y-75457142D01*
X64901190Y-75361904D01*
X64901190Y-74980952D01*
X65329761Y-75933333D02*
X65377380Y-76076190D01*
X65377380Y-76314285D01*
X65329761Y-76409523D01*
X65282142Y-76457142D01*
X65186904Y-76504761D01*
X65091666Y-76504761D01*
X64996428Y-76457142D01*
X64948809Y-76409523D01*
X64901190Y-76314285D01*
X64853571Y-76123809D01*
X64805952Y-76028571D01*
X64758333Y-75980952D01*
X64663095Y-75933333D01*
X64567857Y-75933333D01*
X64472619Y-75980952D01*
X64425000Y-76028571D01*
X64377380Y-76123809D01*
X64377380Y-76361904D01*
X64425000Y-76504761D01*
X64377380Y-76790476D02*
X64377380Y-77361904D01*
X65377380Y-77076190D02*
X64377380Y-77076190D01*
%TO.C,TP4*%
X60333333Y-84252380D02*
X60000000Y-85252380D01*
X59666666Y-84252380D01*
X58761904Y-85157142D02*
X58809523Y-85204761D01*
X58952380Y-85252380D01*
X59047619Y-85252380D01*
X59190476Y-85204761D01*
X59285714Y-85109523D01*
X59333333Y-85014285D01*
X59380952Y-84823809D01*
X59380952Y-84680952D01*
X59333333Y-84490476D01*
X59285714Y-84395238D01*
X59190476Y-84300000D01*
X59047619Y-84252380D01*
X58952380Y-84252380D01*
X58809523Y-84300000D01*
X58761904Y-84347619D01*
X57761904Y-85157142D02*
X57809523Y-85204761D01*
X57952380Y-85252380D01*
X58047619Y-85252380D01*
X58190476Y-85204761D01*
X58285714Y-85109523D01*
X58333333Y-85014285D01*
X58380952Y-84823809D01*
X58380952Y-84680952D01*
X58333333Y-84490476D01*
X58285714Y-84395238D01*
X58190476Y-84300000D01*
X58047619Y-84252380D01*
X57952380Y-84252380D01*
X57809523Y-84300000D01*
X57761904Y-84347619D01*
%TO.C,TP13*%
X63438095Y-113828571D02*
X63104761Y-113828571D01*
X62961904Y-114352380D02*
X63438095Y-114352380D01*
X63438095Y-113352380D01*
X62961904Y-113352380D01*
X62533333Y-114352380D02*
X62533333Y-113352380D01*
X61961904Y-114352380D01*
X61961904Y-113352380D01*
%TO.C,TP7*%
X72080952Y-96428571D02*
X71747619Y-96428571D01*
X71604761Y-96952380D02*
X72080952Y-96952380D01*
X72080952Y-95952380D01*
X71604761Y-95952380D01*
X71176190Y-96952380D02*
X71176190Y-95952380D01*
X70604761Y-96952380D01*
X70604761Y-95952380D01*
X70366666Y-97047619D02*
X69604761Y-97047619D01*
X69366666Y-96952380D02*
X69366666Y-95952380D01*
X68890476Y-96952380D02*
X68890476Y-95952380D01*
X68319047Y-96952380D01*
X68319047Y-95952380D01*
%TO.C,TP14*%
X70385714Y-102152380D02*
X70719047Y-101676190D01*
X70957142Y-102152380D02*
X70957142Y-101152380D01*
X70576190Y-101152380D01*
X70480952Y-101200000D01*
X70433333Y-101247619D01*
X70385714Y-101342857D01*
X70385714Y-101485714D01*
X70433333Y-101580952D01*
X70480952Y-101628571D01*
X70576190Y-101676190D01*
X70957142Y-101676190D01*
X69766666Y-101152380D02*
X69576190Y-101152380D01*
X69480952Y-101200000D01*
X69385714Y-101295238D01*
X69338095Y-101485714D01*
X69338095Y-101819047D01*
X69385714Y-102009523D01*
X69480952Y-102104761D01*
X69576190Y-102152380D01*
X69766666Y-102152380D01*
X69861904Y-102104761D01*
X69957142Y-102009523D01*
X70004761Y-101819047D01*
X70004761Y-101485714D01*
X69957142Y-101295238D01*
X69861904Y-101200000D01*
X69766666Y-101152380D01*
X69004761Y-101152380D02*
X68766666Y-102152380D01*
X68576190Y-101438095D01*
X68385714Y-102152380D01*
X68147619Y-101152380D01*
%TO.C,TP3*%
X67852380Y-74909523D02*
X66852380Y-74909523D01*
X66852380Y-75147619D01*
X66900000Y-75290476D01*
X66995238Y-75385714D01*
X67090476Y-75433333D01*
X67280952Y-75480952D01*
X67423809Y-75480952D01*
X67614285Y-75433333D01*
X67709523Y-75385714D01*
X67804761Y-75290476D01*
X67852380Y-75147619D01*
X67852380Y-74909523D01*
X66852380Y-76100000D02*
X66852380Y-76290476D01*
X66900000Y-76385714D01*
X66995238Y-76480952D01*
X67185714Y-76528571D01*
X67519047Y-76528571D01*
X67709523Y-76480952D01*
X67804761Y-76385714D01*
X67852380Y-76290476D01*
X67852380Y-76100000D01*
X67804761Y-76004761D01*
X67709523Y-75909523D01*
X67519047Y-75861904D01*
X67185714Y-75861904D01*
X66995238Y-75909523D01*
X66900000Y-76004761D01*
X66852380Y-76100000D01*
X66852380Y-76957142D02*
X67661904Y-76957142D01*
X67757142Y-77004761D01*
X67804761Y-77052380D01*
X67852380Y-77147619D01*
X67852380Y-77338095D01*
X67804761Y-77433333D01*
X67757142Y-77480952D01*
X67661904Y-77528571D01*
X66852380Y-77528571D01*
X66852380Y-77861904D02*
X66852380Y-78433333D01*
X67852380Y-78147619D02*
X66852380Y-78147619D01*
%TO.C,TP1*%
X62740476Y-75454761D02*
X62788095Y-75407142D01*
X62835714Y-75264285D01*
X62835714Y-75169047D01*
X62788095Y-75026190D01*
X62692857Y-74930952D01*
X62597619Y-74883333D01*
X62407143Y-74835714D01*
X62264286Y-74835714D01*
X62073810Y-74883333D01*
X61978572Y-74930952D01*
X61883334Y-75026190D01*
X61835714Y-75169047D01*
X61835714Y-75264285D01*
X61883334Y-75407142D01*
X61930953Y-75454761D01*
X62835714Y-76359523D02*
X62835714Y-75883333D01*
X61835714Y-75883333D01*
X62835714Y-76692857D02*
X61835714Y-76692857D01*
X62835714Y-77264285D02*
X62264286Y-76835714D01*
X61835714Y-77264285D02*
X62407143Y-76692857D01*
%TO.C,TP9*%
X221914285Y-78404761D02*
X221771428Y-78452380D01*
X221533333Y-78452380D01*
X221438095Y-78404761D01*
X221390476Y-78357142D01*
X221342857Y-78261904D01*
X221342857Y-78166666D01*
X221390476Y-78071428D01*
X221438095Y-78023809D01*
X221533333Y-77976190D01*
X221723809Y-77928571D01*
X221819047Y-77880952D01*
X221866666Y-77833333D01*
X221914285Y-77738095D01*
X221914285Y-77642857D01*
X221866666Y-77547619D01*
X221819047Y-77500000D01*
X221723809Y-77452380D01*
X221485714Y-77452380D01*
X221342857Y-77500000D01*
X220914285Y-78452380D02*
X220914285Y-77452380D01*
X220676190Y-77452380D01*
X220533333Y-77500000D01*
X220438095Y-77595238D01*
X220390476Y-77690476D01*
X220342857Y-77880952D01*
X220342857Y-78023809D01*
X220390476Y-78214285D01*
X220438095Y-78309523D01*
X220533333Y-78404761D01*
X220676190Y-78452380D01*
X220914285Y-78452380D01*
X219961904Y-78166666D02*
X219485714Y-78166666D01*
X220057142Y-78452380D02*
X219723809Y-77452380D01*
X219390476Y-78452380D01*
%TO.C,TP5*%
X63161904Y-84300000D02*
X63257142Y-84252380D01*
X63400000Y-84252380D01*
X63542857Y-84300000D01*
X63638095Y-84395238D01*
X63685714Y-84490476D01*
X63733333Y-84680952D01*
X63733333Y-84823809D01*
X63685714Y-85014285D01*
X63638095Y-85109523D01*
X63542857Y-85204761D01*
X63400000Y-85252380D01*
X63304761Y-85252380D01*
X63161904Y-85204761D01*
X63114285Y-85157142D01*
X63114285Y-84823809D01*
X63304761Y-84823809D01*
X62685714Y-85252380D02*
X62685714Y-84252380D01*
X62114285Y-85252380D01*
X62114285Y-84252380D01*
X61638095Y-85252380D02*
X61638095Y-84252380D01*
X61400000Y-84252380D01*
X61257142Y-84300000D01*
X61161904Y-84395238D01*
X61114285Y-84490476D01*
X61066666Y-84680952D01*
X61066666Y-84823809D01*
X61114285Y-85014285D01*
X61161904Y-85109523D01*
X61257142Y-85204761D01*
X61400000Y-85252380D01*
X61638095Y-85252380D01*
%TO.C,TP10*%
X221890476Y-75904761D02*
X221747619Y-75952380D01*
X221509523Y-75952380D01*
X221414285Y-75904761D01*
X221366666Y-75857142D01*
X221319047Y-75761904D01*
X221319047Y-75666666D01*
X221366666Y-75571428D01*
X221414285Y-75523809D01*
X221509523Y-75476190D01*
X221700000Y-75428571D01*
X221795238Y-75380952D01*
X221842857Y-75333333D01*
X221890476Y-75238095D01*
X221890476Y-75142857D01*
X221842857Y-75047619D01*
X221795238Y-75000000D01*
X221700000Y-74952380D01*
X221461904Y-74952380D01*
X221319047Y-75000000D01*
X220319047Y-75857142D02*
X220366666Y-75904761D01*
X220509523Y-75952380D01*
X220604761Y-75952380D01*
X220747619Y-75904761D01*
X220842857Y-75809523D01*
X220890476Y-75714285D01*
X220938095Y-75523809D01*
X220938095Y-75380952D01*
X220890476Y-75190476D01*
X220842857Y-75095238D01*
X220747619Y-75000000D01*
X220604761Y-74952380D01*
X220509523Y-74952380D01*
X220366666Y-75000000D01*
X220319047Y-75047619D01*
X219414285Y-75952380D02*
X219890476Y-75952380D01*
X219890476Y-74952380D01*
D14*
%TO.C,J6*%
X211755000Y-74695000D02*
X211755000Y-79835000D01*
X209155000Y-74695000D02*
X209155000Y-72095000D01*
X211755000Y-79835000D02*
X206555000Y-79835000D01*
X211755000Y-72095000D02*
X210425000Y-72095000D01*
X209155000Y-72095000D02*
X206555000Y-72095000D01*
X211755000Y-73425000D02*
X211755000Y-72095000D01*
X206555000Y-72095000D02*
X206555000Y-79835000D01*
X211755000Y-74695000D02*
X209155000Y-74695000D01*
%TO.C,TP12*%
X60850000Y-73300000D02*
G75*
G03*
X60850000Y-73300000I-950000J0D01*
G01*
%TO.C,TP11*%
X58350000Y-73200000D02*
G75*
G03*
X58350000Y-73200000I-950000J0D01*
G01*
D10*
%TO.C,REF\u002A\u002A*%
X230875000Y-116500000D02*
X230875000Y-118500000D01*
X230875000Y-114500000D02*
X230875000Y-115400000D01*
X231550000Y-117250000D02*
G75*
G03*
X230125000Y-117175000I-675000J750000D01*
G01*
X231800000Y-119500000D02*
G75*
G03*
X231800000Y-119500000I-925000J0D01*
G01*
X231800000Y-113500000D02*
G75*
G03*
X231800000Y-113500000I-925000J0D01*
G01*
D15*
X231050000Y-116500000D02*
G75*
G03*
X231050000Y-116500000I-175000J0D01*
G01*
D14*
%TO.C,TP15*%
X67550000Y-99000000D02*
G75*
G03*
X67550000Y-99000000I-950000J0D01*
G01*
%TO.C,TP2*%
X65850000Y-73400000D02*
G75*
G03*
X65850000Y-73400000I-950000J0D01*
G01*
%TO.C,TP4*%
X60350000Y-86700000D02*
G75*
G03*
X60350000Y-86700000I-950000J0D01*
G01*
%TO.C,TP13*%
X61450000Y-113800000D02*
G75*
G03*
X61450000Y-113800000I-950000J0D01*
G01*
%TO.C,TP7*%
X67550000Y-96500000D02*
G75*
G03*
X67550000Y-96500000I-950000J0D01*
G01*
%TO.C,TP14*%
X67550000Y-101600000D02*
G75*
G03*
X67550000Y-101600000I-950000J0D01*
G01*
%TO.C,TP3*%
X68350000Y-73400000D02*
G75*
G03*
X68350000Y-73400000I-950000J0D01*
G01*
%TO.C,TP1*%
X63350000Y-73300000D02*
G75*
G03*
X63350000Y-73300000I-950000J0D01*
G01*
D16*
%TO.C,REF\u002A\u002A*%
X81953464Y-117800427D02*
X81840882Y-118397618D01*
X81840882Y-118397618D02*
X81425469Y-118568865D01*
X81425469Y-118568865D02*
X81010055Y-118740112D01*
X81010055Y-118740112D02*
X80511698Y-118401233D01*
X80511698Y-118401233D02*
X80372131Y-118306877D01*
X80372131Y-118306877D02*
X80245971Y-118222630D01*
X80245971Y-118222630D02*
X80139104Y-118152338D01*
X80139104Y-118152338D02*
X80057417Y-118099847D01*
X80057417Y-118099847D02*
X80006798Y-118069004D01*
X80006798Y-118069004D02*
X79993013Y-118062353D01*
X79993013Y-118062353D02*
X79968179Y-118079458D01*
X79968179Y-118079458D02*
X79915111Y-118126744D01*
X79915111Y-118126744D02*
X79839759Y-118198172D01*
X79839759Y-118198172D02*
X79748070Y-118287700D01*
X79748070Y-118287700D02*
X79645992Y-118389289D01*
X79645992Y-118389289D02*
X79539473Y-118496898D01*
X79539473Y-118496898D02*
X79434463Y-118604487D01*
X79434463Y-118604487D02*
X79336908Y-118706015D01*
X79336908Y-118706015D02*
X79252757Y-118795441D01*
X79252757Y-118795441D02*
X79187959Y-118866726D01*
X79187959Y-118866726D02*
X79148462Y-118913828D01*
X79148462Y-118913828D02*
X79139019Y-118929592D01*
X79139019Y-118929592D02*
X79152608Y-118958653D01*
X79152608Y-118958653D02*
X79190706Y-119022321D01*
X79190706Y-119022321D02*
X79249306Y-119114367D01*
X79249306Y-119114367D02*
X79324402Y-119228564D01*
X79324402Y-119228564D02*
X79411991Y-119358684D01*
X79411991Y-119358684D02*
X79462745Y-119432901D01*
X79462745Y-119432901D02*
X79555254Y-119568422D01*
X79555254Y-119568422D02*
X79637459Y-119690716D01*
X79637459Y-119690716D02*
X79705369Y-119793695D01*
X79705369Y-119793695D02*
X79754999Y-119871273D01*
X79754999Y-119871273D02*
X79782359Y-119917361D01*
X79782359Y-119917361D02*
X79786470Y-119927047D01*
X79786470Y-119927047D02*
X79777150Y-119954574D01*
X79777150Y-119954574D02*
X79751745Y-120018728D01*
X79751745Y-120018728D02*
X79714088Y-120110490D01*
X79714088Y-120110490D02*
X79668013Y-120220839D01*
X79668013Y-120220839D02*
X79617353Y-120340755D01*
X79617353Y-120340755D02*
X79565940Y-120461219D01*
X79565940Y-120461219D02*
X79517610Y-120573209D01*
X79517610Y-120573209D02*
X79476193Y-120667707D01*
X79476193Y-120667707D02*
X79445525Y-120735692D01*
X79445525Y-120735692D02*
X79429438Y-120768143D01*
X79429438Y-120768143D02*
X79428488Y-120769420D01*
X79428488Y-120769420D02*
X79403227Y-120775617D01*
X79403227Y-120775617D02*
X79335954Y-120789440D01*
X79335954Y-120789440D02*
X79233639Y-120809532D01*
X79233639Y-120809532D02*
X79103258Y-120834534D01*
X79103258Y-120834534D02*
X78951783Y-120863086D01*
X78951783Y-120863086D02*
X78863406Y-120879551D01*
X78863406Y-120879551D02*
X78701547Y-120910369D01*
X78701547Y-120910369D02*
X78555350Y-120939694D01*
X78555350Y-120939694D02*
X78432212Y-120965921D01*
X78432212Y-120965921D02*
X78339530Y-120987446D01*
X78339530Y-120987446D02*
X78284698Y-121002665D01*
X78284698Y-121002665D02*
X78273676Y-121007493D01*
X78273676Y-121007493D02*
X78262881Y-121040174D01*
X78262881Y-121040174D02*
X78254170Y-121113985D01*
X78254170Y-121113985D02*
X78247539Y-121220292D01*
X78247539Y-121220292D02*
X78242981Y-121350467D01*
X78242981Y-121350467D02*
X78240490Y-121495876D01*
X78240490Y-121495876D02*
X78240061Y-121647890D01*
X78240061Y-121647890D02*
X78241688Y-121797877D01*
X78241688Y-121797877D02*
X78245364Y-121937206D01*
X78245364Y-121937206D02*
X78251084Y-122057245D01*
X78251084Y-122057245D02*
X78258842Y-122149365D01*
X78258842Y-122149365D02*
X78268631Y-122204932D01*
X78268631Y-122204932D02*
X78274503Y-122216500D01*
X78274503Y-122216500D02*
X78309600Y-122230365D01*
X78309600Y-122230365D02*
X78383971Y-122250188D01*
X78383971Y-122250188D02*
X78487776Y-122273639D01*
X78487776Y-122273639D02*
X78611180Y-122298391D01*
X78611180Y-122298391D02*
X78654258Y-122306398D01*
X78654258Y-122306398D02*
X78861952Y-122344441D01*
X78861952Y-122344441D02*
X79026015Y-122375079D01*
X79026015Y-122375079D02*
X79151869Y-122399529D01*
X79151869Y-122399529D02*
X79244934Y-122419009D01*
X79244934Y-122419009D02*
X79310632Y-122434736D01*
X79310632Y-122434736D02*
X79354382Y-122447928D01*
X79354382Y-122447928D02*
X79381607Y-122459804D01*
X79381607Y-122459804D02*
X79397727Y-122471580D01*
X79397727Y-122471580D02*
X79399982Y-122473908D01*
X79399982Y-122473908D02*
X79422496Y-122511400D01*
X79422496Y-122511400D02*
X79456841Y-122584365D01*
X79456841Y-122584365D02*
X79499588Y-122683867D01*
X79499588Y-122683867D02*
X79547307Y-122800973D01*
X79547307Y-122800973D02*
X79596569Y-122926748D01*
X79596569Y-122926748D02*
X79643944Y-123052257D01*
X79643944Y-123052257D02*
X79686004Y-123168565D01*
X79686004Y-123168565D02*
X79719319Y-123266739D01*
X79719319Y-123266739D02*
X79740458Y-123337843D01*
X79740458Y-123337843D02*
X79745994Y-123372942D01*
X79745994Y-123372942D02*
X79745533Y-123374172D01*
X79745533Y-123374172D02*
X79726776Y-123402861D01*
X79726776Y-123402861D02*
X79684223Y-123465985D01*
X79684223Y-123465985D02*
X79622346Y-123556973D01*
X79622346Y-123556973D02*
X79545617Y-123669255D01*
X79545617Y-123669255D02*
X79458508Y-123796260D01*
X79458508Y-123796260D02*
X79433701Y-123832353D01*
X79433701Y-123832353D02*
X79345247Y-123963203D01*
X79345247Y-123963203D02*
X79267411Y-124082591D01*
X79267411Y-124082591D02*
X79204433Y-124183662D01*
X79204433Y-124183662D02*
X79160554Y-124259559D01*
X79160554Y-124259559D02*
X79140014Y-124303427D01*
X79140014Y-124303427D02*
X79139019Y-124308817D01*
X79139019Y-124308817D02*
X79156277Y-124337144D01*
X79156277Y-124337144D02*
X79203964Y-124393261D01*
X79203964Y-124393261D02*
X79275949Y-124471137D01*
X79275949Y-124471137D02*
X79366102Y-124564740D01*
X79366102Y-124564740D02*
X79468294Y-124668041D01*
X79468294Y-124668041D02*
X79576394Y-124775006D01*
X79576394Y-124775006D02*
X79684271Y-124879606D01*
X79684271Y-124879606D02*
X79785795Y-124975809D01*
X79785795Y-124975809D02*
X79874837Y-125057584D01*
X79874837Y-125057584D02*
X79945266Y-125118900D01*
X79945266Y-125118900D02*
X79990952Y-125153726D01*
X79990952Y-125153726D02*
X80003590Y-125159412D01*
X80003590Y-125159412D02*
X80033008Y-125146020D01*
X80033008Y-125146020D02*
X80093238Y-125109899D01*
X80093238Y-125109899D02*
X80174470Y-125057136D01*
X80174470Y-125057136D02*
X80236969Y-125014667D01*
X80236969Y-125014667D02*
X80350214Y-124936740D01*
X80350214Y-124936740D02*
X80484325Y-124844984D01*
X80484325Y-124844984D02*
X80618844Y-124753375D01*
X80618844Y-124753375D02*
X80691166Y-124704346D01*
X80691166Y-124704346D02*
X80935961Y-124538770D01*
X80935961Y-124538770D02*
X81141449Y-124649875D01*
X81141449Y-124649875D02*
X81235063Y-124698548D01*
X81235063Y-124698548D02*
X81314669Y-124736381D01*
X81314669Y-124736381D02*
X81368532Y-124757958D01*
X81368532Y-124757958D02*
X81382242Y-124760961D01*
X81382242Y-124760961D02*
X81398729Y-124738793D01*
X81398729Y-124738793D02*
X81431254Y-124676149D01*
X81431254Y-124676149D02*
X81477391Y-124578809D01*
X81477391Y-124578809D02*
X81534709Y-124452549D01*
X81534709Y-124452549D02*
X81600783Y-124303150D01*
X81600783Y-124303150D02*
X81673184Y-124136388D01*
X81673184Y-124136388D02*
X81749483Y-123958042D01*
X81749483Y-123958042D02*
X81827253Y-123773891D01*
X81827253Y-123773891D02*
X81904065Y-123589712D01*
X81904065Y-123589712D02*
X81977493Y-123411285D01*
X81977493Y-123411285D02*
X82045107Y-123244387D01*
X82045107Y-123244387D02*
X82104479Y-123094797D01*
X82104479Y-123094797D02*
X82153183Y-122968293D01*
X82153183Y-122968293D02*
X82188789Y-122870654D01*
X82188789Y-122870654D02*
X82208869Y-122807657D01*
X82208869Y-122807657D02*
X82212099Y-122786021D01*
X82212099Y-122786021D02*
X82186503Y-122758424D01*
X82186503Y-122758424D02*
X82130461Y-122713625D01*
X82130461Y-122713625D02*
X82055688Y-122660934D01*
X82055688Y-122660934D02*
X82049412Y-122656765D01*
X82049412Y-122656765D02*
X81856154Y-122502069D01*
X81856154Y-122502069D02*
X81700325Y-122321591D01*
X81700325Y-122321591D02*
X81583275Y-122121102D01*
X81583275Y-122121102D02*
X81506354Y-121906374D01*
X81506354Y-121906374D02*
X81470913Y-121683177D01*
X81470913Y-121683177D02*
X81478302Y-121457281D01*
X81478302Y-121457281D02*
X81529872Y-121234459D01*
X81529872Y-121234459D02*
X81626973Y-121020479D01*
X81626973Y-121020479D02*
X81655541Y-120973664D01*
X81655541Y-120973664D02*
X81804131Y-120784618D01*
X81804131Y-120784618D02*
X81979672Y-120632812D01*
X81979672Y-120632812D02*
X82176089Y-120519034D01*
X82176089Y-120519034D02*
X82387306Y-120444075D01*
X82387306Y-120444075D02*
X82607246Y-120408722D01*
X82607246Y-120408722D02*
X82829836Y-120413767D01*
X82829836Y-120413767D02*
X83048998Y-120459999D01*
X83048998Y-120459999D02*
X83258657Y-120548206D01*
X83258657Y-120548206D02*
X83452738Y-120679179D01*
X83452738Y-120679179D02*
X83512773Y-120732337D01*
X83512773Y-120732337D02*
X83665564Y-120898739D01*
X83665564Y-120898739D02*
X83776902Y-121073912D01*
X83776902Y-121073912D02*
X83853276Y-121270266D01*
X83853276Y-121270266D02*
X83895812Y-121464717D01*
X83895812Y-121464717D02*
X83906313Y-121683342D01*
X83906313Y-121683342D02*
X83871299Y-121903052D01*
X83871299Y-121903052D02*
X83794326Y-122116420D01*
X83794326Y-122116420D02*
X83678952Y-122316022D01*
X83678952Y-122316022D02*
X83528734Y-122494429D01*
X83528734Y-122494429D02*
X83347226Y-122644217D01*
X83347226Y-122644217D02*
X83323372Y-122660006D01*
X83323372Y-122660006D02*
X83247798Y-122711712D01*
X83247798Y-122711712D02*
X83190348Y-122756512D01*
X83190348Y-122756512D02*
X83162882Y-122785117D01*
X83162882Y-122785117D02*
X83162482Y-122786021D01*
X83162482Y-122786021D02*
X83168379Y-122816964D01*
X83168379Y-122816964D02*
X83191754Y-122887191D01*
X83191754Y-122887191D02*
X83230178Y-122990925D01*
X83230178Y-122990925D02*
X83281222Y-123122390D01*
X83281222Y-123122390D02*
X83342457Y-123275807D01*
X83342457Y-123275807D02*
X83411455Y-123445401D01*
X83411455Y-123445401D02*
X83485786Y-123625393D01*
X83485786Y-123625393D02*
X83563021Y-123810008D01*
X83563021Y-123810008D02*
X83640731Y-123993468D01*
X83640731Y-123993468D02*
X83716488Y-124169996D01*
X83716488Y-124169996D02*
X83787862Y-124333814D01*
X83787862Y-124333814D02*
X83852425Y-124479147D01*
X83852425Y-124479147D02*
X83907747Y-124600217D01*
X83907747Y-124600217D02*
X83951399Y-124691247D01*
X83951399Y-124691247D02*
X83980953Y-124746460D01*
X83980953Y-124746460D02*
X83992855Y-124760961D01*
X83992855Y-124760961D02*
X84029222Y-124749669D01*
X84029222Y-124749669D02*
X84097269Y-124719385D01*
X84097269Y-124719385D02*
X84185263Y-124675520D01*
X84185263Y-124675520D02*
X84233649Y-124649875D01*
X84233649Y-124649875D02*
X84439136Y-124538770D01*
X84439136Y-124538770D02*
X84683931Y-124704346D01*
X84683931Y-124704346D02*
X84808893Y-124789170D01*
X84808893Y-124789170D02*
X84945704Y-124882516D01*
X84945704Y-124882516D02*
X85073911Y-124970408D01*
X85073911Y-124970408D02*
X85138128Y-125014667D01*
X85138128Y-125014667D02*
X85228448Y-125075318D01*
X85228448Y-125075318D02*
X85304928Y-125123381D01*
X85304928Y-125123381D02*
X85357592Y-125152770D01*
X85357592Y-125152770D02*
X85374697Y-125158982D01*
X85374697Y-125158982D02*
X85399594Y-125142223D01*
X85399594Y-125142223D02*
X85454694Y-125095436D01*
X85454694Y-125095436D02*
X85534656Y-125023480D01*
X85534656Y-125023480D02*
X85634139Y-124931212D01*
X85634139Y-124931212D02*
X85747799Y-124823490D01*
X85747799Y-124823490D02*
X85819684Y-124754326D01*
X85819684Y-124754326D02*
X85945448Y-124630757D01*
X85945448Y-124630757D02*
X86054136Y-124520234D01*
X86054136Y-124520234D02*
X86141354Y-124427485D01*
X86141354Y-124427485D02*
X86202710Y-124357237D01*
X86202710Y-124357237D02*
X86233808Y-124314220D01*
X86233808Y-124314220D02*
X86236791Y-124305490D01*
X86236791Y-124305490D02*
X86222946Y-124272284D01*
X86222946Y-124272284D02*
X86184687Y-124205142D01*
X86184687Y-124205142D02*
X86126258Y-124110863D01*
X86126258Y-124110863D02*
X86051902Y-123996245D01*
X86051902Y-123996245D02*
X85965864Y-123868083D01*
X85965864Y-123868083D02*
X85941397Y-123832353D01*
X85941397Y-123832353D02*
X85852245Y-123702489D01*
X85852245Y-123702489D02*
X85772261Y-123585569D01*
X85772261Y-123585569D02*
X85705919Y-123488162D01*
X85705919Y-123488162D02*
X85657688Y-123416839D01*
X85657688Y-123416839D02*
X85632042Y-123378170D01*
X85632042Y-123378170D02*
X85629564Y-123374172D01*
X85629564Y-123374172D02*
X85633270Y-123343355D01*
X85633270Y-123343355D02*
X85652938Y-123275599D01*
X85652938Y-123275599D02*
X85685139Y-123179839D01*
X85685139Y-123179839D02*
X85726444Y-123065009D01*
X85726444Y-123065009D02*
X85773424Y-122940044D01*
X85773424Y-122940044D02*
X85822650Y-122813879D01*
X85822650Y-122813879D02*
X85870691Y-122695448D01*
X85870691Y-122695448D02*
X85914118Y-122593685D01*
X85914118Y-122593685D02*
X85949503Y-122517526D01*
X85949503Y-122517526D02*
X85973415Y-122475904D01*
X85973415Y-122475904D02*
X85975115Y-122473908D01*
X85975115Y-122473908D02*
X85989737Y-122462013D01*
X85989737Y-122462013D02*
X86014434Y-122450250D01*
X86014434Y-122450250D02*
X86054627Y-122437401D01*
X86054627Y-122437401D02*
X86115736Y-122422249D01*
X86115736Y-122422249D02*
X86203182Y-122403576D01*
X86203182Y-122403576D02*
X86322387Y-122380165D01*
X86322387Y-122380165D02*
X86478772Y-122350797D01*
X86478772Y-122350797D02*
X86677756Y-122314255D01*
X86677756Y-122314255D02*
X86720839Y-122306398D01*
X86720839Y-122306398D02*
X86848529Y-122281727D01*
X86848529Y-122281727D02*
X86959846Y-122257593D01*
X86959846Y-122257593D02*
X87044954Y-122236324D01*
X87044954Y-122236324D02*
X87094016Y-122220248D01*
X87094016Y-122220248D02*
X87100594Y-122216500D01*
X87100594Y-122216500D02*
X87111435Y-122183273D01*
X87111435Y-122183273D02*
X87120246Y-122109021D01*
X87120246Y-122109021D02*
X87127023Y-122002376D01*
X87127023Y-122002376D02*
X87131759Y-121871967D01*
X87131759Y-121871967D02*
X87134449Y-121726427D01*
X87134449Y-121726427D02*
X87135086Y-121574386D01*
X87135086Y-121574386D02*
X87133665Y-121424476D01*
X87133665Y-121424476D02*
X87130179Y-121285328D01*
X87130179Y-121285328D02*
X87124623Y-121165572D01*
X87124623Y-121165572D02*
X87116991Y-121073841D01*
X87116991Y-121073841D02*
X87107277Y-121018766D01*
X87107277Y-121018766D02*
X87101421Y-121007493D01*
X87101421Y-121007493D02*
X87068819Y-120996123D01*
X87068819Y-120996123D02*
X86994581Y-120977624D01*
X86994581Y-120977624D02*
X86886103Y-120953602D01*
X86886103Y-120953602D02*
X86750782Y-120925662D01*
X86750782Y-120925662D02*
X86596014Y-120895408D01*
X86596014Y-120895408D02*
X86511692Y-120879551D01*
X86511692Y-120879551D02*
X86351703Y-120849644D01*
X86351703Y-120849644D02*
X86209032Y-120822550D01*
X86209032Y-120822550D02*
X86090651Y-120799631D01*
X86090651Y-120799631D02*
X86003534Y-120782243D01*
X86003534Y-120782243D02*
X85954654Y-120771747D01*
X85954654Y-120771747D02*
X85946609Y-120769420D01*
X85946609Y-120769420D02*
X85933012Y-120743186D01*
X85933012Y-120743186D02*
X85904270Y-120679995D01*
X85904270Y-120679995D02*
X85864214Y-120588877D01*
X85864214Y-120588877D02*
X85816675Y-120478857D01*
X85816675Y-120478857D02*
X85765484Y-120358965D01*
X85765484Y-120358965D02*
X85714473Y-120238227D01*
X85714473Y-120238227D02*
X85667473Y-120125671D01*
X85667473Y-120125671D02*
X85628315Y-120030326D01*
X85628315Y-120030326D02*
X85600830Y-119961217D01*
X85600830Y-119961217D02*
X85588850Y-119927374D01*
X85588850Y-119927374D02*
X85588627Y-119925895D01*
X85588627Y-119925895D02*
X85602208Y-119899197D01*
X85602208Y-119899197D02*
X85640284Y-119837760D01*
X85640284Y-119837760D02*
X85698852Y-119747689D01*
X85698852Y-119747689D02*
X85773911Y-119635090D01*
X85773911Y-119635090D02*
X85861459Y-119506070D01*
X85861459Y-119506070D02*
X85912352Y-119431961D01*
X85912352Y-119431961D02*
X86005090Y-119296077D01*
X86005090Y-119296077D02*
X86087458Y-119172709D01*
X86087458Y-119172709D02*
X86155438Y-119068097D01*
X86155438Y-119068097D02*
X86205011Y-118988483D01*
X86205011Y-118988483D02*
X86232157Y-118940107D01*
X86232157Y-118940107D02*
X86236078Y-118929262D01*
X86236078Y-118929262D02*
X86219224Y-118904020D01*
X86219224Y-118904020D02*
X86172631Y-118850124D01*
X86172631Y-118850124D02*
X86102251Y-118773613D01*
X86102251Y-118773613D02*
X86014034Y-118680523D01*
X86014034Y-118680523D02*
X85913934Y-118576895D01*
X85913934Y-118576895D02*
X85807901Y-118468764D01*
X85807901Y-118468764D02*
X85701888Y-118362170D01*
X85701888Y-118362170D02*
X85601847Y-118263150D01*
X85601847Y-118263150D02*
X85513729Y-118177742D01*
X85513729Y-118177742D02*
X85443486Y-118111985D01*
X85443486Y-118111985D02*
X85397071Y-118071916D01*
X85397071Y-118071916D02*
X85381543Y-118062353D01*
X85381543Y-118062353D02*
X85356260Y-118075800D01*
X85356260Y-118075800D02*
X85295788Y-118113575D01*
X85295788Y-118113575D02*
X85206007Y-118171835D01*
X85206007Y-118171835D02*
X85092796Y-118246734D01*
X85092796Y-118246734D02*
X84962036Y-118334425D01*
X84962036Y-118334425D02*
X84863400Y-118401233D01*
X84863400Y-118401233D02*
X84365042Y-118740112D01*
X84365042Y-118740112D02*
X83949629Y-118568865D01*
X83949629Y-118568865D02*
X83534215Y-118397618D01*
X83534215Y-118397618D02*
X83421633Y-117800427D01*
X83421633Y-117800427D02*
X83309050Y-117203235D01*
X83309050Y-117203235D02*
X82066047Y-117203235D01*
X82066047Y-117203235D02*
X81953464Y-117800427D01*
X81953464Y-117800427D02*
X81953464Y-117800427D01*
G36*
X83421633Y-117800427D02*
G01*
X83534215Y-118397618D01*
X83949629Y-118568865D01*
X84365042Y-118740112D01*
X84863400Y-118401233D01*
X84962036Y-118334425D01*
X85092796Y-118246734D01*
X85206007Y-118171835D01*
X85295788Y-118113575D01*
X85356260Y-118075800D01*
X85381543Y-118062353D01*
X85397071Y-118071916D01*
X85443486Y-118111985D01*
X85513729Y-118177742D01*
X85601847Y-118263150D01*
X85701888Y-118362170D01*
X85807901Y-118468764D01*
X85913934Y-118576895D01*
X86014034Y-118680523D01*
X86102251Y-118773613D01*
X86172631Y-118850124D01*
X86219224Y-118904020D01*
X86236078Y-118929262D01*
X86232157Y-118940107D01*
X86205011Y-118988483D01*
X86155438Y-119068097D01*
X86087458Y-119172709D01*
X86005090Y-119296077D01*
X85912352Y-119431961D01*
X85861459Y-119506070D01*
X85773911Y-119635090D01*
X85698852Y-119747689D01*
X85640284Y-119837760D01*
X85602208Y-119899197D01*
X85588627Y-119925895D01*
X85588850Y-119927374D01*
X85600830Y-119961217D01*
X85628315Y-120030326D01*
X85667473Y-120125671D01*
X85714473Y-120238227D01*
X85765484Y-120358965D01*
X85816675Y-120478857D01*
X85864214Y-120588877D01*
X85904270Y-120679995D01*
X85933012Y-120743186D01*
X85946609Y-120769420D01*
X85954654Y-120771747D01*
X86003534Y-120782243D01*
X86090651Y-120799631D01*
X86209032Y-120822550D01*
X86351703Y-120849644D01*
X86511692Y-120879551D01*
X86596014Y-120895408D01*
X86750782Y-120925662D01*
X86886103Y-120953602D01*
X86994581Y-120977624D01*
X87068819Y-120996123D01*
X87101421Y-121007493D01*
X87107277Y-121018766D01*
X87116991Y-121073841D01*
X87124623Y-121165572D01*
X87130179Y-121285328D01*
X87133665Y-121424476D01*
X87135086Y-121574386D01*
X87134449Y-121726427D01*
X87131759Y-121871967D01*
X87127023Y-122002376D01*
X87120246Y-122109021D01*
X87111435Y-122183273D01*
X87100594Y-122216500D01*
X87094016Y-122220248D01*
X87044954Y-122236324D01*
X86959846Y-122257593D01*
X86848529Y-122281727D01*
X86720839Y-122306398D01*
X86677756Y-122314255D01*
X86478772Y-122350797D01*
X86322387Y-122380165D01*
X86203182Y-122403576D01*
X86115736Y-122422249D01*
X86054627Y-122437401D01*
X86014434Y-122450250D01*
X85989737Y-122462013D01*
X85975115Y-122473908D01*
X85973415Y-122475904D01*
X85949503Y-122517526D01*
X85914118Y-122593685D01*
X85870691Y-122695448D01*
X85822650Y-122813879D01*
X85773424Y-122940044D01*
X85726444Y-123065009D01*
X85685139Y-123179839D01*
X85652938Y-123275599D01*
X85633270Y-123343355D01*
X85629564Y-123374172D01*
X85632042Y-123378170D01*
X85657688Y-123416839D01*
X85705919Y-123488162D01*
X85772261Y-123585569D01*
X85852245Y-123702489D01*
X85941397Y-123832353D01*
X85965864Y-123868083D01*
X86051902Y-123996245D01*
X86126258Y-124110863D01*
X86184687Y-124205142D01*
X86222946Y-124272284D01*
X86236791Y-124305490D01*
X86233808Y-124314220D01*
X86202710Y-124357237D01*
X86141354Y-124427485D01*
X86054136Y-124520234D01*
X85945448Y-124630757D01*
X85819684Y-124754326D01*
X85747799Y-124823490D01*
X85634139Y-124931212D01*
X85534656Y-125023480D01*
X85454694Y-125095436D01*
X85399594Y-125142223D01*
X85374697Y-125158982D01*
X85357592Y-125152770D01*
X85304928Y-125123381D01*
X85228448Y-125075318D01*
X85138128Y-125014667D01*
X85073911Y-124970408D01*
X84945704Y-124882516D01*
X84808893Y-124789170D01*
X84683931Y-124704346D01*
X84439136Y-124538770D01*
X84233649Y-124649875D01*
X84185263Y-124675520D01*
X84097269Y-124719385D01*
X84029222Y-124749669D01*
X83992855Y-124760961D01*
X83980953Y-124746460D01*
X83951399Y-124691247D01*
X83907747Y-124600217D01*
X83852425Y-124479147D01*
X83787862Y-124333814D01*
X83716488Y-124169996D01*
X83640731Y-123993468D01*
X83563021Y-123810008D01*
X83485786Y-123625393D01*
X83411455Y-123445401D01*
X83342457Y-123275807D01*
X83281222Y-123122390D01*
X83230178Y-122990925D01*
X83191754Y-122887191D01*
X83168379Y-122816964D01*
X83162482Y-122786021D01*
X83162882Y-122785117D01*
X83190348Y-122756512D01*
X83247798Y-122711712D01*
X83323372Y-122660006D01*
X83347226Y-122644217D01*
X83528734Y-122494429D01*
X83678952Y-122316022D01*
X83794326Y-122116420D01*
X83871299Y-121903052D01*
X83906313Y-121683342D01*
X83895812Y-121464717D01*
X83853276Y-121270266D01*
X83776902Y-121073912D01*
X83665564Y-120898739D01*
X83512773Y-120732337D01*
X83452738Y-120679179D01*
X83258657Y-120548206D01*
X83048998Y-120459999D01*
X82829836Y-120413767D01*
X82607246Y-120408722D01*
X82387306Y-120444075D01*
X82176089Y-120519034D01*
X81979672Y-120632812D01*
X81804131Y-120784618D01*
X81655541Y-120973664D01*
X81626973Y-121020479D01*
X81529872Y-121234459D01*
X81478302Y-121457281D01*
X81470913Y-121683177D01*
X81506354Y-121906374D01*
X81583275Y-122121102D01*
X81700325Y-122321591D01*
X81856154Y-122502069D01*
X82049412Y-122656765D01*
X82055688Y-122660934D01*
X82130461Y-122713625D01*
X82186503Y-122758424D01*
X82212099Y-122786021D01*
X82208869Y-122807657D01*
X82188789Y-122870654D01*
X82153183Y-122968293D01*
X82104479Y-123094797D01*
X82045107Y-123244387D01*
X81977493Y-123411285D01*
X81904065Y-123589712D01*
X81827253Y-123773891D01*
X81749483Y-123958042D01*
X81673184Y-124136388D01*
X81600783Y-124303150D01*
X81534709Y-124452549D01*
X81477391Y-124578809D01*
X81431254Y-124676149D01*
X81398729Y-124738793D01*
X81382242Y-124760961D01*
X81368532Y-124757958D01*
X81314669Y-124736381D01*
X81235063Y-124698548D01*
X81141449Y-124649875D01*
X80935961Y-124538770D01*
X80691166Y-124704346D01*
X80618844Y-124753375D01*
X80484325Y-124844984D01*
X80350214Y-124936740D01*
X80236969Y-125014667D01*
X80174470Y-125057136D01*
X80093238Y-125109899D01*
X80033008Y-125146020D01*
X80003590Y-125159412D01*
X79990952Y-125153726D01*
X79945266Y-125118900D01*
X79874837Y-125057584D01*
X79785795Y-124975809D01*
X79684271Y-124879606D01*
X79576394Y-124775006D01*
X79468294Y-124668041D01*
X79366102Y-124564740D01*
X79275949Y-124471137D01*
X79203964Y-124393261D01*
X79156277Y-124337144D01*
X79139019Y-124308817D01*
X79140014Y-124303427D01*
X79160554Y-124259559D01*
X79204433Y-124183662D01*
X79267411Y-124082591D01*
X79345247Y-123963203D01*
X79433701Y-123832353D01*
X79458508Y-123796260D01*
X79545617Y-123669255D01*
X79622346Y-123556973D01*
X79684223Y-123465985D01*
X79726776Y-123402861D01*
X79745533Y-123374172D01*
X79745994Y-123372942D01*
X79740458Y-123337843D01*
X79719319Y-123266739D01*
X79686004Y-123168565D01*
X79643944Y-123052257D01*
X79596569Y-122926748D01*
X79547307Y-122800973D01*
X79499588Y-122683867D01*
X79456841Y-122584365D01*
X79422496Y-122511400D01*
X79399982Y-122473908D01*
X79397727Y-122471580D01*
X79381607Y-122459804D01*
X79354382Y-122447928D01*
X79310632Y-122434736D01*
X79244934Y-122419009D01*
X79151869Y-122399529D01*
X79026015Y-122375079D01*
X78861952Y-122344441D01*
X78654258Y-122306398D01*
X78611180Y-122298391D01*
X78487776Y-122273639D01*
X78383971Y-122250188D01*
X78309600Y-122230365D01*
X78274503Y-122216500D01*
X78268631Y-122204932D01*
X78258842Y-122149365D01*
X78251084Y-122057245D01*
X78245364Y-121937206D01*
X78241688Y-121797877D01*
X78240061Y-121647890D01*
X78240490Y-121495876D01*
X78242981Y-121350467D01*
X78247539Y-121220292D01*
X78254170Y-121113985D01*
X78262881Y-121040174D01*
X78273676Y-121007493D01*
X78284698Y-121002665D01*
X78339530Y-120987446D01*
X78432212Y-120965921D01*
X78555350Y-120939694D01*
X78701547Y-120910369D01*
X78863406Y-120879551D01*
X78951783Y-120863086D01*
X79103258Y-120834534D01*
X79233639Y-120809532D01*
X79335954Y-120789440D01*
X79403227Y-120775617D01*
X79428488Y-120769420D01*
X79429438Y-120768143D01*
X79445525Y-120735692D01*
X79476193Y-120667707D01*
X79517610Y-120573209D01*
X79565940Y-120461219D01*
X79617353Y-120340755D01*
X79668013Y-120220839D01*
X79714088Y-120110490D01*
X79751745Y-120018728D01*
X79777150Y-119954574D01*
X79786470Y-119927047D01*
X79782359Y-119917361D01*
X79754999Y-119871273D01*
X79705369Y-119793695D01*
X79637459Y-119690716D01*
X79555254Y-119568422D01*
X79462745Y-119432901D01*
X79411991Y-119358684D01*
X79324402Y-119228564D01*
X79249306Y-119114367D01*
X79190706Y-119022321D01*
X79152608Y-118958653D01*
X79139019Y-118929592D01*
X79148462Y-118913828D01*
X79187959Y-118866726D01*
X79252757Y-118795441D01*
X79336908Y-118706015D01*
X79434463Y-118604487D01*
X79539473Y-118496898D01*
X79645992Y-118389289D01*
X79748070Y-118287700D01*
X79839759Y-118198172D01*
X79915111Y-118126744D01*
X79968179Y-118079458D01*
X79993013Y-118062353D01*
X80006798Y-118069004D01*
X80057417Y-118099847D01*
X80139104Y-118152338D01*
X80245971Y-118222630D01*
X80372131Y-118306877D01*
X80511698Y-118401233D01*
X81010055Y-118740112D01*
X81425469Y-118568865D01*
X81840882Y-118397618D01*
X81953464Y-117800427D01*
X82066047Y-117203235D01*
X83309050Y-117203235D01*
X83421633Y-117800427D01*
G37*
X83421633Y-117800427D02*
X83534215Y-118397618D01*
X83949629Y-118568865D01*
X84365042Y-118740112D01*
X84863400Y-118401233D01*
X84962036Y-118334425D01*
X85092796Y-118246734D01*
X85206007Y-118171835D01*
X85295788Y-118113575D01*
X85356260Y-118075800D01*
X85381543Y-118062353D01*
X85397071Y-118071916D01*
X85443486Y-118111985D01*
X85513729Y-118177742D01*
X85601847Y-118263150D01*
X85701888Y-118362170D01*
X85807901Y-118468764D01*
X85913934Y-118576895D01*
X86014034Y-118680523D01*
X86102251Y-118773613D01*
X86172631Y-118850124D01*
X86219224Y-118904020D01*
X86236078Y-118929262D01*
X86232157Y-118940107D01*
X86205011Y-118988483D01*
X86155438Y-119068097D01*
X86087458Y-119172709D01*
X86005090Y-119296077D01*
X85912352Y-119431961D01*
X85861459Y-119506070D01*
X85773911Y-119635090D01*
X85698852Y-119747689D01*
X85640284Y-119837760D01*
X85602208Y-119899197D01*
X85588627Y-119925895D01*
X85588850Y-119927374D01*
X85600830Y-119961217D01*
X85628315Y-120030326D01*
X85667473Y-120125671D01*
X85714473Y-120238227D01*
X85765484Y-120358965D01*
X85816675Y-120478857D01*
X85864214Y-120588877D01*
X85904270Y-120679995D01*
X85933012Y-120743186D01*
X85946609Y-120769420D01*
X85954654Y-120771747D01*
X86003534Y-120782243D01*
X86090651Y-120799631D01*
X86209032Y-120822550D01*
X86351703Y-120849644D01*
X86511692Y-120879551D01*
X86596014Y-120895408D01*
X86750782Y-120925662D01*
X86886103Y-120953602D01*
X86994581Y-120977624D01*
X87068819Y-120996123D01*
X87101421Y-121007493D01*
X87107277Y-121018766D01*
X87116991Y-121073841D01*
X87124623Y-121165572D01*
X87130179Y-121285328D01*
X87133665Y-121424476D01*
X87135086Y-121574386D01*
X87134449Y-121726427D01*
X87131759Y-121871967D01*
X87127023Y-122002376D01*
X87120246Y-122109021D01*
X87111435Y-122183273D01*
X87100594Y-122216500D01*
X87094016Y-122220248D01*
X87044954Y-122236324D01*
X86959846Y-122257593D01*
X86848529Y-122281727D01*
X86720839Y-122306398D01*
X86677756Y-122314255D01*
X86478772Y-122350797D01*
X86322387Y-122380165D01*
X86203182Y-122403576D01*
X86115736Y-122422249D01*
X86054627Y-122437401D01*
X86014434Y-122450250D01*
X85989737Y-122462013D01*
X85975115Y-122473908D01*
X85973415Y-122475904D01*
X85949503Y-122517526D01*
X85914118Y-122593685D01*
X85870691Y-122695448D01*
X85822650Y-122813879D01*
X85773424Y-122940044D01*
X85726444Y-123065009D01*
X85685139Y-123179839D01*
X85652938Y-123275599D01*
X85633270Y-123343355D01*
X85629564Y-123374172D01*
X85632042Y-123378170D01*
X85657688Y-123416839D01*
X85705919Y-123488162D01*
X85772261Y-123585569D01*
X85852245Y-123702489D01*
X85941397Y-123832353D01*
X85965864Y-123868083D01*
X86051902Y-123996245D01*
X86126258Y-124110863D01*
X86184687Y-124205142D01*
X86222946Y-124272284D01*
X86236791Y-124305490D01*
X86233808Y-124314220D01*
X86202710Y-124357237D01*
X86141354Y-124427485D01*
X86054136Y-124520234D01*
X85945448Y-124630757D01*
X85819684Y-124754326D01*
X85747799Y-124823490D01*
X85634139Y-124931212D01*
X85534656Y-125023480D01*
X85454694Y-125095436D01*
X85399594Y-125142223D01*
X85374697Y-125158982D01*
X85357592Y-125152770D01*
X85304928Y-125123381D01*
X85228448Y-125075318D01*
X85138128Y-125014667D01*
X85073911Y-124970408D01*
X84945704Y-124882516D01*
X84808893Y-124789170D01*
X84683931Y-124704346D01*
X84439136Y-124538770D01*
X84233649Y-124649875D01*
X84185263Y-124675520D01*
X84097269Y-124719385D01*
X84029222Y-124749669D01*
X83992855Y-124760961D01*
X83980953Y-124746460D01*
X83951399Y-124691247D01*
X83907747Y-124600217D01*
X83852425Y-124479147D01*
X83787862Y-124333814D01*
X83716488Y-124169996D01*
X83640731Y-123993468D01*
X83563021Y-123810008D01*
X83485786Y-123625393D01*
X83411455Y-123445401D01*
X83342457Y-123275807D01*
X83281222Y-123122390D01*
X83230178Y-122990925D01*
X83191754Y-122887191D01*
X83168379Y-122816964D01*
X83162482Y-122786021D01*
X83162882Y-122785117D01*
X83190348Y-122756512D01*
X83247798Y-122711712D01*
X83323372Y-122660006D01*
X83347226Y-122644217D01*
X83528734Y-122494429D01*
X83678952Y-122316022D01*
X83794326Y-122116420D01*
X83871299Y-121903052D01*
X83906313Y-121683342D01*
X83895812Y-121464717D01*
X83853276Y-121270266D01*
X83776902Y-121073912D01*
X83665564Y-120898739D01*
X83512773Y-120732337D01*
X83452738Y-120679179D01*
X83258657Y-120548206D01*
X83048998Y-120459999D01*
X82829836Y-120413767D01*
X82607246Y-120408722D01*
X82387306Y-120444075D01*
X82176089Y-120519034D01*
X81979672Y-120632812D01*
X81804131Y-120784618D01*
X81655541Y-120973664D01*
X81626973Y-121020479D01*
X81529872Y-121234459D01*
X81478302Y-121457281D01*
X81470913Y-121683177D01*
X81506354Y-121906374D01*
X81583275Y-122121102D01*
X81700325Y-122321591D01*
X81856154Y-122502069D01*
X82049412Y-122656765D01*
X82055688Y-122660934D01*
X82130461Y-122713625D01*
X82186503Y-122758424D01*
X82212099Y-122786021D01*
X82208869Y-122807657D01*
X82188789Y-122870654D01*
X82153183Y-122968293D01*
X82104479Y-123094797D01*
X82045107Y-123244387D01*
X81977493Y-123411285D01*
X81904065Y-123589712D01*
X81827253Y-123773891D01*
X81749483Y-123958042D01*
X81673184Y-124136388D01*
X81600783Y-124303150D01*
X81534709Y-124452549D01*
X81477391Y-124578809D01*
X81431254Y-124676149D01*
X81398729Y-124738793D01*
X81382242Y-124760961D01*
X81368532Y-124757958D01*
X81314669Y-124736381D01*
X81235063Y-124698548D01*
X81141449Y-124649875D01*
X80935961Y-124538770D01*
X80691166Y-124704346D01*
X80618844Y-124753375D01*
X80484325Y-124844984D01*
X80350214Y-124936740D01*
X80236969Y-125014667D01*
X80174470Y-125057136D01*
X80093238Y-125109899D01*
X80033008Y-125146020D01*
X80003590Y-125159412D01*
X79990952Y-125153726D01*
X79945266Y-125118900D01*
X79874837Y-125057584D01*
X79785795Y-124975809D01*
X79684271Y-124879606D01*
X79576394Y-124775006D01*
X79468294Y-124668041D01*
X79366102Y-124564740D01*
X79275949Y-124471137D01*
X79203964Y-124393261D01*
X79156277Y-124337144D01*
X79139019Y-124308817D01*
X79140014Y-124303427D01*
X79160554Y-124259559D01*
X79204433Y-124183662D01*
X79267411Y-124082591D01*
X79345247Y-123963203D01*
X79433701Y-123832353D01*
X79458508Y-123796260D01*
X79545617Y-123669255D01*
X79622346Y-123556973D01*
X79684223Y-123465985D01*
X79726776Y-123402861D01*
X79745533Y-123374172D01*
X79745994Y-123372942D01*
X79740458Y-123337843D01*
X79719319Y-123266739D01*
X79686004Y-123168565D01*
X79643944Y-123052257D01*
X79596569Y-122926748D01*
X79547307Y-122800973D01*
X79499588Y-122683867D01*
X79456841Y-122584365D01*
X79422496Y-122511400D01*
X79399982Y-122473908D01*
X79397727Y-122471580D01*
X79381607Y-122459804D01*
X79354382Y-122447928D01*
X79310632Y-122434736D01*
X79244934Y-122419009D01*
X79151869Y-122399529D01*
X79026015Y-122375079D01*
X78861952Y-122344441D01*
X78654258Y-122306398D01*
X78611180Y-122298391D01*
X78487776Y-122273639D01*
X78383971Y-122250188D01*
X78309600Y-122230365D01*
X78274503Y-122216500D01*
X78268631Y-122204932D01*
X78258842Y-122149365D01*
X78251084Y-122057245D01*
X78245364Y-121937206D01*
X78241688Y-121797877D01*
X78240061Y-121647890D01*
X78240490Y-121495876D01*
X78242981Y-121350467D01*
X78247539Y-121220292D01*
X78254170Y-121113985D01*
X78262881Y-121040174D01*
X78273676Y-121007493D01*
X78284698Y-121002665D01*
X78339530Y-120987446D01*
X78432212Y-120965921D01*
X78555350Y-120939694D01*
X78701547Y-120910369D01*
X78863406Y-120879551D01*
X78951783Y-120863086D01*
X79103258Y-120834534D01*
X79233639Y-120809532D01*
X79335954Y-120789440D01*
X79403227Y-120775617D01*
X79428488Y-120769420D01*
X79429438Y-120768143D01*
X79445525Y-120735692D01*
X79476193Y-120667707D01*
X79517610Y-120573209D01*
X79565940Y-120461219D01*
X79617353Y-120340755D01*
X79668013Y-120220839D01*
X79714088Y-120110490D01*
X79751745Y-120018728D01*
X79777150Y-119954574D01*
X79786470Y-119927047D01*
X79782359Y-119917361D01*
X79754999Y-119871273D01*
X79705369Y-119793695D01*
X79637459Y-119690716D01*
X79555254Y-119568422D01*
X79462745Y-119432901D01*
X79411991Y-119358684D01*
X79324402Y-119228564D01*
X79249306Y-119114367D01*
X79190706Y-119022321D01*
X79152608Y-118958653D01*
X79139019Y-118929592D01*
X79148462Y-118913828D01*
X79187959Y-118866726D01*
X79252757Y-118795441D01*
X79336908Y-118706015D01*
X79434463Y-118604487D01*
X79539473Y-118496898D01*
X79645992Y-118389289D01*
X79748070Y-118287700D01*
X79839759Y-118198172D01*
X79915111Y-118126744D01*
X79968179Y-118079458D01*
X79993013Y-118062353D01*
X80006798Y-118069004D01*
X80057417Y-118099847D01*
X80139104Y-118152338D01*
X80245971Y-118222630D01*
X80372131Y-118306877D01*
X80511698Y-118401233D01*
X81010055Y-118740112D01*
X81425469Y-118568865D01*
X81840882Y-118397618D01*
X81953464Y-117800427D01*
X82066047Y-117203235D01*
X83309050Y-117203235D01*
X83421633Y-117800427D01*
D14*
%TO.C,TP9*%
X218850000Y-78000000D02*
G75*
G03*
X218850000Y-78000000I-950000J0D01*
G01*
%TO.C,TP5*%
X62850000Y-86700000D02*
G75*
G03*
X62850000Y-86700000I-950000J0D01*
G01*
%TO.C,TP10*%
X218850000Y-75500000D02*
G75*
G03*
X218850000Y-75500000I-950000J0D01*
G01*
%TD*%
%LPC*%
D17*
%TO.C,REF\u002A\u002A*%
X220100000Y-123900000D03*
%TD*%
%TO.C,REF\u002A\u002A*%
X221700000Y-70000000D03*
%TD*%
%TO.C,REF\u002A\u002A*%
X61000000Y-69900000D03*
%TD*%
%TO.C,REF\u002A\u002A*%
X65900000Y-123900000D03*
%TD*%
D18*
%TO.C,J6*%
X210425000Y-73425000D03*
D19*
X207885000Y-73425000D03*
X210425000Y-75965000D03*
X207885000Y-75965000D03*
X210425000Y-78505000D03*
X207885000Y-78505000D03*
%TD*%
D20*
%TO.C,J3*%
X110230000Y-76340000D03*
X110230000Y-71260000D03*
D19*
X112770000Y-76340000D03*
X112770000Y-71260000D03*
X115310000Y-76340000D03*
X115310000Y-71260000D03*
X117850000Y-76340000D03*
X117850000Y-71260000D03*
X120390000Y-76340000D03*
X120390000Y-71260000D03*
X122930000Y-76340000D03*
X122930000Y-71260000D03*
X125470000Y-76340000D03*
X125470000Y-71260000D03*
X128010000Y-76340000D03*
X128010000Y-71260000D03*
X130550000Y-76340000D03*
X130550000Y-71260000D03*
X133090000Y-76340000D03*
X133090000Y-71260000D03*
X135630000Y-76340000D03*
X135630000Y-71260000D03*
X138170000Y-76340000D03*
X138170000Y-71260000D03*
X140710000Y-76340000D03*
X140710000Y-71260000D03*
X143250000Y-76340000D03*
X143250000Y-71260000D03*
X145790000Y-76340000D03*
X145790000Y-71260000D03*
X148330000Y-76340000D03*
X148330000Y-71260000D03*
X150870000Y-76340000D03*
X150870000Y-71260000D03*
X153410000Y-76340000D03*
X153410000Y-71260000D03*
X155950000Y-76340000D03*
X155950000Y-71260000D03*
X158490000Y-76340000D03*
X158490000Y-71260000D03*
X161030000Y-76340000D03*
X161030000Y-71260000D03*
X163570000Y-76340000D03*
X163570000Y-71260000D03*
X166110000Y-76340000D03*
X166110000Y-71260000D03*
X168650000Y-76340000D03*
X168650000Y-71260000D03*
X171190000Y-76340000D03*
X171190000Y-71260000D03*
X173730000Y-76340000D03*
X173730000Y-71260000D03*
X176270000Y-76340000D03*
X176270000Y-71260000D03*
X178810000Y-76340000D03*
X178810000Y-71260000D03*
X181350000Y-76340000D03*
X181350000Y-71260000D03*
X183890000Y-76340000D03*
X183890000Y-71260000D03*
X186430000Y-76340000D03*
X186430000Y-71260000D03*
X188970000Y-76340000D03*
X188970000Y-71260000D03*
%TD*%
D21*
%TO.C,H1*%
X226314000Y-73914000D03*
D22*
X226314000Y-73914000D03*
%TD*%
%TO.C,H2*%
X73279000Y-73914000D03*
D21*
X73279000Y-73914000D03*
%TD*%
D22*
%TO.C,H4*%
X73279000Y-121031000D03*
D21*
X73279000Y-121031000D03*
%TD*%
D23*
%TO.C,H5*%
X171577000Y-83312000D03*
D24*
X171577000Y-83312000D03*
%TD*%
D22*
%TO.C,H3*%
X226314000Y-121031000D03*
D21*
X226314000Y-121031000D03*
%TD*%
D25*
%TO.C,J5*%
X222042500Y-115000000D03*
D26*
X217342500Y-118000000D03*
D27*
X217342500Y-112000000D03*
%TD*%
D28*
%TO.C,TP6*%
X184700000Y-123700000D03*
%TD*%
D29*
%TO.C,J7*%
X209200000Y-123305000D03*
D30*
X204200000Y-123305000D03*
%TD*%
D18*
%TO.C,J1*%
X229037500Y-106750000D03*
X226497500Y-106750000D03*
X229037500Y-104210000D03*
X226497500Y-104210000D03*
X229037500Y-101670000D03*
X226497500Y-101670000D03*
X229037500Y-99130000D03*
X226497500Y-99130000D03*
X229037500Y-96590000D03*
X226497500Y-96590000D03*
X229037500Y-94050000D03*
D31*
X226497500Y-94050000D03*
%TD*%
D18*
%TO.C,J2*%
X61387500Y-106650000D03*
X58847500Y-106650000D03*
X61387500Y-104110000D03*
X58847500Y-104110000D03*
X61387500Y-101570000D03*
X58847500Y-101570000D03*
X61387500Y-99030000D03*
X58847500Y-99030000D03*
X61387500Y-96490000D03*
X58847500Y-96490000D03*
X61387500Y-93950000D03*
D31*
X58847500Y-93950000D03*
%TD*%
D32*
%TO.C,TP12*%
X59900000Y-73300000D03*
%TD*%
%TO.C,TP11*%
X57400000Y-73200000D03*
%TD*%
%TO.C,TP15*%
X66600000Y-99000000D03*
%TD*%
%TO.C,TP2*%
X64900000Y-73400000D03*
%TD*%
%TO.C,TP4*%
X59400000Y-86700000D03*
%TD*%
%TO.C,TP13*%
X60500000Y-113800000D03*
%TD*%
%TO.C,TP7*%
X66600000Y-96500000D03*
%TD*%
%TO.C,TP14*%
X66600000Y-101600000D03*
%TD*%
%TO.C,TP3*%
X67400000Y-73400000D03*
%TD*%
%TO.C,TP1*%
X62400000Y-73300000D03*
%TD*%
%TO.C,TP9*%
X217900000Y-78000000D03*
%TD*%
%TO.C,TP5*%
X61900000Y-86700000D03*
%TD*%
%TO.C,TP10*%
X217900000Y-75500000D03*
%TD*%
D33*
X116734450Y-89766926D03*
X113950688Y-89450688D03*
X117800000Y-84300000D03*
X114900000Y-84050000D03*
X141750000Y-84500500D03*
X73905743Y-89595633D03*
X141009669Y-89591706D03*
X71300000Y-89400000D03*
X147878528Y-84500500D03*
X110534574Y-89466802D03*
X142834339Y-89565659D03*
X107800688Y-89500688D03*
X150125458Y-84500500D03*
X148954539Y-89648948D03*
X160295016Y-84450500D03*
X111250000Y-84000000D03*
X159393090Y-89796490D03*
X108900000Y-83950000D03*
X166100000Y-84500000D03*
X80095463Y-89342379D03*
X163699500Y-89300000D03*
X77450688Y-89350688D03*
X175750000Y-89150000D03*
X104377611Y-89423764D03*
X174600000Y-89200000D03*
X101846692Y-89454683D03*
X105300000Y-84100000D03*
X102800000Y-84100000D03*
X86110106Y-89410106D03*
X83450688Y-89450688D03*
X98375682Y-89352193D03*
X95800000Y-89400000D03*
X93100000Y-84350000D03*
X207500000Y-88200000D03*
X88850500Y-84300000D03*
X92200688Y-89400688D03*
X99200000Y-84100000D03*
X89544744Y-89500000D03*
X96550000Y-84150000D03*
X72600000Y-112300000D03*
X83800000Y-121400000D03*
X93300000Y-112100000D03*
X101500000Y-122100000D03*
X63000000Y-84900000D03*
X100900000Y-122800000D03*
X62000000Y-84900000D03*
X92600000Y-112900000D03*
X83200000Y-122500000D03*
X72000000Y-113200000D03*
X61000000Y-84900000D03*
X82500000Y-123200000D03*
X71400000Y-114000000D03*
X92000000Y-113800000D03*
X100200000Y-123400000D03*
X190600000Y-125500000D03*
X179500000Y-114000000D03*
X65200000Y-84900000D03*
X128100000Y-121600000D03*
X175700000Y-120000000D03*
X158700000Y-114000000D03*
X137000000Y-114000000D03*
X147600000Y-121700000D03*
X164500000Y-122300000D03*
X190600000Y-124500000D03*
X148200000Y-121000000D03*
X165300000Y-121773500D03*
X137700000Y-113400000D03*
X128800000Y-120900000D03*
X159400000Y-113400000D03*
X66200000Y-84900000D03*
X180100000Y-113400000D03*
X175000000Y-120700000D03*
X148877708Y-120277708D03*
X67200000Y-84900000D03*
X129500000Y-119900000D03*
X190600000Y-123600000D03*
X174400000Y-121300000D03*
X166000000Y-121200000D03*
X138300000Y-112700000D03*
X180800000Y-112800000D03*
X160100000Y-112600000D03*
X200500000Y-106800000D03*
X192600000Y-120700000D03*
X199600000Y-106500000D03*
X191600000Y-120700000D03*
X194400000Y-120800000D03*
X204500000Y-106700000D03*
X193500000Y-120700000D03*
X201600000Y-106800000D03*
X124980000Y-118420000D03*
X229600000Y-80100000D03*
X169800000Y-70100000D03*
X190743750Y-119443750D03*
X136250000Y-109275000D03*
X67600000Y-109600000D03*
X85657500Y-71357500D03*
X177500000Y-120700000D03*
X210845516Y-92059511D03*
X81800000Y-118300000D03*
X91425000Y-109225000D03*
X99450000Y-118600000D03*
X216400000Y-83200000D03*
X58500000Y-80000000D03*
X163762500Y-118437500D03*
X146982500Y-118267500D03*
X178395000Y-109255000D03*
X113165000Y-119535000D03*
X57500000Y-118100000D03*
X58800000Y-72000000D03*
X157595000Y-109255000D03*
X102537500Y-75462500D03*
X211300000Y-74700000D03*
X224200000Y-79800000D03*
X224200000Y-86200000D03*
X213500000Y-107700000D03*
X221300000Y-78900000D03*
X221300000Y-83200000D03*
X211300000Y-77300000D03*
X215400000Y-107700000D03*
D34*
X106400000Y-97800000D03*
X142950000Y-97950000D03*
X185400000Y-97900000D03*
X76400000Y-89200000D03*
X57400000Y-76000000D03*
X203300000Y-87400000D03*
X156200000Y-89200000D03*
X121400000Y-120000000D03*
X125800000Y-89200000D03*
X184300000Y-87300000D03*
X60100000Y-108700000D03*
X88325000Y-98000000D03*
X179400000Y-98100000D03*
X190600000Y-87400000D03*
X124725000Y-97900000D03*
X144000000Y-89200000D03*
D33*
X200500000Y-75100000D03*
D34*
X197200000Y-98100000D03*
X134000000Y-124300000D03*
X162300000Y-89200000D03*
D33*
X161179895Y-116620104D03*
X62600000Y-80000000D03*
D34*
X112575000Y-97900000D03*
X136875000Y-98025000D03*
X196900000Y-87300000D03*
X137900000Y-89300000D03*
X150200000Y-89200000D03*
D33*
X139300000Y-116600000D03*
X164400000Y-114700000D03*
D34*
X100425000Y-97875000D03*
X70300000Y-89100000D03*
X131300000Y-120900000D03*
X191400000Y-98000000D03*
X155075000Y-98025000D03*
X167300000Y-98000000D03*
X113000000Y-89200000D03*
X82165879Y-89296544D03*
X94350000Y-98075000D03*
X203600000Y-98100000D03*
X161175000Y-97875000D03*
D33*
X105800000Y-120600000D03*
D34*
X119700000Y-89200000D03*
X88600000Y-89200000D03*
X173300000Y-98000000D03*
X100900000Y-89200000D03*
D33*
X225900000Y-86100000D03*
D34*
X149025000Y-97925000D03*
X70163714Y-98063714D03*
X167300000Y-120600000D03*
X82205503Y-97819497D03*
X76100000Y-98100000D03*
X118650000Y-98000000D03*
X130800000Y-97925000D03*
D33*
X207000000Y-77200000D03*
D34*
X94700000Y-89200000D03*
D33*
X64206033Y-94000000D03*
D34*
X102600000Y-122900000D03*
X131800000Y-89200000D03*
X106900000Y-89200000D03*
X195600000Y-77800000D03*
X178000000Y-87400000D03*
X115300000Y-97900000D03*
X134400000Y-89200000D03*
X164800000Y-85400000D03*
X97326500Y-89200000D03*
X127300000Y-98000000D03*
X139400000Y-98000000D03*
X128300000Y-89200000D03*
X145700000Y-98000000D03*
X199500000Y-87400000D03*
X72600000Y-97900000D03*
X186800000Y-87300000D03*
D33*
X196127708Y-109227708D03*
D34*
X152600000Y-89200000D03*
X163700000Y-98100000D03*
X206200000Y-98000000D03*
X146600000Y-89200000D03*
D33*
X175900000Y-109300000D03*
D34*
X180500000Y-87400000D03*
X73100000Y-89200000D03*
X85118837Y-89200000D03*
D33*
X57500000Y-119900000D03*
X134300000Y-109300000D03*
D34*
X79039504Y-89196963D03*
X164800000Y-89200000D03*
D35*
X206000000Y-108200000D03*
D34*
X161099999Y-85400001D03*
D33*
X122700000Y-109300000D03*
D34*
X87600000Y-85400000D03*
X91200000Y-89200000D03*
X84500000Y-98200000D03*
X115700000Y-89200000D03*
X169800000Y-98000000D03*
X122200000Y-89200000D03*
D33*
X111200000Y-109300000D03*
D34*
X139900000Y-89500000D03*
X158700000Y-89200000D03*
X78800000Y-85300000D03*
X182000000Y-98000000D03*
X78700000Y-97967447D03*
X194100000Y-98000000D03*
X200100000Y-98000000D03*
X188000000Y-97900000D03*
X109300000Y-98000000D03*
X84700000Y-85300000D03*
X121100000Y-98000000D03*
D35*
X203000000Y-108300000D03*
D34*
X109500000Y-89300000D03*
X193200000Y-87400000D03*
X103000000Y-97900000D03*
D33*
X88100000Y-109200000D03*
D34*
X70100000Y-79800000D03*
X133400000Y-98000000D03*
X103400000Y-89200000D03*
X73106243Y-85217396D03*
X157900000Y-97900000D03*
X175672205Y-97872205D03*
X97000000Y-98000000D03*
X158000000Y-85400000D03*
X151900000Y-98000000D03*
X205500000Y-87300000D03*
X90900000Y-98200000D03*
D33*
X155200000Y-109200000D03*
X63900000Y-80000000D03*
X59600000Y-116300000D03*
X57500000Y-112600000D03*
X82900000Y-74747500D03*
X108900000Y-123300000D03*
X116200000Y-123300000D03*
X68500000Y-77000000D03*
X209100000Y-74600000D03*
X105975000Y-76425000D03*
X212100000Y-78800000D03*
X226800000Y-86800000D03*
X125100000Y-121750000D03*
X182685445Y-116373500D03*
X125050000Y-119850000D03*
X140250000Y-116925000D03*
X125100000Y-120800000D03*
X162044309Y-116639756D03*
X125100000Y-122650000D03*
X194800000Y-123200000D03*
X66000000Y-89000000D03*
X116100000Y-119500000D03*
X116100000Y-120400000D03*
X61300000Y-80000000D03*
X60400000Y-80000000D03*
X116100000Y-121300000D03*
X105800000Y-121500000D03*
X59500000Y-80000000D03*
X64300000Y-89000000D03*
X105863249Y-119763250D03*
X66500000Y-80000000D03*
X225400000Y-78300000D03*
X65200000Y-80000000D03*
X215100000Y-73300000D03*
X123550000Y-89250000D03*
X119075000Y-102875000D03*
X117495000Y-102805000D03*
X122525000Y-97925000D03*
X129650000Y-89275000D03*
X122235000Y-102985000D03*
X120655000Y-102980000D03*
X128550000Y-97850000D03*
X135700000Y-89100000D03*
X125425000Y-102900000D03*
X134600000Y-97900000D03*
X123862292Y-102882292D03*
X141225000Y-102825000D03*
X141750000Y-89125000D03*
X126975000Y-102850000D03*
X140675000Y-97950000D03*
X147825000Y-89100000D03*
X144391666Y-102808334D03*
X146700000Y-97925000D03*
X142808333Y-102866667D03*
X153900000Y-89100000D03*
X147558332Y-102858332D03*
X152775000Y-97975000D03*
X145974999Y-102925001D03*
X150725000Y-102875000D03*
X160199001Y-89211533D03*
X158875000Y-97950000D03*
X149141665Y-102833335D03*
X166025000Y-89150000D03*
X166550000Y-102975000D03*
X164975000Y-102850000D03*
X165025000Y-98150000D03*
X171050000Y-97950000D03*
X168125000Y-102850000D03*
X176852708Y-97577708D03*
X169700000Y-102875000D03*
X181750000Y-87275000D03*
X171275000Y-102850000D03*
X183225000Y-97850000D03*
X172848708Y-102850844D03*
X188150000Y-87425000D03*
X174425000Y-102800000D03*
X188725000Y-102950000D03*
X189250000Y-97975000D03*
X194450000Y-87250000D03*
X190300000Y-102875000D03*
X191875000Y-102900000D03*
X195400000Y-98100000D03*
X193450000Y-102925000D03*
X200750000Y-87250000D03*
X195025000Y-102825000D03*
X201422023Y-97730111D03*
X196600000Y-102875000D03*
X207100000Y-87300000D03*
X198175000Y-102825000D03*
X204950000Y-97875000D03*
X116375000Y-97825000D03*
X114335000Y-102885000D03*
X75325000Y-89250000D03*
X81108333Y-102916667D03*
X115915000Y-102890000D03*
X117599001Y-89125000D03*
X79519863Y-102869863D03*
X73978170Y-97846830D03*
X110300000Y-97925000D03*
X111175000Y-102875000D03*
X81000000Y-89150000D03*
X84274999Y-102825001D03*
X112755000Y-102920000D03*
X111350000Y-89075000D03*
X79900000Y-97900000D03*
X82691666Y-102858334D03*
X108015000Y-102965000D03*
X104250000Y-97770478D03*
X87441665Y-102916665D03*
X87075000Y-89275000D03*
X105300000Y-89150000D03*
X109595000Y-102880000D03*
X85467000Y-98017954D03*
X85858332Y-102866668D03*
X104855000Y-102920000D03*
X98175000Y-97975000D03*
X93150000Y-89250000D03*
X103275000Y-102925000D03*
X106435000Y-102885000D03*
X99200000Y-89175000D03*
X103900000Y-72700000D03*
X168600000Y-69400000D03*
X218666511Y-103033489D03*
X108900000Y-122300000D03*
X208100000Y-102600000D03*
X218600000Y-104900000D03*
X215100000Y-103500000D03*
X215000000Y-100500000D03*
X116200000Y-122300000D03*
X68700000Y-101000000D03*
X74600000Y-116700000D03*
X111173500Y-120903319D03*
X95300000Y-116700000D03*
X111700000Y-121600000D03*
X67100000Y-77000000D03*
X204200000Y-72900000D03*
X210055503Y-103644497D03*
X65800000Y-77000000D03*
X215090807Y-101510000D03*
X64600000Y-77100000D03*
X212400000Y-98600000D03*
X215100000Y-97200000D03*
D34*
X61400000Y-76600000D03*
D33*
X80200000Y-76900000D03*
X215100000Y-98600000D03*
M02*
