%TF.GenerationSoftware,KiCad,Pcbnew,(6.0.0-0)*%
%TF.CreationDate,2023-03-21T22:31:33-06:00*%
%TF.ProjectId,FlippyDriver,466c6970-7079-4447-9269-7665722e6b69,D.1*%
%TF.SameCoordinates,Original*%
%TF.FileFunction,Legend,Bot*%
%TF.FilePolarity,Positive*%
%FSLAX46Y46*%
G04 Gerber Fmt 4.6, Leading zero omitted, Abs format (unit mm)*
G04 Created by KiCad (PCBNEW (6.0.0-0)) date 2023-03-21 22:31:33*
%MOMM*%
%LPD*%
G01*
G04 APERTURE LIST*
G04 Aperture macros list*
%AMRoundRect*
0 Rectangle with rounded corners*
0 $1 Rounding radius*
0 $2 $3 $4 $5 $6 $7 $8 $9 X,Y pos of 4 corners*
0 Add a 4 corners polygon primitive as box body*
4,1,4,$2,$3,$4,$5,$6,$7,$8,$9,$2,$3,0*
0 Add four circle primitives for the rounded corners*
1,1,$1+$1,$2,$3*
1,1,$1+$1,$4,$5*
1,1,$1+$1,$6,$7*
1,1,$1+$1,$8,$9*
0 Add four rect primitives between the rounded corners*
20,1,$1+$1,$2,$3,$4,$5,0*
20,1,$1+$1,$4,$5,$6,$7,0*
20,1,$1+$1,$6,$7,$8,$9,0*
20,1,$1+$1,$8,$9,$2,$3,0*%
G04 Aperture macros list end*
%ADD10C,0.150000*%
%ADD11C,0.250000*%
%ADD12C,0.099200*%
%ADD13C,0.350000*%
%ADD14C,0.300000*%
%ADD15C,0.200000*%
%ADD16C,0.120000*%
%ADD17C,0.500000*%
%ADD18C,0.010000*%
%ADD19C,7.000000*%
%ADD20C,3.900000*%
%ADD21C,9.000000*%
%ADD22C,4.900000*%
%ADD23R,3.500000X3.500000*%
%ADD24RoundRect,0.750000X1.000000X-0.750000X1.000000X0.750000X-1.000000X0.750000X-1.000000X-0.750000X0*%
%ADD25RoundRect,0.875000X0.875000X-0.875000X0.875000X0.875000X-0.875000X0.875000X-0.875000X-0.875000X0*%
%ADD26C,2.800000*%
%ADD27R,2.300000X1.500000*%
%ADD28O,2.300000X1.500000*%
%ADD29R,2.600000X2.600000*%
%ADD30C,2.600000*%
%ADD31R,1.700000X1.700000*%
%ADD32O,1.700000X1.700000*%
%ADD33C,1.152000*%
%ADD34C,1.700000*%
%ADD35RoundRect,0.250000X-0.600000X-0.600000X0.600000X-0.600000X0.600000X0.600000X-0.600000X0.600000X0*%
%ADD36C,1.500000*%
%ADD37C,2.000000*%
%ADD38C,0.600000*%
%ADD39C,0.800000*%
G04 APERTURE END LIST*
D10*
X236975000Y-87975000D02*
X237700000Y-88875000D01*
X237700000Y-88875000D02*
X238475000Y-87975000D01*
D11*
X194950000Y-70075000D02*
X194150000Y-68825000D01*
D10*
X56800000Y-88500000D02*
X57600000Y-87200000D01*
X57600000Y-87200000D02*
X56100000Y-87200000D01*
X56100000Y-87200000D02*
X56800000Y-88500000D01*
X238475000Y-87975000D02*
X236975000Y-87975000D01*
D11*
X194150000Y-68825000D02*
X194150000Y-76650000D01*
X194150000Y-68825000D02*
X193350000Y-70075000D01*
D12*
X173538281Y-74166428D02*
X173573805Y-74201952D01*
X173680377Y-74237476D01*
X173751424Y-74237476D01*
X173857996Y-74201952D01*
X173929043Y-74130904D01*
X173964567Y-74059857D01*
X174000091Y-73917761D01*
X174000091Y-73811190D01*
X173964567Y-73669095D01*
X173929043Y-73598047D01*
X173857996Y-73527000D01*
X173751424Y-73491476D01*
X173680377Y-73491476D01*
X173573805Y-73527000D01*
X173538281Y-73562523D01*
X173076472Y-73491476D02*
X172934377Y-73491476D01*
X172863329Y-73527000D01*
X172792281Y-73598047D01*
X172756758Y-73740142D01*
X172756758Y-73988809D01*
X172792281Y-74130904D01*
X172863329Y-74201952D01*
X172934377Y-74237476D01*
X173076472Y-74237476D01*
X173147519Y-74201952D01*
X173218567Y-74130904D01*
X173254091Y-73988809D01*
X173254091Y-73740142D01*
X173218567Y-73598047D01*
X173147519Y-73527000D01*
X173076472Y-73491476D01*
X172081805Y-74237476D02*
X172437043Y-74237476D01*
X172437043Y-73491476D01*
X171833139Y-73491476D02*
X171833139Y-74095380D01*
X171797615Y-74166428D01*
X171762091Y-74201952D01*
X171691043Y-74237476D01*
X171548948Y-74237476D01*
X171477900Y-74201952D01*
X171442377Y-74166428D01*
X171406853Y-74095380D01*
X171406853Y-73491476D01*
X171051615Y-74237476D02*
X171051615Y-73491476D01*
X170802948Y-74024333D01*
X170554281Y-73491476D01*
X170554281Y-74237476D01*
X170199043Y-74237476D02*
X170199043Y-73491476D01*
X169772758Y-74237476D01*
X169772758Y-73491476D01*
X169453043Y-74201952D02*
X169346472Y-74237476D01*
X169168853Y-74237476D01*
X169097805Y-74201952D01*
X169062281Y-74166428D01*
X169026758Y-74095380D01*
X169026758Y-74024333D01*
X169062281Y-73953285D01*
X169097805Y-73917761D01*
X169168853Y-73882238D01*
X169310948Y-73846714D01*
X169381996Y-73811190D01*
X169417519Y-73775666D01*
X169453043Y-73704619D01*
X169453043Y-73633571D01*
X169417519Y-73562523D01*
X169381996Y-73527000D01*
X169310948Y-73491476D01*
X169133329Y-73491476D01*
X169026758Y-73527000D01*
X154888281Y-74486142D02*
X154888281Y-73420428D01*
X145403424Y-74237476D02*
X145652091Y-73882238D01*
X145829710Y-74237476D02*
X145829710Y-73491476D01*
X145545519Y-73491476D01*
X145474472Y-73527000D01*
X145438948Y-73562523D01*
X145403424Y-73633571D01*
X145403424Y-73740142D01*
X145438948Y-73811190D01*
X145474472Y-73846714D01*
X145545519Y-73882238D01*
X145829710Y-73882238D01*
X144941615Y-73491476D02*
X144799519Y-73491476D01*
X144728472Y-73527000D01*
X144657424Y-73598047D01*
X144621900Y-73740142D01*
X144621900Y-73988809D01*
X144657424Y-74130904D01*
X144728472Y-74201952D01*
X144799519Y-74237476D01*
X144941615Y-74237476D01*
X145012662Y-74201952D01*
X145083710Y-74130904D01*
X145119234Y-73988809D01*
X145119234Y-73740142D01*
X145083710Y-73598047D01*
X145012662Y-73527000D01*
X144941615Y-73491476D01*
X144373234Y-73491476D02*
X144195615Y-74237476D01*
X144053519Y-73704619D01*
X143911424Y-74237476D01*
X143733805Y-73491476D01*
X142454948Y-74237476D02*
X142703615Y-73882238D01*
X142881234Y-74237476D02*
X142881234Y-73491476D01*
X142597043Y-73491476D01*
X142525996Y-73527000D01*
X142490472Y-73562523D01*
X142454948Y-73633571D01*
X142454948Y-73740142D01*
X142490472Y-73811190D01*
X142525996Y-73846714D01*
X142597043Y-73882238D01*
X142881234Y-73882238D01*
X142135234Y-73846714D02*
X141886567Y-73846714D01*
X141779996Y-74237476D02*
X142135234Y-74237476D01*
X142135234Y-73491476D01*
X141779996Y-73491476D01*
X141495805Y-74201952D02*
X141389234Y-74237476D01*
X141211615Y-74237476D01*
X141140567Y-74201952D01*
X141105043Y-74166428D01*
X141069519Y-74095380D01*
X141069519Y-74024333D01*
X141105043Y-73953285D01*
X141140567Y-73917761D01*
X141211615Y-73882238D01*
X141353710Y-73846714D01*
X141424758Y-73811190D01*
X141460281Y-73775666D01*
X141495805Y-73704619D01*
X141495805Y-73633571D01*
X141460281Y-73562523D01*
X141424758Y-73527000D01*
X141353710Y-73491476D01*
X141176091Y-73491476D01*
X141069519Y-73527000D01*
X140749805Y-73846714D02*
X140501139Y-73846714D01*
X140394567Y-74237476D02*
X140749805Y-74237476D01*
X140749805Y-73491476D01*
X140394567Y-73491476D01*
X140181424Y-73491476D02*
X139755139Y-73491476D01*
X139968281Y-74237476D02*
X139968281Y-73491476D01*
X127712567Y-74237476D02*
X127961234Y-73882238D01*
X128138853Y-74237476D02*
X128138853Y-73491476D01*
X127854662Y-73491476D01*
X127783615Y-73527000D01*
X127748091Y-73562523D01*
X127712567Y-73633571D01*
X127712567Y-73740142D01*
X127748091Y-73811190D01*
X127783615Y-73846714D01*
X127854662Y-73882238D01*
X128138853Y-73882238D01*
X127250758Y-73491476D02*
X127108662Y-73491476D01*
X127037615Y-73527000D01*
X126966567Y-73598047D01*
X126931043Y-73740142D01*
X126931043Y-73988809D01*
X126966567Y-74130904D01*
X127037615Y-74201952D01*
X127108662Y-74237476D01*
X127250758Y-74237476D01*
X127321805Y-74201952D01*
X127392853Y-74130904D01*
X127428377Y-73988809D01*
X127428377Y-73740142D01*
X127392853Y-73598047D01*
X127321805Y-73527000D01*
X127250758Y-73491476D01*
X126682377Y-73491476D02*
X126504758Y-74237476D01*
X126362662Y-73704619D01*
X126220567Y-74237476D01*
X126042948Y-73491476D01*
X125225900Y-74201952D02*
X125119329Y-74237476D01*
X124941710Y-74237476D01*
X124870662Y-74201952D01*
X124835139Y-74166428D01*
X124799615Y-74095380D01*
X124799615Y-74024333D01*
X124835139Y-73953285D01*
X124870662Y-73917761D01*
X124941710Y-73882238D01*
X125083805Y-73846714D01*
X125154853Y-73811190D01*
X125190377Y-73775666D01*
X125225900Y-73704619D01*
X125225900Y-73633571D01*
X125190377Y-73562523D01*
X125154853Y-73527000D01*
X125083805Y-73491476D01*
X124906186Y-73491476D01*
X124799615Y-73527000D01*
X124479900Y-73846714D02*
X124231234Y-73846714D01*
X124124662Y-74237476D02*
X124479900Y-74237476D01*
X124479900Y-73491476D01*
X124124662Y-73491476D01*
X123911519Y-73491476D02*
X123485234Y-73491476D01*
X123698377Y-74237476D02*
X123698377Y-73491476D01*
X113964853Y-74486142D02*
X113964853Y-73420428D01*
X112863615Y-73953285D02*
X112295234Y-73953285D01*
X111584758Y-74237476D02*
X111939996Y-74237476D01*
X111939996Y-73491476D01*
X111336091Y-73846714D02*
X111087424Y-73846714D01*
X110980853Y-74237476D02*
X111336091Y-74237476D01*
X111336091Y-73491476D01*
X110980853Y-73491476D01*
X110661139Y-74237476D02*
X110661139Y-73491476D01*
X110483519Y-73491476D01*
X110376948Y-73527000D01*
X110305900Y-73598047D01*
X110270377Y-73669095D01*
X110234853Y-73811190D01*
X110234853Y-73917761D01*
X110270377Y-74059857D01*
X110305900Y-74130904D01*
X110376948Y-74201952D01*
X110483519Y-74237476D01*
X110661139Y-74237476D01*
X109915139Y-73953285D02*
X109346758Y-73953285D01*
X109630948Y-74237476D02*
X109630948Y-73669095D01*
D11*
X69300000Y-88653571D02*
X69014285Y-88653571D01*
X68871428Y-88725000D01*
X68728571Y-88867857D01*
X68657142Y-89153571D01*
X68657142Y-89653571D01*
X68728571Y-89939285D01*
X68871428Y-90082142D01*
X69014285Y-90153571D01*
X69300000Y-90153571D01*
X69442857Y-90082142D01*
X69585714Y-89939285D01*
X69657142Y-89653571D01*
X69657142Y-89153571D01*
X69585714Y-88867857D01*
X69442857Y-88725000D01*
X69300000Y-88653571D01*
X68014285Y-88653571D02*
X68014285Y-89867857D01*
X67942857Y-90010714D01*
X67871428Y-90082142D01*
X67728571Y-90153571D01*
X67442857Y-90153571D01*
X67300000Y-90082142D01*
X67228571Y-90010714D01*
X67157142Y-89867857D01*
X67157142Y-88653571D01*
X66657142Y-88653571D02*
X65800000Y-88653571D01*
X66228571Y-90153571D02*
X66228571Y-88653571D01*
X233810714Y-90453571D02*
X233810714Y-88953571D01*
X233096428Y-90453571D02*
X233096428Y-88953571D01*
X232239285Y-90453571D01*
X232239285Y-88953571D01*
D10*
X92894047Y-77146428D02*
X93655952Y-77146428D01*
D13*
X193373809Y-71296428D02*
X191773809Y-71296428D01*
X191773809Y-71677380D01*
X191850000Y-71905952D01*
X192002380Y-72058333D01*
X192154761Y-72134523D01*
X192459523Y-72210714D01*
X192688095Y-72210714D01*
X192992857Y-72134523D01*
X193145238Y-72058333D01*
X193297619Y-71905952D01*
X193373809Y-71677380D01*
X193373809Y-71296428D01*
X191773809Y-73201190D02*
X191773809Y-73505952D01*
X191850000Y-73658333D01*
X192002380Y-73810714D01*
X192307142Y-73886904D01*
X192840476Y-73886904D01*
X193145238Y-73810714D01*
X193297619Y-73658333D01*
X193373809Y-73505952D01*
X193373809Y-73201190D01*
X193297619Y-73048809D01*
X193145238Y-72896428D01*
X192840476Y-72820238D01*
X192307142Y-72820238D01*
X192002380Y-72896428D01*
X191850000Y-73048809D01*
X191773809Y-73201190D01*
X191773809Y-74344047D02*
X191773809Y-75258333D01*
X193373809Y-74801190D02*
X191773809Y-74801190D01*
X193297619Y-75715476D02*
X193373809Y-75944047D01*
X193373809Y-76325000D01*
X193297619Y-76477380D01*
X193221428Y-76553571D01*
X193069047Y-76629761D01*
X192916666Y-76629761D01*
X192764285Y-76553571D01*
X192688095Y-76477380D01*
X192611904Y-76325000D01*
X192535714Y-76020238D01*
X192459523Y-75867857D01*
X192383333Y-75791666D01*
X192230952Y-75715476D01*
X192078571Y-75715476D01*
X191926190Y-75791666D01*
X191850000Y-75867857D01*
X191773809Y-76020238D01*
X191773809Y-76401190D01*
X191850000Y-76629761D01*
D10*
X122814285Y-74280952D02*
X122528571Y-73519047D01*
X122242857Y-74280952D01*
X129514285Y-74280952D02*
X129228571Y-73519047D01*
X128942857Y-74280952D01*
X146885714Y-73519047D02*
X147171428Y-74280952D01*
X147457142Y-73519047D01*
X138485714Y-73519047D02*
X138771428Y-74280952D01*
X139057142Y-73519047D01*
X156986904Y-122625000D02*
X157082142Y-122577380D01*
X157225000Y-122577380D01*
X157367857Y-122625000D01*
X157463095Y-122720238D01*
X157510714Y-122815476D01*
X157558333Y-123005952D01*
X157558333Y-123148809D01*
X157510714Y-123339285D01*
X157463095Y-123434523D01*
X157367857Y-123529761D01*
X157225000Y-123577380D01*
X157129761Y-123577380D01*
X156986904Y-123529761D01*
X156939285Y-123482142D01*
X156939285Y-123148809D01*
X157129761Y-123148809D01*
X156510714Y-123577380D02*
X156510714Y-122577380D01*
X155939285Y-123577380D01*
X155939285Y-122577380D01*
X155463095Y-123577380D02*
X155463095Y-122577380D01*
X155225000Y-122577380D01*
X155082142Y-122625000D01*
X154986904Y-122720238D01*
X154939285Y-122815476D01*
X154891666Y-123005952D01*
X154891666Y-123148809D01*
X154939285Y-123339285D01*
X154986904Y-123434523D01*
X155082142Y-123529761D01*
X155225000Y-123577380D01*
X155463095Y-123577380D01*
D14*
X221447857Y-71863571D02*
X221447857Y-70363571D01*
X220947857Y-71435000D01*
X220447857Y-70363571D01*
X220447857Y-71863571D01*
X219805000Y-71435000D02*
X219090714Y-71435000D01*
X219947857Y-71863571D02*
X219447857Y-70363571D01*
X218947857Y-71863571D01*
X218590714Y-70363571D02*
X217590714Y-71863571D01*
X217590714Y-70363571D02*
X218590714Y-71863571D01*
X217162142Y-70363571D02*
X216233571Y-70363571D01*
X216733571Y-70935000D01*
X216519285Y-70935000D01*
X216376428Y-71006428D01*
X216305000Y-71077857D01*
X216233571Y-71220714D01*
X216233571Y-71577857D01*
X216305000Y-71720714D01*
X216376428Y-71792142D01*
X216519285Y-71863571D01*
X216947857Y-71863571D01*
X217090714Y-71792142D01*
X217162142Y-71720714D01*
X215305000Y-70363571D02*
X215162142Y-70363571D01*
X215019285Y-70435000D01*
X214947857Y-70506428D01*
X214876428Y-70649285D01*
X214805000Y-70935000D01*
X214805000Y-71292142D01*
X214876428Y-71577857D01*
X214947857Y-71720714D01*
X215019285Y-71792142D01*
X215162142Y-71863571D01*
X215305000Y-71863571D01*
X215447857Y-71792142D01*
X215519285Y-71720714D01*
X215590714Y-71577857D01*
X215662142Y-71292142D01*
X215662142Y-70935000D01*
X215590714Y-70649285D01*
X215519285Y-70506428D01*
X215447857Y-70435000D01*
X215305000Y-70363571D01*
X213876428Y-70363571D02*
X213733571Y-70363571D01*
X213590714Y-70435000D01*
X213519285Y-70506428D01*
X213447857Y-70649285D01*
X213376428Y-70935000D01*
X213376428Y-71292142D01*
X213447857Y-71577857D01*
X213519285Y-71720714D01*
X213590714Y-71792142D01*
X213733571Y-71863571D01*
X213876428Y-71863571D01*
X214019285Y-71792142D01*
X214090714Y-71720714D01*
X214162142Y-71577857D01*
X214233571Y-71292142D01*
X214233571Y-70935000D01*
X214162142Y-70649285D01*
X214090714Y-70506428D01*
X214019285Y-70435000D01*
X213876428Y-70363571D01*
X212447857Y-70363571D02*
X212305000Y-70363571D01*
X212162142Y-70435000D01*
X212090714Y-70506428D01*
X212019285Y-70649285D01*
X211947857Y-70935000D01*
X211947857Y-71292142D01*
X212019285Y-71577857D01*
X212090714Y-71720714D01*
X212162142Y-71792142D01*
X212305000Y-71863571D01*
X212447857Y-71863571D01*
X212590714Y-71792142D01*
X212662142Y-71720714D01*
X212733571Y-71577857D01*
X212805000Y-71292142D01*
X212805000Y-70935000D01*
X212733571Y-70649285D01*
X212662142Y-70506428D01*
X212590714Y-70435000D01*
X212447857Y-70363571D01*
X210162142Y-71863571D02*
X210162142Y-70363571D01*
X209805000Y-70363571D01*
X209590714Y-70435000D01*
X209447857Y-70577857D01*
X209376428Y-70720714D01*
X209305000Y-71006428D01*
X209305000Y-71220714D01*
X209376428Y-71506428D01*
X209447857Y-71649285D01*
X209590714Y-71792142D01*
X209805000Y-71863571D01*
X210162142Y-71863571D01*
X208090714Y-71792142D02*
X208233571Y-71863571D01*
X208519285Y-71863571D01*
X208662142Y-71792142D01*
X208733571Y-71649285D01*
X208733571Y-71077857D01*
X208662142Y-70935000D01*
X208519285Y-70863571D01*
X208233571Y-70863571D01*
X208090714Y-70935000D01*
X208019285Y-71077857D01*
X208019285Y-71220714D01*
X208733571Y-71363571D01*
X206733571Y-71792142D02*
X206876428Y-71863571D01*
X207162142Y-71863571D01*
X207305000Y-71792142D01*
X207376428Y-71720714D01*
X207447857Y-71577857D01*
X207447857Y-71149285D01*
X207376428Y-71006428D01*
X207305000Y-70935000D01*
X207162142Y-70863571D01*
X206876428Y-70863571D01*
X206733571Y-70935000D01*
X205876428Y-71863571D02*
X206019285Y-71792142D01*
X206090714Y-71720714D01*
X206162142Y-71577857D01*
X206162142Y-71149285D01*
X206090714Y-71006428D01*
X206019285Y-70935000D01*
X205876428Y-70863571D01*
X205662142Y-70863571D01*
X205519285Y-70935000D01*
X205447857Y-71006428D01*
X205376428Y-71149285D01*
X205376428Y-71577857D01*
X205447857Y-71720714D01*
X205519285Y-71792142D01*
X205662142Y-71863571D01*
X205876428Y-71863571D01*
X204090714Y-71863571D02*
X204090714Y-70363571D01*
X204090714Y-71792142D02*
X204233571Y-71863571D01*
X204519285Y-71863571D01*
X204662142Y-71792142D01*
X204733571Y-71720714D01*
X204805000Y-71577857D01*
X204805000Y-71149285D01*
X204733571Y-71006428D01*
X204662142Y-70935000D01*
X204519285Y-70863571D01*
X204233571Y-70863571D01*
X204090714Y-70935000D01*
X202805000Y-71792142D02*
X202947857Y-71863571D01*
X203233571Y-71863571D01*
X203376428Y-71792142D01*
X203447857Y-71649285D01*
X203447857Y-71077857D01*
X203376428Y-70935000D01*
X203233571Y-70863571D01*
X202947857Y-70863571D01*
X202805000Y-70935000D01*
X202733571Y-71077857D01*
X202733571Y-71220714D01*
X203447857Y-71363571D01*
X202090714Y-71863571D02*
X202090714Y-70863571D01*
X202090714Y-71149285D02*
X202019285Y-71006428D01*
X201947857Y-70935000D01*
X201805000Y-70863571D01*
X201662142Y-70863571D01*
X220805000Y-74278571D02*
X220805000Y-73492857D01*
X220876428Y-73350000D01*
X221019285Y-73278571D01*
X221305000Y-73278571D01*
X221447857Y-73350000D01*
X220805000Y-74207142D02*
X220947857Y-74278571D01*
X221305000Y-74278571D01*
X221447857Y-74207142D01*
X221519285Y-74064285D01*
X221519285Y-73921428D01*
X221447857Y-73778571D01*
X221305000Y-73707142D01*
X220947857Y-73707142D01*
X220805000Y-73635714D01*
X220090714Y-73278571D02*
X220090714Y-74278571D01*
X220090714Y-73421428D02*
X220019285Y-73350000D01*
X219876428Y-73278571D01*
X219662142Y-73278571D01*
X219519285Y-73350000D01*
X219447857Y-73492857D01*
X219447857Y-74278571D01*
X218090714Y-74278571D02*
X218090714Y-72778571D01*
X218090714Y-74207142D02*
X218233571Y-74278571D01*
X218519285Y-74278571D01*
X218662142Y-74207142D01*
X218733571Y-74135714D01*
X218805000Y-73992857D01*
X218805000Y-73564285D01*
X218733571Y-73421428D01*
X218662142Y-73350000D01*
X218519285Y-73278571D01*
X218233571Y-73278571D01*
X218090714Y-73350000D01*
X216233571Y-74278571D02*
X216233571Y-72778571D01*
X215876428Y-72778571D01*
X215662142Y-72850000D01*
X215519285Y-72992857D01*
X215447857Y-73135714D01*
X215376428Y-73421428D01*
X215376428Y-73635714D01*
X215447857Y-73921428D01*
X215519285Y-74064285D01*
X215662142Y-74207142D01*
X215876428Y-74278571D01*
X216233571Y-74278571D01*
X214733571Y-74278571D02*
X214733571Y-73278571D01*
X214733571Y-73564285D02*
X214662142Y-73421428D01*
X214590714Y-73350000D01*
X214447857Y-73278571D01*
X214305000Y-73278571D01*
X213805000Y-74278571D02*
X213805000Y-73278571D01*
X213805000Y-72778571D02*
X213876428Y-72850000D01*
X213805000Y-72921428D01*
X213733571Y-72850000D01*
X213805000Y-72778571D01*
X213805000Y-72921428D01*
X213233571Y-73278571D02*
X212876428Y-74278571D01*
X212519285Y-73278571D01*
X211376428Y-74207142D02*
X211519285Y-74278571D01*
X211805000Y-74278571D01*
X211947857Y-74207142D01*
X212019285Y-74064285D01*
X212019285Y-73492857D01*
X211947857Y-73350000D01*
X211805000Y-73278571D01*
X211519285Y-73278571D01*
X211376428Y-73350000D01*
X211305000Y-73492857D01*
X211305000Y-73635714D01*
X212019285Y-73778571D01*
X210662142Y-74278571D02*
X210662142Y-73278571D01*
X210662142Y-73564285D02*
X210590714Y-73421428D01*
X210519285Y-73350000D01*
X210376428Y-73278571D01*
X210233571Y-73278571D01*
X208090714Y-73492857D02*
X207876428Y-73564285D01*
X207805000Y-73635714D01*
X207733571Y-73778571D01*
X207733571Y-73992857D01*
X207805000Y-74135714D01*
X207876428Y-74207142D01*
X208019285Y-74278571D01*
X208590714Y-74278571D01*
X208590714Y-72778571D01*
X208090714Y-72778571D01*
X207947857Y-72850000D01*
X207876428Y-72921428D01*
X207805000Y-73064285D01*
X207805000Y-73207142D01*
X207876428Y-73350000D01*
X207947857Y-73421428D01*
X208090714Y-73492857D01*
X208590714Y-73492857D01*
X206876428Y-74278571D02*
X207019285Y-74207142D01*
X207090714Y-74135714D01*
X207162142Y-73992857D01*
X207162142Y-73564285D01*
X207090714Y-73421428D01*
X207019285Y-73350000D01*
X206876428Y-73278571D01*
X206662142Y-73278571D01*
X206519285Y-73350000D01*
X206447857Y-73421428D01*
X206376428Y-73564285D01*
X206376428Y-73992857D01*
X206447857Y-74135714D01*
X206519285Y-74207142D01*
X206662142Y-74278571D01*
X206876428Y-74278571D01*
X205090714Y-74278571D02*
X205090714Y-73492857D01*
X205162142Y-73350000D01*
X205305000Y-73278571D01*
X205590714Y-73278571D01*
X205733571Y-73350000D01*
X205090714Y-74207142D02*
X205233571Y-74278571D01*
X205590714Y-74278571D01*
X205733571Y-74207142D01*
X205805000Y-74064285D01*
X205805000Y-73921428D01*
X205733571Y-73778571D01*
X205590714Y-73707142D01*
X205233571Y-73707142D01*
X205090714Y-73635714D01*
X204376428Y-74278571D02*
X204376428Y-73278571D01*
X204376428Y-73564285D02*
X204305000Y-73421428D01*
X204233571Y-73350000D01*
X204090714Y-73278571D01*
X203947857Y-73278571D01*
X202805000Y-74278571D02*
X202805000Y-72778571D01*
X202805000Y-74207142D02*
X202947857Y-74278571D01*
X203233571Y-74278571D01*
X203376428Y-74207142D01*
X203447857Y-74135714D01*
X203519285Y-73992857D01*
X203519285Y-73564285D01*
X203447857Y-73421428D01*
X203376428Y-73350000D01*
X203233571Y-73278571D01*
X202947857Y-73278571D01*
X202805000Y-73350000D01*
X221519285Y-75336428D02*
X221447857Y-75265000D01*
X221305000Y-75193571D01*
X220947857Y-75193571D01*
X220805000Y-75265000D01*
X220733571Y-75336428D01*
X220662142Y-75479285D01*
X220662142Y-75622142D01*
X220733571Y-75836428D01*
X221590714Y-76693571D01*
X220662142Y-76693571D01*
X219733571Y-75193571D02*
X219590714Y-75193571D01*
X219447857Y-75265000D01*
X219376428Y-75336428D01*
X219305000Y-75479285D01*
X219233571Y-75765000D01*
X219233571Y-76122142D01*
X219305000Y-76407857D01*
X219376428Y-76550714D01*
X219447857Y-76622142D01*
X219590714Y-76693571D01*
X219733571Y-76693571D01*
X219876428Y-76622142D01*
X219947857Y-76550714D01*
X220019285Y-76407857D01*
X220090714Y-76122142D01*
X220090714Y-75765000D01*
X220019285Y-75479285D01*
X219947857Y-75336428D01*
X219876428Y-75265000D01*
X219733571Y-75193571D01*
X218662142Y-75336428D02*
X218590714Y-75265000D01*
X218447857Y-75193571D01*
X218090714Y-75193571D01*
X217947857Y-75265000D01*
X217876428Y-75336428D01*
X217805000Y-75479285D01*
X217805000Y-75622142D01*
X217876428Y-75836428D01*
X218733571Y-76693571D01*
X217805000Y-76693571D01*
X217305000Y-75193571D02*
X216376428Y-75193571D01*
X216876428Y-75765000D01*
X216662142Y-75765000D01*
X216519285Y-75836428D01*
X216447857Y-75907857D01*
X216376428Y-76050714D01*
X216376428Y-76407857D01*
X216447857Y-76550714D01*
X216519285Y-76622142D01*
X216662142Y-76693571D01*
X217090714Y-76693571D01*
X217233571Y-76622142D01*
X217305000Y-76550714D01*
X215733571Y-76122142D02*
X214590714Y-76122142D01*
X213590714Y-75193571D02*
X213447857Y-75193571D01*
X213304999Y-75265000D01*
X213233571Y-75336428D01*
X213162142Y-75479285D01*
X213090714Y-75765000D01*
X213090714Y-76122142D01*
X213162142Y-76407857D01*
X213233571Y-76550714D01*
X213304999Y-76622142D01*
X213447857Y-76693571D01*
X213590714Y-76693571D01*
X213733571Y-76622142D01*
X213804999Y-76550714D01*
X213876428Y-76407857D01*
X213947857Y-76122142D01*
X213947857Y-75765000D01*
X213876428Y-75479285D01*
X213804999Y-75336428D01*
X213733571Y-75265000D01*
X213590714Y-75193571D01*
X212519285Y-75336428D02*
X212447857Y-75265000D01*
X212304999Y-75193571D01*
X211947857Y-75193571D01*
X211804999Y-75265000D01*
X211733571Y-75336428D01*
X211662142Y-75479285D01*
X211662142Y-75622142D01*
X211733571Y-75836428D01*
X212590714Y-76693571D01*
X211662142Y-76693571D01*
X211019285Y-76122142D02*
X209876428Y-76122142D01*
X208376428Y-76693571D02*
X209233571Y-76693571D01*
X208804999Y-76693571D02*
X208804999Y-75193571D01*
X208947857Y-75407857D01*
X209090714Y-75550714D01*
X209233571Y-75622142D01*
X207662142Y-76693571D02*
X207376428Y-76693571D01*
X207233571Y-76622142D01*
X207162142Y-76550714D01*
X207019285Y-76336428D01*
X206947857Y-76050714D01*
X206947857Y-75479285D01*
X207019285Y-75336428D01*
X207090714Y-75265000D01*
X207233571Y-75193571D01*
X207519285Y-75193571D01*
X207662142Y-75265000D01*
X207733571Y-75336428D01*
X207804999Y-75479285D01*
X207804999Y-75836428D01*
X207733571Y-75979285D01*
X207662142Y-76050714D01*
X207519285Y-76122142D01*
X207233571Y-76122142D01*
X207090714Y-76050714D01*
X207019285Y-75979285D01*
X206947857Y-75836428D01*
X204733571Y-77265000D02*
X204804999Y-77193571D01*
X204947857Y-76979285D01*
X205019285Y-76836428D01*
X205090714Y-76622142D01*
X205162142Y-76265000D01*
X205162142Y-75979285D01*
X205090714Y-75622142D01*
X205019285Y-75407857D01*
X204947857Y-75265000D01*
X204804999Y-75050714D01*
X204733571Y-74979285D01*
X203304999Y-76693571D02*
X203804999Y-75979285D01*
X204162142Y-76693571D02*
X204162142Y-75193571D01*
X203590714Y-75193571D01*
X203447857Y-75265000D01*
X203376428Y-75336428D01*
X203304999Y-75479285D01*
X203304999Y-75693571D01*
X203376428Y-75836428D01*
X203447857Y-75907857D01*
X203590714Y-75979285D01*
X204162142Y-75979285D01*
X202090714Y-76622142D02*
X202233571Y-76693571D01*
X202519285Y-76693571D01*
X202662142Y-76622142D01*
X202733571Y-76479285D01*
X202733571Y-75907857D01*
X202662142Y-75765000D01*
X202519285Y-75693571D01*
X202233571Y-75693571D01*
X202090714Y-75765000D01*
X202019285Y-75907857D01*
X202019285Y-76050714D01*
X202733571Y-76193571D01*
X201519285Y-75693571D02*
X201162142Y-76693571D01*
X200804999Y-75693571D01*
X199090714Y-75907857D02*
X198590714Y-75907857D01*
X198376428Y-76693571D02*
X199090714Y-76693571D01*
X199090714Y-75193571D01*
X198376428Y-75193571D01*
X197876428Y-77265000D02*
X197804999Y-77193571D01*
X197662142Y-76979285D01*
X197590714Y-76836428D01*
X197519285Y-76622142D01*
X197447857Y-76265000D01*
X197447857Y-75979285D01*
X197519285Y-75622142D01*
X197590714Y-75407857D01*
X197662142Y-75265000D01*
X197804999Y-75050714D01*
X197876428Y-74979285D01*
X199111904Y-121042857D02*
X197588095Y-121042857D01*
X198350000Y-121804761D02*
X198350000Y-120280952D01*
D15*
X93835595Y-68843738D02*
X93452261Y-69993738D01*
X93068928Y-68843738D01*
X92192738Y-69993738D02*
X92192738Y-68843738D01*
X92192738Y-69938976D02*
X92302261Y-69993738D01*
X92521309Y-69993738D01*
X92630833Y-69938976D01*
X92685595Y-69884214D01*
X92740357Y-69774690D01*
X92740357Y-69446119D01*
X92685595Y-69336595D01*
X92630833Y-69281833D01*
X92521309Y-69227071D01*
X92302261Y-69227071D01*
X92192738Y-69281833D01*
X91645119Y-69993738D02*
X91645119Y-69227071D01*
X91645119Y-69446119D02*
X91590357Y-69336595D01*
X91535595Y-69281833D01*
X91426071Y-69227071D01*
X91316547Y-69227071D01*
X90933214Y-69993738D02*
X90933214Y-69227071D01*
X90933214Y-68843738D02*
X90987976Y-68898500D01*
X90933214Y-68953261D01*
X90878452Y-68898500D01*
X90933214Y-68843738D01*
X90933214Y-68953261D01*
X90495119Y-69227071D02*
X90221309Y-69993738D01*
X89947500Y-69227071D01*
X89071309Y-69938976D02*
X89180833Y-69993738D01*
X89399880Y-69993738D01*
X89509404Y-69938976D01*
X89564166Y-69829452D01*
X89564166Y-69391357D01*
X89509404Y-69281833D01*
X89399880Y-69227071D01*
X89180833Y-69227071D01*
X89071309Y-69281833D01*
X89016547Y-69391357D01*
X89016547Y-69500880D01*
X89564166Y-69610404D01*
X88523690Y-69884214D02*
X88468928Y-69938976D01*
X88523690Y-69993738D01*
X88578452Y-69938976D01*
X88523690Y-69884214D01*
X88523690Y-69993738D01*
X88523690Y-69281833D02*
X88468928Y-69336595D01*
X88523690Y-69391357D01*
X88578452Y-69336595D01*
X88523690Y-69281833D01*
X88523690Y-69391357D01*
X87154642Y-68953261D02*
X87099880Y-68898500D01*
X86990357Y-68843738D01*
X86716547Y-68843738D01*
X86607023Y-68898500D01*
X86552261Y-68953261D01*
X86497500Y-69062785D01*
X86497500Y-69172309D01*
X86552261Y-69336595D01*
X87209404Y-69993738D01*
X86497500Y-69993738D01*
X85785595Y-68843738D02*
X85676071Y-68843738D01*
X85566547Y-68898500D01*
X85511785Y-68953261D01*
X85457023Y-69062785D01*
X85402261Y-69281833D01*
X85402261Y-69555642D01*
X85457023Y-69774690D01*
X85511785Y-69884214D01*
X85566547Y-69938976D01*
X85676071Y-69993738D01*
X85785595Y-69993738D01*
X85895119Y-69938976D01*
X85949880Y-69884214D01*
X86004642Y-69774690D01*
X86059404Y-69555642D01*
X86059404Y-69281833D01*
X86004642Y-69062785D01*
X85949880Y-68953261D01*
X85895119Y-68898500D01*
X85785595Y-68843738D01*
X85073690Y-68843738D02*
X84690357Y-69993738D01*
X84307023Y-68843738D01*
X83047500Y-69555642D02*
X82171309Y-69555642D01*
X80802261Y-68953261D02*
X80747500Y-68898500D01*
X80637976Y-68843738D01*
X80364166Y-68843738D01*
X80254642Y-68898500D01*
X80199880Y-68953261D01*
X80145119Y-69062785D01*
X80145119Y-69172309D01*
X80199880Y-69336595D01*
X80857023Y-69993738D01*
X80145119Y-69993738D01*
X79487976Y-69336595D02*
X79597500Y-69281833D01*
X79652261Y-69227071D01*
X79707023Y-69117547D01*
X79707023Y-69062785D01*
X79652261Y-68953261D01*
X79597500Y-68898500D01*
X79487976Y-68843738D01*
X79268928Y-68843738D01*
X79159404Y-68898500D01*
X79104642Y-68953261D01*
X79049880Y-69062785D01*
X79049880Y-69117547D01*
X79104642Y-69227071D01*
X79159404Y-69281833D01*
X79268928Y-69336595D01*
X79487976Y-69336595D01*
X79597500Y-69391357D01*
X79652261Y-69446119D01*
X79707023Y-69555642D01*
X79707023Y-69774690D01*
X79652261Y-69884214D01*
X79597500Y-69938976D01*
X79487976Y-69993738D01*
X79268928Y-69993738D01*
X79159404Y-69938976D01*
X79104642Y-69884214D01*
X79049880Y-69774690D01*
X79049880Y-69555642D01*
X79104642Y-69446119D01*
X79159404Y-69391357D01*
X79268928Y-69336595D01*
X78721309Y-68843738D02*
X78337976Y-69993738D01*
X77954642Y-68843738D01*
X93835595Y-70695238D02*
X93452261Y-71845238D01*
X93068928Y-70695238D01*
X92192738Y-71790476D02*
X92302261Y-71845238D01*
X92521309Y-71845238D01*
X92630833Y-71790476D01*
X92685595Y-71735714D01*
X92740357Y-71626190D01*
X92740357Y-71297619D01*
X92685595Y-71188095D01*
X92630833Y-71133333D01*
X92521309Y-71078571D01*
X92302261Y-71078571D01*
X92192738Y-71133333D01*
X91207023Y-71790476D02*
X91316547Y-71845238D01*
X91535595Y-71845238D01*
X91645119Y-71790476D01*
X91699880Y-71735714D01*
X91754642Y-71626190D01*
X91754642Y-71297619D01*
X91699880Y-71188095D01*
X91645119Y-71133333D01*
X91535595Y-71078571D01*
X91316547Y-71078571D01*
X91207023Y-71133333D01*
X90714166Y-71735714D02*
X90659404Y-71790476D01*
X90714166Y-71845238D01*
X90768928Y-71790476D01*
X90714166Y-71735714D01*
X90714166Y-71845238D01*
X90714166Y-71133333D02*
X90659404Y-71188095D01*
X90714166Y-71242857D01*
X90768928Y-71188095D01*
X90714166Y-71133333D01*
X90714166Y-71242857D01*
X89399880Y-70695238D02*
X88687976Y-70695238D01*
X89071309Y-71133333D01*
X88907023Y-71133333D01*
X88797500Y-71188095D01*
X88742738Y-71242857D01*
X88687976Y-71352380D01*
X88687976Y-71626190D01*
X88742738Y-71735714D01*
X88797500Y-71790476D01*
X88907023Y-71845238D01*
X89235595Y-71845238D01*
X89345119Y-71790476D01*
X89399880Y-71735714D01*
X88195119Y-71735714D02*
X88140357Y-71790476D01*
X88195119Y-71845238D01*
X88249880Y-71790476D01*
X88195119Y-71735714D01*
X88195119Y-71845238D01*
X87045119Y-71845238D02*
X87702261Y-71845238D01*
X87373690Y-71845238D02*
X87373690Y-70695238D01*
X87483214Y-70859523D01*
X87592738Y-70969047D01*
X87702261Y-71023809D01*
X85676071Y-71407142D02*
X84799880Y-71407142D01*
X82828452Y-70695238D02*
X83376071Y-70695238D01*
X83430833Y-71242857D01*
X83376071Y-71188095D01*
X83266547Y-71133333D01*
X82992738Y-71133333D01*
X82883214Y-71188095D01*
X82828452Y-71242857D01*
X82773690Y-71352380D01*
X82773690Y-71626190D01*
X82828452Y-71735714D01*
X82883214Y-71790476D01*
X82992738Y-71845238D01*
X83266547Y-71845238D01*
X83376071Y-71790476D01*
X83430833Y-71735714D01*
X82280833Y-71735714D02*
X82226071Y-71790476D01*
X82280833Y-71845238D01*
X82335595Y-71790476D01*
X82280833Y-71735714D01*
X82280833Y-71845238D01*
X81185595Y-70695238D02*
X81733214Y-70695238D01*
X81787976Y-71242857D01*
X81733214Y-71188095D01*
X81623690Y-71133333D01*
X81349880Y-71133333D01*
X81240357Y-71188095D01*
X81185595Y-71242857D01*
X81130833Y-71352380D01*
X81130833Y-71626190D01*
X81185595Y-71735714D01*
X81240357Y-71790476D01*
X81349880Y-71845238D01*
X81623690Y-71845238D01*
X81733214Y-71790476D01*
X81787976Y-71735714D01*
X80802261Y-70695238D02*
X80418928Y-71845238D01*
X80035595Y-70695238D01*
X93671309Y-73696738D02*
X93671309Y-72546738D01*
X92630833Y-73696738D02*
X92630833Y-72546738D01*
X92630833Y-73641976D02*
X92740357Y-73696738D01*
X92959404Y-73696738D01*
X93068928Y-73641976D01*
X93123690Y-73587214D01*
X93178452Y-73477690D01*
X93178452Y-73149119D01*
X93123690Y-73039595D01*
X93068928Y-72984833D01*
X92959404Y-72930071D01*
X92740357Y-72930071D01*
X92630833Y-72984833D01*
X92083214Y-73696738D02*
X92083214Y-72930071D01*
X92083214Y-73149119D02*
X92028452Y-73039595D01*
X91973690Y-72984833D01*
X91864166Y-72930071D01*
X91754642Y-72930071D01*
X91371309Y-73696738D02*
X91371309Y-72930071D01*
X91371309Y-72546738D02*
X91426071Y-72601500D01*
X91371309Y-72656261D01*
X91316547Y-72601500D01*
X91371309Y-72546738D01*
X91371309Y-72656261D01*
X90933214Y-72930071D02*
X90659404Y-73696738D01*
X90385595Y-72930071D01*
X89509404Y-73641976D02*
X89618928Y-73696738D01*
X89837976Y-73696738D01*
X89947500Y-73641976D01*
X90002261Y-73532452D01*
X90002261Y-73094357D01*
X89947500Y-72984833D01*
X89837976Y-72930071D01*
X89618928Y-72930071D01*
X89509404Y-72984833D01*
X89454642Y-73094357D01*
X89454642Y-73203880D01*
X90002261Y-73313404D01*
X88961785Y-73587214D02*
X88907023Y-73641976D01*
X88961785Y-73696738D01*
X89016547Y-73641976D01*
X88961785Y-73587214D01*
X88961785Y-73696738D01*
X88961785Y-72984833D02*
X88907023Y-73039595D01*
X88961785Y-73094357D01*
X89016547Y-73039595D01*
X88961785Y-72984833D01*
X88961785Y-73094357D01*
X86990357Y-72546738D02*
X87537976Y-72546738D01*
X87592738Y-73094357D01*
X87537976Y-73039595D01*
X87428452Y-72984833D01*
X87154642Y-72984833D01*
X87045119Y-73039595D01*
X86990357Y-73094357D01*
X86935595Y-73203880D01*
X86935595Y-73477690D01*
X86990357Y-73587214D01*
X87045119Y-73641976D01*
X87154642Y-73696738D01*
X87428452Y-73696738D01*
X87537976Y-73641976D01*
X87592738Y-73587214D01*
X86497500Y-73368166D02*
X85949880Y-73368166D01*
X86607023Y-73696738D02*
X86223690Y-72546738D01*
X85840357Y-73696738D01*
X93835595Y-74398238D02*
X93452261Y-75548238D01*
X93068928Y-74398238D01*
X92521309Y-75548238D02*
X92630833Y-75493476D01*
X92685595Y-75438714D01*
X92740357Y-75329190D01*
X92740357Y-75000619D01*
X92685595Y-74891095D01*
X92630833Y-74836333D01*
X92521309Y-74781571D01*
X92357023Y-74781571D01*
X92247500Y-74836333D01*
X92192738Y-74891095D01*
X92137976Y-75000619D01*
X92137976Y-75329190D01*
X92192738Y-75438714D01*
X92247500Y-75493476D01*
X92357023Y-75548238D01*
X92521309Y-75548238D01*
X91152261Y-74781571D02*
X91152261Y-75548238D01*
X91645119Y-74781571D02*
X91645119Y-75383952D01*
X91590357Y-75493476D01*
X91480833Y-75548238D01*
X91316547Y-75548238D01*
X91207023Y-75493476D01*
X91152261Y-75438714D01*
X90768928Y-74781571D02*
X90330833Y-74781571D01*
X90604642Y-74398238D02*
X90604642Y-75383952D01*
X90549880Y-75493476D01*
X90440357Y-75548238D01*
X90330833Y-75548238D01*
X89947500Y-75438714D02*
X89892738Y-75493476D01*
X89947500Y-75548238D01*
X90002261Y-75493476D01*
X89947500Y-75438714D01*
X89947500Y-75548238D01*
X89947500Y-74836333D02*
X89892738Y-74891095D01*
X89947500Y-74945857D01*
X90002261Y-74891095D01*
X89947500Y-74836333D01*
X89947500Y-74945857D01*
X87976071Y-74398238D02*
X88523690Y-74398238D01*
X88578452Y-74945857D01*
X88523690Y-74891095D01*
X88414166Y-74836333D01*
X88140357Y-74836333D01*
X88030833Y-74891095D01*
X87976071Y-74945857D01*
X87921309Y-75055380D01*
X87921309Y-75329190D01*
X87976071Y-75438714D01*
X88030833Y-75493476D01*
X88140357Y-75548238D01*
X88414166Y-75548238D01*
X88523690Y-75493476D01*
X88578452Y-75438714D01*
X87592738Y-74398238D02*
X87209404Y-75548238D01*
X86826071Y-74398238D01*
X86387976Y-75493476D02*
X86387976Y-75548238D01*
X86442738Y-75657761D01*
X86497500Y-75712523D01*
X84471309Y-74398238D02*
X85018928Y-74398238D01*
X85073690Y-74945857D01*
X85018928Y-74891095D01*
X84909404Y-74836333D01*
X84635595Y-74836333D01*
X84526071Y-74891095D01*
X84471309Y-74945857D01*
X84416547Y-75055380D01*
X84416547Y-75329190D01*
X84471309Y-75438714D01*
X84526071Y-75493476D01*
X84635595Y-75548238D01*
X84909404Y-75548238D01*
X85018928Y-75493476D01*
X85073690Y-75438714D01*
X83704642Y-74398238D02*
X83595119Y-74398238D01*
X83485595Y-74453000D01*
X83430833Y-74507761D01*
X83376071Y-74617285D01*
X83321309Y-74836333D01*
X83321309Y-75110142D01*
X83376071Y-75329190D01*
X83430833Y-75438714D01*
X83485595Y-75493476D01*
X83595119Y-75548238D01*
X83704642Y-75548238D01*
X83814166Y-75493476D01*
X83868928Y-75438714D01*
X83923690Y-75329190D01*
X83978452Y-75110142D01*
X83978452Y-74836333D01*
X83923690Y-74617285D01*
X83868928Y-74507761D01*
X83814166Y-74453000D01*
X83704642Y-74398238D01*
X82609404Y-74398238D02*
X82499880Y-74398238D01*
X82390357Y-74453000D01*
X82335595Y-74507761D01*
X82280833Y-74617285D01*
X82226071Y-74836333D01*
X82226071Y-75110142D01*
X82280833Y-75329190D01*
X82335595Y-75438714D01*
X82390357Y-75493476D01*
X82499880Y-75548238D01*
X82609404Y-75548238D01*
X82718928Y-75493476D01*
X82773690Y-75438714D01*
X82828452Y-75329190D01*
X82883214Y-75110142D01*
X82883214Y-74836333D01*
X82828452Y-74617285D01*
X82773690Y-74507761D01*
X82718928Y-74453000D01*
X82609404Y-74398238D01*
X81733214Y-75548238D02*
X81733214Y-74781571D01*
X81733214Y-74891095D02*
X81678452Y-74836333D01*
X81568928Y-74781571D01*
X81404642Y-74781571D01*
X81295119Y-74836333D01*
X81240357Y-74945857D01*
X81240357Y-75548238D01*
X81240357Y-74945857D02*
X81185595Y-74836333D01*
X81076071Y-74781571D01*
X80911785Y-74781571D01*
X80802261Y-74836333D01*
X80747500Y-74945857D01*
X80747500Y-75548238D01*
X80254642Y-75219666D02*
X79707023Y-75219666D01*
X80364166Y-75548238D02*
X79980833Y-74398238D01*
X79597500Y-75548238D01*
D10*
X86869047Y-77196428D02*
X87630952Y-77196428D01*
X87250000Y-77577380D02*
X87250000Y-76815476D01*
%TO.C,TP12*%
X60377380Y-75850000D02*
X60377380Y-75373809D01*
X59377380Y-75373809D01*
X60091666Y-76135714D02*
X60091666Y-76611904D01*
X60377380Y-76040476D02*
X59377380Y-76373809D01*
X60377380Y-76707142D01*
X59377380Y-76897619D02*
X59377380Y-77469047D01*
X60377380Y-77183333D02*
X59377380Y-77183333D01*
%TO.C,TP11*%
X57502380Y-75401190D02*
X56502380Y-75401190D01*
X56502380Y-75639285D01*
X56550000Y-75782142D01*
X56645238Y-75877380D01*
X56740476Y-75925000D01*
X56930952Y-75972619D01*
X57073809Y-75972619D01*
X57264285Y-75925000D01*
X57359523Y-75877380D01*
X57454761Y-75782142D01*
X57502380Y-75639285D01*
X57502380Y-75401190D01*
X57502380Y-76401190D02*
X56502380Y-76401190D01*
X57502380Y-76877380D02*
X56502380Y-76877380D01*
X57502380Y-77448809D01*
X56502380Y-77448809D01*
%TO.C,TP15*%
X70319047Y-99357142D02*
X70366666Y-99404761D01*
X70509523Y-99452380D01*
X70604761Y-99452380D01*
X70747619Y-99404761D01*
X70842857Y-99309523D01*
X70890476Y-99214285D01*
X70938095Y-99023809D01*
X70938095Y-98880952D01*
X70890476Y-98690476D01*
X70842857Y-98595238D01*
X70747619Y-98500000D01*
X70604761Y-98452380D01*
X70509523Y-98452380D01*
X70366666Y-98500000D01*
X70319047Y-98547619D01*
X69700000Y-98452380D02*
X69509523Y-98452380D01*
X69414285Y-98500000D01*
X69319047Y-98595238D01*
X69271428Y-98785714D01*
X69271428Y-99119047D01*
X69319047Y-99309523D01*
X69414285Y-99404761D01*
X69509523Y-99452380D01*
X69700000Y-99452380D01*
X69795238Y-99404761D01*
X69890476Y-99309523D01*
X69938095Y-99119047D01*
X69938095Y-98785714D01*
X69890476Y-98595238D01*
X69795238Y-98500000D01*
X69700000Y-98452380D01*
X68366666Y-99452380D02*
X68842857Y-99452380D01*
X68842857Y-98452380D01*
%TO.C,TP2*%
X65377380Y-75927380D02*
X64901190Y-75594047D01*
X65377380Y-75355952D02*
X64377380Y-75355952D01*
X64377380Y-75736904D01*
X64425000Y-75832142D01*
X64472619Y-75879761D01*
X64567857Y-75927380D01*
X64710714Y-75927380D01*
X64805952Y-75879761D01*
X64853571Y-75832142D01*
X64901190Y-75736904D01*
X64901190Y-75355952D01*
X65329761Y-76308333D02*
X65377380Y-76451190D01*
X65377380Y-76689285D01*
X65329761Y-76784523D01*
X65282142Y-76832142D01*
X65186904Y-76879761D01*
X65091666Y-76879761D01*
X64996428Y-76832142D01*
X64948809Y-76784523D01*
X64901190Y-76689285D01*
X64853571Y-76498809D01*
X64805952Y-76403571D01*
X64758333Y-76355952D01*
X64663095Y-76308333D01*
X64567857Y-76308333D01*
X64472619Y-76355952D01*
X64425000Y-76403571D01*
X64377380Y-76498809D01*
X64377380Y-76736904D01*
X64425000Y-76879761D01*
X64377380Y-77165476D02*
X64377380Y-77736904D01*
X65377380Y-77451190D02*
X64377380Y-77451190D01*
%TO.C,TP4*%
X60233333Y-84177380D02*
X59900000Y-85177380D01*
X59566666Y-84177380D01*
X58661904Y-85082142D02*
X58709523Y-85129761D01*
X58852380Y-85177380D01*
X58947619Y-85177380D01*
X59090476Y-85129761D01*
X59185714Y-85034523D01*
X59233333Y-84939285D01*
X59280952Y-84748809D01*
X59280952Y-84605952D01*
X59233333Y-84415476D01*
X59185714Y-84320238D01*
X59090476Y-84225000D01*
X58947619Y-84177380D01*
X58852380Y-84177380D01*
X58709523Y-84225000D01*
X58661904Y-84272619D01*
X57661904Y-85082142D02*
X57709523Y-85129761D01*
X57852380Y-85177380D01*
X57947619Y-85177380D01*
X58090476Y-85129761D01*
X58185714Y-85034523D01*
X58233333Y-84939285D01*
X58280952Y-84748809D01*
X58280952Y-84605952D01*
X58233333Y-84415476D01*
X58185714Y-84320238D01*
X58090476Y-84225000D01*
X57947619Y-84177380D01*
X57852380Y-84177380D01*
X57709523Y-84225000D01*
X57661904Y-84272619D01*
%TO.C,TP13*%
X63438095Y-113828571D02*
X63104761Y-113828571D01*
X62961904Y-114352380D02*
X63438095Y-114352380D01*
X63438095Y-113352380D01*
X62961904Y-113352380D01*
X62533333Y-114352380D02*
X62533333Y-113352380D01*
X61961904Y-114352380D01*
X61961904Y-113352380D01*
%TO.C,TP7*%
X72080952Y-96428571D02*
X71747619Y-96428571D01*
X71604761Y-96952380D02*
X72080952Y-96952380D01*
X72080952Y-95952380D01*
X71604761Y-95952380D01*
X71176190Y-96952380D02*
X71176190Y-95952380D01*
X70604761Y-96952380D01*
X70604761Y-95952380D01*
X70366666Y-97047619D02*
X69604761Y-97047619D01*
X69366666Y-96952380D02*
X69366666Y-95952380D01*
X68890476Y-96952380D02*
X68890476Y-95952380D01*
X68319047Y-96952380D01*
X68319047Y-95952380D01*
%TO.C,TP14*%
X70385714Y-102152380D02*
X70719047Y-101676190D01*
X70957142Y-102152380D02*
X70957142Y-101152380D01*
X70576190Y-101152380D01*
X70480952Y-101200000D01*
X70433333Y-101247619D01*
X70385714Y-101342857D01*
X70385714Y-101485714D01*
X70433333Y-101580952D01*
X70480952Y-101628571D01*
X70576190Y-101676190D01*
X70957142Y-101676190D01*
X69766666Y-101152380D02*
X69576190Y-101152380D01*
X69480952Y-101200000D01*
X69385714Y-101295238D01*
X69338095Y-101485714D01*
X69338095Y-101819047D01*
X69385714Y-102009523D01*
X69480952Y-102104761D01*
X69576190Y-102152380D01*
X69766666Y-102152380D01*
X69861904Y-102104761D01*
X69957142Y-102009523D01*
X70004761Y-101819047D01*
X70004761Y-101485714D01*
X69957142Y-101295238D01*
X69861904Y-101200000D01*
X69766666Y-101152380D01*
X69004761Y-101152380D02*
X68766666Y-102152380D01*
X68576190Y-101438095D01*
X68385714Y-102152380D01*
X68147619Y-101152380D01*
%TO.C,TP3*%
X68002380Y-75234523D02*
X67002380Y-75234523D01*
X67002380Y-75472619D01*
X67050000Y-75615476D01*
X67145238Y-75710714D01*
X67240476Y-75758333D01*
X67430952Y-75805952D01*
X67573809Y-75805952D01*
X67764285Y-75758333D01*
X67859523Y-75710714D01*
X67954761Y-75615476D01*
X68002380Y-75472619D01*
X68002380Y-75234523D01*
X67002380Y-76425000D02*
X67002380Y-76615476D01*
X67050000Y-76710714D01*
X67145238Y-76805952D01*
X67335714Y-76853571D01*
X67669047Y-76853571D01*
X67859523Y-76805952D01*
X67954761Y-76710714D01*
X68002380Y-76615476D01*
X68002380Y-76425000D01*
X67954761Y-76329761D01*
X67859523Y-76234523D01*
X67669047Y-76186904D01*
X67335714Y-76186904D01*
X67145238Y-76234523D01*
X67050000Y-76329761D01*
X67002380Y-76425000D01*
X67002380Y-77282142D02*
X67811904Y-77282142D01*
X67907142Y-77329761D01*
X67954761Y-77377380D01*
X68002380Y-77472619D01*
X68002380Y-77663095D01*
X67954761Y-77758333D01*
X67907142Y-77805952D01*
X67811904Y-77853571D01*
X67002380Y-77853571D01*
X67002380Y-78186904D02*
X67002380Y-78758333D01*
X68002380Y-78472619D02*
X67002380Y-78472619D01*
%TO.C,TP1*%
X62782142Y-75929761D02*
X62829761Y-75882142D01*
X62877380Y-75739285D01*
X62877380Y-75644047D01*
X62829761Y-75501190D01*
X62734523Y-75405952D01*
X62639285Y-75358333D01*
X62448809Y-75310714D01*
X62305952Y-75310714D01*
X62115476Y-75358333D01*
X62020238Y-75405952D01*
X61925000Y-75501190D01*
X61877380Y-75644047D01*
X61877380Y-75739285D01*
X61925000Y-75882142D01*
X61972619Y-75929761D01*
X62877380Y-76834523D02*
X62877380Y-76358333D01*
X61877380Y-76358333D01*
X62877380Y-77167857D02*
X61877380Y-77167857D01*
X62877380Y-77739285D02*
X62305952Y-77310714D01*
X61877380Y-77739285D02*
X62448809Y-77167857D01*
%TO.C,TP5*%
X63361904Y-84100000D02*
X63457142Y-84052380D01*
X63600000Y-84052380D01*
X63742857Y-84100000D01*
X63838095Y-84195238D01*
X63885714Y-84290476D01*
X63933333Y-84480952D01*
X63933333Y-84623809D01*
X63885714Y-84814285D01*
X63838095Y-84909523D01*
X63742857Y-85004761D01*
X63600000Y-85052380D01*
X63504761Y-85052380D01*
X63361904Y-85004761D01*
X63314285Y-84957142D01*
X63314285Y-84623809D01*
X63504761Y-84623809D01*
X62885714Y-85052380D02*
X62885714Y-84052380D01*
X62314285Y-85052380D01*
X62314285Y-84052380D01*
X61838095Y-85052380D02*
X61838095Y-84052380D01*
X61600000Y-84052380D01*
X61457142Y-84100000D01*
X61361904Y-84195238D01*
X61314285Y-84290476D01*
X61266666Y-84480952D01*
X61266666Y-84623809D01*
X61314285Y-84814285D01*
X61361904Y-84909523D01*
X61457142Y-85004761D01*
X61600000Y-85052380D01*
X61838095Y-85052380D01*
%TO.C,TP10*%
X238742857Y-76602380D02*
X239219047Y-76602380D01*
X239219047Y-75602380D01*
X238409523Y-76078571D02*
X238076190Y-76078571D01*
X237933333Y-76602380D02*
X238409523Y-76602380D01*
X238409523Y-75602380D01*
X237933333Y-75602380D01*
X237504761Y-76602380D02*
X237504761Y-75602380D01*
X237266666Y-75602380D01*
X237123809Y-75650000D01*
X237028571Y-75745238D01*
X236980952Y-75840476D01*
X236933333Y-76030952D01*
X236933333Y-76173809D01*
X236980952Y-76364285D01*
X237028571Y-76459523D01*
X237123809Y-76554761D01*
X237266666Y-76602380D01*
X237504761Y-76602380D01*
D16*
%TO.C,J1*%
X235707500Y-110690000D02*
X242207500Y-110690000D01*
X234397500Y-111990000D02*
X243517500Y-111990000D01*
X235707500Y-98380000D02*
X234397500Y-98380000D01*
X242207500Y-110690000D02*
X242207500Y-90170000D01*
X242207500Y-90170000D02*
X235707500Y-90170000D01*
X235707500Y-102480000D02*
X235707500Y-110690000D01*
X243517500Y-111990000D02*
X243517500Y-88870000D01*
X234397500Y-88870000D02*
X234397500Y-111990000D01*
X234397500Y-102480000D02*
X235707500Y-102480000D01*
X235707500Y-90170000D02*
X235707500Y-98380000D01*
X243517500Y-88870000D02*
X234397500Y-88870000D01*
%TO.C,J2*%
X64707500Y-111860000D02*
X64707500Y-88740000D01*
X55587500Y-111860000D02*
X64707500Y-111860000D01*
X55587500Y-102350000D02*
X56897500Y-102350000D01*
X56897500Y-102350000D02*
X56897500Y-110560000D01*
X63397500Y-90040000D02*
X56897500Y-90040000D01*
X63397500Y-110560000D02*
X63397500Y-90040000D01*
X56897500Y-110560000D02*
X63397500Y-110560000D01*
X56897500Y-90040000D02*
X56897500Y-98250000D01*
X56897500Y-98250000D02*
X55587500Y-98250000D01*
X55587500Y-88740000D02*
X55587500Y-111860000D01*
X64707500Y-88740000D02*
X55587500Y-88740000D01*
%TO.C,TP12*%
X60850000Y-73300000D02*
G75*
G03*
X60850000Y-73300000I-950000J0D01*
G01*
%TO.C,TP11*%
X58350000Y-73200000D02*
G75*
G03*
X58350000Y-73200000I-950000J0D01*
G01*
D10*
%TO.C,REF\u002A\u002A*%
X90275000Y-77125000D02*
X88275000Y-77125000D01*
X92275000Y-77125000D02*
X91375000Y-77125000D01*
X89525000Y-77800000D02*
G75*
G03*
X89600000Y-76375000I750000J675000D01*
G01*
X88200000Y-77125000D02*
G75*
G03*
X88200000Y-77125000I-925000J0D01*
G01*
X94200000Y-77125000D02*
G75*
G03*
X94200000Y-77125000I-925000J0D01*
G01*
D17*
X90450000Y-77125000D02*
G75*
G03*
X90450000Y-77125000I-175000J0D01*
G01*
D16*
%TO.C,TP15*%
X67550000Y-99000000D02*
G75*
G03*
X67550000Y-99000000I-950000J0D01*
G01*
%TO.C,TP2*%
X65850000Y-73400000D02*
G75*
G03*
X65850000Y-73400000I-950000J0D01*
G01*
%TO.C,TP4*%
X60350000Y-86700000D02*
G75*
G03*
X60350000Y-86700000I-950000J0D01*
G01*
%TO.C,TP13*%
X61450000Y-113800000D02*
G75*
G03*
X61450000Y-113800000I-950000J0D01*
G01*
%TO.C,TP7*%
X67550000Y-96500000D02*
G75*
G03*
X67550000Y-96500000I-950000J0D01*
G01*
D18*
%TO.C,REF\u002A\u002A*%
X91878464Y-118225427D02*
X91765882Y-118822618D01*
X91765882Y-118822618D02*
X91350469Y-118993865D01*
X91350469Y-118993865D02*
X90935055Y-119165112D01*
X90935055Y-119165112D02*
X90436698Y-118826233D01*
X90436698Y-118826233D02*
X90297131Y-118731877D01*
X90297131Y-118731877D02*
X90170971Y-118647630D01*
X90170971Y-118647630D02*
X90064104Y-118577338D01*
X90064104Y-118577338D02*
X89982417Y-118524847D01*
X89982417Y-118524847D02*
X89931798Y-118494004D01*
X89931798Y-118494004D02*
X89918013Y-118487353D01*
X89918013Y-118487353D02*
X89893179Y-118504458D01*
X89893179Y-118504458D02*
X89840111Y-118551744D01*
X89840111Y-118551744D02*
X89764759Y-118623172D01*
X89764759Y-118623172D02*
X89673070Y-118712700D01*
X89673070Y-118712700D02*
X89570992Y-118814289D01*
X89570992Y-118814289D02*
X89464473Y-118921898D01*
X89464473Y-118921898D02*
X89359463Y-119029487D01*
X89359463Y-119029487D02*
X89261908Y-119131015D01*
X89261908Y-119131015D02*
X89177757Y-119220441D01*
X89177757Y-119220441D02*
X89112959Y-119291726D01*
X89112959Y-119291726D02*
X89073462Y-119338828D01*
X89073462Y-119338828D02*
X89064019Y-119354592D01*
X89064019Y-119354592D02*
X89077608Y-119383653D01*
X89077608Y-119383653D02*
X89115706Y-119447321D01*
X89115706Y-119447321D02*
X89174306Y-119539367D01*
X89174306Y-119539367D02*
X89249402Y-119653564D01*
X89249402Y-119653564D02*
X89336991Y-119783684D01*
X89336991Y-119783684D02*
X89387745Y-119857901D01*
X89387745Y-119857901D02*
X89480254Y-119993422D01*
X89480254Y-119993422D02*
X89562459Y-120115716D01*
X89562459Y-120115716D02*
X89630369Y-120218695D01*
X89630369Y-120218695D02*
X89679999Y-120296273D01*
X89679999Y-120296273D02*
X89707359Y-120342361D01*
X89707359Y-120342361D02*
X89711470Y-120352047D01*
X89711470Y-120352047D02*
X89702150Y-120379574D01*
X89702150Y-120379574D02*
X89676745Y-120443728D01*
X89676745Y-120443728D02*
X89639088Y-120535490D01*
X89639088Y-120535490D02*
X89593013Y-120645839D01*
X89593013Y-120645839D02*
X89542353Y-120765755D01*
X89542353Y-120765755D02*
X89490940Y-120886219D01*
X89490940Y-120886219D02*
X89442610Y-120998209D01*
X89442610Y-120998209D02*
X89401193Y-121092707D01*
X89401193Y-121092707D02*
X89370525Y-121160692D01*
X89370525Y-121160692D02*
X89354438Y-121193143D01*
X89354438Y-121193143D02*
X89353488Y-121194420D01*
X89353488Y-121194420D02*
X89328227Y-121200617D01*
X89328227Y-121200617D02*
X89260954Y-121214440D01*
X89260954Y-121214440D02*
X89158639Y-121234532D01*
X89158639Y-121234532D02*
X89028258Y-121259534D01*
X89028258Y-121259534D02*
X88876783Y-121288086D01*
X88876783Y-121288086D02*
X88788406Y-121304551D01*
X88788406Y-121304551D02*
X88626547Y-121335369D01*
X88626547Y-121335369D02*
X88480350Y-121364694D01*
X88480350Y-121364694D02*
X88357212Y-121390921D01*
X88357212Y-121390921D02*
X88264530Y-121412446D01*
X88264530Y-121412446D02*
X88209698Y-121427665D01*
X88209698Y-121427665D02*
X88198676Y-121432493D01*
X88198676Y-121432493D02*
X88187881Y-121465174D01*
X88187881Y-121465174D02*
X88179170Y-121538985D01*
X88179170Y-121538985D02*
X88172539Y-121645292D01*
X88172539Y-121645292D02*
X88167981Y-121775467D01*
X88167981Y-121775467D02*
X88165490Y-121920876D01*
X88165490Y-121920876D02*
X88165061Y-122072890D01*
X88165061Y-122072890D02*
X88166688Y-122222877D01*
X88166688Y-122222877D02*
X88170364Y-122362206D01*
X88170364Y-122362206D02*
X88176084Y-122482245D01*
X88176084Y-122482245D02*
X88183842Y-122574365D01*
X88183842Y-122574365D02*
X88193631Y-122629932D01*
X88193631Y-122629932D02*
X88199503Y-122641500D01*
X88199503Y-122641500D02*
X88234600Y-122655365D01*
X88234600Y-122655365D02*
X88308971Y-122675188D01*
X88308971Y-122675188D02*
X88412776Y-122698639D01*
X88412776Y-122698639D02*
X88536180Y-122723391D01*
X88536180Y-122723391D02*
X88579258Y-122731398D01*
X88579258Y-122731398D02*
X88786952Y-122769441D01*
X88786952Y-122769441D02*
X88951015Y-122800079D01*
X88951015Y-122800079D02*
X89076869Y-122824529D01*
X89076869Y-122824529D02*
X89169934Y-122844009D01*
X89169934Y-122844009D02*
X89235632Y-122859736D01*
X89235632Y-122859736D02*
X89279382Y-122872928D01*
X89279382Y-122872928D02*
X89306607Y-122884804D01*
X89306607Y-122884804D02*
X89322727Y-122896580D01*
X89322727Y-122896580D02*
X89324982Y-122898908D01*
X89324982Y-122898908D02*
X89347496Y-122936400D01*
X89347496Y-122936400D02*
X89381841Y-123009365D01*
X89381841Y-123009365D02*
X89424588Y-123108867D01*
X89424588Y-123108867D02*
X89472307Y-123225973D01*
X89472307Y-123225973D02*
X89521569Y-123351748D01*
X89521569Y-123351748D02*
X89568944Y-123477257D01*
X89568944Y-123477257D02*
X89611004Y-123593565D01*
X89611004Y-123593565D02*
X89644319Y-123691739D01*
X89644319Y-123691739D02*
X89665458Y-123762843D01*
X89665458Y-123762843D02*
X89670994Y-123797942D01*
X89670994Y-123797942D02*
X89670533Y-123799172D01*
X89670533Y-123799172D02*
X89651776Y-123827861D01*
X89651776Y-123827861D02*
X89609223Y-123890985D01*
X89609223Y-123890985D02*
X89547346Y-123981973D01*
X89547346Y-123981973D02*
X89470617Y-124094255D01*
X89470617Y-124094255D02*
X89383508Y-124221260D01*
X89383508Y-124221260D02*
X89358701Y-124257353D01*
X89358701Y-124257353D02*
X89270247Y-124388203D01*
X89270247Y-124388203D02*
X89192411Y-124507591D01*
X89192411Y-124507591D02*
X89129433Y-124608662D01*
X89129433Y-124608662D02*
X89085554Y-124684559D01*
X89085554Y-124684559D02*
X89065014Y-124728427D01*
X89065014Y-124728427D02*
X89064019Y-124733817D01*
X89064019Y-124733817D02*
X89081277Y-124762144D01*
X89081277Y-124762144D02*
X89128964Y-124818261D01*
X89128964Y-124818261D02*
X89200949Y-124896137D01*
X89200949Y-124896137D02*
X89291102Y-124989740D01*
X89291102Y-124989740D02*
X89393294Y-125093041D01*
X89393294Y-125093041D02*
X89501394Y-125200006D01*
X89501394Y-125200006D02*
X89609271Y-125304606D01*
X89609271Y-125304606D02*
X89710795Y-125400809D01*
X89710795Y-125400809D02*
X89799837Y-125482584D01*
X89799837Y-125482584D02*
X89870266Y-125543900D01*
X89870266Y-125543900D02*
X89915952Y-125578726D01*
X89915952Y-125578726D02*
X89928590Y-125584412D01*
X89928590Y-125584412D02*
X89958008Y-125571020D01*
X89958008Y-125571020D02*
X90018238Y-125534899D01*
X90018238Y-125534899D02*
X90099470Y-125482136D01*
X90099470Y-125482136D02*
X90161969Y-125439667D01*
X90161969Y-125439667D02*
X90275214Y-125361740D01*
X90275214Y-125361740D02*
X90409325Y-125269984D01*
X90409325Y-125269984D02*
X90543844Y-125178375D01*
X90543844Y-125178375D02*
X90616166Y-125129346D01*
X90616166Y-125129346D02*
X90860961Y-124963770D01*
X90860961Y-124963770D02*
X91066449Y-125074875D01*
X91066449Y-125074875D02*
X91160063Y-125123548D01*
X91160063Y-125123548D02*
X91239669Y-125161381D01*
X91239669Y-125161381D02*
X91293532Y-125182958D01*
X91293532Y-125182958D02*
X91307242Y-125185961D01*
X91307242Y-125185961D02*
X91323729Y-125163793D01*
X91323729Y-125163793D02*
X91356254Y-125101149D01*
X91356254Y-125101149D02*
X91402391Y-125003809D01*
X91402391Y-125003809D02*
X91459709Y-124877549D01*
X91459709Y-124877549D02*
X91525783Y-124728150D01*
X91525783Y-124728150D02*
X91598184Y-124561388D01*
X91598184Y-124561388D02*
X91674483Y-124383042D01*
X91674483Y-124383042D02*
X91752253Y-124198891D01*
X91752253Y-124198891D02*
X91829065Y-124014712D01*
X91829065Y-124014712D02*
X91902493Y-123836285D01*
X91902493Y-123836285D02*
X91970107Y-123669387D01*
X91970107Y-123669387D02*
X92029479Y-123519797D01*
X92029479Y-123519797D02*
X92078183Y-123393293D01*
X92078183Y-123393293D02*
X92113789Y-123295654D01*
X92113789Y-123295654D02*
X92133869Y-123232657D01*
X92133869Y-123232657D02*
X92137099Y-123211021D01*
X92137099Y-123211021D02*
X92111503Y-123183424D01*
X92111503Y-123183424D02*
X92055461Y-123138625D01*
X92055461Y-123138625D02*
X91980688Y-123085934D01*
X91980688Y-123085934D02*
X91974412Y-123081765D01*
X91974412Y-123081765D02*
X91781154Y-122927069D01*
X91781154Y-122927069D02*
X91625325Y-122746591D01*
X91625325Y-122746591D02*
X91508275Y-122546102D01*
X91508275Y-122546102D02*
X91431354Y-122331374D01*
X91431354Y-122331374D02*
X91395913Y-122108177D01*
X91395913Y-122108177D02*
X91403302Y-121882281D01*
X91403302Y-121882281D02*
X91454872Y-121659459D01*
X91454872Y-121659459D02*
X91551973Y-121445479D01*
X91551973Y-121445479D02*
X91580541Y-121398664D01*
X91580541Y-121398664D02*
X91729131Y-121209618D01*
X91729131Y-121209618D02*
X91904672Y-121057812D01*
X91904672Y-121057812D02*
X92101089Y-120944034D01*
X92101089Y-120944034D02*
X92312306Y-120869075D01*
X92312306Y-120869075D02*
X92532246Y-120833722D01*
X92532246Y-120833722D02*
X92754836Y-120838767D01*
X92754836Y-120838767D02*
X92973998Y-120884999D01*
X92973998Y-120884999D02*
X93183657Y-120973206D01*
X93183657Y-120973206D02*
X93377738Y-121104179D01*
X93377738Y-121104179D02*
X93437773Y-121157337D01*
X93437773Y-121157337D02*
X93590564Y-121323739D01*
X93590564Y-121323739D02*
X93701902Y-121498912D01*
X93701902Y-121498912D02*
X93778276Y-121695266D01*
X93778276Y-121695266D02*
X93820812Y-121889717D01*
X93820812Y-121889717D02*
X93831313Y-122108342D01*
X93831313Y-122108342D02*
X93796299Y-122328052D01*
X93796299Y-122328052D02*
X93719326Y-122541420D01*
X93719326Y-122541420D02*
X93603952Y-122741022D01*
X93603952Y-122741022D02*
X93453734Y-122919429D01*
X93453734Y-122919429D02*
X93272226Y-123069217D01*
X93272226Y-123069217D02*
X93248372Y-123085006D01*
X93248372Y-123085006D02*
X93172798Y-123136712D01*
X93172798Y-123136712D02*
X93115348Y-123181512D01*
X93115348Y-123181512D02*
X93087882Y-123210117D01*
X93087882Y-123210117D02*
X93087482Y-123211021D01*
X93087482Y-123211021D02*
X93093379Y-123241964D01*
X93093379Y-123241964D02*
X93116754Y-123312191D01*
X93116754Y-123312191D02*
X93155178Y-123415925D01*
X93155178Y-123415925D02*
X93206222Y-123547390D01*
X93206222Y-123547390D02*
X93267457Y-123700807D01*
X93267457Y-123700807D02*
X93336455Y-123870401D01*
X93336455Y-123870401D02*
X93410786Y-124050393D01*
X93410786Y-124050393D02*
X93488021Y-124235008D01*
X93488021Y-124235008D02*
X93565731Y-124418468D01*
X93565731Y-124418468D02*
X93641488Y-124594996D01*
X93641488Y-124594996D02*
X93712862Y-124758814D01*
X93712862Y-124758814D02*
X93777425Y-124904147D01*
X93777425Y-124904147D02*
X93832747Y-125025217D01*
X93832747Y-125025217D02*
X93876399Y-125116247D01*
X93876399Y-125116247D02*
X93905953Y-125171460D01*
X93905953Y-125171460D02*
X93917855Y-125185961D01*
X93917855Y-125185961D02*
X93954222Y-125174669D01*
X93954222Y-125174669D02*
X94022269Y-125144385D01*
X94022269Y-125144385D02*
X94110263Y-125100520D01*
X94110263Y-125100520D02*
X94158649Y-125074875D01*
X94158649Y-125074875D02*
X94364136Y-124963770D01*
X94364136Y-124963770D02*
X94608931Y-125129346D01*
X94608931Y-125129346D02*
X94733893Y-125214170D01*
X94733893Y-125214170D02*
X94870704Y-125307516D01*
X94870704Y-125307516D02*
X94998911Y-125395408D01*
X94998911Y-125395408D02*
X95063128Y-125439667D01*
X95063128Y-125439667D02*
X95153448Y-125500318D01*
X95153448Y-125500318D02*
X95229928Y-125548381D01*
X95229928Y-125548381D02*
X95282592Y-125577770D01*
X95282592Y-125577770D02*
X95299697Y-125583982D01*
X95299697Y-125583982D02*
X95324594Y-125567223D01*
X95324594Y-125567223D02*
X95379694Y-125520436D01*
X95379694Y-125520436D02*
X95459656Y-125448480D01*
X95459656Y-125448480D02*
X95559139Y-125356212D01*
X95559139Y-125356212D02*
X95672799Y-125248490D01*
X95672799Y-125248490D02*
X95744684Y-125179326D01*
X95744684Y-125179326D02*
X95870448Y-125055757D01*
X95870448Y-125055757D02*
X95979136Y-124945234D01*
X95979136Y-124945234D02*
X96066354Y-124852485D01*
X96066354Y-124852485D02*
X96127710Y-124782237D01*
X96127710Y-124782237D02*
X96158808Y-124739220D01*
X96158808Y-124739220D02*
X96161791Y-124730490D01*
X96161791Y-124730490D02*
X96147946Y-124697284D01*
X96147946Y-124697284D02*
X96109687Y-124630142D01*
X96109687Y-124630142D02*
X96051258Y-124535863D01*
X96051258Y-124535863D02*
X95976902Y-124421245D01*
X95976902Y-124421245D02*
X95890864Y-124293083D01*
X95890864Y-124293083D02*
X95866397Y-124257353D01*
X95866397Y-124257353D02*
X95777245Y-124127489D01*
X95777245Y-124127489D02*
X95697261Y-124010569D01*
X95697261Y-124010569D02*
X95630919Y-123913162D01*
X95630919Y-123913162D02*
X95582688Y-123841839D01*
X95582688Y-123841839D02*
X95557042Y-123803170D01*
X95557042Y-123803170D02*
X95554564Y-123799172D01*
X95554564Y-123799172D02*
X95558270Y-123768355D01*
X95558270Y-123768355D02*
X95577938Y-123700599D01*
X95577938Y-123700599D02*
X95610139Y-123604839D01*
X95610139Y-123604839D02*
X95651444Y-123490009D01*
X95651444Y-123490009D02*
X95698424Y-123365044D01*
X95698424Y-123365044D02*
X95747650Y-123238879D01*
X95747650Y-123238879D02*
X95795691Y-123120448D01*
X95795691Y-123120448D02*
X95839118Y-123018685D01*
X95839118Y-123018685D02*
X95874503Y-122942526D01*
X95874503Y-122942526D02*
X95898415Y-122900904D01*
X95898415Y-122900904D02*
X95900115Y-122898908D01*
X95900115Y-122898908D02*
X95914737Y-122887013D01*
X95914737Y-122887013D02*
X95939434Y-122875250D01*
X95939434Y-122875250D02*
X95979627Y-122862401D01*
X95979627Y-122862401D02*
X96040736Y-122847249D01*
X96040736Y-122847249D02*
X96128182Y-122828576D01*
X96128182Y-122828576D02*
X96247387Y-122805165D01*
X96247387Y-122805165D02*
X96403772Y-122775797D01*
X96403772Y-122775797D02*
X96602756Y-122739255D01*
X96602756Y-122739255D02*
X96645839Y-122731398D01*
X96645839Y-122731398D02*
X96773529Y-122706727D01*
X96773529Y-122706727D02*
X96884846Y-122682593D01*
X96884846Y-122682593D02*
X96969954Y-122661324D01*
X96969954Y-122661324D02*
X97019016Y-122645248D01*
X97019016Y-122645248D02*
X97025594Y-122641500D01*
X97025594Y-122641500D02*
X97036435Y-122608273D01*
X97036435Y-122608273D02*
X97045246Y-122534021D01*
X97045246Y-122534021D02*
X97052023Y-122427376D01*
X97052023Y-122427376D02*
X97056759Y-122296967D01*
X97056759Y-122296967D02*
X97059449Y-122151427D01*
X97059449Y-122151427D02*
X97060086Y-121999386D01*
X97060086Y-121999386D02*
X97058665Y-121849476D01*
X97058665Y-121849476D02*
X97055179Y-121710328D01*
X97055179Y-121710328D02*
X97049623Y-121590572D01*
X97049623Y-121590572D02*
X97041991Y-121498841D01*
X97041991Y-121498841D02*
X97032277Y-121443766D01*
X97032277Y-121443766D02*
X97026421Y-121432493D01*
X97026421Y-121432493D02*
X96993819Y-121421123D01*
X96993819Y-121421123D02*
X96919581Y-121402624D01*
X96919581Y-121402624D02*
X96811103Y-121378602D01*
X96811103Y-121378602D02*
X96675782Y-121350662D01*
X96675782Y-121350662D02*
X96521014Y-121320408D01*
X96521014Y-121320408D02*
X96436692Y-121304551D01*
X96436692Y-121304551D02*
X96276703Y-121274644D01*
X96276703Y-121274644D02*
X96134032Y-121247550D01*
X96134032Y-121247550D02*
X96015651Y-121224631D01*
X96015651Y-121224631D02*
X95928534Y-121207243D01*
X95928534Y-121207243D02*
X95879654Y-121196747D01*
X95879654Y-121196747D02*
X95871609Y-121194420D01*
X95871609Y-121194420D02*
X95858012Y-121168186D01*
X95858012Y-121168186D02*
X95829270Y-121104995D01*
X95829270Y-121104995D02*
X95789214Y-121013877D01*
X95789214Y-121013877D02*
X95741675Y-120903857D01*
X95741675Y-120903857D02*
X95690484Y-120783965D01*
X95690484Y-120783965D02*
X95639473Y-120663227D01*
X95639473Y-120663227D02*
X95592473Y-120550671D01*
X95592473Y-120550671D02*
X95553315Y-120455326D01*
X95553315Y-120455326D02*
X95525830Y-120386217D01*
X95525830Y-120386217D02*
X95513850Y-120352374D01*
X95513850Y-120352374D02*
X95513627Y-120350895D01*
X95513627Y-120350895D02*
X95527208Y-120324197D01*
X95527208Y-120324197D02*
X95565284Y-120262760D01*
X95565284Y-120262760D02*
X95623852Y-120172689D01*
X95623852Y-120172689D02*
X95698911Y-120060090D01*
X95698911Y-120060090D02*
X95786459Y-119931070D01*
X95786459Y-119931070D02*
X95837352Y-119856961D01*
X95837352Y-119856961D02*
X95930090Y-119721077D01*
X95930090Y-119721077D02*
X96012458Y-119597709D01*
X96012458Y-119597709D02*
X96080438Y-119493097D01*
X96080438Y-119493097D02*
X96130011Y-119413483D01*
X96130011Y-119413483D02*
X96157157Y-119365107D01*
X96157157Y-119365107D02*
X96161078Y-119354262D01*
X96161078Y-119354262D02*
X96144224Y-119329020D01*
X96144224Y-119329020D02*
X96097631Y-119275124D01*
X96097631Y-119275124D02*
X96027251Y-119198613D01*
X96027251Y-119198613D02*
X95939034Y-119105523D01*
X95939034Y-119105523D02*
X95838934Y-119001895D01*
X95838934Y-119001895D02*
X95732901Y-118893764D01*
X95732901Y-118893764D02*
X95626888Y-118787170D01*
X95626888Y-118787170D02*
X95526847Y-118688150D01*
X95526847Y-118688150D02*
X95438729Y-118602742D01*
X95438729Y-118602742D02*
X95368486Y-118536985D01*
X95368486Y-118536985D02*
X95322071Y-118496916D01*
X95322071Y-118496916D02*
X95306543Y-118487353D01*
X95306543Y-118487353D02*
X95281260Y-118500800D01*
X95281260Y-118500800D02*
X95220788Y-118538575D01*
X95220788Y-118538575D02*
X95131007Y-118596835D01*
X95131007Y-118596835D02*
X95017796Y-118671734D01*
X95017796Y-118671734D02*
X94887036Y-118759425D01*
X94887036Y-118759425D02*
X94788400Y-118826233D01*
X94788400Y-118826233D02*
X94290042Y-119165112D01*
X94290042Y-119165112D02*
X93874629Y-118993865D01*
X93874629Y-118993865D02*
X93459215Y-118822618D01*
X93459215Y-118822618D02*
X93346633Y-118225427D01*
X93346633Y-118225427D02*
X93234050Y-117628235D01*
X93234050Y-117628235D02*
X91991047Y-117628235D01*
X91991047Y-117628235D02*
X91878464Y-118225427D01*
X91878464Y-118225427D02*
X91878464Y-118225427D01*
G36*
X93346633Y-118225427D02*
G01*
X93459215Y-118822618D01*
X93874629Y-118993865D01*
X94290042Y-119165112D01*
X94788400Y-118826233D01*
X94887036Y-118759425D01*
X95017796Y-118671734D01*
X95131007Y-118596835D01*
X95220788Y-118538575D01*
X95281260Y-118500800D01*
X95306543Y-118487353D01*
X95322071Y-118496916D01*
X95368486Y-118536985D01*
X95438729Y-118602742D01*
X95526847Y-118688150D01*
X95626888Y-118787170D01*
X95732901Y-118893764D01*
X95838934Y-119001895D01*
X95939034Y-119105523D01*
X96027251Y-119198613D01*
X96097631Y-119275124D01*
X96144224Y-119329020D01*
X96161078Y-119354262D01*
X96157157Y-119365107D01*
X96130011Y-119413483D01*
X96080438Y-119493097D01*
X96012458Y-119597709D01*
X95930090Y-119721077D01*
X95837352Y-119856961D01*
X95786459Y-119931070D01*
X95698911Y-120060090D01*
X95623852Y-120172689D01*
X95565284Y-120262760D01*
X95527208Y-120324197D01*
X95513627Y-120350895D01*
X95513850Y-120352374D01*
X95525830Y-120386217D01*
X95553315Y-120455326D01*
X95592473Y-120550671D01*
X95639473Y-120663227D01*
X95690484Y-120783965D01*
X95741675Y-120903857D01*
X95789214Y-121013877D01*
X95829270Y-121104995D01*
X95858012Y-121168186D01*
X95871609Y-121194420D01*
X95879654Y-121196747D01*
X95928534Y-121207243D01*
X96015651Y-121224631D01*
X96134032Y-121247550D01*
X96276703Y-121274644D01*
X96436692Y-121304551D01*
X96521014Y-121320408D01*
X96675782Y-121350662D01*
X96811103Y-121378602D01*
X96919581Y-121402624D01*
X96993819Y-121421123D01*
X97026421Y-121432493D01*
X97032277Y-121443766D01*
X97041991Y-121498841D01*
X97049623Y-121590572D01*
X97055179Y-121710328D01*
X97058665Y-121849476D01*
X97060086Y-121999386D01*
X97059449Y-122151427D01*
X97056759Y-122296967D01*
X97052023Y-122427376D01*
X97045246Y-122534021D01*
X97036435Y-122608273D01*
X97025594Y-122641500D01*
X97019016Y-122645248D01*
X96969954Y-122661324D01*
X96884846Y-122682593D01*
X96773529Y-122706727D01*
X96645839Y-122731398D01*
X96602756Y-122739255D01*
X96403772Y-122775797D01*
X96247387Y-122805165D01*
X96128182Y-122828576D01*
X96040736Y-122847249D01*
X95979627Y-122862401D01*
X95939434Y-122875250D01*
X95914737Y-122887013D01*
X95900115Y-122898908D01*
X95898415Y-122900904D01*
X95874503Y-122942526D01*
X95839118Y-123018685D01*
X95795691Y-123120448D01*
X95747650Y-123238879D01*
X95698424Y-123365044D01*
X95651444Y-123490009D01*
X95610139Y-123604839D01*
X95577938Y-123700599D01*
X95558270Y-123768355D01*
X95554564Y-123799172D01*
X95557042Y-123803170D01*
X95582688Y-123841839D01*
X95630919Y-123913162D01*
X95697261Y-124010569D01*
X95777245Y-124127489D01*
X95866397Y-124257353D01*
X95890864Y-124293083D01*
X95976902Y-124421245D01*
X96051258Y-124535863D01*
X96109687Y-124630142D01*
X96147946Y-124697284D01*
X96161791Y-124730490D01*
X96158808Y-124739220D01*
X96127710Y-124782237D01*
X96066354Y-124852485D01*
X95979136Y-124945234D01*
X95870448Y-125055757D01*
X95744684Y-125179326D01*
X95672799Y-125248490D01*
X95559139Y-125356212D01*
X95459656Y-125448480D01*
X95379694Y-125520436D01*
X95324594Y-125567223D01*
X95299697Y-125583982D01*
X95282592Y-125577770D01*
X95229928Y-125548381D01*
X95153448Y-125500318D01*
X95063128Y-125439667D01*
X94998911Y-125395408D01*
X94870704Y-125307516D01*
X94733893Y-125214170D01*
X94608931Y-125129346D01*
X94364136Y-124963770D01*
X94158649Y-125074875D01*
X94110263Y-125100520D01*
X94022269Y-125144385D01*
X93954222Y-125174669D01*
X93917855Y-125185961D01*
X93905953Y-125171460D01*
X93876399Y-125116247D01*
X93832747Y-125025217D01*
X93777425Y-124904147D01*
X93712862Y-124758814D01*
X93641488Y-124594996D01*
X93565731Y-124418468D01*
X93488021Y-124235008D01*
X93410786Y-124050393D01*
X93336455Y-123870401D01*
X93267457Y-123700807D01*
X93206222Y-123547390D01*
X93155178Y-123415925D01*
X93116754Y-123312191D01*
X93093379Y-123241964D01*
X93087482Y-123211021D01*
X93087882Y-123210117D01*
X93115348Y-123181512D01*
X93172798Y-123136712D01*
X93248372Y-123085006D01*
X93272226Y-123069217D01*
X93453734Y-122919429D01*
X93603952Y-122741022D01*
X93719326Y-122541420D01*
X93796299Y-122328052D01*
X93831313Y-122108342D01*
X93820812Y-121889717D01*
X93778276Y-121695266D01*
X93701902Y-121498912D01*
X93590564Y-121323739D01*
X93437773Y-121157337D01*
X93377738Y-121104179D01*
X93183657Y-120973206D01*
X92973998Y-120884999D01*
X92754836Y-120838767D01*
X92532246Y-120833722D01*
X92312306Y-120869075D01*
X92101089Y-120944034D01*
X91904672Y-121057812D01*
X91729131Y-121209618D01*
X91580541Y-121398664D01*
X91551973Y-121445479D01*
X91454872Y-121659459D01*
X91403302Y-121882281D01*
X91395913Y-122108177D01*
X91431354Y-122331374D01*
X91508275Y-122546102D01*
X91625325Y-122746591D01*
X91781154Y-122927069D01*
X91974412Y-123081765D01*
X91980688Y-123085934D01*
X92055461Y-123138625D01*
X92111503Y-123183424D01*
X92137099Y-123211021D01*
X92133869Y-123232657D01*
X92113789Y-123295654D01*
X92078183Y-123393293D01*
X92029479Y-123519797D01*
X91970107Y-123669387D01*
X91902493Y-123836285D01*
X91829065Y-124014712D01*
X91752253Y-124198891D01*
X91674483Y-124383042D01*
X91598184Y-124561388D01*
X91525783Y-124728150D01*
X91459709Y-124877549D01*
X91402391Y-125003809D01*
X91356254Y-125101149D01*
X91323729Y-125163793D01*
X91307242Y-125185961D01*
X91293532Y-125182958D01*
X91239669Y-125161381D01*
X91160063Y-125123548D01*
X91066449Y-125074875D01*
X90860961Y-124963770D01*
X90616166Y-125129346D01*
X90543844Y-125178375D01*
X90409325Y-125269984D01*
X90275214Y-125361740D01*
X90161969Y-125439667D01*
X90099470Y-125482136D01*
X90018238Y-125534899D01*
X89958008Y-125571020D01*
X89928590Y-125584412D01*
X89915952Y-125578726D01*
X89870266Y-125543900D01*
X89799837Y-125482584D01*
X89710795Y-125400809D01*
X89609271Y-125304606D01*
X89501394Y-125200006D01*
X89393294Y-125093041D01*
X89291102Y-124989740D01*
X89200949Y-124896137D01*
X89128964Y-124818261D01*
X89081277Y-124762144D01*
X89064019Y-124733817D01*
X89065014Y-124728427D01*
X89085554Y-124684559D01*
X89129433Y-124608662D01*
X89192411Y-124507591D01*
X89270247Y-124388203D01*
X89358701Y-124257353D01*
X89383508Y-124221260D01*
X89470617Y-124094255D01*
X89547346Y-123981973D01*
X89609223Y-123890985D01*
X89651776Y-123827861D01*
X89670533Y-123799172D01*
X89670994Y-123797942D01*
X89665458Y-123762843D01*
X89644319Y-123691739D01*
X89611004Y-123593565D01*
X89568944Y-123477257D01*
X89521569Y-123351748D01*
X89472307Y-123225973D01*
X89424588Y-123108867D01*
X89381841Y-123009365D01*
X89347496Y-122936400D01*
X89324982Y-122898908D01*
X89322727Y-122896580D01*
X89306607Y-122884804D01*
X89279382Y-122872928D01*
X89235632Y-122859736D01*
X89169934Y-122844009D01*
X89076869Y-122824529D01*
X88951015Y-122800079D01*
X88786952Y-122769441D01*
X88579258Y-122731398D01*
X88536180Y-122723391D01*
X88412776Y-122698639D01*
X88308971Y-122675188D01*
X88234600Y-122655365D01*
X88199503Y-122641500D01*
X88193631Y-122629932D01*
X88183842Y-122574365D01*
X88176084Y-122482245D01*
X88170364Y-122362206D01*
X88166688Y-122222877D01*
X88165061Y-122072890D01*
X88165490Y-121920876D01*
X88167981Y-121775467D01*
X88172539Y-121645292D01*
X88179170Y-121538985D01*
X88187881Y-121465174D01*
X88198676Y-121432493D01*
X88209698Y-121427665D01*
X88264530Y-121412446D01*
X88357212Y-121390921D01*
X88480350Y-121364694D01*
X88626547Y-121335369D01*
X88788406Y-121304551D01*
X88876783Y-121288086D01*
X89028258Y-121259534D01*
X89158639Y-121234532D01*
X89260954Y-121214440D01*
X89328227Y-121200617D01*
X89353488Y-121194420D01*
X89354438Y-121193143D01*
X89370525Y-121160692D01*
X89401193Y-121092707D01*
X89442610Y-120998209D01*
X89490940Y-120886219D01*
X89542353Y-120765755D01*
X89593013Y-120645839D01*
X89639088Y-120535490D01*
X89676745Y-120443728D01*
X89702150Y-120379574D01*
X89711470Y-120352047D01*
X89707359Y-120342361D01*
X89679999Y-120296273D01*
X89630369Y-120218695D01*
X89562459Y-120115716D01*
X89480254Y-119993422D01*
X89387745Y-119857901D01*
X89336991Y-119783684D01*
X89249402Y-119653564D01*
X89174306Y-119539367D01*
X89115706Y-119447321D01*
X89077608Y-119383653D01*
X89064019Y-119354592D01*
X89073462Y-119338828D01*
X89112959Y-119291726D01*
X89177757Y-119220441D01*
X89261908Y-119131015D01*
X89359463Y-119029487D01*
X89464473Y-118921898D01*
X89570992Y-118814289D01*
X89673070Y-118712700D01*
X89764759Y-118623172D01*
X89840111Y-118551744D01*
X89893179Y-118504458D01*
X89918013Y-118487353D01*
X89931798Y-118494004D01*
X89982417Y-118524847D01*
X90064104Y-118577338D01*
X90170971Y-118647630D01*
X90297131Y-118731877D01*
X90436698Y-118826233D01*
X90935055Y-119165112D01*
X91350469Y-118993865D01*
X91765882Y-118822618D01*
X91878464Y-118225427D01*
X91991047Y-117628235D01*
X93234050Y-117628235D01*
X93346633Y-118225427D01*
G37*
X93346633Y-118225427D02*
X93459215Y-118822618D01*
X93874629Y-118993865D01*
X94290042Y-119165112D01*
X94788400Y-118826233D01*
X94887036Y-118759425D01*
X95017796Y-118671734D01*
X95131007Y-118596835D01*
X95220788Y-118538575D01*
X95281260Y-118500800D01*
X95306543Y-118487353D01*
X95322071Y-118496916D01*
X95368486Y-118536985D01*
X95438729Y-118602742D01*
X95526847Y-118688150D01*
X95626888Y-118787170D01*
X95732901Y-118893764D01*
X95838934Y-119001895D01*
X95939034Y-119105523D01*
X96027251Y-119198613D01*
X96097631Y-119275124D01*
X96144224Y-119329020D01*
X96161078Y-119354262D01*
X96157157Y-119365107D01*
X96130011Y-119413483D01*
X96080438Y-119493097D01*
X96012458Y-119597709D01*
X95930090Y-119721077D01*
X95837352Y-119856961D01*
X95786459Y-119931070D01*
X95698911Y-120060090D01*
X95623852Y-120172689D01*
X95565284Y-120262760D01*
X95527208Y-120324197D01*
X95513627Y-120350895D01*
X95513850Y-120352374D01*
X95525830Y-120386217D01*
X95553315Y-120455326D01*
X95592473Y-120550671D01*
X95639473Y-120663227D01*
X95690484Y-120783965D01*
X95741675Y-120903857D01*
X95789214Y-121013877D01*
X95829270Y-121104995D01*
X95858012Y-121168186D01*
X95871609Y-121194420D01*
X95879654Y-121196747D01*
X95928534Y-121207243D01*
X96015651Y-121224631D01*
X96134032Y-121247550D01*
X96276703Y-121274644D01*
X96436692Y-121304551D01*
X96521014Y-121320408D01*
X96675782Y-121350662D01*
X96811103Y-121378602D01*
X96919581Y-121402624D01*
X96993819Y-121421123D01*
X97026421Y-121432493D01*
X97032277Y-121443766D01*
X97041991Y-121498841D01*
X97049623Y-121590572D01*
X97055179Y-121710328D01*
X97058665Y-121849476D01*
X97060086Y-121999386D01*
X97059449Y-122151427D01*
X97056759Y-122296967D01*
X97052023Y-122427376D01*
X97045246Y-122534021D01*
X97036435Y-122608273D01*
X97025594Y-122641500D01*
X97019016Y-122645248D01*
X96969954Y-122661324D01*
X96884846Y-122682593D01*
X96773529Y-122706727D01*
X96645839Y-122731398D01*
X96602756Y-122739255D01*
X96403772Y-122775797D01*
X96247387Y-122805165D01*
X96128182Y-122828576D01*
X96040736Y-122847249D01*
X95979627Y-122862401D01*
X95939434Y-122875250D01*
X95914737Y-122887013D01*
X95900115Y-122898908D01*
X95898415Y-122900904D01*
X95874503Y-122942526D01*
X95839118Y-123018685D01*
X95795691Y-123120448D01*
X95747650Y-123238879D01*
X95698424Y-123365044D01*
X95651444Y-123490009D01*
X95610139Y-123604839D01*
X95577938Y-123700599D01*
X95558270Y-123768355D01*
X95554564Y-123799172D01*
X95557042Y-123803170D01*
X95582688Y-123841839D01*
X95630919Y-123913162D01*
X95697261Y-124010569D01*
X95777245Y-124127489D01*
X95866397Y-124257353D01*
X95890864Y-124293083D01*
X95976902Y-124421245D01*
X96051258Y-124535863D01*
X96109687Y-124630142D01*
X96147946Y-124697284D01*
X96161791Y-124730490D01*
X96158808Y-124739220D01*
X96127710Y-124782237D01*
X96066354Y-124852485D01*
X95979136Y-124945234D01*
X95870448Y-125055757D01*
X95744684Y-125179326D01*
X95672799Y-125248490D01*
X95559139Y-125356212D01*
X95459656Y-125448480D01*
X95379694Y-125520436D01*
X95324594Y-125567223D01*
X95299697Y-125583982D01*
X95282592Y-125577770D01*
X95229928Y-125548381D01*
X95153448Y-125500318D01*
X95063128Y-125439667D01*
X94998911Y-125395408D01*
X94870704Y-125307516D01*
X94733893Y-125214170D01*
X94608931Y-125129346D01*
X94364136Y-124963770D01*
X94158649Y-125074875D01*
X94110263Y-125100520D01*
X94022269Y-125144385D01*
X93954222Y-125174669D01*
X93917855Y-125185961D01*
X93905953Y-125171460D01*
X93876399Y-125116247D01*
X93832747Y-125025217D01*
X93777425Y-124904147D01*
X93712862Y-124758814D01*
X93641488Y-124594996D01*
X93565731Y-124418468D01*
X93488021Y-124235008D01*
X93410786Y-124050393D01*
X93336455Y-123870401D01*
X93267457Y-123700807D01*
X93206222Y-123547390D01*
X93155178Y-123415925D01*
X93116754Y-123312191D01*
X93093379Y-123241964D01*
X93087482Y-123211021D01*
X93087882Y-123210117D01*
X93115348Y-123181512D01*
X93172798Y-123136712D01*
X93248372Y-123085006D01*
X93272226Y-123069217D01*
X93453734Y-122919429D01*
X93603952Y-122741022D01*
X93719326Y-122541420D01*
X93796299Y-122328052D01*
X93831313Y-122108342D01*
X93820812Y-121889717D01*
X93778276Y-121695266D01*
X93701902Y-121498912D01*
X93590564Y-121323739D01*
X93437773Y-121157337D01*
X93377738Y-121104179D01*
X93183657Y-120973206D01*
X92973998Y-120884999D01*
X92754836Y-120838767D01*
X92532246Y-120833722D01*
X92312306Y-120869075D01*
X92101089Y-120944034D01*
X91904672Y-121057812D01*
X91729131Y-121209618D01*
X91580541Y-121398664D01*
X91551973Y-121445479D01*
X91454872Y-121659459D01*
X91403302Y-121882281D01*
X91395913Y-122108177D01*
X91431354Y-122331374D01*
X91508275Y-122546102D01*
X91625325Y-122746591D01*
X91781154Y-122927069D01*
X91974412Y-123081765D01*
X91980688Y-123085934D01*
X92055461Y-123138625D01*
X92111503Y-123183424D01*
X92137099Y-123211021D01*
X92133869Y-123232657D01*
X92113789Y-123295654D01*
X92078183Y-123393293D01*
X92029479Y-123519797D01*
X91970107Y-123669387D01*
X91902493Y-123836285D01*
X91829065Y-124014712D01*
X91752253Y-124198891D01*
X91674483Y-124383042D01*
X91598184Y-124561388D01*
X91525783Y-124728150D01*
X91459709Y-124877549D01*
X91402391Y-125003809D01*
X91356254Y-125101149D01*
X91323729Y-125163793D01*
X91307242Y-125185961D01*
X91293532Y-125182958D01*
X91239669Y-125161381D01*
X91160063Y-125123548D01*
X91066449Y-125074875D01*
X90860961Y-124963770D01*
X90616166Y-125129346D01*
X90543844Y-125178375D01*
X90409325Y-125269984D01*
X90275214Y-125361740D01*
X90161969Y-125439667D01*
X90099470Y-125482136D01*
X90018238Y-125534899D01*
X89958008Y-125571020D01*
X89928590Y-125584412D01*
X89915952Y-125578726D01*
X89870266Y-125543900D01*
X89799837Y-125482584D01*
X89710795Y-125400809D01*
X89609271Y-125304606D01*
X89501394Y-125200006D01*
X89393294Y-125093041D01*
X89291102Y-124989740D01*
X89200949Y-124896137D01*
X89128964Y-124818261D01*
X89081277Y-124762144D01*
X89064019Y-124733817D01*
X89065014Y-124728427D01*
X89085554Y-124684559D01*
X89129433Y-124608662D01*
X89192411Y-124507591D01*
X89270247Y-124388203D01*
X89358701Y-124257353D01*
X89383508Y-124221260D01*
X89470617Y-124094255D01*
X89547346Y-123981973D01*
X89609223Y-123890985D01*
X89651776Y-123827861D01*
X89670533Y-123799172D01*
X89670994Y-123797942D01*
X89665458Y-123762843D01*
X89644319Y-123691739D01*
X89611004Y-123593565D01*
X89568944Y-123477257D01*
X89521569Y-123351748D01*
X89472307Y-123225973D01*
X89424588Y-123108867D01*
X89381841Y-123009365D01*
X89347496Y-122936400D01*
X89324982Y-122898908D01*
X89322727Y-122896580D01*
X89306607Y-122884804D01*
X89279382Y-122872928D01*
X89235632Y-122859736D01*
X89169934Y-122844009D01*
X89076869Y-122824529D01*
X88951015Y-122800079D01*
X88786952Y-122769441D01*
X88579258Y-122731398D01*
X88536180Y-122723391D01*
X88412776Y-122698639D01*
X88308971Y-122675188D01*
X88234600Y-122655365D01*
X88199503Y-122641500D01*
X88193631Y-122629932D01*
X88183842Y-122574365D01*
X88176084Y-122482245D01*
X88170364Y-122362206D01*
X88166688Y-122222877D01*
X88165061Y-122072890D01*
X88165490Y-121920876D01*
X88167981Y-121775467D01*
X88172539Y-121645292D01*
X88179170Y-121538985D01*
X88187881Y-121465174D01*
X88198676Y-121432493D01*
X88209698Y-121427665D01*
X88264530Y-121412446D01*
X88357212Y-121390921D01*
X88480350Y-121364694D01*
X88626547Y-121335369D01*
X88788406Y-121304551D01*
X88876783Y-121288086D01*
X89028258Y-121259534D01*
X89158639Y-121234532D01*
X89260954Y-121214440D01*
X89328227Y-121200617D01*
X89353488Y-121194420D01*
X89354438Y-121193143D01*
X89370525Y-121160692D01*
X89401193Y-121092707D01*
X89442610Y-120998209D01*
X89490940Y-120886219D01*
X89542353Y-120765755D01*
X89593013Y-120645839D01*
X89639088Y-120535490D01*
X89676745Y-120443728D01*
X89702150Y-120379574D01*
X89711470Y-120352047D01*
X89707359Y-120342361D01*
X89679999Y-120296273D01*
X89630369Y-120218695D01*
X89562459Y-120115716D01*
X89480254Y-119993422D01*
X89387745Y-119857901D01*
X89336991Y-119783684D01*
X89249402Y-119653564D01*
X89174306Y-119539367D01*
X89115706Y-119447321D01*
X89077608Y-119383653D01*
X89064019Y-119354592D01*
X89073462Y-119338828D01*
X89112959Y-119291726D01*
X89177757Y-119220441D01*
X89261908Y-119131015D01*
X89359463Y-119029487D01*
X89464473Y-118921898D01*
X89570992Y-118814289D01*
X89673070Y-118712700D01*
X89764759Y-118623172D01*
X89840111Y-118551744D01*
X89893179Y-118504458D01*
X89918013Y-118487353D01*
X89931798Y-118494004D01*
X89982417Y-118524847D01*
X90064104Y-118577338D01*
X90170971Y-118647630D01*
X90297131Y-118731877D01*
X90436698Y-118826233D01*
X90935055Y-119165112D01*
X91350469Y-118993865D01*
X91765882Y-118822618D01*
X91878464Y-118225427D01*
X91991047Y-117628235D01*
X93234050Y-117628235D01*
X93346633Y-118225427D01*
D16*
%TO.C,TP14*%
X67550000Y-101600000D02*
G75*
G03*
X67550000Y-101600000I-950000J0D01*
G01*
%TO.C,TP3*%
X68350000Y-73400000D02*
G75*
G03*
X68350000Y-73400000I-950000J0D01*
G01*
%TO.C,TP1*%
X63350000Y-73300000D02*
G75*
G03*
X63350000Y-73300000I-950000J0D01*
G01*
%TO.C,TP5*%
X62850000Y-86700000D02*
G75*
G03*
X62850000Y-86700000I-950000J0D01*
G01*
%TO.C,TP10*%
X239100000Y-74100000D02*
G75*
G03*
X239100000Y-74100000I-950000J0D01*
G01*
%TD*%
%LPC*%
D19*
%TO.C,H1*%
X226314000Y-73914000D03*
D20*
X226314000Y-73914000D03*
%TD*%
%TO.C,H2*%
X73279000Y-73914000D03*
D19*
X73279000Y-73914000D03*
%TD*%
D20*
%TO.C,H4*%
X73279000Y-121031000D03*
D19*
X73279000Y-121031000D03*
%TD*%
D21*
%TO.C,H5*%
X171577000Y-83312000D03*
D22*
X171577000Y-83312000D03*
%TD*%
D20*
%TO.C,H3*%
X226314000Y-121031000D03*
D19*
X226314000Y-121031000D03*
%TD*%
D23*
%TO.C,J5*%
X215492500Y-116350000D03*
D24*
X215492500Y-122350000D03*
D25*
X220192500Y-119350000D03*
%TD*%
D26*
%TO.C,TP6*%
X156200000Y-120050000D03*
%TD*%
D27*
%TO.C,U4*%
X236262500Y-116353000D03*
D28*
X236262500Y-118893000D03*
X236262500Y-121433000D03*
%TD*%
D29*
%TO.C,J4*%
X202370000Y-121055000D03*
D30*
X207370000Y-121055000D03*
%TD*%
D31*
%TO.C,J3*%
X110230000Y-76340000D03*
X110230000Y-71260000D03*
D32*
X112770000Y-76340000D03*
X112770000Y-71260000D03*
X115310000Y-76340000D03*
X115310000Y-71260000D03*
X117850000Y-76340000D03*
X117850000Y-71260000D03*
X120390000Y-76340000D03*
X120390000Y-71260000D03*
X122930000Y-76340000D03*
X122930000Y-71260000D03*
X125470000Y-76340000D03*
X125470000Y-71260000D03*
X128010000Y-76340000D03*
X128010000Y-71260000D03*
X130550000Y-76340000D03*
X130550000Y-71260000D03*
X133090000Y-76340000D03*
X133090000Y-71260000D03*
X135630000Y-76340000D03*
X135630000Y-71260000D03*
X138170000Y-76340000D03*
X138170000Y-71260000D03*
X140710000Y-76340000D03*
X140710000Y-71260000D03*
X143250000Y-76340000D03*
X143250000Y-71260000D03*
X145790000Y-76340000D03*
X145790000Y-71260000D03*
X148330000Y-76340000D03*
X148330000Y-71260000D03*
X150870000Y-76340000D03*
X150870000Y-71260000D03*
X153410000Y-76340000D03*
X153410000Y-71260000D03*
X155950000Y-76340000D03*
X155950000Y-71260000D03*
X158490000Y-76340000D03*
X158490000Y-71260000D03*
X161030000Y-76340000D03*
X161030000Y-71260000D03*
X163570000Y-76340000D03*
X163570000Y-71260000D03*
X166110000Y-76340000D03*
X166110000Y-71260000D03*
X168650000Y-76340000D03*
X168650000Y-71260000D03*
X171190000Y-76340000D03*
X171190000Y-71260000D03*
X173730000Y-76340000D03*
X173730000Y-71260000D03*
X176270000Y-76340000D03*
X176270000Y-71260000D03*
X178810000Y-76340000D03*
X178810000Y-71260000D03*
X181350000Y-76340000D03*
X181350000Y-71260000D03*
X183890000Y-76340000D03*
X183890000Y-71260000D03*
X186430000Y-76340000D03*
X186430000Y-71260000D03*
X188970000Y-76340000D03*
X188970000Y-71260000D03*
%TD*%
D33*
%TO.C,REF\u002A\u002A*%
X241200000Y-123100000D03*
%TD*%
%TO.C,REF\u002A\u002A*%
X235175000Y-69050000D03*
%TD*%
%TO.C,REF\u002A\u002A*%
X58650000Y-69950000D03*
%TD*%
D34*
%TO.C,J1*%
X240247500Y-106770000D03*
X237707500Y-106770000D03*
X240247500Y-104230000D03*
X237707500Y-104230000D03*
X240247500Y-101690000D03*
X237707500Y-101690000D03*
X240247500Y-99150000D03*
X237707500Y-99150000D03*
X240247500Y-96610000D03*
X237707500Y-96610000D03*
X240247500Y-94070000D03*
D35*
X237707500Y-94070000D03*
%TD*%
%TO.C,J2*%
X58847500Y-93950000D03*
D34*
X61387500Y-93950000D03*
X58847500Y-96490000D03*
X61387500Y-96490000D03*
X58847500Y-99030000D03*
X61387500Y-99030000D03*
X58847500Y-101570000D03*
X61387500Y-101570000D03*
X58847500Y-104110000D03*
X61387500Y-104110000D03*
X58847500Y-106650000D03*
X61387500Y-106650000D03*
%TD*%
D33*
%TO.C,REF\u002A\u002A*%
X58100000Y-123500000D03*
%TD*%
D36*
%TO.C,TP12*%
X59900000Y-73300000D03*
%TD*%
%TO.C,TP11*%
X57400000Y-73200000D03*
%TD*%
D37*
%TO.C,REF\u002A\u002A*%
X61100000Y-124500000D03*
%TD*%
D36*
%TO.C,TP15*%
X66600000Y-99000000D03*
%TD*%
%TO.C,TP2*%
X64900000Y-73400000D03*
%TD*%
%TO.C,TP4*%
X59400000Y-86700000D03*
%TD*%
D37*
%TO.C,REF\u002A\u002A*%
X61600000Y-69400000D03*
%TD*%
D36*
%TO.C,TP13*%
X60500000Y-113800000D03*
%TD*%
%TO.C,TP7*%
X66600000Y-96500000D03*
%TD*%
%TO.C,TP14*%
X66600000Y-101600000D03*
%TD*%
D37*
%TO.C,REF\u002A\u002A*%
X230400000Y-77400000D03*
%TD*%
D36*
%TO.C,TP3*%
X67400000Y-73400000D03*
%TD*%
%TO.C,TP1*%
X62400000Y-73300000D03*
%TD*%
D37*
%TO.C,REF\u002A\u002A*%
X241200000Y-120025000D03*
%TD*%
D36*
%TO.C,TP5*%
X61900000Y-86700000D03*
%TD*%
%TO.C,TP10*%
X238150000Y-74100000D03*
%TD*%
D38*
X217910000Y-90050000D03*
X218602500Y-80897500D03*
X219160000Y-90050000D03*
X218630000Y-84630000D03*
X116734450Y-89766926D03*
X113950688Y-89450688D03*
X117800000Y-84300000D03*
X114900000Y-84050000D03*
X141750000Y-84500500D03*
X73905743Y-89595633D03*
X141009669Y-89591706D03*
X71300000Y-89400000D03*
X147878528Y-84500500D03*
X110534574Y-89466802D03*
X142834339Y-89565659D03*
X107800688Y-89500688D03*
X150125458Y-84500500D03*
X148954539Y-89648948D03*
X160295016Y-84450500D03*
X111250000Y-84000000D03*
X159393090Y-89796490D03*
X108900000Y-83950000D03*
X166100000Y-84500000D03*
X80095463Y-89342379D03*
X163699500Y-89300000D03*
X77450688Y-89350688D03*
X175750000Y-89150000D03*
X104377611Y-89423764D03*
X174600000Y-89200000D03*
X101846692Y-89454683D03*
X105300000Y-84100000D03*
X102800000Y-84100000D03*
X86110106Y-89410106D03*
X83450688Y-89450688D03*
X98375682Y-89352193D03*
X95800000Y-89400000D03*
X93100000Y-84350000D03*
X207500000Y-88200000D03*
X88850500Y-84300000D03*
X92200688Y-89400688D03*
X99200000Y-84100000D03*
X89544744Y-89500000D03*
X96550000Y-84150000D03*
X72600000Y-112300000D03*
X83800000Y-121400000D03*
X93300000Y-112100000D03*
X101500000Y-122100000D03*
X63000000Y-84900000D03*
X100900000Y-122800000D03*
X62000000Y-84900000D03*
X92600000Y-112900000D03*
X83200000Y-122500000D03*
X72000000Y-113200000D03*
X61000000Y-84900000D03*
X82500000Y-123200000D03*
X71400000Y-114000000D03*
X92000000Y-113800000D03*
X100200000Y-123400000D03*
X188700000Y-124250000D03*
X179500000Y-114000000D03*
X65200000Y-84900000D03*
X128100000Y-121600000D03*
X175700000Y-120000000D03*
X158700000Y-114000000D03*
X137000000Y-114000000D03*
X147600000Y-121700000D03*
X164500000Y-122300000D03*
X188700000Y-123400000D03*
X148200000Y-121000000D03*
X165300000Y-121773500D03*
X137700000Y-113400000D03*
X128800000Y-120900000D03*
X159400000Y-113400000D03*
X66200000Y-84900000D03*
X180100000Y-113400000D03*
X175000000Y-120700000D03*
X148877708Y-120277708D03*
X67200000Y-84900000D03*
X129500000Y-119900000D03*
X188700000Y-122450000D03*
X174400000Y-121300000D03*
X166000000Y-121200000D03*
X138300000Y-112700000D03*
X180800000Y-112800000D03*
X160100000Y-112600000D03*
X200500000Y-106800000D03*
X192600000Y-120700000D03*
X199600000Y-106500000D03*
X191600000Y-120700000D03*
X194400000Y-120800000D03*
X204500000Y-106700000D03*
X193500000Y-120700000D03*
X201600000Y-106800000D03*
X124980000Y-118420000D03*
X190743750Y-119443750D03*
X136250000Y-109275000D03*
X67600000Y-109600000D03*
X240945000Y-77190000D03*
X177500000Y-120700000D03*
X104012500Y-76426500D03*
X81800000Y-118300000D03*
D39*
X59300000Y-91550000D03*
D38*
X91425000Y-109225000D03*
X99450000Y-118600000D03*
X58500000Y-80000000D03*
X163762500Y-118437500D03*
X146982500Y-118267500D03*
X178395000Y-109255000D03*
X113165000Y-119535000D03*
X57500000Y-118100000D03*
X58800000Y-72000000D03*
X157595000Y-109255000D03*
D39*
X115300000Y-97900000D03*
X134400000Y-89200000D03*
X164800000Y-85400000D03*
X97326500Y-89200000D03*
X127300000Y-98000000D03*
X139400000Y-98000000D03*
X128300000Y-89200000D03*
X145700000Y-98000000D03*
X199500000Y-87400000D03*
X72600000Y-97900000D03*
X186800000Y-87300000D03*
D38*
X196127708Y-109227708D03*
D39*
X152600000Y-89200000D03*
X163700000Y-98100000D03*
X206200000Y-98000000D03*
X146600000Y-89200000D03*
D38*
X175900000Y-109300000D03*
D39*
X180500000Y-87400000D03*
X73100000Y-89200000D03*
X85118837Y-89200000D03*
D38*
X57651214Y-119748786D03*
X134300000Y-109300000D03*
D39*
X79039504Y-89196963D03*
X164800000Y-89200000D03*
X161099999Y-85400001D03*
D38*
X122700000Y-109300000D03*
D39*
X87600000Y-85400000D03*
X91200000Y-89200000D03*
X84500000Y-98200000D03*
X115700000Y-89200000D03*
X169800000Y-98000000D03*
X122200000Y-89200000D03*
D38*
X111200000Y-109300000D03*
D39*
X139900000Y-89500000D03*
X158700000Y-89200000D03*
X78800000Y-85300000D03*
X182000000Y-98000000D03*
X78700000Y-97967447D03*
X194100000Y-98000000D03*
X200100000Y-98000000D03*
X188000000Y-97900000D03*
X109300000Y-98000000D03*
X84700000Y-85300000D03*
X121100000Y-98000000D03*
X109500000Y-89300000D03*
X193200000Y-87400000D03*
X103000000Y-97900000D03*
D38*
X88100000Y-109200000D03*
D39*
X70100000Y-79800000D03*
X133400000Y-98000000D03*
X103400000Y-89200000D03*
X73106243Y-85217396D03*
X157900000Y-97900000D03*
X175672205Y-97872205D03*
X97000000Y-98000000D03*
X158000000Y-85400000D03*
X151900000Y-98000000D03*
X205500000Y-87300000D03*
X90900000Y-98200000D03*
D38*
X155200000Y-109200000D03*
X63900000Y-80000000D03*
X59600000Y-116300000D03*
X108900000Y-123300000D03*
X57600000Y-114625000D03*
X227025000Y-89825000D03*
X116200000Y-123300000D03*
X68500000Y-77000000D03*
X125100000Y-121750000D03*
X182685445Y-116373500D03*
X125050000Y-119850000D03*
X140250000Y-116925000D03*
X125100000Y-120800000D03*
X162044309Y-116639756D03*
X125100000Y-122650000D03*
X194800000Y-123200000D03*
X66000000Y-89000000D03*
X116100000Y-119500000D03*
X116100000Y-120400000D03*
X61300000Y-80000000D03*
X60400000Y-80000000D03*
X116100000Y-121300000D03*
X105800000Y-121500000D03*
X59500000Y-80000000D03*
X64300000Y-89000000D03*
X105863249Y-119763250D03*
X123550000Y-89250000D03*
X119075000Y-102875000D03*
X117495000Y-102805000D03*
X122525000Y-97925000D03*
X129650000Y-89275000D03*
X122235000Y-102985000D03*
X120655000Y-102980000D03*
X128550000Y-97850000D03*
X135700000Y-89100000D03*
X125425000Y-102900000D03*
X134600000Y-97900000D03*
X123862292Y-102882292D03*
X141225000Y-102825000D03*
X141750000Y-89125000D03*
X126975000Y-102850000D03*
X140675000Y-97950000D03*
X147825000Y-89100000D03*
X144391666Y-102808334D03*
X146700000Y-97925000D03*
X142808333Y-102866667D03*
X153900000Y-89100000D03*
X147558332Y-102858332D03*
X152775000Y-97975000D03*
X145974999Y-102925001D03*
X150725000Y-102875000D03*
X160199001Y-89211533D03*
X158875000Y-97950000D03*
X149141665Y-102833335D03*
X166025000Y-89150000D03*
X166550000Y-102975000D03*
X164975000Y-102850000D03*
X165025000Y-98150000D03*
X171050000Y-97950000D03*
X168125000Y-102850000D03*
X176852708Y-97577708D03*
X169700000Y-102875000D03*
X181750000Y-87275000D03*
X171275000Y-102850000D03*
X183225000Y-97850000D03*
X172848708Y-102850844D03*
X188150000Y-87425000D03*
X174425000Y-102800000D03*
X188725000Y-102950000D03*
X189250000Y-97975000D03*
X194450000Y-87250000D03*
X190300000Y-102875000D03*
X191875000Y-102900000D03*
X195400000Y-98100000D03*
X193450000Y-102925000D03*
X200750000Y-87250000D03*
X195025000Y-102825000D03*
X201422023Y-97730111D03*
X196600000Y-102875000D03*
X207100000Y-87300000D03*
X198175000Y-102825000D03*
X204950000Y-97875000D03*
X116375000Y-97825000D03*
X114335000Y-102885000D03*
X75325000Y-89250000D03*
X81108333Y-102916667D03*
X115915000Y-102890000D03*
X117599001Y-89125000D03*
X79519863Y-102869863D03*
X73978170Y-97846830D03*
X110300000Y-97925000D03*
X111175000Y-102875000D03*
X81000000Y-89150000D03*
X84274999Y-102825001D03*
X112755000Y-102920000D03*
X111350000Y-89075000D03*
X79900000Y-97900000D03*
X82691666Y-102858334D03*
X108015000Y-102965000D03*
X104250000Y-97770478D03*
X87441665Y-102916665D03*
X87075000Y-89275000D03*
X105300000Y-89150000D03*
X109595000Y-102880000D03*
X85467000Y-98017954D03*
X85858332Y-102866668D03*
X104855000Y-102920000D03*
X98175000Y-97975000D03*
X93150000Y-89250000D03*
X103275000Y-102925000D03*
X106435000Y-102885000D03*
X99200000Y-89175000D03*
X108900000Y-122300000D03*
X116200000Y-122300000D03*
X68700000Y-101000000D03*
X74600000Y-116700000D03*
X111173500Y-120903319D03*
X95300000Y-116700000D03*
X111700000Y-121600000D03*
X67100000Y-77000000D03*
X65800000Y-77000000D03*
X64600000Y-77100000D03*
D39*
X61400000Y-76600000D03*
X106400000Y-97800000D03*
X142950000Y-97950000D03*
X185400000Y-97900000D03*
X76400000Y-89200000D03*
X58750000Y-75200000D03*
X203300000Y-87400000D03*
X156200000Y-89200000D03*
X121400000Y-120000000D03*
X125800000Y-89200000D03*
X184300000Y-87300000D03*
X60100000Y-108700000D03*
X88325000Y-98000000D03*
X179400000Y-98100000D03*
X190600000Y-87400000D03*
X124725000Y-97900000D03*
X144000000Y-89200000D03*
X197200000Y-98100000D03*
X134000000Y-124300000D03*
X162300000Y-89200000D03*
D38*
X211075000Y-98075000D03*
X161179895Y-116620104D03*
X62600000Y-80000000D03*
D39*
X112575000Y-97900000D03*
X136875000Y-98025000D03*
X196900000Y-87300000D03*
X137900000Y-89300000D03*
X150200000Y-89200000D03*
D38*
X139300000Y-116600000D03*
X164400000Y-114700000D03*
D39*
X100425000Y-97875000D03*
X70300000Y-89100000D03*
X131300000Y-120900000D03*
X191400000Y-98000000D03*
X155075000Y-98025000D03*
X167300000Y-98000000D03*
X113000000Y-89200000D03*
X82165879Y-89296544D03*
X94350000Y-98075000D03*
X203600000Y-98100000D03*
X161175000Y-97875000D03*
D38*
X105800000Y-120600000D03*
X225500000Y-101925000D03*
D39*
X119700000Y-89200000D03*
X88600000Y-89200000D03*
D38*
X223300000Y-101950000D03*
D39*
X173300000Y-98000000D03*
X100900000Y-89200000D03*
X149025000Y-97925000D03*
X70163714Y-98063714D03*
D38*
X225575000Y-83000000D03*
D39*
X167300000Y-120600000D03*
X82205503Y-97819497D03*
D38*
X241250000Y-72050000D03*
D39*
X76100000Y-98100000D03*
X118650000Y-98000000D03*
X130800000Y-97925000D03*
X94700000Y-89200000D03*
D38*
X64206033Y-94000000D03*
D39*
X102600000Y-122900000D03*
X131800000Y-89200000D03*
X106900000Y-89200000D03*
X178000000Y-87400000D03*
D38*
X242225000Y-79325000D03*
X209400000Y-103450000D03*
X213368750Y-105381250D03*
X226373480Y-101751520D03*
X226300000Y-96100000D03*
X224775000Y-96225000D03*
X224575000Y-101125000D03*
X97225000Y-71825000D03*
X214150000Y-96300000D03*
X211875000Y-83350000D03*
X225070469Y-98275000D03*
X212075000Y-95350000D03*
X223900000Y-99275000D03*
X210225000Y-95250000D03*
X162500000Y-78700000D03*
X216950000Y-86275000D03*
X105700000Y-75900000D03*
X217875000Y-87550000D03*
M02*
